<?xml version="1.0" encoding="utf-8"?>
<!-- Generator: Adobe Illustrator 24.0.2, SVG Export Plug-In . SVG Version: 6.00 Build 0)  -->
<svg version="1.1" xmlns="http://www.w3.org/2000/svg" xmlns:xlink="http://www.w3.org/1999/xlink" x="0px" y="0px"
	 viewBox="0 0 54 35" style="enable-background:new 0 0 54 35;" xml:space="preserve">
<style type="text/css">
	.st0{fill:#CFFFE6;}
	.st1{fill:#82FFBE;}
	.st2{fill:#C3FFE4;}
	.st3{fill:none;stroke:#575756;stroke-width:0.25;stroke-miterlimit:10;}
	.st4{fill:#F4F4F4;}
	.st5{fill:#FF7523;}
	.st6{fill:#00C65A;}
	.st7{fill:#E9E9E6;}
	.st8{opacity:0.75;}
	.st9{fill:#FFFFFF;}
	.st10{fill:#FF8800;}
	.st11{opacity:0.5;fill:none;stroke:#B2B2B2;stroke-miterlimit:10;}
	.st12{fill:#FFFFFF;stroke:#000000;stroke-width:0.25;stroke-miterlimit:10;}
	.st13{fill:#F8F8F8;}
	.st14{fill:#575756;}
	.st15{fill:#AFCA13;}
	.st16{clip-path:url(#SVGID_4_);}
	.st17{fill:#E52421;}
	.st18{fill:none;stroke:#3985FF;stroke-width:0.75;stroke-miterlimit:10;}
	.st19{fill:none;stroke:#000000;stroke-width:0.25;stroke-miterlimit:10;}
	.st20{fill:#0444BF;}
	.st21{fill:#0684F2;}
	.st22{fill:#FAFAFA;stroke:#E9E9E6;stroke-width:0.25;stroke-miterlimit:10;}
	.st23{fill:#F4F4F4;stroke:#FF8800;stroke-miterlimit:10;}
	.st24{fill:none;stroke:#FF8800;stroke-miterlimit:10;}
	.st25{fill:#00BE8C;}
	.st26{fill:none;stroke:#FFFFFF;stroke-width:3;stroke-miterlimit:10;}
	.st27{fill:#FF915F;}
	.st28{fill:#0079BF;}
	.st29{fill:#FFCD41;}
	.st30{fill:#F4F4F4;stroke:#FF8800;stroke-width:0.5;stroke-miterlimit:10;}
	.st31{fill:#00202B;}
	.st32{fill:none;stroke:#FFFFFF;stroke-width:6;stroke-miterlimit:10;}
	.st33{fill:none;stroke:#0444BF;stroke-width:0.75;stroke-miterlimit:10;}
	.st34{fill:#FFE90D;}
	.st35{opacity:0.5;fill:#E3ECFF;}
	.st36{fill:#AFFFFD;}
	.st37{fill:#FC910E;}
	.st38{fill:none;stroke:#EDEDED;stroke-miterlimit:10;}
	.st39{fill:none;stroke:#0684F2;stroke-width:0.5;stroke-linecap:round;stroke-linejoin:round;stroke-miterlimit:10;}
	.st40{fill:none;stroke:#0684F2;stroke-linecap:round;stroke-linejoin:round;stroke-miterlimit:10;}
	.st41{fill:#FFFFFF;stroke:#0684F2;stroke-linecap:round;stroke-linejoin:round;stroke-miterlimit:10;}
	.st42{fill:#FFFCF1;}
	.st43{fill:#DB5B00;}
	.st44{fill:#00AAFF;}
	.st45{fill:#F6BE00;}
	.st46{fill:#F1F2D0;}
	.st47{fill:#F5F9FF;}
	.st48{fill:none;stroke:#4A4A49;stroke-width:0.25;stroke-miterlimit:10;}
	.st49{fill:#0EFF97;}
	.st50{fill:#F8F9FA;}
	.st51{fill:#FFFFFF;stroke:#C6C6C6;stroke-width:0.25;stroke-miterlimit:10;}
	.st52{fill:#FF9922;}
	.st53{fill:none;stroke:#B2B2B2;stroke-width:0.25;stroke-miterlimit:10;}
	.st54{fill:none;stroke:#0AAFF1;stroke-miterlimit:10;}
	.st55{fill:none;stroke:#4A4A49;stroke-width:0.5;stroke-miterlimit:10;}
	.st56{fill:#CFFFE6;stroke:#4A4A49;stroke-width:0.5;stroke-linecap:round;stroke-linejoin:round;stroke-miterlimit:10;}
	.st57{fill:#FFFFFF;stroke:#F2F3F7;stroke-miterlimit:10;}
	.st58{fill:#5D5D5D;}
	.st59{fill:#FFFFFF;stroke:#DADADA;stroke-miterlimit:10;}
	.st60{fill:#F8F9FA;stroke:#B2B2B2;stroke-width:0.25;stroke-miterlimit:10;}
	.st61{fill:none;stroke:#0444BF;stroke-width:0.5;stroke-miterlimit:10;}
	.st62{opacity:0.3;fill:#0684F2;}
	.st63{fill:none;stroke:#0AAFF1;stroke-width:0.75;stroke-miterlimit:10;}
	.st64{fill:#C0CFF0;}
	.st65{fill:#FFFFFF;stroke:#C0CFF0;stroke-width:2;stroke-miterlimit:10;}
	.st66{fill:#D6E8FB;stroke:#C0CFF0;stroke-width:2;stroke-miterlimit:10;}
	.st67{fill:#FFFFFF;stroke:#C0CFF0;stroke-linecap:round;stroke-linejoin:round;stroke-miterlimit:10;}
	.st68{clip-path:url(#SVGID_12_);}
	.st69{fill:none;stroke:#C0CFF0;stroke-width:0.75;stroke-miterlimit:10;}
	.st70{fill:#E02107;}
	.st71{fill:#FFC715;}
	.st72{fill:#2B9FE0;}
	.st73{fill:#8FC912;}
	.st74{fill:#878787;}
	.st75{fill:none;stroke:#4A4A49;stroke-miterlimit:10;}
	.st76{fill:none;stroke:#C6C6C6;stroke-width:0.25;stroke-miterlimit:10;}
	.st77{fill:#FAFAFA;stroke:#DADADA;stroke-width:0.25;stroke-miterlimit:10;}
	.st78{fill:#FF9708;}
	.st79{fill:#D9FCEE;}
	.st80{fill:#EBF1FF;}
	.st81{fill:#F0F5FF;}
	.st82{fill:#E6633E;}
	.st83{fill:#0AAFF1;}
	.st84{fill:#4A4A49;}
	.st85{fill:#014B8E;}
	.st86{fill:#F57D31;}
	.st87{fill:#244298;}
	.st88{fill:#EB001B;}
	.st89{fill:#F79E1B;}
	.st90{fill:#FF5F00;}
	.st91{fill:#306FC5;}
	.st92{fill:#00529E;}
	.st93{fill:#34495E;}
	.st94{fill:#E0811D;}
	.st95{fill:#0F549D;}
	.st96{fill:#B41F36;}
	.st97{fill:#329947;}
	.st98{fill:#009ADE;}
	.st99{fill:#002F87;}
	.st100{fill:#002169;}
	.st101{fill:#EDEDED;}
	.st102{fill:#FBBA00;}
	.st103{fill:#0454CA;}
	.st104{clip-path:url(#SVGID_14_);}
	.st105{fill:none;stroke:#A69674;stroke-width:0.75;stroke-miterlimit:10;}
	.st106{fill:none;stroke:#9D9D9C;stroke-width:0.25;stroke-miterlimit:10;}
	.st107{clip-path:url(#SVGID_24_);}
	.st108{fill:#CFFFE6;stroke:#0684F2;stroke-linecap:round;stroke-linejoin:round;stroke-miterlimit:10;}
	.st109{fill:none;stroke:#494949;stroke-width:0.5;stroke-miterlimit:10;}
	.st110{fill:none;stroke:#494949;stroke-width:0.5;stroke-linecap:round;stroke-linejoin:round;stroke-miterlimit:10;}
	.st111{clip-path:url(#SVGID_26_);fill:#026847;}
	.st112{clip-path:url(#SVGID_26_);fill:#FFFFFF;}
	.st113{clip-path:url(#SVGID_26_);fill:#E52421;}
	.st114{clip-path:url(#SVGID_28_);fill:#006847;}
	.st115{clip-path:url(#SVGID_28_);fill:#ECE13C;}
	.st116{clip-path:url(#SVGID_28_);fill:#CF2011;}
	.st117{clip-path:url(#SVGID_30_);fill:#F8CD16;}
	.st118{clip-path:url(#SVGID_30_);fill:#00388F;}
	.st119{clip-path:url(#SVGID_30_);fill:#CA1126;}
	.st120{clip-path:url(#SVGID_32_);fill:#E52421;}
	.st121{clip-path:url(#SVGID_32_);fill:#FFFFFF;}
	.st122{clip-path:url(#SVGID_34_);}
	.st123{clip-path:url(#SVGID_36_);fill:#026847;}
	.st124{clip-path:url(#SVGID_36_);fill:#FFFFFF;}
	.st125{clip-path:url(#SVGID_36_);fill:#E52421;}
	.st126{clip-path:url(#SVGID_38_);fill:#006847;}
	.st127{clip-path:url(#SVGID_38_);fill:#ECE13C;}
	.st128{clip-path:url(#SVGID_38_);fill:#CF2011;}
	.st129{clip-path:url(#SVGID_40_);fill:#F8CD16;}
	.st130{clip-path:url(#SVGID_40_);fill:#00388F;}
	.st131{clip-path:url(#SVGID_40_);fill:#CA1126;}
	.st132{clip-path:url(#SVGID_42_);fill:#E52421;}
	.st133{clip-path:url(#SVGID_42_);fill:#FFFFFF;}
	.st134{fill-rule:evenodd;clip-rule:evenodd;fill:#00ACEC;}
	.st135{fill:#00ACEC;}
	.st136{fill:#EDEDEA;}
	.st137{fill:#B5FFD9;}
	.st138{fill:#9CFFCA;}
</style>
<g id="base">
	<g>
		<path class="st91" d="M50,35H4c-2.21,0-4-1.79-4-4V4c0-2.21,1.79-4,4-4h46c2.21,0,4,1.79,4,4v27C54,33.21,52.21,35,50,35z"/>
		<g>
			<path class="st9" d="M11.28,15.77l-0.19-0.42v0.02c0,0.54-0.43,0.97-0.97,0.97H7.26c-0.39,0-0.75-0.24-0.9-0.6l-0.29-0.71H4.44
				l-0.3,0.72c-0.15,0.36-0.5,0.59-0.89,0.59H1.72c-0.33,0-0.63-0.16-0.81-0.43c-0.18-0.27-0.21-0.62-0.08-0.92l2.52-5.88
				c0.15-0.36,0.5-0.59,0.89-0.59h2.09c0.39,0,0.74,0.23,0.89,0.59l0.52,1.23V9.5c0-0.54,0.43-0.97,0.98-0.97h2.29
				c0.38,0,0.72,0.22,0.88,0.57l0.92,2l0.84-1.97c0.15-0.36,0.5-0.59,0.89-0.59h2.34c0.2,0,0.37,0.07,0.52,0.18
				c0.15-0.1,0.33-0.18,0.53-0.18h4.7c0.18,0,0.34,0.06,0.49,0.15c0.14-0.09,0.3-0.15,0.49-0.15h3.24c0.83,0,1.52,0.03,2.19,0.41
				c0.07,0.04,0.12,0.09,0.18,0.14c0.15-0.32,0.48-0.55,0.86-0.55h1.44c0.49,0,0.87,0.36,0.94,0.83c0.63-0.55,1.48-0.83,2.64-0.83
				h1.36c0.22,0,0.42,0.07,0.58,0.19c0.17-0.13,0.37-0.19,0.58-0.19h2.11c0.38,0,0.74,0.23,0.89,0.59l0.51,1.21V9.5
				c0-0.54,0.43-0.97,0.98-0.97h2.14c0.34,0,0.65,0.18,0.83,0.47l0.67,1.11V9.5c0-0.54,0.44-0.97,0.98-0.97h1.44
				c0.54,0,0.97,0.43,0.97,0.97v5.88c0,0.54-0.44,0.97-0.97,0.97h-1.99c-0.34,0-0.66-0.18-0.83-0.47l-0.86-1.43v0.93
				c0,0.54-0.44,0.97-0.97,0.97h-2.87c-0.39,0-0.74-0.24-0.9-0.59l-0.3-0.71h-1.62l-0.29,0.7c-0.14,0.37-0.5,0.61-0.9,0.61h-1.64
				c-0.63,0-1.75-0.12-2.55-0.78c-0.09,0.44-0.46,0.78-0.94,0.78h-1.43c-0.16,0-0.31-0.05-0.44-0.12c-0.14,0.07-0.28,0.12-0.44,0.12
				h-1.42c-0.54,0-0.97-0.43-0.97-0.97l-0.01-0.74v-0.13c0-0.08,0-0.19-0.01-0.3c-0.06-0.01-0.15-0.01-0.27-0.01h-0.53v1.17
				c0,0.53-0.44,0.97-0.98,0.97h-1.4c-0.18,0-0.34-0.06-0.49-0.15c-0.14,0.09-0.3,0.15-0.49,0.15h-4.69c-0.2,0-0.37-0.07-0.53-0.18
				c-0.15,0.1-0.32,0.18-0.52,0.18h-1.44c-0.54,0-0.97-0.43-0.97-0.97v-0.02l-0.19,0.41c-0.15,0.35-0.5,0.58-0.89,0.58h-1.23
				C11.78,16.35,11.43,16.12,11.28,15.77L11.28,15.77z"/>
			<path class="st9" d="M50.08,26.47h-2.74c-0.4,0-0.74-0.25-0.89-0.59c-0.54,0.38-1.24,0.59-2.11,0.59h-2.74
				c-0.15,0-0.29-0.05-0.42-0.1c-0.13,0.06-0.27,0.1-0.42,0.1h-4.69c-0.16,0-0.3-0.05-0.43-0.11c-0.13,0.06-0.27,0.11-0.43,0.11
				h-1.41c-0.54,0-0.97-0.43-0.97-0.97v-0.86c0-0.08,0-0.21-0.01-0.31c-0.06,0-0.15-0.01-0.28-0.01H32v1.18
				c0,0.54-0.43,0.97-0.97,0.97h-1.41c-0.54,0-0.97-0.43-0.97-0.97v-1.5c-0.5,0.3-1.19,0.49-2.14,0.49h-0.78v1
				c0,0.54-0.43,0.97-0.97,0.97h-2.73c-0.27,0-0.54-0.12-0.73-0.32L20.28,25l-1.07,1.16c-0.18,0.19-0.45,0.31-0.71,0.31h-5.57
				c-0.54,0-0.97-0.43-0.97-0.97v-5.88c0-0.54,0.44-0.98,0.97-0.98h5.66c0.27,0,0.54,0.12,0.72,0.33l1.02,1.14l1.07-1.15
				c0.18-0.2,0.44-0.31,0.71-0.31h4.49c0.99,0,1.68,0.22,2.17,0.54c0.16-0.32,0.48-0.54,0.86-0.54h3.25c0.74,0,1.47,0.03,2.15,0.39
				c0.07,0.04,0.12,0.1,0.19,0.14c0.16-0.31,0.48-0.54,0.86-0.54h4.69c0.37,0,0.67,0.21,0.83,0.51c0.46-0.31,1.08-0.51,1.86-0.51
				h2.81c0.42,0,0.77,0.27,0.91,0.65c0.48-0.39,1.14-0.65,2.02-0.65H52c0.54,0,0.97,0.44,0.97,0.98v1.25c0,0.34-0.17,0.65-0.44,0.82
				c0,0.01,0.02,0.02,0.03,0.03c0.48,0.5,0.7,1.11,0.7,1.93C53.25,25.42,52.07,26.47,50.08,26.47L50.08,26.47z"/>
			<path class="st91" d="M28.26,12.65c0.37-0.14,0.99-0.63,0.99-1.56c0-0.66-0.27-1.04-0.71-1.31c-0.46-0.26-0.99-0.28-1.71-0.28
				H23.6v5.89h1.4v-2.14h1.51c0.51,0,0.82,0.05,1.03,0.25c0.26,0.28,0.22,0.79,0.22,1.15l0.01,0.74h1.42v-1.16
				c0-0.53-0.04-0.79-0.23-1.08C28.84,12.97,28.57,12.77,28.26,12.65L28.26,12.65z M27.41,11.91c-0.19,0.12-0.42,0.13-0.7,0.13
				h-1.71v-1.31h1.74c0.24,0,0.5,0.01,0.66,0.11c0.18,0.09,0.3,0.26,0.3,0.52C27.7,11.61,27.6,11.81,27.41,11.91L27.41,11.91z
				 M27.41,11.91"/>
			<rect x="30.07" y="9.5" class="st91" width="1.43" height="5.89"/>
			<path class="st91" d="M46.71,9.5v4.1l-2.47-4.1H42.1v5.57L39.72,9.5h-2.11l-1.99,4.63h-0.63c-0.37,0-0.76-0.07-0.98-0.31
				c-0.27-0.29-0.39-0.75-0.39-1.38c0-0.62,0.17-1.08,0.4-1.34c0.27-0.27,0.57-0.35,1.08-0.35h1.34V9.5h-1.36
				c-0.96,0-1.68,0.22-2.14,0.69c-0.6,0.63-0.75,1.43-0.75,2.3c0,1.07,0.26,1.75,0.75,2.25c0.49,0.5,1.35,0.65,2.04,0.65h1.64
				l0.53-1.31h2.92l0.55,1.31h2.87v-4.42l2.67,4.42h1.99V9.5H46.71z M37.66,12.84l0.96-2.35l0.98,2.35H37.66z M37.66,12.84"/>
			<path class="st91" d="M35.11,11.73c-0.33,0-0.37,0.04-0.4,0.07c-0.01,0.02-0.11,0.23-0.11,0.63c0,0.4,0.07,0.6,0.11,0.69
				c0.05,0.02,0.14,0.03,0.27,0.03l0.61-1.42H35.11z M35.11,11.73"/>
			<path class="st91" d="M40.75,20.84v-1.22h-4.69v5.89h4.69v-1.22l-3.29-0.01v-1.17h3.21v-1.2h-3.21v-1.07H40.75z M40.75,20.84"/>
			<path class="st91" d="M26.59,19.62h-4.49l-1.79,1.92l-1.73-1.92h-5.66v5.88h5.57l1.8-1.95l1.73,1.95h2.73v-1.97h1.75
				c1.23,0,2.45-0.34,2.45-1.98C28.96,19.93,27.7,19.62,26.59,19.62L26.59,19.62z M17.78,24.28h-3.45v-1.17h3.09v-1.21h-3.09v-1.07
				h3.52l1.54,1.71L17.78,24.28z M23.35,24.97l-2.16-2.4l2.16-2.32V24.97z M26.57,22.34h-1.82v-1.5h1.83c0.51,0,0.86,0.2,0.86,0.72
				C27.45,22.07,27.11,22.34,26.57,22.34L26.57,22.34z M26.57,22.34"/>
			<path class="st91" d="M34.28,22.77c0.37-0.15,1-0.62,1-1.56c0-0.67-0.28-1.04-0.72-1.31c-0.47-0.25-0.98-0.28-1.7-0.28h-3.24
				v5.89h1.41v-2.15h1.5c0.51,0,0.82,0.05,1.03,0.26c0.26,0.27,0.22,0.8,0.22,1.15v0.74h1.41v-1.16c0-0.52-0.03-0.79-0.23-1.07
				C34.85,23.1,34.6,22.88,34.28,22.77L34.28,22.77z M33.44,22.04c-0.19,0.11-0.42,0.12-0.7,0.12h-1.71v-1.32h1.73
				c0.25,0,0.5,0.01,0.67,0.1c0.18,0.1,0.29,0.28,0.29,0.53C33.72,21.72,33.61,21.93,33.44,22.04L33.44,22.04z M33.44,22.04"/>
			<path class="st91" d="M46.12,22.4c-0.32-0.32-0.84-0.45-1.61-0.47l-0.75-0.02c-0.24,0-0.4-0.02-0.55-0.07
				c-0.18-0.07-0.31-0.22-0.31-0.44c0-0.18,0.06-0.33,0.21-0.42c0.14-0.1,0.31-0.11,0.57-0.11h2.58v-1.25h-2.82
				c-1.47,0-2.01,0.9-2.01,1.75c0,1.86,1.65,1.78,2.96,1.82c0.25,0,0.39,0.04,0.5,0.13c0.1,0.08,0.17,0.22,0.17,0.39
				c0,0.16-0.06,0.29-0.16,0.38c-0.12,0.12-0.31,0.14-0.58,0.14H41.6v1.26h2.73c1.42,0,2.21-0.59,2.21-1.85
				C46.54,23.04,46.4,22.68,46.12,22.4L46.12,22.4z M46.12,22.4"/>
			<path class="st91" d="M14.54,9.5l-1.69,3.99L11.02,9.5H8.72v5.57L6.32,9.5H4.24l-2.52,5.88h1.52l0.55-1.31h2.93l0.54,1.31h2.86
				v-4.61l2.04,4.61h1.24l2.04-4.61l0,4.61h1.44V9.5H14.54z M4.3,12.84l0.95-2.35l0.96,2.35H4.3z M4.3,12.84"/>
			<path class="st91" d="M22.63,10.72V9.5h-4.7v5.89h4.7v-1.22h-3.29v-1.18h3.21v-1.2h-3.21v-1.06H22.63z M22.63,10.72"/>
			<path class="st91" d="M51.86,22.4c-0.32-0.32-0.84-0.45-1.6-0.47l-0.76-0.02c-0.24,0-0.39-0.02-0.55-0.07
				c-0.17-0.07-0.3-0.22-0.3-0.44c0-0.18,0.05-0.33,0.21-0.42c0.14-0.1,0.31-0.11,0.56-0.11H52v-1.25h-2.82
				c-1.47,0-2.01,0.9-2.01,1.75c0,1.86,1.65,1.78,2.96,1.82c0.25,0,0.39,0.04,0.5,0.13c0.1,0.08,0.17,0.22,0.17,0.39
				c0,0.16-0.07,0.29-0.17,0.38c-0.12,0.12-0.31,0.14-0.57,0.14h-2.73v1.26h2.74c1.41,0,2.2-0.59,2.2-1.85
				C52.29,23.04,52.14,22.68,51.86,22.4L51.86,22.4z M51.86,22.4"/>
		</g>
	</g>
</g>
<g id="guías">
</g>
</svg>
