<?xml version="1.0" encoding="utf-8"?>
<!-- Generator: Adobe Illustrator 24.0.2, SVG Export Plug-In . SVG Version: 6.00 Build 0)  -->
<svg version="1.1" id="Capa_1" xmlns="http://www.w3.org/2000/svg" xmlns:xlink="http://www.w3.org/1999/xlink" x="0px" y="0px"
	 viewBox="0 0 19 19" style="enable-background:new 0 0 19 19;" xml:space="preserve">
<style type="text/css">
	.st0{fill:#FF7012;}
	.st1{fill:#43BAFF;}
	.st2{fill:#FFFFFF;}
	.st3{fill:none;stroke:#FF7012;stroke-width:0.75;stroke-miterlimit:10;}
	.st4{fill:#F4F4F4;}
	.st5{fill:#4A4A49;}
	.st6{fill:#4A4A49;stroke:#FFFFFF;stroke-linecap:round;stroke-linejoin:round;stroke-miterlimit:10;}
	.st7{fill:none;stroke:#FFFFFF;stroke-linecap:round;stroke-linejoin:round;stroke-miterlimit:10;}
	.st8{fill:none;stroke:#FFFFFF;stroke-linecap:round;stroke-miterlimit:10;}
	.st9{fill:none;stroke:#4A4A49;stroke-linecap:round;stroke-miterlimit:10;}
	.st10{fill:#0684F2;}
	.st11{fill:#FFCB0D;}
	.st12{fill:#00C356;}
	.st13{fill:none;stroke:#FFFFFF;stroke-miterlimit:10;}
	.st14{fill:none;}
	.st15{fill:#FF4E55;}
	.st16{fill:none;stroke:#FF4E55;stroke-width:2.24;stroke-linecap:round;stroke-linejoin:round;stroke-miterlimit:10;}
	.st17{clip-path:url(#SVGID_2_);}
	.st18{fill:#E52421;}
	.st19{fill:#FF8610;}
	.st20{fill:#FFC200;}
	.st21{clip-path:url(#SVGID_4_);}
	.st22{fill:#F9DCA4;}
	.st23{fill:#DEC492;}
	.st24{fill:#677079;}
	.st25{fill:#FFE8BE;}
	.st26{fill:#434955;}
	.st27{fill:#1D1D1D;}
	.st28{fill:none;stroke:#FF7012;stroke-width:0.75;stroke-linecap:round;stroke-linejoin:round;stroke-miterlimit:10;}
	.st29{fill:#FFA2B0;}
	.st30{fill:none;stroke:#FF7012;stroke-miterlimit:10;}
	.st31{fill:#FF894B;}
	.st32{fill:none;stroke:#FF7012;stroke-linecap:round;stroke-linejoin:round;stroke-miterlimit:10;}
	.st33{fill:#0669BF;}
	.st34{fill:#0669BF;stroke:#FFFFFF;stroke-linecap:round;stroke-linejoin:round;stroke-miterlimit:10;}
	.st35{fill:#0444BF;}
	.st36{fill:#F2F6FF;}
	.st37{fill:#E7E7E7;}
	.st38{fill:#878787;}
	.st39{fill:#B2B2B2;}
	.st40{fill:#FFF8F0;}
	.st41{fill:#FFF1E3;}
	.st42{fill:none;stroke:#B2B2B2;stroke-width:0.5;stroke-miterlimit:10;}
	.st43{fill:#DADADA;}
	.st44{fill:none;stroke:#4A4A49;stroke-linecap:round;stroke-linejoin:round;stroke-miterlimit:10;}
	.st45{fill:none;stroke:#4A4A49;stroke-miterlimit:10;}
	.st46{fill:none;stroke:#F4F4F4;stroke-linecap:round;stroke-linejoin:round;stroke-miterlimit:10;}
	.st47{fill:none;stroke:#E7B600;stroke-miterlimit:10;}
	.st48{fill:none;stroke:#0684F2;stroke-miterlimit:10;}
	.st49{fill:#FF7012;stroke:#FFFFFF;stroke-linecap:round;stroke-linejoin:round;stroke-miterlimit:10;}
	.st50{fill:none;stroke:#606060;stroke-miterlimit:10;}
	.st51{fill:none;stroke:#FFFFFF;stroke-width:0.8;stroke-miterlimit:10;}
	.st52{fill:none;stroke:#FFFFFF;stroke-width:2;stroke-miterlimit:10;}
	.st53{fill:#FFFFFF;stroke:#FF7012;stroke-width:2;stroke-linecap:round;stroke-linejoin:round;stroke-miterlimit:10;}
	.st54{fill:none;stroke:#FF7012;stroke-width:2;stroke-linecap:round;stroke-linejoin:round;stroke-miterlimit:10;}
	.st55{fill:none;stroke:#FFFFFF;stroke-width:1.25;stroke-linecap:round;stroke-linejoin:round;stroke-miterlimit:10;}
	.st56{fill:none;stroke:#FF740D;stroke-width:2;stroke-linecap:round;stroke-linejoin:round;stroke-miterlimit:10;}
	.st57{fill:#4A4A49;stroke:#FFFFFF;stroke-miterlimit:10;}
	.st58{fill:#FF7012;stroke:#FFFFFF;stroke-miterlimit:10;}
</style>
<path class="st5" d="M9.5,0C4.25,0,0,4.25,0,9.5S4.25,19,9.5,19S19,14.75,19,9.5S14.75,0,9.5,0z M10.94,14.71
	c0,0.01-0.01,0.02-0.02,0.02l-1.23,0.41c-1.33,0.45-2.42-0.35-2.09-1.68l0.97-4.07c0.11-0.41,0.02-0.72-0.52-0.57L7.07,9.06
	C7.02,9.07,6.98,9.03,6.99,8.98l0.26-0.99c0.01-0.03,0.03-0.05,0.06-0.07L8.4,7.5c0.93-0.37,2.66-0.12,2.2,1.85
	c0,0-0.72,2.86-0.97,3.84c-0.12,0.47,0.11,0.62,0.42,0.6c0.46-0.03,1.03-0.23,1.17-0.28c0.01,0,0.03,0.01,0.02,0.02L10.94,14.71z
	 M10.41,6.32c-0.69,0-1.24-0.56-1.24-1.24s0.56-1.24,1.24-1.24s1.24,0.56,1.24,1.24S11.1,6.32,10.41,6.32z"/>
</svg>
