<?xml version="1.0" encoding="utf-8"?>
<!-- Generator: Adobe Illustrator 24.0.2, SVG Export Plug-In . SVG Version: 6.00 Build 0)  -->
<svg version="1.1" xmlns="http://www.w3.org/2000/svg" xmlns:xlink="http://www.w3.org/1999/xlink" x="0px" y="0px"
	 viewBox="0 0 63.12 35.49" style="enable-background:new 0 0 63.12 35.49;" xml:space="preserve">
<style type="text/css">
	.st0{fill:#CFFFE6;}
	.st1{fill:#82FFBE;}
	.st2{fill:#C3FFE4;}
	.st3{fill:none;stroke:#575756;stroke-width:0.25;stroke-miterlimit:10;}
	.st4{fill:#F4F4F4;}
	.st5{fill:#FF7523;}
	.st6{fill:#00C65A;}
	.st7{fill:#E9E9E6;}
	.st8{opacity:0.75;}
	.st9{fill:#FFFFFF;}
	.st10{fill:#FF8800;}
	.st11{opacity:0.5;fill:none;stroke:#B2B2B2;stroke-miterlimit:10;}
	.st12{fill:#FFFFFF;stroke:#000000;stroke-width:0.25;stroke-miterlimit:10;}
	.st13{fill:#F8F8F8;}
	.st14{fill:#575756;}
	.st15{fill:#AFCA13;}
	.st16{clip-path:url(#SVGID_4_);}
	.st17{fill:#E52421;}
	.st18{fill:none;stroke:#3985FF;stroke-width:0.75;stroke-miterlimit:10;}
	.st19{fill:none;stroke:#000000;stroke-width:0.25;stroke-miterlimit:10;}
	.st20{fill:#0444BF;}
	.st21{fill:#0684F2;}
	.st22{fill:#FAFAFA;stroke:#E9E9E6;stroke-width:0.25;stroke-miterlimit:10;}
	.st23{fill:#F4F4F4;stroke:#FF8800;stroke-miterlimit:10;}
	.st24{fill:none;stroke:#FF8800;stroke-miterlimit:10;}
	.st25{fill:#00BE8C;}
	.st26{fill:none;stroke:#FFFFFF;stroke-width:3;stroke-miterlimit:10;}
	.st27{fill:#FF915F;}
	.st28{fill:#0079BF;}
	.st29{fill:#FFCD41;}
	.st30{fill:#F4F4F4;stroke:#FF8800;stroke-width:0.5;stroke-miterlimit:10;}
	.st31{fill:#00202B;}
	.st32{fill:none;stroke:#FFFFFF;stroke-width:6;stroke-miterlimit:10;}
	.st33{fill:none;stroke:#0444BF;stroke-width:0.75;stroke-miterlimit:10;}
	.st34{fill:#FFE90D;}
	.st35{opacity:0.5;fill:#E3ECFF;}
	.st36{fill:#AFFFFD;}
	.st37{fill:#FC910E;}
	.st38{fill:none;stroke:#EDEDED;stroke-miterlimit:10;}
	.st39{fill:none;stroke:#0684F2;stroke-width:0.5;stroke-linecap:round;stroke-linejoin:round;stroke-miterlimit:10;}
	.st40{fill:none;stroke:#0684F2;stroke-linecap:round;stroke-linejoin:round;stroke-miterlimit:10;}
	.st41{fill:#FFFFFF;stroke:#0684F2;stroke-linecap:round;stroke-linejoin:round;stroke-miterlimit:10;}
	.st42{fill:#FFFCF1;}
	.st43{fill:#DB5B00;}
	.st44{fill:#00AAFF;}
	.st45{fill:#F6BE00;}
	.st46{fill:#F1F2D0;}
	.st47{fill:#F5F9FF;}
	.st48{fill:none;stroke:#4A4A49;stroke-width:0.25;stroke-miterlimit:10;}
	.st49{fill:#0EFF97;}
	.st50{fill:#F8F9FA;}
	.st51{fill:#FFFFFF;stroke:#C6C6C6;stroke-width:0.25;stroke-miterlimit:10;}
	.st52{fill:#FF9922;}
	.st53{fill:none;stroke:#B2B2B2;stroke-width:0.25;stroke-miterlimit:10;}
	.st54{fill:none;stroke:#0AAFF1;stroke-miterlimit:10;}
	.st55{fill:none;stroke:#4A4A49;stroke-width:0.5;stroke-miterlimit:10;}
	.st56{fill:#CFFFE6;stroke:#4A4A49;stroke-width:0.5;stroke-linecap:round;stroke-linejoin:round;stroke-miterlimit:10;}
	.st57{fill:#FFFFFF;stroke:#F2F3F7;stroke-miterlimit:10;}
	.st58{fill:#5D5D5D;}
	.st59{fill:#FFFFFF;stroke:#DADADA;stroke-miterlimit:10;}
	.st60{fill:#F8F9FA;stroke:#B2B2B2;stroke-width:0.25;stroke-miterlimit:10;}
	.st61{fill:none;stroke:#0444BF;stroke-width:0.5;stroke-miterlimit:10;}
	.st62{opacity:0.3;fill:#0684F2;}
	.st63{fill:none;stroke:#0AAFF1;stroke-width:0.75;stroke-miterlimit:10;}
	.st64{fill:#C0CFF0;}
	.st65{fill:#FFFFFF;stroke:#C0CFF0;stroke-width:2;stroke-miterlimit:10;}
	.st66{fill:#D6E8FB;stroke:#C0CFF0;stroke-width:2;stroke-miterlimit:10;}
	.st67{fill:#FFFFFF;stroke:#C0CFF0;stroke-linecap:round;stroke-linejoin:round;stroke-miterlimit:10;}
	.st68{clip-path:url(#SVGID_12_);}
	.st69{fill:none;stroke:#C0CFF0;stroke-width:0.75;stroke-miterlimit:10;}
	.st70{fill:#E02107;}
	.st71{fill:#FFC715;}
	.st72{fill:#2B9FE0;}
	.st73{fill:#8FC912;}
	.st74{fill:#878787;}
	.st75{fill:none;stroke:#4A4A49;stroke-miterlimit:10;}
	.st76{fill:none;stroke:#C6C6C6;stroke-width:0.25;stroke-miterlimit:10;}
	.st77{fill:#FAFAFA;stroke:#DADADA;stroke-width:0.25;stroke-miterlimit:10;}
	.st78{fill:#FF9708;}
	.st79{fill:#D9FCEE;}
	.st80{fill:#EBF1FF;}
	.st81{fill:#F0F5FF;}
	.st82{fill:#E6633E;}
	.st83{fill:#0AAFF1;}
	.st84{fill:#4A4A49;}
	.st85{fill:#014B8E;}
	.st86{fill:#F57D31;}
	.st87{fill:#244298;}
	.st88{fill:#EB001B;}
	.st89{fill:#F79E1B;}
	.st90{fill:#FF5F00;}
	.st91{fill:#306FC5;}
	.st92{fill:#00529E;}
	.st93{fill:#34495E;}
	.st94{fill:#E0811D;}
	.st95{fill:#0F549D;}
	.st96{fill:#B41F36;}
	.st97{fill:#329947;}
	.st98{fill:#009ADE;}
	.st99{fill:#002F87;}
	.st100{fill:#002169;}
	.st101{fill:#EDEDED;}
	.st102{fill:#FBBA00;}
	.st103{fill:#0454CA;}
	.st104{clip-path:url(#SVGID_14_);}
	.st105{fill:none;stroke:#A69674;stroke-width:0.75;stroke-miterlimit:10;}
	.st106{fill:none;stroke:#9D9D9C;stroke-width:0.25;stroke-miterlimit:10;}
	.st107{clip-path:url(#SVGID_24_);}
	.st108{fill:#CFFFE6;stroke:#0684F2;stroke-linecap:round;stroke-linejoin:round;stroke-miterlimit:10;}
	.st109{fill:none;stroke:#494949;stroke-width:0.5;stroke-miterlimit:10;}
	.st110{fill:none;stroke:#494949;stroke-width:0.5;stroke-linecap:round;stroke-linejoin:round;stroke-miterlimit:10;}
	.st111{clip-path:url(#SVGID_26_);fill:#026847;}
	.st112{clip-path:url(#SVGID_26_);fill:#FFFFFF;}
	.st113{clip-path:url(#SVGID_26_);fill:#E52421;}
	.st114{clip-path:url(#SVGID_28_);fill:#006847;}
	.st115{clip-path:url(#SVGID_28_);fill:#ECE13C;}
	.st116{clip-path:url(#SVGID_28_);fill:#CF2011;}
	.st117{clip-path:url(#SVGID_30_);fill:#F8CD16;}
	.st118{clip-path:url(#SVGID_30_);fill:#00388F;}
	.st119{clip-path:url(#SVGID_30_);fill:#CA1126;}
	.st120{clip-path:url(#SVGID_32_);fill:#E52421;}
	.st121{clip-path:url(#SVGID_32_);fill:#FFFFFF;}
	.st122{clip-path:url(#SVGID_34_);}
	.st123{clip-path:url(#SVGID_36_);fill:#026847;}
	.st124{clip-path:url(#SVGID_36_);fill:#FFFFFF;}
	.st125{clip-path:url(#SVGID_36_);fill:#E52421;}
	.st126{clip-path:url(#SVGID_38_);fill:#006847;}
	.st127{clip-path:url(#SVGID_38_);fill:#ECE13C;}
	.st128{clip-path:url(#SVGID_38_);fill:#CF2011;}
	.st129{clip-path:url(#SVGID_40_);fill:#F8CD16;}
	.st130{clip-path:url(#SVGID_40_);fill:#00388F;}
	.st131{clip-path:url(#SVGID_40_);fill:#CA1126;}
	.st132{clip-path:url(#SVGID_42_);fill:#E52421;}
	.st133{clip-path:url(#SVGID_42_);fill:#FFFFFF;}
	.st134{fill-rule:evenodd;clip-rule:evenodd;fill:#00ACEC;}
	.st135{fill:#00ACEC;}
	.st136{fill:#EDEDEA;}
	.st137{fill:#B5FFD9;}
	.st138{fill:#9CFFCA;}
</style>
<g id="base">
	<g>
		<path class="st85" d="M59.12,35.49H4c-2.21,0-4-1.79-4-4V4c0-2.21,1.79-4,4-4h55.12c2.21,0,4,1.79,4,4v27.49
			C63.12,33.7,61.33,35.49,59.12,35.49z"/>
		<g>
			<path class="st9" d="M30.08,12.64c1.26-1.18,3.17-1.52,4.8-1.01c0.61,0.18,1.31,0.51,1.45,1.2c0.02,0.57-0.22,1.11-0.31,1.67
				c-0.77-0.71-1.89-0.95-2.91-0.79c-1.1,0.22-1.88,1.17-2.29,2.17c-0.47,1.18-0.69,2.52-0.26,3.75c0.23,0.66,0.74,1.21,1.41,1.42
				c1.06,0.32,2.2-0.08,2.99-0.82c-0.16,0.71-0.23,1.44-0.43,2.14c-0.2,0.58-0.84,0.79-1.39,0.89c-1.44,0.26-3.1-0.03-4.11-1.16
				c-1-1.09-1.22-2.64-1.18-4.06C27.92,16.06,28.58,14,30.08,12.64z"/>
			<g>
				<path class="st9" d="M20.47,11.85c1.06-0.2,2.15-0.31,3.24-0.28c0.99,0.05,2.06,0.27,2.8,0.99c0.88,0.84,0.9,2.32,0.2,3.27
					c-0.43,0.57-1.06,1-1.76,1.16c0.55,0.23,1.09,0.56,1.36,1.11c0.64,1.3,0.29,3.01-0.79,3.97c-0.86,0.79-2.06,1.07-3.2,1.15
					c-0.85,0.03-1.72,0-2.53-0.26c-0.43-0.13-0.78-0.49-0.92-0.91c-0.21-0.62-0.13-1.3,0-1.93C19.41,17.36,19.92,14.6,20.47,11.85z
					 M22.46,13.54c-0.15,0.79-0.32,1.58-0.43,2.37c-0.04,0.22,0.23,0.32,0.41,0.28c0.72,0.03,1.53-0.06,2.06-0.6
					c0.48-0.51,0.54-1.51-0.13-1.89C23.8,13.38,23.1,13.53,22.46,13.54z M21.62,17.99c-0.19,0.75-0.3,1.53-0.46,2.29
					c-0.05,0.33-0.22,0.69,0.03,0.98c0.77,0,1.59,0.05,2.26-0.39c0.81-0.47,1.07-1.73,0.4-2.42C23.25,17.89,22.38,18.02,21.62,17.99
					z"/>
			</g>
			<g>
				<path class="st9" d="M37.8,11.92c0.74-0.24,1.53-0.25,2.31-0.29c1.07-0.02,2.21,0.02,3.15,0.59c0.72,0.41,1.16,1.21,1.25,2.03
					c0.25,1.8-0.65,3.75-2.27,4.62c-1.07,0.61-2.33,0.64-3.52,0.57c-0.19,0.89-0.33,1.8-0.53,2.69c-0.11,0.47-0.41,0.93-0.89,1.08
					c-0.55,0.05-1.1,0.01-1.65,0.02C36.39,19.46,37.06,15.68,37.8,11.92z M39.95,13.63c-0.21,1.09-0.42,2.18-0.62,3.27
					c-0.07,0.22,0.09,0.43,0.28,0.52c0.58,0.11,1.2,0.01,1.71-0.29c0.96-0.57,1.37-1.9,0.93-2.92
					C41.79,13.42,40.73,13.56,39.95,13.63z"/>
			</g>
			<path class="st9" d="M13.66,12.48c0.38-0.2,0.86-0.1,1.15,0.21c0.43,0.66,0.46,1.49,0.43,2.25c-0.01,0.62-0.12,1.24-0.34,1.82
				c-0.74-0.96-1.7-1.74-2.78-2.29C12.4,13.67,12.88,12.87,13.66,12.48z"/>
			<path class="st9" d="M45.6,14.44c0.35-0.81,0.82-1.67,1.67-2.01c0.43-0.17,0.89,0.06,1.15,0.41c0.51,1.25,0.39,2.65-0.01,3.91
				C47.64,15.81,46.69,15.01,45.6,14.44z"/>
		</g>
		<g>
			<path class="st86" d="M14.8,12.69c1.12,0.7,2.01,1.7,2.75,2.78c0.61,0.9,0.67,2.16,0.08,3.08c-0.72,1.2-1.79,2.15-2.87,3.02
				c-0.62,0.46-1.35,1.01-2.17,0.79c-0.76-0.19-1.23-0.88-1.57-1.54c1.63-0.96,3.22-2.23,3.88-4.06c0.22-0.58,0.32-1.2,0.34-1.82
				C15.26,14.18,15.24,13.35,14.8,12.69z"/>
			<path class="st86" d="M48.43,12.84c0.98,0.49,1.68,1.39,2.35,2.24c0.51,0.63,0.85,1.43,0.77,2.25c-0.05,0.7-0.42,1.32-0.85,1.86
				c-0.84,1.08-1.88,2-3,2.78c-0.46,0.3-1.03,0.56-1.59,0.39c-0.76-0.19-1.27-0.87-1.58-1.55c1.66-0.92,3.2-2.24,3.9-4.05
				C48.82,15.49,48.94,14.09,48.43,12.84z"/>
		</g>
	</g>
</g>
<g id="guías">
</g>
</svg>
