<?xml version="1.0" encoding="utf-8"?>
<!-- Generator: Adobe Illustrator 24.0.2, SVG Export Plug-In . SVG Version: 6.00 Build 0)  -->
<svg version="1.1" xmlns="http://www.w3.org/2000/svg" xmlns:xlink="http://www.w3.org/1999/xlink" x="0px" y="0px"
	 viewBox="0 0 19.78 18.76" style="enable-background:new 0 0 19.78 18.76;" xml:space="preserve">
<style type="text/css">
	.st0{fill:#FFFFFF;}
	.st1{fill:#F5F9FF;}
	.st2{fill:#0669BF;}
	.st3{fill:none;stroke:#FFFFFF;stroke-miterlimit:10;}
	.st4{fill:none;stroke:#B2B2B2;stroke-width:0.5;stroke-miterlimit:10;}
	.st5{fill:#F4F4F4;}
	.st6{fill:none;stroke:#3985FF;stroke-width:0.75;stroke-miterlimit:10;}
	.st7{fill:none;stroke:#494949;stroke-width:0.5;stroke-miterlimit:10;}
	.st8{fill:#E3ECFF;}
	.st9{fill:#82FFBE;}
	.st10{fill:#FF7523;}
	.st11{fill:none;stroke:#575756;stroke-width:0.25;stroke-miterlimit:10;}
	.st12{fill:none;stroke:#9D9D9C;stroke-width:0.25;stroke-miterlimit:10;}
	.st13{fill:#008044;}
	.st14{fill:#FFFFFF;stroke:#4A4A49;stroke-width:0.25;stroke-miterlimit:10;}
	.st15{fill:none;stroke:#4A4A49;stroke-width:0.25;stroke-miterlimit:10;}
	.st16{fill:#FFFFFF;stroke:#9D9D9C;stroke-width:0.25;stroke-miterlimit:10;}
	.st17{fill:#0444BF;}
	.st18{fill:#AFCA13;}
	.st19{fill:none;stroke:#494949;stroke-width:0.5;stroke-linecap:round;stroke-linejoin:round;stroke-miterlimit:10;}
	.st20{clip-path:url(#SVGID_2_);fill:#026847;}
	.st21{clip-path:url(#SVGID_2_);fill:#FFFFFF;}
	.st22{clip-path:url(#SVGID_2_);fill:#E52421;}
	.st23{clip-path:url(#SVGID_4_);fill:#006847;}
	.st24{clip-path:url(#SVGID_4_);fill:#ECE13C;}
	.st25{clip-path:url(#SVGID_4_);fill:#CF2011;}
	.st26{clip-path:url(#SVGID_6_);fill:#F8CD16;}
	.st27{clip-path:url(#SVGID_6_);fill:#00388F;}
	.st28{clip-path:url(#SVGID_6_);fill:#CA1126;}
	.st29{clip-path:url(#SVGID_8_);fill:#E52421;}
	.st30{clip-path:url(#SVGID_8_);fill:#FFFFFF;}
	.st31{fill:#0454CA;}
	.st32{fill:#FF8800;}
	.st33{clip-path:url(#SVGID_10_);}
	.st34{fill:#E52421;}
	.st35{fill:none;stroke:#A69674;stroke-width:0.75;stroke-miterlimit:10;}
	.st36{clip-path:url(#SVGID_12_);fill:#026847;}
	.st37{clip-path:url(#SVGID_12_);fill:#FFFFFF;}
	.st38{clip-path:url(#SVGID_12_);fill:#E52421;}
	.st39{clip-path:url(#SVGID_14_);fill:#006847;}
	.st40{clip-path:url(#SVGID_14_);fill:#ECE13C;}
	.st41{clip-path:url(#SVGID_14_);fill:#CF2011;}
	.st42{clip-path:url(#SVGID_16_);fill:#F8CD16;}
	.st43{clip-path:url(#SVGID_16_);fill:#00388F;}
	.st44{clip-path:url(#SVGID_16_);fill:#CA1126;}
	.st45{clip-path:url(#SVGID_18_);fill:#E52421;}
	.st46{clip-path:url(#SVGID_18_);fill:#FFFFFF;}
	.st47{fill:#FAFAFA;}
	.st48{fill:none;stroke:#4A4A49;stroke-width:0.5;stroke-miterlimit:10;}
	.st49{fill:none;stroke:#C6C6C6;stroke-width:0.5;stroke-miterlimit:10;}
	.st50{fill:#FF8610;}
	.st51{clip-path:url(#SVGID_20_);}
	.st52{fill:#0684F2;}
	.st53{fill:#F2F6FF;}
	.st54{fill:#E7E7E7;}
	.st55{fill:#878787;}
	.st56{fill:#4A4A49;}
	.st57{fill:#B2B2B2;}
	.st58{fill:#00C356;}
	.st59{fill:#FF4E55;}
	.st60{fill:#FF894B;}
	.st61{fill:#FF7012;}
	.st62{fill:#FFF8F0;}
	.st63{fill:#FFF1E3;}
	.st64{fill:#FAFAFA;stroke:#4A4A49;stroke-width:0.5;stroke-miterlimit:10;}
	.st65{fill:none;stroke:#4A4A49;stroke-miterlimit:10;}
	.st66{fill:#F5F9FF;stroke:#4A4A49;stroke-miterlimit:10;}
	.st67{fill:none;stroke:#FF7012;stroke-miterlimit:10;}
	.st68{fill:none;stroke:#FF7012;stroke-linecap:round;stroke-linejoin:round;stroke-miterlimit:10;}
	.st69{fill:none;stroke:#FF7012;stroke-linejoin:round;stroke-miterlimit:10;}
	.st70{fill:none;stroke:#4A4A49;stroke-linecap:round;stroke-linejoin:round;stroke-miterlimit:10;}
	.st71{fill:none;stroke:#4A4A49;stroke-linejoin:round;stroke-miterlimit:10;}
</style>
<g id="base">
	<g>
		<path class="st61" d="M14.61,3.54c0.28,0,0.5-0.22,0.5-0.5V0.5c0-0.28-0.22-0.5-0.5-0.5s-0.5,0.22-0.5,0.5v2.54
			C14.11,3.32,14.33,3.54,14.61,3.54z"/>
		<path class="st61" d="M5.18,3.54c0.28,0,0.5-0.22,0.5-0.5V0.5c0-0.28-0.22-0.5-0.5-0.5s-0.5,0.22-0.5,0.5v2.54
			C4.68,3.32,4.9,3.54,5.18,3.54z"/>
		<path class="st61" d="M9,14.28l-2.37-2.93l-0.78,0.63l2.78,3.44c0.1,0.12,0.24,0.19,0.39,0.19c0,0,0.01,0,0.02,0
			c0.16,0,0.3-0.08,0.39-0.21l4.51-6.33l-0.81-0.58L9,14.28z"/>
		<path class="st61" d="M6.69,2.26h6.41c0.28,0,0.5-0.22,0.5-0.5s-0.22-0.5-0.5-0.5H6.69c-0.28,0-0.5,0.22-0.5,0.5
			S6.41,2.26,6.69,2.26z"/>
		<path class="st61" d="M17.28,1.26H16.1c-0.28,0-0.5,0.22-0.5,0.5s0.22,0.5,0.5,0.5h1.19c0.83,0,1.5,0.67,1.5,1.5v1.88H1V3.76
			c0-0.83,0.67-1.5,1.5-1.5h1.19c0.28,0,0.5-0.22,0.5-0.5s-0.22-0.5-0.5-0.5H2.5C1.12,1.26,0,2.38,0,3.76v12.5
			c0,1.38,1.12,2.5,2.5,2.5h14.78c1.38,0,2.5-1.12,2.5-2.5V3.76C19.78,2.38,18.66,1.26,17.28,1.26z M17.28,17.76H2.5
			c-0.83,0-1.5-0.67-1.5-1.5V6.65h17.78v9.62C18.78,17.09,18.11,17.76,17.28,17.76z"/>
	</g>
</g>
<g id="guías">
</g>
</svg>
