<?xml version="1.0" encoding="utf-8"?>
<!-- Generator: Adobe Illustrator 24.0.2, SVG Export Plug-In . SVG Version: 6.00 Build 0)  -->
<svg version="1.1" id="Capa_1" xmlns="http://www.w3.org/2000/svg" xmlns:xlink="http://www.w3.org/1999/xlink" x="0px" y="0px"
	 viewBox="0 0 32.5 32.5" style="enable-background:new 0 0 32.5 32.5;" xml:space="preserve">
<style type="text/css">
	.st0{fill:#FF7012;}
	.st1{fill:#43BAFF;}
	.st2{fill:#FFFFFF;}
	.st3{fill:none;stroke:#FF7012;stroke-width:0.75;stroke-miterlimit:10;}
	.st4{fill:#4A4A49;}
	.st5{fill:#4A4A49;stroke:#FFFFFF;stroke-linecap:round;stroke-linejoin:round;stroke-miterlimit:10;}
	.st6{fill:none;stroke:#FFFFFF;stroke-linecap:round;stroke-linejoin:round;stroke-miterlimit:10;}
	.st7{fill:none;stroke:#FFFFFF;stroke-linecap:round;stroke-miterlimit:10;}
	.st8{fill:none;stroke:#4A4A49;stroke-linecap:round;stroke-miterlimit:10;}
	.st9{fill:#0684F2;}
	.st10{fill:#FFCB0D;}
	.st11{fill:#00C356;}
	.st12{fill:none;}
	.st13{fill:#FF4E55;}
	.st14{fill:none;stroke:#FF4E55;stroke-width:2.24;stroke-linecap:round;stroke-linejoin:round;stroke-miterlimit:10;}
	.st15{clip-path:url(#SVGID_2_);}
	.st16{fill:#E52421;}
	.st17{fill:#FF8610;}
	.st18{fill:#FFC200;}
	.st19{clip-path:url(#SVGID_4_);}
	.st20{fill:#F9DCA4;}
	.st21{fill:#DEC492;}
	.st22{fill:#677079;}
	.st23{fill:#FFE8BE;}
	.st24{fill:#434955;}
	.st25{fill:#1D1D1D;}
	.st26{fill:none;stroke:#FF7012;stroke-width:0.75;stroke-linecap:round;stroke-linejoin:round;stroke-miterlimit:10;}
	.st27{fill:#FFA2B0;}
	.st28{fill:none;stroke:#FF7012;stroke-miterlimit:10;}
	.st29{fill:#FF894B;}
	.st30{fill:none;stroke:#FF7012;stroke-linecap:round;stroke-linejoin:round;stroke-miterlimit:10;}
	.st31{fill:#0669BF;}
	.st32{fill:#0669BF;stroke:#FFFFFF;stroke-linecap:round;stroke-linejoin:round;stroke-miterlimit:10;}
	.st33{fill:#F4F4F4;}
	.st34{fill:#0444BF;}
	.st35{fill:#F2F6FF;}
	.st36{fill:#E7E7E7;}
	.st37{fill:#878787;}
	.st38{fill:#B2B2B2;}
	.st39{fill:#FFF8F0;}
	.st40{fill:#FFF1E3;}
	.st41{fill:none;stroke:#B2B2B2;stroke-width:0.5;stroke-miterlimit:10;}
	.st42{fill:#DADADA;}
	.st43{fill:none;stroke:#4A4A49;stroke-linecap:round;stroke-linejoin:round;stroke-miterlimit:10;}
	.st44{fill:none;stroke:#4A4A49;stroke-miterlimit:10;}
	.st45{fill:none;stroke:#F4F4F4;stroke-linecap:round;stroke-linejoin:round;stroke-miterlimit:10;}
	.st46{fill:none;stroke:#E7B600;stroke-miterlimit:10;}
	.st47{fill:none;stroke:#0684F2;stroke-miterlimit:10;}
	.st48{fill:#FF7012;stroke:#FFFFFF;stroke-linecap:round;stroke-linejoin:round;stroke-miterlimit:10;}
	.st49{fill:none;stroke:#606060;stroke-miterlimit:10;}
	.st50{fill:none;stroke:#FFFFFF;stroke-width:0.8;stroke-miterlimit:10;}
	.st51{fill:none;stroke:#FFFFFF;stroke-width:2;stroke-miterlimit:10;}
	.st52{fill:#FFFFFF;stroke:#FF7012;stroke-width:2;stroke-linecap:round;stroke-linejoin:round;stroke-miterlimit:10;}
	.st53{fill:none;stroke:#FF7012;stroke-width:2;stroke-linecap:round;stroke-linejoin:round;stroke-miterlimit:10;}
	.st54{fill:none;stroke:#FFFFFF;stroke-miterlimit:10;}
	.st55{fill:none;stroke:#FFFFFF;stroke-width:1.25;stroke-linecap:round;stroke-linejoin:round;stroke-miterlimit:10;}
	.st56{fill:#4A4A49;stroke:#FFFFFF;stroke-miterlimit:10;}
	.st57{fill:#FF7012;stroke:#FFFFFF;stroke-miterlimit:10;}
	.st58{fill:none;stroke:#FF7012;stroke-linecap:round;stroke-miterlimit:10;}
</style>
<g>
	<g>
		<path class="st2" d="M16.22,32.5c0,0-0.01,0-0.01,0C7.26,32.49-0.01,25.19,0,16.21c0-4.33,1.7-8.4,4.79-11.47
			C7.87,1.69,11.95,0,16.29,0c0.01,0,0.01,0,0.02,0c8.93,0.01,16.2,7.31,16.2,16.27c0,4.33-1.7,8.4-4.78,11.47
			C24.64,30.81,20.56,32.5,16.22,32.5z M16.29,2.5c-3.67,0-7.13,1.43-9.73,4.02c-2.61,2.6-4.05,6.04-4.05,9.7
			C2.49,23.81,8.64,29.99,16.21,30c0,0,0.01,0,0.01,0c3.67,0,7.12-1.43,9.73-4.03c2.61-2.6,4.05-6.04,4.05-9.7l0,0
			C30,8.69,23.86,2.51,16.3,2.5C16.3,2.5,16.29,2.5,16.29,2.5z"/>
		<path class="st2" d="M13.79,18.49c-0.03,0.01-0.07,0.01-0.1,0.02c-0.05-0.08-0.08-0.16-0.14-0.23c-1.38-1.39-2.77-2.78-4.16-4.16
			c-0.45-0.45-0.96-0.45-1.42,0c-0.47,0.47-0.95,0.94-1.41,1.42c-0.43,0.43-0.43,0.96,0,1.39c2.16,2.16,4.31,4.31,6.47,6.47
			c0.46,0.46,0.98,0.46,1.44,0c3.83-3.83,7.66-7.66,11.49-11.49c0.43-0.43,0.43-0.95,0-1.39c-0.48-0.49-0.96-0.97-1.45-1.45
			c-0.12-0.12-0.28-0.21-0.44-0.27c-0.42-0.13-0.73,0.07-1.01,0.36c-3.03,3.04-6.07,6.08-9.11,9.12
			C13.88,18.34,13.84,18.42,13.79,18.49z"/>
	</g>
</g>
</svg>
