<?xml version="1.0" encoding="utf-8"?>
<!-- Generator: Adobe Illustrator 24.0.2, SVG Export Plug-In . SVG Version: 6.00 Build 0)  -->
<svg version="1.1" id="Capa_1" xmlns="http://www.w3.org/2000/svg" xmlns:xlink="http://www.w3.org/1999/xlink" x="0px" y="0px"
	 viewBox="0 0 62.97 56.21" style="enable-background:new 0 0 62.97 56.21;" xml:space="preserve">
<style type="text/css">
	.st0{fill:#FF7012;}
	.st1{fill:#43BAFF;}
	.st2{fill:#FFFFFF;}
	.st3{fill:none;stroke:#FF7012;stroke-width:0.75;stroke-miterlimit:10;}
	.st4{fill:#4A4A49;}
	.st5{fill:#4A4A49;stroke:#FFFFFF;stroke-linecap:round;stroke-linejoin:round;stroke-miterlimit:10;}
	.st6{fill:none;stroke:#FFFFFF;stroke-linecap:round;stroke-linejoin:round;stroke-miterlimit:10;}
	.st7{fill:none;stroke:#FFFFFF;stroke-linecap:round;stroke-miterlimit:10;}
	.st8{fill:none;stroke:#4A4A49;stroke-linecap:round;stroke-miterlimit:10;}
	.st9{fill:#0684F2;}
	.st10{fill:#FFCB0D;}
	.st11{fill:#00C356;}
	.st12{fill:none;}
	.st13{fill:#FF4E55;}
	.st14{fill:none;stroke:#FF4E55;stroke-width:2.24;stroke-linecap:round;stroke-linejoin:round;stroke-miterlimit:10;}
	.st15{clip-path:url(#SVGID_2_);}
	.st16{fill:#E52421;}
	.st17{fill:#FF8610;}
	.st18{fill:#FFC200;}
	.st19{clip-path:url(#SVGID_4_);}
	.st20{fill:#F9DCA4;}
	.st21{fill:#DEC492;}
	.st22{fill:#677079;}
	.st23{fill:#FFE8BE;}
	.st24{fill:#434955;}
	.st25{fill:#1D1D1D;}
	.st26{fill:none;stroke:#FF7012;stroke-width:0.75;stroke-linecap:round;stroke-linejoin:round;stroke-miterlimit:10;}
	.st27{fill:#FFA2B0;}
	.st28{fill:none;stroke:#FF7012;stroke-miterlimit:10;}
	.st29{fill:#FF894B;}
	.st30{fill:none;stroke:#FF7012;stroke-linecap:round;stroke-linejoin:round;stroke-miterlimit:10;}
	.st31{fill:#0669BF;}
	.st32{fill:#0669BF;stroke:#FFFFFF;stroke-linecap:round;stroke-linejoin:round;stroke-miterlimit:10;}
	.st33{fill:#F4F4F4;}
	.st34{fill:#0444BF;}
	.st35{fill:#F2F6FF;}
	.st36{fill:#E7E7E7;}
	.st37{fill:#878787;}
	.st38{fill:#B2B2B2;}
	.st39{fill:#FFF8F0;}
	.st40{fill:#FFF1E3;}
	.st41{fill:none;stroke:#B2B2B2;stroke-width:0.5;stroke-miterlimit:10;}
	.st42{fill:#DADADA;}
	.st43{fill:none;stroke:#4A4A49;stroke-linecap:round;stroke-linejoin:round;stroke-miterlimit:10;}
	.st44{fill:none;stroke:#4A4A49;stroke-miterlimit:10;}
	.st45{fill:none;stroke:#F4F4F4;stroke-linecap:round;stroke-linejoin:round;stroke-miterlimit:10;}
	.st46{fill:none;stroke:#E7B600;stroke-miterlimit:10;}
	.st47{fill:none;stroke:#0684F2;stroke-miterlimit:10;}
	.st48{fill:#FF7012;stroke:#FFFFFF;stroke-linecap:round;stroke-linejoin:round;stroke-miterlimit:10;}
	.st49{fill:none;stroke:#606060;stroke-miterlimit:10;}
	.st50{fill:none;stroke:#FFFFFF;stroke-width:0.8;stroke-miterlimit:10;}
	.st51{fill:none;stroke:#FFFFFF;stroke-width:2;stroke-miterlimit:10;}
	.st52{fill:#FFFFFF;stroke:#FF7012;stroke-width:2;stroke-linecap:round;stroke-linejoin:round;stroke-miterlimit:10;}
	.st53{fill:none;stroke:#FF7012;stroke-width:2;stroke-linecap:round;stroke-linejoin:round;stroke-miterlimit:10;}
	.st54{fill:none;stroke:#FFFFFF;stroke-miterlimit:10;}
	.st55{fill:none;stroke:#FFFFFF;stroke-width:1.25;stroke-linecap:round;stroke-linejoin:round;stroke-miterlimit:10;}
	.st56{fill:#4A4A49;stroke:#FFFFFF;stroke-miterlimit:10;}
	.st57{fill:#FF7012;stroke:#FFFFFF;stroke-miterlimit:10;}
	.st58{fill:none;stroke:#FF7012;stroke-linecap:round;stroke-miterlimit:10;}
	.st59{fill:none;stroke:#FFFFFF;stroke-width:0.5;stroke-miterlimit:10;}
</style>
<g>
	<path class="st0" d="M60.12,22.49l-4.42-0.45C54.55,9.7,44.13,0,31.48,0S8.42,9.7,7.27,22.05l-4.42,0.45
		C1.23,22.66,0,24.01,0,25.65v9.22c0,1.4,0.94,2.65,2.29,3.04l6.56,1.9v-1.24V24.33C8.85,11.85,19,1.69,31.48,1.69
		s22.64,10.15,22.64,22.64v15.49v1.47c0,5.64-3.56,10.46-8.54,12.35c0.17-0.44,0.27-0.91,0.27-1.41c0-2.19-1.78-3.98-3.98-3.98H34.3
		c-2.19,0-3.98,1.78-3.98,3.98c0,2.19,1.78,3.98,3.98,3.98h2.41h4.18h0.98c0.36,0,0.7-0.06,1.03-0.15
		c7.28-0.99,12.91-7.23,12.91-14.77v-1.96l4.87-1.41c1.35-0.39,2.29-1.64,2.29-3.04v-9.22C62.97,24.01,61.74,22.66,60.12,22.49z
		 M7.16,37.56l-4.4-1.28c-0.63-0.18-1.06-0.76-1.06-1.42v-9.22c0-0.76,0.57-1.39,1.33-1.47l4.14-0.42V37.56z M36.71,54.51H34.3
		c-1.26,0-2.28-1.02-2.28-2.28c0-1.26,1.02-2.28,2.28-2.28h7.57c1.26,0,2.28,1.02,2.28,2.28c0,1.02-0.67,1.87-1.6,2.17
		c-0.55,0.07-1.1,0.12-1.67,0.12H36.71z M61.27,34.87c0,0.65-0.44,1.23-1.06,1.42l-4.4,1.28v-13.8l4.14,0.42
		c0.76,0.08,1.33,0.71,1.33,1.47V34.87z"/>
	<path class="st0" d="M13.88,31.57v-8.4h4.87c3.18,0,5.94-1.84,7.28-4.51c1.33,2.67,4.09,4.51,7.28,4.51h16.34v8.4
		c0,4.93-2.11,9.65-5.79,12.94l1.13,1.26c4.04-3.62,6.35-8.79,6.35-14.2V21.48H33.3c-3.49,0-6.34-2.8-6.42-6.27l0.01-5.26l-1.69,0
		l-0.01,5.11h-0.01c0,3.54-2.88,6.43-6.43,6.43h-6.56v10.09c0,8.89,6.3,16.72,14.97,18.62l0.36-1.65
		C19.62,46.8,13.88,39.67,13.88,31.57z"/>
	<path class="st0" d="M31.4,42.49c2.59,0,4.82-1.85,5.3-4.4l-1.66-0.31c-0.33,1.75-1.85,3.02-3.63,3.02c-1.78,0-3.31-1.27-3.63-3.02
		l-1.66,0.31C26.58,40.64,28.81,42.49,31.4,42.49z"/>
	<path class="st0" d="M23.5,27.29c-1.8,0-3.35,1.29-3.68,3.06l1.66,0.31c0.18-0.97,1.03-1.67,2.01-1.67s1.83,0.7,2.01,1.67
		l1.66-0.31C26.85,28.57,25.3,27.29,23.5,27.29z"/>
	<path class="st0" d="M39.2,28.98c0.99,0,1.83,0.7,2.01,1.67l1.66-0.31c-0.33-1.77-1.88-3.06-3.68-3.06c-1.8,0-3.35,1.29-3.68,3.06
		l1.66,0.31C37.37,29.68,38.21,28.98,39.2,28.98z"/>
</g>
</svg>
