<?xml version="1.0" encoding="utf-8"?>
<!-- Generator: Adobe Illustrator 24.0.2, SVG Export Plug-In . SVG Version: 6.00 Build 0)  -->
<svg version="1.1" id="Capa_1" xmlns="http://www.w3.org/2000/svg" xmlns:xlink="http://www.w3.org/1999/xlink" x="0px" y="0px"
	 viewBox="0 0 18 15.32" style="enable-background:new 0 0 18 15.32;" xml:space="preserve">
<style type="text/css">
	.st0{fill:#FF7012;}
	.st1{fill:#43BAFF;}
	.st2{fill:#FFFFFF;}
	.st3{fill:none;stroke:#FF7012;stroke-width:0.75;stroke-miterlimit:10;}
	.st4{fill:#F4F4F4;}
	.st5{fill:#4A4A49;}
	.st6{fill:#4A4A49;stroke:#FFFFFF;stroke-linecap:round;stroke-linejoin:round;stroke-miterlimit:10;}
	.st7{fill:none;stroke:#FFFFFF;stroke-linecap:round;stroke-linejoin:round;stroke-miterlimit:10;}
	.st8{fill:none;stroke:#FFFFFF;stroke-linecap:round;stroke-miterlimit:10;}
	.st9{fill:none;stroke:#4A4A49;stroke-linecap:round;stroke-miterlimit:10;}
	.st10{fill:#0684F2;}
	.st11{fill:#FFCB0D;}
	.st12{fill:#00C356;}
	.st13{fill:none;stroke:#FFFFFF;stroke-miterlimit:10;}
	.st14{fill:none;}
	.st15{fill:#FF4E55;}
	.st16{fill:none;stroke:#FF4E55;stroke-width:2.24;stroke-linecap:round;stroke-linejoin:round;stroke-miterlimit:10;}
	.st17{clip-path:url(#SVGID_2_);}
	.st18{fill:#E52421;}
	.st19{fill:#FF8610;}
	.st20{fill:#FFC200;}
	.st21{clip-path:url(#SVGID_4_);}
	.st22{fill:#F9DCA4;}
	.st23{fill:#DEC492;}
	.st24{fill:#677079;}
	.st25{fill:#FFE8BE;}
	.st26{fill:#434955;}
	.st27{fill:#1D1D1D;}
	.st28{fill:none;stroke:#FF7012;stroke-width:0.75;stroke-linecap:round;stroke-linejoin:round;stroke-miterlimit:10;}
	.st29{fill:#FFA2B0;}
	.st30{fill:none;stroke:#FF7012;stroke-miterlimit:10;}
	.st31{fill:#FF894B;}
	.st32{fill:none;stroke:#FF7012;stroke-linecap:round;stroke-linejoin:round;stroke-miterlimit:10;}
	.st33{fill:#0669BF;}
	.st34{fill:#0669BF;stroke:#FFFFFF;stroke-linecap:round;stroke-linejoin:round;stroke-miterlimit:10;}
	.st35{fill:#0444BF;}
	.st36{fill:#F2F6FF;}
	.st37{fill:#E7E7E7;}
	.st38{fill:#878787;}
	.st39{fill:#B2B2B2;}
	.st40{fill:#FFF8F0;}
	.st41{fill:#FFF1E3;}
	.st42{fill:none;stroke:#B2B2B2;stroke-width:0.5;stroke-miterlimit:10;}
	.st43{fill:#DADADA;}
	.st44{fill:none;stroke:#4A4A49;stroke-linecap:round;stroke-linejoin:round;stroke-miterlimit:10;}
	.st45{fill:none;stroke:#4A4A49;stroke-miterlimit:10;}
	.st46{fill:none;stroke:#F4F4F4;stroke-linecap:round;stroke-linejoin:round;stroke-miterlimit:10;}
	.st47{fill:none;stroke:#E7B600;stroke-miterlimit:10;}
	.st48{fill:none;stroke:#0684F2;stroke-miterlimit:10;}
	.st49{fill:#FF7012;stroke:#FFFFFF;stroke-linecap:round;stroke-linejoin:round;stroke-miterlimit:10;}
	.st50{fill:none;stroke:#606060;stroke-miterlimit:10;}
	.st51{fill:none;stroke:#FFFFFF;stroke-width:0.8;stroke-miterlimit:10;}
	.st52{fill:none;stroke:#FFFFFF;stroke-width:2;stroke-miterlimit:10;}
	.st53{fill:#FFFFFF;stroke:#FF7012;stroke-width:2;stroke-linecap:round;stroke-linejoin:round;stroke-miterlimit:10;}
	.st54{fill:none;stroke:#FF7012;stroke-width:2;stroke-linecap:round;stroke-linejoin:round;stroke-miterlimit:10;}
	.st55{fill:none;stroke:#FFFFFF;stroke-width:1.25;stroke-linecap:round;stroke-linejoin:round;stroke-miterlimit:10;}
	.st56{fill:none;stroke:#FF740D;stroke-width:2;stroke-linecap:round;stroke-linejoin:round;stroke-miterlimit:10;}
	.st57{fill:#4A4A49;stroke:#FFFFFF;stroke-miterlimit:10;}
	.st58{fill:#FF7012;stroke:#FFFFFF;stroke-miterlimit:10;}
</style>
<g>
	<path class="st5" d="M0,0v13.12h11.23v2.2l1.56-1.11l1.56,1.11v-2.2H18V0H0z M2.87,2.83h12.25c0.28,0,0.5,0.22,0.5,0.5
		s-0.22,0.5-0.5,0.5H2.87c-0.28,0-0.5-0.22-0.5-0.5S2.6,2.83,2.87,2.83z M7.74,10.29H2.87c-0.28,0-0.5-0.22-0.5-0.5
		s0.22-0.5,0.5-0.5h4.87c0.28,0,0.5,0.22,0.5,0.5S8.02,10.29,7.74,10.29z M7.74,7.06H2.87c-0.28,0-0.5-0.22-0.5-0.5
		s0.22-0.5,0.5-0.5h4.87c0.28,0,0.5,0.22,0.5,0.5S8.02,7.06,7.74,7.06z M14.35,11.12v2h-3.12v-1.95c-0.84-0.51-1.4-1.43-1.4-2.48
		c0-1.61,1.3-2.91,2.91-2.91c1.61,0,2.91,1.3,2.91,2.91C15.66,9.71,15.14,10.6,14.35,11.12z"/>
	<path class="st5" d="M13.61,7.51l-1.17,1.17l-0.57-0.57c-0.2-0.2-0.51-0.2-0.71,0s-0.2,0.51,0,0.71l1.27,1.27l1.88-1.88
		c0.2-0.2,0.2-0.51,0-0.71S13.81,7.32,13.61,7.51z"/>
</g>
</svg>
