<?xml version="1.0" encoding="utf-8"?>
<!-- Generator: Adobe Illustrator 24.0.2, SVG Export Plug-In . SVG Version: 6.00 Build 0)  -->
<svg version="1.1" id="Capa_1" xmlns="http://www.w3.org/2000/svg" xmlns:xlink="http://www.w3.org/1999/xlink" x="0px" y="0px"
	 viewBox="0 0 17.37 23.16" style="enable-background:new 0 0 17.37 23.16;" xml:space="preserve">
<style type="text/css">
	.st0{fill:#FF7012;}
	.st1{fill:#43BAFF;}
	.st2{fill:#FFFFFF;}
	.st3{fill:none;stroke:#FF7012;stroke-width:0.75;stroke-miterlimit:10;}
	.st4{fill:#4A4A49;}
	.st5{fill:#4A4A49;stroke:#FFFFFF;stroke-linecap:round;stroke-linejoin:round;stroke-miterlimit:10;}
	.st6{fill:none;stroke:#FFFFFF;stroke-linecap:round;stroke-linejoin:round;stroke-miterlimit:10;}
	.st7{fill:none;stroke:#FFFFFF;stroke-linecap:round;stroke-miterlimit:10;}
	.st8{fill:none;stroke:#4A4A49;stroke-linecap:round;stroke-miterlimit:10;}
	.st9{fill:#0684F2;}
	.st10{fill:#FFCB0D;}
	.st11{fill:#00C356;}
	.st12{fill:none;stroke:#FFFFFF;stroke-miterlimit:10;}
	.st13{fill:none;}
	.st14{fill:#FF4E55;}
	.st15{fill:none;stroke:#FF4E55;stroke-width:2.24;stroke-linecap:round;stroke-linejoin:round;stroke-miterlimit:10;}
	.st16{clip-path:url(#SVGID_2_);}
	.st17{fill:#E52421;}
	.st18{fill:#FF8610;}
	.st19{fill:#FFC200;}
	.st20{clip-path:url(#SVGID_4_);}
	.st21{fill:#F9DCA4;}
	.st22{fill:#DEC492;}
	.st23{fill:#677079;}
	.st24{fill:#FFE8BE;}
	.st25{fill:#434955;}
	.st26{fill:#1D1D1D;}
	.st27{fill:none;stroke:#FF7012;stroke-width:0.75;stroke-linecap:round;stroke-linejoin:round;stroke-miterlimit:10;}
	.st28{fill:#FFA2B0;}
	.st29{fill:none;stroke:#FF7012;stroke-miterlimit:10;}
	.st30{fill:#FF894B;}
	.st31{fill:none;stroke:#FF7012;stroke-linecap:round;stroke-linejoin:round;stroke-miterlimit:10;}
	.st32{fill:#0669BF;}
	.st33{fill:#0669BF;stroke:#FFFFFF;stroke-linecap:round;stroke-linejoin:round;stroke-miterlimit:10;}
	.st34{fill:#F4F4F4;}
	.st35{fill:#0444BF;}
	.st36{fill:#F2F6FF;}
	.st37{fill:#E7E7E7;}
	.st38{fill:#878787;}
	.st39{fill:#B2B2B2;}
	.st40{fill:#FFF8F0;}
	.st41{fill:#FFF1E3;}
	.st42{fill:none;stroke:#B2B2B2;stroke-width:0.5;stroke-miterlimit:10;}
	.st43{fill:#DADADA;}
	.st44{fill:none;stroke:#4A4A49;stroke-linecap:round;stroke-linejoin:round;stroke-miterlimit:10;}
	.st45{fill:none;stroke:#4A4A49;stroke-miterlimit:10;}
	.st46{fill:none;stroke:#F4F4F4;stroke-linecap:round;stroke-linejoin:round;stroke-miterlimit:10;}
	.st47{fill:none;stroke:#E7B600;stroke-miterlimit:10;}
	.st48{fill:none;stroke:#0684F2;stroke-miterlimit:10;}
	.st49{fill:#FF7012;stroke:#FFFFFF;stroke-linecap:round;stroke-linejoin:round;stroke-miterlimit:10;}
	.st50{fill:none;stroke:#606060;stroke-miterlimit:10;}
	.st51{fill:none;stroke:#FFFFFF;stroke-width:0.8;stroke-miterlimit:10;}
	.st52{fill:none;stroke:#FFFFFF;stroke-width:2;stroke-miterlimit:10;}
	.st53{fill:#FFFFFF;stroke:#FF7012;stroke-width:2;stroke-linecap:round;stroke-linejoin:round;stroke-miterlimit:10;}
	.st54{fill:none;stroke:#FF7012;stroke-width:2;stroke-linecap:round;stroke-linejoin:round;stroke-miterlimit:10;}
	.st55{fill:none;stroke:#FFFFFF;stroke-width:1.25;stroke-linecap:round;stroke-linejoin:round;stroke-miterlimit:10;}
	.st56{fill:none;stroke:#FF740D;stroke-width:2;stroke-linecap:round;stroke-linejoin:round;stroke-miterlimit:10;}
	.st57{fill:#4A4A49;stroke:#FFFFFF;stroke-miterlimit:10;}
	.st58{fill:#FF7012;stroke:#FFFFFF;stroke-miterlimit:10;}
</style>
<g>
	<g>
		<path class="st4" d="M15.2,8.68c-0.23-0.01-0.45,0-0.72,0c0-0.2,0-0.34,0-0.49c0-0.87,0.01-1.74-0.01-2.61
			c-0.06-3-2.61-5.53-5.61-5.58C5.53-0.06,2.91,2.51,2.9,5.85c0,0.92,0,1.84,0,2.83c-0.28,0-0.51-0.01-0.74,0
			c-1.22,0.04-2.14,0.94-2.15,2.16C0,14.23,0,17.61,0.01,20.99c0.01,1.24,0.95,2.16,2.19,2.16c4.33,0.01,8.66,0.01,12.99,0
			c1.21,0,2.16-0.92,2.17-2.14c0.02-3.4,0.02-6.79,0-10.19C17.36,9.61,16.42,8.72,15.2,8.68z M9.69,16.11v2.17c0,0.55-0.45,1-1,1
			s-1-0.45-1-1v-2.17c-0.55-0.34-0.92-0.94-0.92-1.64c0-1.06,0.86-1.93,1.93-1.93s1.93,0.86,1.93,1.93
			C10.61,15.17,10.24,15.77,9.69,16.11z M12.55,8.69H4.81c0.02-0.81,0-2.1,0.02-2.92c0.04-2.15,1.73-3.83,3.84-3.84
			c2.11-0.01,3.81,1.66,3.87,3.81C12.56,6.56,12.53,7.87,12.55,8.69z"/>
	</g>
</g>
</svg>
