<?xml version="1.0" encoding="utf-8"?>
<!-- Generator: Adobe Illustrator 24.0.2, SVG Export Plug-In . SVG Version: 6.00 Build 0)  -->
<svg version="1.1" id="Capa_1" xmlns="http://www.w3.org/2000/svg" xmlns:xlink="http://www.w3.org/1999/xlink" x="0px" y="0px"
	 viewBox="0 0 40.85 32.5" style="enable-background:new 0 0 40.85 32.5;" xml:space="preserve">
<style type="text/css">
	.st0{fill:#FF7012;}
	.st1{fill:#43BAFF;}
	.st2{fill:#FFFFFF;}
	.st3{fill:none;stroke:#FF7012;stroke-width:0.75;stroke-miterlimit:10;}
	.st4{fill:#4A4A49;}
	.st5{fill:#4A4A49;stroke:#FFFFFF;stroke-linecap:round;stroke-linejoin:round;stroke-miterlimit:10;}
	.st6{fill:none;stroke:#FFFFFF;stroke-linecap:round;stroke-linejoin:round;stroke-miterlimit:10;}
	.st7{fill:none;stroke:#FFFFFF;stroke-linecap:round;stroke-miterlimit:10;}
	.st8{fill:none;stroke:#4A4A49;stroke-linecap:round;stroke-miterlimit:10;}
	.st9{fill:#0684F2;}
	.st10{fill:#FFCB0D;}
	.st11{fill:#00C356;}
	.st12{fill:none;}
	.st13{fill:#FF4E55;}
	.st14{fill:none;stroke:#FF4E55;stroke-width:2.24;stroke-linecap:round;stroke-linejoin:round;stroke-miterlimit:10;}
	.st15{clip-path:url(#SVGID_2_);}
	.st16{fill:#E52421;}
	.st17{fill:#FF8610;}
	.st18{fill:#FFC200;}
	.st19{clip-path:url(#SVGID_4_);}
	.st20{fill:#F9DCA4;}
	.st21{fill:#DEC492;}
	.st22{fill:#677079;}
	.st23{fill:#FFE8BE;}
	.st24{fill:#434955;}
	.st25{fill:#1D1D1D;}
	.st26{fill:none;stroke:#FF7012;stroke-width:0.75;stroke-linecap:round;stroke-linejoin:round;stroke-miterlimit:10;}
	.st27{fill:#FFA2B0;}
	.st28{fill:none;stroke:#FF7012;stroke-miterlimit:10;}
	.st29{fill:#FF894B;}
	.st30{fill:none;stroke:#FF7012;stroke-linecap:round;stroke-linejoin:round;stroke-miterlimit:10;}
	.st31{fill:#0669BF;}
	.st32{fill:#0669BF;stroke:#FFFFFF;stroke-linecap:round;stroke-linejoin:round;stroke-miterlimit:10;}
	.st33{fill:#F4F4F4;}
	.st34{fill:#0444BF;}
	.st35{fill:#F2F6FF;}
	.st36{fill:#E7E7E7;}
	.st37{fill:#878787;}
	.st38{fill:#B2B2B2;}
	.st39{fill:#FFF8F0;}
	.st40{fill:#FFF1E3;}
	.st41{fill:none;stroke:#B2B2B2;stroke-width:0.5;stroke-miterlimit:10;}
	.st42{fill:#DADADA;}
	.st43{fill:none;stroke:#4A4A49;stroke-linecap:round;stroke-linejoin:round;stroke-miterlimit:10;}
	.st44{fill:none;stroke:#4A4A49;stroke-miterlimit:10;}
	.st45{fill:none;stroke:#F4F4F4;stroke-linecap:round;stroke-linejoin:round;stroke-miterlimit:10;}
	.st46{fill:none;stroke:#E7B600;stroke-miterlimit:10;}
	.st47{fill:none;stroke:#0684F2;stroke-miterlimit:10;}
	.st48{fill:#FF7012;stroke:#FFFFFF;stroke-linecap:round;stroke-linejoin:round;stroke-miterlimit:10;}
	.st49{fill:none;stroke:#606060;stroke-miterlimit:10;}
	.st50{fill:none;stroke:#FFFFFF;stroke-width:0.8;stroke-miterlimit:10;}
	.st51{fill:none;stroke:#FFFFFF;stroke-width:2;stroke-miterlimit:10;}
	.st52{fill:#FFFFFF;stroke:#FF7012;stroke-width:2;stroke-linecap:round;stroke-linejoin:round;stroke-miterlimit:10;}
	.st53{fill:none;stroke:#FF7012;stroke-width:2;stroke-linecap:round;stroke-linejoin:round;stroke-miterlimit:10;}
	.st54{fill:none;stroke:#FFFFFF;stroke-miterlimit:10;}
	.st55{fill:none;stroke:#FFFFFF;stroke-width:1.25;stroke-linecap:round;stroke-linejoin:round;stroke-miterlimit:10;}
	.st56{fill:#4A4A49;stroke:#FFFFFF;stroke-miterlimit:10;}
	.st57{fill:#FF7012;stroke:#FFFFFF;stroke-miterlimit:10;}
	.st58{fill:none;stroke:#FF7012;stroke-linecap:round;stroke-miterlimit:10;}
</style>
<g>
	<g>
		<path class="st2" d="M24.16,12.11c0,1.19,0,2.38,0,3.57c0,0.15-0.04,0.19-0.19,0.19c-2.37,0-4.74,0-7.1,0
			c-0.15,0-0.19-0.04-0.19-0.19c0-2.38,0.01-4.77,0-7.15c0-0.16,0.04-0.19,0.2-0.19c2.36,0,4.73,0,7.09,0c0.16,0,0.2,0.04,0.2,0.2
			C24.15,9.72,24.16,10.92,24.16,12.11z"/>
		<path class="st2" d="M40.85,25.04c0,2.49,0,4.97,0,7.45c-2.48,0-4.96,0-7.46,0c0-0.05-0.01-0.1-0.01-0.16c0-2.38,0-4.76,0-7.14
			c0-0.13,0.03-0.17,0.17-0.17c2.38,0,4.76,0,7.14,0C40.73,25.03,40.78,25.04,40.85,25.04z"/>
		<path class="st2" d="M32.5,32.5c-2.5,0-4.98,0-7.46,0c0-2.49,0-4.97,0-7.46c2.49,0,4.97,0,7.46,0C32.5,27.53,32.5,30.01,32.5,32.5
			z"/>
		<path class="st2" d="M24.16,24.21c-2.5,0-4.98,0-7.46,0c0-2.49,0-4.97,0-7.46c0.06,0,0.11-0.01,0.17-0.01c2.37,0,4.75,0,7.12,0
			c0.14,0,0.18,0.04,0.18,0.18c0,2.37,0,4.75,0,7.12C24.16,24.09,24.16,24.14,24.16,24.21z"/>
		<path class="st2" d="M8.35,8.38c2.49,0,4.96,0,7.45,0c0,2.48,0,4.96,0,7.45c-2.48,0-4.96,0-7.45,0
			C8.35,13.36,8.35,10.88,8.35,8.38z"/>
		<path class="st2" d="M32.5,8.39c0,2.48,0,4.96,0,7.44c-2.49,0-4.97,0-7.46,0c0-2.48,0-4.96,0-7.44
			C27.52,8.39,30.01,8.39,32.5,8.39z"/>
		<path class="st2" d="M40.85,8.39c0,2.48,0,4.96,0,7.44c-2.48,0-4.96,0-7.45,0c0-2.48,0-4.95,0-7.44
			C35.87,8.39,38.35,8.39,40.85,8.39z"/>
		<path class="st2" d="M24.15,25.1c0,2.47,0,4.93,0,7.4c-2.48,0-4.96,0-7.45,0c0-2.46,0-4.92,0-7.4
			C19.18,25.1,21.65,25.1,24.15,25.1z"/>
		<path class="st2" d="M7.45,15.83c-2.49,0-4.97,0-7.45,0c0-2.49,0-4.96,0-7.45c2.49,0,4.97,0,7.45,0
			C7.45,10.86,7.45,13.34,7.45,15.83z M2.92,10.77c0,0.1,0,0.15,0,0.19c0,0.76,0,1.51,0,2.27c0,0.25,0.18,0.43,0.42,0.45
			c0.23,0.01,0.43-0.17,0.45-0.41c0-0.03,0-0.06,0-0.09c0-1.13,0-2.26,0-3.39c0-0.05,0-0.1-0.01-0.15C3.71,9.29,3.31,9.14,3.07,9.38
			C2.5,9.93,1.94,10.5,1.39,11.07c-0.22,0.23-0.1,0.6,0.2,0.69c0.18,0.06,0.33,0,0.46-0.13C2.33,11.36,2.6,11.08,2.92,10.77z"/>
		<path class="st2" d="M8.35,25.04c2.49,0,4.96,0,7.45,0c0,2.49,0,4.97,0,7.46c-2.48,0-4.96,0-7.45,0
			C8.35,30.02,8.35,27.54,8.35,25.04z M11.02,27.55c-0.06,0-0.12,0-0.17,0c-0.36,0-0.73,0-1.09,0c-0.3,0-0.5,0.18-0.5,0.44
			c0,0.25,0.2,0.43,0.49,0.43c0.37,0,0.74,0,1.1,0c0.05,0,0.11,0.01,0.15,0.01c0,0.3,0,0.59,0,0.88c-0.44,0-0.87,0-1.3,0
			c-0.26,0-0.46,0.2-0.45,0.44c0.01,0.25,0.2,0.43,0.46,0.43c0.57,0,1.13,0,1.7,0c0.29,0,0.47-0.18,0.47-0.47c0-1.16,0-2.31,0-3.47
			c0-0.3-0.18-0.47-0.48-0.47c-0.56,0-1.11,0-1.67,0c-0.29,0-0.49,0.19-0.49,0.44c0,0.25,0.21,0.43,0.49,0.43c0.36,0,0.73,0,1.09,0
			c0.06,0,0.12,0.01,0.18,0.01C11.02,26.97,11.02,27.25,11.02,27.55z"/>
		<path class="st2" d="M24.14,0c0,2.48,0,4.96,0,7.45c-2.48,0-4.97,0-7.46,0c0-2.48,0-4.96,0-7.45C19.17,0,21.65,0,24.14,0z
			 M19.09,3.6c0.43,0,0.85,0,1.26,0c0.32,0,0.49-0.18,0.5-0.49c0-0.55,0-1.1,0-1.66c0-0.32-0.17-0.49-0.49-0.49
			c-0.55,0-1.1,0-1.66,0c-0.29,0-0.49,0.18-0.49,0.43c0,0.26,0.19,0.44,0.48,0.44c0.37,0,0.74,0,1.1,0c0.05,0,0.11,0.01,0.16,0.01
			c0,0.3,0,0.58,0,0.88c-0.07,0-0.12,0-0.18,0c-0.36,0-0.73,0-1.09,0c-0.31,0-0.48,0.18-0.48,0.48c0,0.57,0,1.14,0,1.7
			c0,0.27,0.17,0.45,0.43,0.45c0.59,0.01,1.19,0.01,1.78,0c0.23,0,0.41-0.18,0.43-0.4c0.01-0.22-0.14-0.42-0.37-0.46
			c-0.07-0.01-0.14-0.01-0.21-0.01c-0.39,0-0.77,0-1.17,0C19.09,4.18,19.09,3.9,19.09,3.6z"/>
	</g>
</g>
</svg>
