<?xml version="1.0" encoding="utf-8"?>
<!-- Generator: Adobe Illustrator 24.0.2, SVG Export Plug-In . SVG Version: 6.00 Build 0)  -->
<svg version="1.1" id="Capa_1" xmlns="http://www.w3.org/2000/svg" xmlns:xlink="http://www.w3.org/1999/xlink" x="0px" y="0px"
	 viewBox="0 0 29.19 18.74" style="enable-background:new 0 0 29.19 18.74;" xml:space="preserve">
<style type="text/css">
	.st0{fill:#FF7012;}
	.st1{fill:#43BAFF;}
	.st2{fill:#FFFFFF;}
	.st3{fill:none;stroke:#FF7012;stroke-width:0.75;stroke-miterlimit:10;}
	.st4{fill:#4A4A49;}
	.st5{fill:#4A4A49;stroke:#FFFFFF;stroke-linecap:round;stroke-linejoin:round;stroke-miterlimit:10;}
	.st6{fill:none;stroke:#FFFFFF;stroke-linecap:round;stroke-linejoin:round;stroke-miterlimit:10;}
	.st7{fill:none;stroke:#FFFFFF;stroke-linecap:round;stroke-miterlimit:10;}
	.st8{fill:none;stroke:#4A4A49;stroke-linecap:round;stroke-miterlimit:10;}
	.st9{fill:#0684F2;}
	.st10{fill:#FFCB0D;}
	.st11{fill:#00C356;}
	.st12{fill:none;}
	.st13{fill:#FF4E55;}
	.st14{fill:none;stroke:#FF4E55;stroke-width:2.24;stroke-linecap:round;stroke-linejoin:round;stroke-miterlimit:10;}
	.st15{clip-path:url(#SVGID_2_);}
	.st16{fill:#E52421;}
	.st17{fill:#FF8610;}
	.st18{fill:#FFC200;}
	.st19{clip-path:url(#SVGID_4_);}
	.st20{fill:#F9DCA4;}
	.st21{fill:#DEC492;}
	.st22{fill:#677079;}
	.st23{fill:#FFE8BE;}
	.st24{fill:#434955;}
	.st25{fill:#1D1D1D;}
	.st26{fill:none;stroke:#FF7012;stroke-width:0.75;stroke-linecap:round;stroke-linejoin:round;stroke-miterlimit:10;}
	.st27{fill:#FFA2B0;}
	.st28{fill:none;stroke:#FF7012;stroke-miterlimit:10;}
	.st29{fill:#FF894B;}
	.st30{fill:none;stroke:#FF7012;stroke-linecap:round;stroke-linejoin:round;stroke-miterlimit:10;}
	.st31{fill:#0669BF;}
	.st32{fill:#0669BF;stroke:#FFFFFF;stroke-linecap:round;stroke-linejoin:round;stroke-miterlimit:10;}
	.st33{fill:#F4F4F4;}
	.st34{fill:#0444BF;}
	.st35{fill:#F2F6FF;}
	.st36{fill:#E7E7E7;}
	.st37{fill:#878787;}
	.st38{fill:#B2B2B2;}
	.st39{fill:#FFF8F0;}
	.st40{fill:#FFF1E3;}
	.st41{fill:none;stroke:#B2B2B2;stroke-width:0.5;stroke-miterlimit:10;}
	.st42{fill:#DADADA;}
	.st43{fill:none;stroke:#4A4A49;stroke-linecap:round;stroke-linejoin:round;stroke-miterlimit:10;}
	.st44{fill:none;stroke:#4A4A49;stroke-miterlimit:10;}
	.st45{fill:none;stroke:#F4F4F4;stroke-linecap:round;stroke-linejoin:round;stroke-miterlimit:10;}
	.st46{fill:none;stroke:#E7B600;stroke-miterlimit:10;}
	.st47{fill:none;stroke:#0684F2;stroke-miterlimit:10;}
	.st48{fill:#FF7012;stroke:#FFFFFF;stroke-linecap:round;stroke-linejoin:round;stroke-miterlimit:10;}
	.st49{fill:none;stroke:#606060;stroke-miterlimit:10;}
	.st50{fill:none;stroke:#FFFFFF;stroke-width:0.8;stroke-miterlimit:10;}
	.st51{fill:none;stroke:#FFFFFF;stroke-width:2;stroke-miterlimit:10;}
	.st52{fill:#FFFFFF;stroke:#FF7012;stroke-width:2;stroke-linecap:round;stroke-linejoin:round;stroke-miterlimit:10;}
	.st53{fill:none;stroke:#FF7012;stroke-width:2;stroke-linecap:round;stroke-linejoin:round;stroke-miterlimit:10;}
	.st54{fill:none;stroke:#FFFFFF;stroke-miterlimit:10;}
	.st55{fill:none;stroke:#FFFFFF;stroke-width:1.25;stroke-linecap:round;stroke-linejoin:round;stroke-miterlimit:10;}
	.st56{fill:#4A4A49;stroke:#FFFFFF;stroke-miterlimit:10;}
	.st57{fill:#FF7012;stroke:#FFFFFF;stroke-miterlimit:10;}
	.st58{fill:none;stroke:#FF7012;stroke-linecap:round;stroke-miterlimit:10;}
</style>
<g>
	<path class="st2" d="M28.96,10.61l-1.98-1.27V4.75c0-0.28-0.22-0.5-0.5-0.5h-4.33V0.5c0-0.28-0.22-0.5-0.5-0.5H8.37
		c-0.28,0-0.5,0.22-0.5,0.5S8.1,1,8.37,1h12.77v10.09c0,0.28,0.22,0.5,0.5,0.5s0.5-0.22,0.5-0.5V5.25h3.83v4.36
		c0,0.17,0.09,0.33,0.23,0.42l1.98,1.27v4.26l-1.77-0.01c-0.21-1.31-1.34-2.31-2.7-2.31c-1.36,0-2.48,0.99-2.7,2.29l-9.07-0.04
		c-0.24-1.28-1.35-2.25-2.7-2.25c-1.34,0-2.45,0.96-2.7,2.23L0.5,15.44c0,0,0,0,0,0c-0.28,0-0.5,0.22-0.5,0.5
		c0,0.28,0.22,0.5,0.5,0.5l6.04,0.03c0.23,1.29,1.35,2.27,2.7,2.27c1.34,0,2.46-0.97,2.7-2.25l9.07,0.04
		c0.25,1.26,1.36,2.21,2.69,2.21c1.32,0,2.43-0.94,2.69-2.19l2.28,0.01c0,0,0,0,0,0c0.13,0,0.26-0.05,0.35-0.15
		c0.09-0.09,0.15-0.22,0.15-0.35v-5.03C29.19,10.86,29.1,10.7,28.96,10.61z M25.46,15.99c0,0.96-0.78,1.75-1.75,1.75
		s-1.75-0.78-1.75-1.75s0.78-1.75,1.75-1.75S25.46,15.03,25.46,15.99z M10.99,15.99c0,0.96-0.78,1.75-1.75,1.75
		s-1.75-0.78-1.75-1.75s0.78-1.75,1.75-1.75S10.99,15.03,10.99,15.99z"/>
	<path class="st2" d="M3.1,10.9h7.79c0.28,0,0.5-0.22,0.5-0.5s-0.22-0.5-0.5-0.5H3.1c-0.28,0-0.5,0.22-0.5,0.5S2.82,10.9,3.1,10.9z"
		/>
	<path class="st2" d="M5.72,6h7.79c0.28,0,0.5-0.22,0.5-0.5S13.78,5,13.51,5H5.72c-0.28,0-0.5,0.22-0.5,0.5S5.44,6,5.72,6z"/>
</g>
</svg>
