<?xml version="1.0" encoding="utf-8"?>
<!-- Generator: Adobe Illustrator 24.0.2, SVG Export Plug-In . SVG Version: 6.00 Build 0)  -->
<svg version="1.1" id="Capa_1" xmlns="http://www.w3.org/2000/svg" xmlns:xlink="http://www.w3.org/1999/xlink" x="0px" y="0px"
	 viewBox="0 0 19 17.85" style="enable-background:new 0 0 19 17.85;" xml:space="preserve">
<style type="text/css">
	.st0{fill:#FF7012;}
	.st1{fill:#43BAFF;}
	.st2{fill:#FFFFFF;}
	.st3{fill:none;stroke:#FF7012;stroke-width:0.75;stroke-miterlimit:10;}
	.st4{fill:#4A4A49;}
	.st5{fill:#4A4A49;stroke:#FFFFFF;stroke-linecap:round;stroke-linejoin:round;stroke-miterlimit:10;}
	.st6{fill:none;stroke:#FFFFFF;stroke-linecap:round;stroke-linejoin:round;stroke-miterlimit:10;}
	.st7{fill:none;stroke:#FFFFFF;stroke-linecap:round;stroke-miterlimit:10;}
	.st8{fill:none;stroke:#4A4A49;stroke-linecap:round;stroke-miterlimit:10;}
	.st9{fill:#0684F2;}
	.st10{fill:#FFCB0D;}
	.st11{fill:#00C356;}
	.st12{fill:none;}
	.st13{fill:#FF4E55;}
	.st14{fill:none;stroke:#FF4E55;stroke-width:2.24;stroke-linecap:round;stroke-linejoin:round;stroke-miterlimit:10;}
	.st15{clip-path:url(#SVGID_2_);}
	.st16{fill:#E52421;}
	.st17{fill:#FF8610;}
	.st18{fill:#FFC200;}
	.st19{clip-path:url(#SVGID_4_);}
	.st20{fill:#F9DCA4;}
	.st21{fill:#DEC492;}
	.st22{fill:#677079;}
	.st23{fill:#FFE8BE;}
	.st24{fill:#434955;}
	.st25{fill:#1D1D1D;}
	.st26{fill:none;stroke:#FF7012;stroke-width:0.75;stroke-linecap:round;stroke-linejoin:round;stroke-miterlimit:10;}
	.st27{fill:#FFA2B0;}
	.st28{fill:none;stroke:#FF7012;stroke-miterlimit:10;}
	.st29{fill:#FF894B;}
	.st30{fill:none;stroke:#FF7012;stroke-linecap:round;stroke-linejoin:round;stroke-miterlimit:10;}
	.st31{fill:#0669BF;}
	.st32{fill:#0669BF;stroke:#FFFFFF;stroke-linecap:round;stroke-linejoin:round;stroke-miterlimit:10;}
	.st33{fill:#F4F4F4;}
	.st34{fill:#0444BF;}
	.st35{fill:#F2F6FF;}
	.st36{fill:#E7E7E7;}
	.st37{fill:#878787;}
	.st38{fill:#B2B2B2;}
	.st39{fill:#FFF8F0;}
	.st40{fill:#FFF1E3;}
	.st41{fill:none;stroke:#B2B2B2;stroke-width:0.5;stroke-miterlimit:10;}
	.st42{fill:#DADADA;}
	.st43{fill:none;stroke:#4A4A49;stroke-linecap:round;stroke-linejoin:round;stroke-miterlimit:10;}
	.st44{fill:none;stroke:#4A4A49;stroke-miterlimit:10;}
	.st45{fill:none;stroke:#F4F4F4;stroke-linecap:round;stroke-linejoin:round;stroke-miterlimit:10;}
	.st46{fill:none;stroke:#E7B600;stroke-miterlimit:10;}
	.st47{fill:none;stroke:#0684F2;stroke-miterlimit:10;}
	.st48{fill:#FF7012;stroke:#FFFFFF;stroke-linecap:round;stroke-linejoin:round;stroke-miterlimit:10;}
	.st49{fill:none;stroke:#606060;stroke-miterlimit:10;}
	.st50{fill:none;stroke:#FFFFFF;stroke-width:0.8;stroke-miterlimit:10;}
	.st51{fill:none;stroke:#FFFFFF;stroke-width:2;stroke-miterlimit:10;}
	.st52{fill:#FFFFFF;stroke:#FF7012;stroke-width:2;stroke-linecap:round;stroke-linejoin:round;stroke-miterlimit:10;}
	.st53{fill:none;stroke:#FF7012;stroke-width:2;stroke-linecap:round;stroke-linejoin:round;stroke-miterlimit:10;}
	.st54{fill:none;stroke:#FFFFFF;stroke-miterlimit:10;}
	.st55{fill:none;stroke:#FFFFFF;stroke-width:1.25;stroke-linecap:round;stroke-linejoin:round;stroke-miterlimit:10;}
	.st56{fill:#4A4A49;stroke:#FFFFFF;stroke-miterlimit:10;}
	.st57{fill:#FF7012;stroke:#FFFFFF;stroke-miterlimit:10;}
	.st58{fill:none;stroke:#FF7012;stroke-linecap:round;stroke-miterlimit:10;}
</style>
<g>
	<g>
		<path class="st0" d="M17.39,4.4h-1.3v1.15v4.83c0,0.89-0.72,1.61-1.61,1.61H9.34h-1.5h-0.4H6.41l-1.99,1.36
			c0.04,0.86,0.74,1.54,1.61,1.54h7.03l4.31,2.96l-0.78-2.96h0.8c0.89,0,1.61-0.72,1.61-1.61V6.02C19,5.12,18.28,4.4,17.39,4.4z"/>
		<path class="st0" d="M5.94,10.49h7.03c0.89,0,1.61-0.72,1.61-1.61V5.55v-1.5V1.61c0-0.04-0.01-0.07-0.01-0.11
			C14.52,0.67,13.83,0,12.98,0H1.61C0.72,0,0,0.72,0,1.61v7.27c0,0.86,0.67,1.55,1.51,1.6c0.03,0,0.07,0.01,0.1,0.01h0.8l-0.3,1.14
			l-0.48,1.82l0.21-0.14L5.94,10.49z M10.97,7.33H3.62c-0.28,0-0.5-0.22-0.5-0.5s0.22-0.5,0.5-0.5h7.34c0.28,0,0.5,0.22,0.5,0.5
			S11.24,7.33,10.97,7.33z M10.97,4.17H3.62c-0.28,0-0.5-0.22-0.5-0.5s0.22-0.5,0.5-0.5h7.34c0.28,0,0.5,0.22,0.5,0.5
			S11.24,4.17,10.97,4.17z"/>
	</g>
</g>
</svg>
