<?xml version="1.0" encoding="utf-8"?>
<!-- Generator: Adobe Illustrator 24.0.2, SVG Export Plug-In . SVG Version: 6.00 Build 0)  -->
<svg version="1.1" xmlns="http://www.w3.org/2000/svg" xmlns:xlink="http://www.w3.org/1999/xlink" x="0px" y="0px"
	 viewBox="0 0 23 23" style="enable-background:new 0 0 23 23;" xml:space="preserve">
<style type="text/css">
	.st0{fill:#FF7523;}
	.st1{fill:#FFFFFF;}
	.st2{fill:#F4F4F4;}
	.st3{fill:#FFFFFF;stroke:#30CC44;stroke-miterlimit:10;}
	.st4{fill:#30CC44;}
	.st5{fill:#606060;}
	.st6{fill:#0684F2;}
	.st7{fill:#FAFAFA;stroke:#DADADA;stroke-width:0.25;stroke-miterlimit:10;}
	.st8{fill:none;stroke:#4A4A49;stroke-width:0.25;stroke-miterlimit:10;}
	.st9{fill:#E6EEFA;}
	.st10{fill:#FE2725;}
	.st11{fill:#EDEDED;}
	.st12{fill:#00C65A;}
	.st13{fill:#E9E9E6;}
	.st14{opacity:0.75;}
	.st15{fill:#FF8800;}
	.st16{opacity:0.5;fill:none;stroke:#B2B2B2;stroke-miterlimit:10;}
	.st17{fill:none;stroke:#0444BF;stroke-width:0.75;stroke-miterlimit:10;}
	.st18{fill:#F5F9FF;}
	.st19{fill:none;stroke:#B2B2B2;stroke-width:0.25;stroke-miterlimit:10;}
	.st20{fill:none;stroke:#0AAFF1;stroke-miterlimit:10;}
	.st21{fill:#CFFFE6;}
	.st22{fill:none;stroke:#4A4A49;stroke-width:0.5;stroke-miterlimit:10;}
	.st23{fill:#CFFFE6;stroke:#4A4A49;stroke-width:0.5;stroke-linecap:round;stroke-linejoin:round;stroke-miterlimit:10;}
	.st24{fill:#5D5D5D;}
	.st25{fill:none;stroke:#0444BF;stroke-width:0.5;stroke-miterlimit:10;}
	.st26{opacity:0.3;fill:#0684F2;}
	.st27{fill:none;stroke:#0AAFF1;stroke-width:0.75;stroke-miterlimit:10;}
	.st28{fill:none;stroke:#4A4A49;stroke-miterlimit:10;}
	.st29{fill:#C0CFF0;}
	.st30{fill:#D6E8FB;}
	.st31{clip-path:url(#SVGID_9_);}
	.st32{fill:none;stroke:#0684F2;stroke-width:0.5;stroke-linecap:round;stroke-linejoin:round;stroke-miterlimit:10;}
	.st33{fill:none;stroke:#0684F2;stroke-linecap:round;stroke-linejoin:round;stroke-miterlimit:10;}
	.st34{fill:#CFFFE6;stroke:#0684F2;stroke-linecap:round;stroke-linejoin:round;stroke-miterlimit:10;}
	.st35{fill:#E02107;}
	.st36{fill:#FFC715;}
	.st37{fill:#2B9FE0;}
	.st38{fill:#8FC912;}
	.st39{fill:#F2F0E6;}
	.st40{fill:#014B8E;}
	.st41{fill:#F57D31;}
	.st42{fill:#EB001B;}
	.st43{fill:#F79E1B;}
	.st44{fill:#FF5F00;}
	.st45{fill:#306FC5;}
	.st46{fill:#00529E;}
	.st47{fill:#244298;}
	.st48{fill:#FBBA00;}
	.st49{fill:none;stroke:#494949;stroke-width:0.5;stroke-miterlimit:10;}
	.st50{fill:none;stroke:#494949;stroke-width:0.5;stroke-linecap:round;stroke-linejoin:round;stroke-miterlimit:10;}
	.st51{fill:#4A4A49;}
	.st52{clip-path:url(#SVGID_11_);fill:#026847;}
	.st53{clip-path:url(#SVGID_11_);fill:#FFFFFF;}
	.st54{clip-path:url(#SVGID_11_);fill:#E52421;}
	.st55{clip-path:url(#SVGID_13_);fill:#006847;}
	.st56{clip-path:url(#SVGID_13_);fill:#ECE13C;}
	.st57{clip-path:url(#SVGID_13_);fill:#CF2011;}
	.st58{clip-path:url(#SVGID_15_);fill:#F8CD16;}
	.st59{clip-path:url(#SVGID_15_);fill:#00388F;}
	.st60{clip-path:url(#SVGID_15_);fill:#CA1126;}
	.st61{clip-path:url(#SVGID_17_);fill:#E52421;}
	.st62{clip-path:url(#SVGID_17_);fill:#FFFFFF;}
	.st63{fill:#00C356;}
	.st64{fill:#FFA2B0;}
	.st65{fill:none;stroke:#FFFFFF;stroke-linecap:round;stroke-linejoin:round;stroke-miterlimit:10;}
	.st66{fill:#0444BF;}
	.st67{fill:#F2F6FF;}
	.st68{fill:#E7E7E7;}
	.st69{fill:#878787;}
	.st70{fill:#B2B2B2;}
	.st71{fill:#FF4E55;}
	.st72{fill:#FF894B;}
	.st73{fill:#FF7012;}
	.st74{fill:#FFF8F0;}
	.st75{fill:#FFF1E3;}
	.st76{fill:#0669BF;}
	.st77{fill:#F7F4ED;}
	.st78{fill:#F5F1E5;}
	.st79{fill:#F5EEE1;}
	.st80{fill:#F4F4F4;stroke:#4A4A49;stroke-width:0.5;stroke-miterlimit:10;}
	.st81{fill:none;stroke:#FFFFFF;stroke-miterlimit:10;}
	.st82{fill:none;stroke:#B2B2B2;stroke-width:0.5;stroke-miterlimit:10;}
	.st83{opacity:0.5;}
	.st84{fill:none;stroke:#30CC44;stroke-width:3;stroke-miterlimit:10;}
	.st85{opacity:0.5;fill:#005873;}
	.st86{fill:none;stroke:#30CC44;stroke-width:0.75;stroke-miterlimit:10;}
	.st87{fill:none;stroke:#30CC44;stroke-width:2;stroke-linecap:round;stroke-miterlimit:10;}
	.st88{fill:#F4F4F4;stroke:#30CC44;stroke-miterlimit:10;}
	.st89{fill:#30CC44;stroke:#F4F4F4;stroke-miterlimit:10;}
	.st90{fill:none;stroke:#30CC44;stroke-width:2;stroke-miterlimit:10;}
	.st91{fill:none;stroke:#30CC44;stroke-width:2;stroke-linecap:round;stroke-linejoin:round;stroke-miterlimit:10;}
	.st92{fill:none;stroke:#30CC44;stroke-miterlimit:10;}
	.st93{fill:#F1F1EE;}
	.st94{fill:#C1C1BF;}
	.st95{fill:#F0EAE1;}
	.st96{fill:#00AED6;}
	.st97{fill:#E4FF6F;}
	.st98{opacity:0.5;fill:#00AED6;}
	.st99{fill:none;stroke:#00AED6;stroke-width:2.75;stroke-miterlimit:10;}
	.st100{fill:none;stroke:#00AED6;stroke-width:2.75;stroke-linecap:round;stroke-linejoin:round;stroke-miterlimit:10;}
	.st101{opacity:0.5;fill:none;stroke:#00AED6;stroke-width:1.75;stroke-miterlimit:10;}
	.st102{clip-path:url(#SVGID_19_);}
	.st103{fill:#E52421;}
	.st104{fill:#FFC200;}
	.st105{clip-path:url(#SVGID_21_);}
	.st106{fill:#F9DCA4;}
	.st107{fill:#DEC492;}
	.st108{fill:#677079;}
	.st109{fill:#FFE8BE;}
	.st110{fill:#434955;}
	.st111{fill:#1D1D1D;}
	.st112{fill:#FF8610;}
	.st113{fill:#AFCA13;}
	.st114{fill:none;stroke:#FFFFFF;stroke-width:0.5;stroke-miterlimit:10;}
	.st115{clip-path:url(#SVGID_22_);fill:#FFFFFF;}
	.st116{clip-path:url(#SVGID_22_);fill:#E52421;}
	.st117{clip-path:url(#SVGID_22_);fill:#0035A9;}
	.st118{fill:#2EC8FF;}
	.st119{clip-path:url(#SVGID_24_);}
	.st120{fill:#AFCA0A;}
	.st121{fill:#0454CA;}
	.st122{clip-path:url(#SVGID_26_);}
</style>
<g id="base">
	<g>
		<g>
			<path class="st1" d="M11.48,22.73C11.47,22.73,11.47,22.73,11.48,22.73C5.28,22.73,0.25,17.69,0.25,11.5
				c0-3.01,1.17-5.83,3.29-7.94c2.13-2.12,4.96-3.29,7.99-3.29c0.01,0,0.02,0,0.03,0l0,0c6.18,0.01,11.2,5.06,11.19,11.25
				C22.74,17.71,17.69,22.73,11.48,22.73z M11.53,1.24c-2.77,0-5.36,1.07-7.31,3c-1.94,1.93-3,4.51-3,7.25
				c0,5.65,4.59,10.26,10.24,10.26c0,0,0.01,0,0.01,0c5.67,0,10.29-4.59,10.3-10.24C21.78,5.86,17.2,1.25,11.56,1.24
				C11.55,1.24,11.54,1.24,11.53,1.24z"/>
			<path class="st1" d="M5.39,7.75C5.47,7.31,5.52,6.8,5.67,6.32c0.35-1.13,1.31-1.8,2.5-1.82c0.33,0,0.53,0.12,0.62,0.44
				C9.06,5.93,9.34,6.9,9.64,7.87c0.14,0.45,0.01,0.78-0.37,1.04C9.02,9.08,8.78,9.26,8.55,9.44c-0.34,0.27-0.43,0.61-0.2,0.99
				c0.35,0.57,0.7,1.15,1.12,1.66c0.65,0.78,1.33,1.53,2.05,2.23c0.55,0.54,0.81,0.5,1.39,0c0.1-0.09,0.2-0.18,0.29-0.27
				c0.61-0.6,0.78-0.63,1.52-0.25c0.78,0.4,1.56,0.81,2.35,1.19c0.4,0.19,0.54,0.43,0.41,0.89c-0.37,1.29-1.32,2.05-2.7,2.04
				c-1.53-0.02-2.91-0.56-4.13-1.42c-2.52-1.77-4.33-4.07-5.04-7.13C5.51,8.86,5.47,8.34,5.39,7.75z"/>
		</g>
	</g>
</g>
<g id="guías">
</g>
</svg>
