<?xml version="1.0" encoding="utf-8"?>
<!-- Generator: Adobe Illustrator 24.0.2, SVG Export Plug-In . SVG Version: 6.00 Build 0)  -->
<svg version="1.1" xmlns="http://www.w3.org/2000/svg" xmlns:xlink="http://www.w3.org/1999/xlink" x="0px" y="0px"
	 viewBox="0 0 19.1 17.98" style="enable-background:new 0 0 19.1 17.98;" xml:space="preserve">
<style type="text/css">
	.st0{fill:#E7E7E7;}
	.st1{fill:none;stroke:#4A4A49;stroke-width:0.5;stroke-miterlimit:10;}
	.st2{fill:#F4F4F4;}
	.st3{fill:#F5F9FF;}
	.st4{fill:none;stroke:#575756;stroke-width:0.25;stroke-miterlimit:10;}
	.st5{fill:#FFFFFF;}
	.st6{fill:#CDFF00;}
	.st7{fill:#5D5D5C;}
	.st8{fill:none;stroke:#4A4A49;stroke-miterlimit:10;}
	.st9{fill:#F4F4F4;stroke:#4A4A49;stroke-width:0.5;stroke-miterlimit:10;}
	.st10{fill:none;stroke:#494949;stroke-width:0.5;stroke-miterlimit:10;}
	.st11{fill:none;stroke:#494949;stroke-width:0.5;stroke-linecap:round;stroke-linejoin:round;stroke-miterlimit:10;}
	.st12{clip-path:url(#SVGID_2_);fill:#026847;}
	.st13{clip-path:url(#SVGID_2_);fill:#FFFFFF;}
	.st14{clip-path:url(#SVGID_2_);fill:#E52421;}
	.st15{clip-path:url(#SVGID_4_);fill:#006847;}
	.st16{clip-path:url(#SVGID_4_);fill:#ECE13C;}
	.st17{clip-path:url(#SVGID_4_);fill:#CF2011;}
	.st18{clip-path:url(#SVGID_6_);fill:#F8CD16;}
	.st19{clip-path:url(#SVGID_6_);fill:#00388F;}
	.st20{clip-path:url(#SVGID_6_);fill:#CA1126;}
	.st21{clip-path:url(#SVGID_8_);fill:#E52421;}
	.st22{clip-path:url(#SVGID_8_);fill:#FFFFFF;}
	.st23{fill:#0444BF;}
	.st24{fill:#AFCA13;}
	.st25{fill:#FF7523;}
	.st26{fill:#0454CA;}
	.st27{fill:#FF8800;}
	.st28{clip-path:url(#SVGID_10_);}
	.st29{fill:#E52421;}
	.st30{fill:none;stroke:#A69674;stroke-width:0.75;stroke-miterlimit:10;}
	.st31{clip-path:url(#SVGID_12_);}
	.st32{fill:#FFC200;}
	.st33{clip-path:url(#SVGID_14_);}
	.st34{fill:#F9DCA4;}
	.st35{fill:#DEC492;}
	.st36{fill:#677079;}
	.st37{fill:#FFE8BE;}
	.st38{fill:#434955;}
	.st39{fill:#1D1D1D;}
	.st40{fill:#FF8610;}
	.st41{fill:#0684F2;}
	.st42{fill:#F2F6FF;}
	.st43{fill:#878787;}
	.st44{fill:#4A4A49;}
	.st45{fill:#B2B2B2;}
	.st46{fill:#00C356;}
	.st47{fill:#FF4E55;}
	.st48{fill:#FF894B;}
	.st49{fill:#FF7012;}
	.st50{fill:#FFF8F0;}
	.st51{fill:#FFF1E3;}
	.st52{fill:#0669BF;}
	.st53{fill:#FFFFFF;stroke:#4A4A49;stroke-width:0.5;stroke-miterlimit:10;}
	.st54{fill:none;stroke:#FF8928;stroke-miterlimit:10;}
	.st55{fill:#FF8928;}
	.st56{fill:none;stroke:#4A4A49;stroke-width:0.25;stroke-miterlimit:10;}
	.st57{fill:none;stroke:#B2B2B2;stroke-width:0.5;stroke-miterlimit:10;}
	.st58{fill:none;stroke:#FFFFFF;stroke-miterlimit:10;}
	.st59{fill:none;stroke:#FFFFFF;stroke-linecap:round;stroke-linejoin:round;stroke-miterlimit:10;}
</style>
<g id="base">
	<g>
		<path class="st44" d="M15.24,2.6h3.29c0.31,0,0.57-0.25,0.57-0.57s-0.25-0.57-0.57-0.57h-3.28c0.05,0.18,0.09,0.36,0.09,0.56
			C15.33,2.23,15.3,2.42,15.24,2.6z"/>
		<path class="st44" d="M0.57,2.6h10.05c0.24,0.85,1.02,1.48,1.96,1.48c0.15,0,0.29-0.02,0.43-0.05c0.92-0.2,1.62-1.01,1.62-2
			c0-1.03-0.76-1.87-1.75-2.01C12.77,0.02,12.67,0,12.57,0c-0.93,0-1.7,0.62-1.95,1.47H0.57C0.25,1.47,0,1.72,0,2.03
			S0.25,2.6,0.57,2.6z"/>
		<path class="st44" d="M18.53,8.41H7.24c0.05,0.18,0.08,0.36,0.08,0.55c0,0.2-0.04,0.4-0.09,0.58h11.3c0.31,0,0.57-0.25,0.57-0.57
			C19.1,8.66,18.85,8.41,18.53,8.41z"/>
		<path class="st44" d="M18.53,15.35h-3.78c0.05,0.18,0.09,0.37,0.09,0.57c0,0.19-0.04,0.38-0.09,0.56h3.77
			c0.31,0,0.57-0.25,0.57-0.57S18.85,15.35,18.53,15.35z"/>
		<path class="st44" d="M6.6,8.98c0-1.03-0.76-1.87-1.75-2.01c-0.1-0.01-0.19-0.03-0.29-0.03c-0.93,0-1.71,0.63-1.95,1.48H0.57
			C0.25,8.41,0,8.66,0,8.98c0,0.31,0.25,0.57,0.57,0.57h2.04c0.25,0.85,1.02,1.48,1.95,1.48c0.15,0,0.29-0.02,0.43-0.05
			C5.91,10.77,6.6,9.96,6.6,8.98z"/>
		<path class="st44" d="M14.13,15.94c0-1.03-0.76-1.87-1.75-2.01c-0.1-0.01-0.19-0.03-0.29-0.03c-0.92,0-1.69,0.61-1.94,1.45H0.57
			C0.25,15.35,0,15.6,0,15.92s0.25,0.57,0.57,0.57h9.56c0.24,0.86,1.02,1.5,1.96,1.5c0.15,0,0.29-0.02,0.43-0.05
			C13.43,17.74,14.13,16.92,14.13,15.94z"/>
	</g>
</g>
<g id="guías">
</g>
</svg>
