<?xml version="1.0" encoding="utf-8"?>
<!-- Generator: Adobe Illustrator 24.0.2, SVG Export Plug-In . SVG Version: 6.00 Build 0)  -->
<svg version="1.1" xmlns="http://www.w3.org/2000/svg" xmlns:xlink="http://www.w3.org/1999/xlink" x="0px" y="0px"
	 viewBox="0 0 82 82" style="enable-background:new 0 0 82 82;" xml:space="preserve">
<style type="text/css">
	.st0{fill:#FFFFFF;}
	.st1{fill:#DBE8FF;}
	.st2{fill:#E8F3FC;}
	.st3{fill:#F4F4F4;}
	.st4{fill:#C0CFF0;}
	.st5{fill:#FFFFFF;stroke:#C0CFF0;stroke-width:2;stroke-miterlimit:10;}
	.st6{fill:#D6E8FB;stroke:#C0CFF0;stroke-width:2;stroke-miterlimit:10;}
	.st7{fill:#FFFFFF;stroke:#C0CFF0;stroke-linecap:round;stroke-linejoin:round;stroke-miterlimit:10;}
	.st8{clip-path:url(#SVGID_11_);}
	.st9{fill:none;stroke:#C0CFF0;stroke-width:0.75;stroke-miterlimit:10;}
	.st10{fill:#F5F9FF;}
	.st11{clip-path:url(#SVGID_13_);}
	.st12{fill:#CFFFE6;}
	.st13{fill:none;stroke:#0684F2;stroke-width:0.5;stroke-linecap:round;stroke-linejoin:round;stroke-miterlimit:10;}
	.st14{fill:none;stroke:#0684F2;stroke-linecap:round;stroke-linejoin:round;stroke-miterlimit:10;}
	.st15{fill:#CFFFE6;stroke:#0684F2;stroke-linecap:round;stroke-linejoin:round;stroke-miterlimit:10;}
	.st16{fill:#E02107;}
	.st17{fill:#FFC715;}
	.st18{fill:#2B9FE0;}
	.st19{fill:#8FC912;}
	.st20{fill:#72C9FF;}
	.st21{fill:#0444BF;}
	.st22{fill:#AFCA13;}
	.st23{fill:none;stroke:#DADADA;stroke-width:0.5;stroke-miterlimit:10;}
	.st24{fill:#0047A8;stroke:#575756;stroke-width:0.25;stroke-miterlimit:10;}
	.st25{clip-path:url(#SVGID_15_);fill:#026847;}
	.st26{clip-path:url(#SVGID_15_);fill:#FFFFFF;}
	.st27{clip-path:url(#SVGID_15_);fill:#E52421;}
	.st28{clip-path:url(#SVGID_17_);fill:#006847;}
	.st29{clip-path:url(#SVGID_17_);fill:#ECE13C;}
	.st30{clip-path:url(#SVGID_17_);fill:#CF2011;}
	.st31{clip-path:url(#SVGID_19_);fill:#FFFFFF;}
	.st32{clip-path:url(#SVGID_19_);fill:#E52421;}
	.st33{clip-path:url(#SVGID_19_);fill:#0035A9;}
	.st34{clip-path:url(#SVGID_21_);fill:#F8CD16;}
	.st35{clip-path:url(#SVGID_21_);fill:#00388F;}
	.st36{clip-path:url(#SVGID_21_);fill:#CA1126;}
	.st37{clip-path:url(#SVGID_23_);fill:#E52421;}
	.st38{clip-path:url(#SVGID_23_);fill:#FFFFFF;}
	.st39{clip-path:url(#SVGID_25_);fill:#E52421;}
	.st40{clip-path:url(#SVGID_25_);fill:#FFFFFF;}
	.st41{fill:#DADADA;}
	.st42{fill:none;}
	.st43{fill:#EE3224;}
	.st44{fill:#1D1D1B;}
	.st45{fill-rule:evenodd;clip-rule:evenodd;}
	.st46{fill:url(#SVGID_26_);}
	.st47{fill:url(#SVGID_27_);}
	.st48{fill:url(#SVGID_28_);}
	.st49{fill:#000100;}
	.st50{fill:#7F7C7A;}
	.st51{fill:#A5A6A4;}
	.st52{fill:#008851;}
	.st53{fill:#F3CB0C;}
	.st54{fill:#008292;}
	.st55{fill-rule:evenodd;clip-rule:evenodd;fill:#00629B;}
	.st56{fill-rule:evenodd;clip-rule:evenodd;fill:#FFFFFF;}
	.st57{fill:#FFF8F6;}
	.st58{fill:#0684F2;}
	.st59{fill:#FF4E38;}
	.st60{fill:#00C65A;}
	.st61{opacity:0.25;fill:#0684F2;}
	.st62{fill:url(#SVGID_29_);}
	.st63{fill:url(#SVGID_30_);}
	.st64{fill:url(#SVGID_31_);}
	.st65{fill:url(#SVGID_32_);}
	.st66{opacity:0.2;enable-background:new    ;}
	.st67{opacity:0.12;enable-background:new    ;}
	.st68{opacity:0.25;fill:#FFFFFF;enable-background:new    ;}
	.st69{fill:#FFFFFF;stroke:#FFFFFF;stroke-width:0.2368;stroke-miterlimit:10;}
	.st70{fill:#292680;}
	.st71{fill:#949598;}
	.st72{fill:#F3B00F;}
	.st73{fill:#F7ECD9;}
	.st74{clip-path:url(#SVGID_34_);}
	.st75{fill:#25557C;}
	.st76{fill:#FFDBB4;}
	.st77{fill:#1D1D1D;}
	.st78{fill:#4C4136;}
	.st79{fill:#FF4F6D;}
	.st80{opacity:0.15;}
	.st81{clip-path:url(#SVGID_36_);}
	.st82{clip-path:url(#SVGID_38_);fill:#4C4136;}
	.st83{fill:#1F4768;}
	.st84{opacity:0.3;fill:#0684F2;}
	.st85{fill:url(#SVGID_39_);}
	.st86{fill:url(#SVGID_40_);}
	.st87{fill:none;stroke:#0684F2;stroke-width:0.75;stroke-miterlimit:10;}
	.st88{fill:none;stroke:#494949;stroke-width:0.5;stroke-miterlimit:10;}
	.st89{fill:none;stroke:#494949;stroke-width:0.5;stroke-linecap:round;stroke-linejoin:round;stroke-miterlimit:10;}
	.st90{clip-path:url(#SVGID_42_);fill:#026847;}
	.st91{clip-path:url(#SVGID_42_);fill:#FFFFFF;}
	.st92{clip-path:url(#SVGID_42_);fill:#E52421;}
	.st93{clip-path:url(#SVGID_44_);fill:#006847;}
	.st94{clip-path:url(#SVGID_44_);fill:#ECE13C;}
	.st95{clip-path:url(#SVGID_44_);fill:#CF2011;}
	.st96{clip-path:url(#SVGID_46_);fill:#F8CD16;}
	.st97{clip-path:url(#SVGID_46_);fill:#00388F;}
	.st98{clip-path:url(#SVGID_46_);fill:#CA1126;}
	.st99{clip-path:url(#SVGID_48_);fill:#E52421;}
	.st100{clip-path:url(#SVGID_48_);fill:#FFFFFF;}
	.st101{fill:#FF7523;}
	.st102{fill:#0454CA;}
	.st103{fill:#FF8800;}
	.st104{clip-path:url(#SVGID_50_);}
	.st105{fill:#E52421;}
	.st106{fill:none;stroke:#A69674;stroke-width:0.75;stroke-miterlimit:10;}
	.st107{clip-path:url(#SVGID_52_);fill:#026847;}
	.st108{clip-path:url(#SVGID_52_);fill:#FFFFFF;}
	.st109{clip-path:url(#SVGID_52_);fill:#E52421;}
	.st110{clip-path:url(#SVGID_54_);fill:#006847;}
	.st111{clip-path:url(#SVGID_54_);fill:#ECE13C;}
	.st112{clip-path:url(#SVGID_54_);fill:#CF2011;}
	.st113{clip-path:url(#SVGID_56_);fill:#FFFFFF;}
	.st114{clip-path:url(#SVGID_56_);fill:#E52421;}
	.st115{clip-path:url(#SVGID_56_);fill:#0035A9;}
	.st116{clip-path:url(#SVGID_58_);fill:#F8CD16;}
	.st117{clip-path:url(#SVGID_58_);fill:#00388F;}
	.st118{clip-path:url(#SVGID_58_);fill:#CA1126;}
	.st119{clip-path:url(#SVGID_60_);fill:#E52421;}
	.st120{clip-path:url(#SVGID_60_);fill:#FFFFFF;}
	.st121{fill:#29ED65;}
	.st122{clip-path:url(#SVGID_62_);}
	.st123{fill:#35180F;}
	.st124{opacity:0.5;}
	.st125{clip-path:url(#SVGID_64_);}
	.st126{fill:#FF828A;}
	.st127{fill:#272A35;}
	.st128{fill:#251D8A;}
	.st129{clip-path:url(#SVGID_66_);}
	.st130{opacity:0.25;clip-path:url(#SVGID_68_);}
	.st131{clip-path:url(#SVGID_70_);fill:#0F1ADE;}
	.st132{clip-path:url(#SVGID_72_);fill:#0F1ADE;}
	.st133{opacity:0.5;clip-path:url(#SVGID_74_);}
	.st134{clip-path:url(#SVGID_76_);fill:#FFFFFF;}
	.st135{clip-path:url(#SVGID_78_);fill:#FFFFFF;}
	.st136{clip-path:url(#SVGID_80_);fill:#FFFFFF;}
	.st137{clip-path:url(#SVGID_82_);fill:#FFFFFF;}
	.st138{clip-path:url(#SVGID_84_);fill:#FFFFFF;}
	.st139{clip-path:url(#SVGID_86_);fill:#FFFFFF;}
	.st140{clip-path:url(#SVGID_88_);fill:#FFFFFF;}
	.st141{clip-path:url(#SVGID_90_);fill:#FFFFFF;}
	.st142{clip-path:url(#SVGID_92_);fill:#FFFFFF;}
	.st143{clip-path:url(#SVGID_94_);fill:#FFFFFF;}
	.st144{clip-path:url(#SVGID_96_);fill:#FFFFFF;}
	.st145{clip-path:url(#SVGID_98_);fill:#FFFFFF;}
	.st146{clip-path:url(#SVGID_100_);fill:#FFFFFF;}
	.st147{clip-path:url(#SVGID_102_);fill:#FFFFFF;}
	.st148{clip-path:url(#SVGID_104_);fill:#FFFFFF;}
	.st149{opacity:0.5;clip-path:url(#SVGID_106_);}
	.st150{clip-path:url(#SVGID_108_);fill:#FFFFFF;}
	.st151{clip-path:url(#SVGID_110_);fill:#FFFFFF;}
	.st152{clip-path:url(#SVGID_112_);fill:#FFFFFF;}
	.st153{clip-path:url(#SVGID_114_);fill:#FFFFFF;}
	.st154{clip-path:url(#SVGID_116_);fill:#FFFFFF;}
	.st155{clip-path:url(#SVGID_118_);fill:#FFFFFF;}
	.st156{clip-path:url(#SVGID_120_);fill:#FFFFFF;}
	.st157{clip-path:url(#SVGID_122_);fill:#FFFFFF;}
	.st158{clip-path:url(#SVGID_124_);fill:#FFFFFF;}
	.st159{clip-path:url(#SVGID_126_);fill:#FFFFFF;}
	.st160{clip-path:url(#SVGID_128_);fill:#FFFFFF;}
	.st161{clip-path:url(#SVGID_130_);fill:#FFFFFF;}
	.st162{clip-path:url(#SVGID_132_);fill:#FFFFFF;}
	.st163{clip-path:url(#SVGID_134_);fill:#FFFFFF;}
	.st164{clip-path:url(#SVGID_136_);fill:#FFFFFF;}
	.st165{clip-path:url(#SVGID_138_);fill:#FFFFFF;}
	.st166{clip-path:url(#SVGID_140_);fill:#FFFFFF;}
	.st167{clip-path:url(#SVGID_142_);}
	.st168{opacity:0.25;clip-path:url(#SVGID_144_);}
	.st169{clip-path:url(#SVGID_146_);fill:#0F1ADE;}
	.st170{clip-path:url(#SVGID_148_);fill:#0F1ADE;}
	.st171{opacity:0.5;clip-path:url(#SVGID_150_);}
	.st172{clip-path:url(#SVGID_152_);fill:#FFFFFF;}
	.st173{clip-path:url(#SVGID_154_);fill:#FFFFFF;}
	.st174{clip-path:url(#SVGID_156_);fill:#FFFFFF;}
	.st175{clip-path:url(#SVGID_158_);fill:#FFFFFF;}
	.st176{clip-path:url(#SVGID_160_);fill:#FFFFFF;}
	.st177{clip-path:url(#SVGID_162_);fill:#FFFFFF;}
	.st178{clip-path:url(#SVGID_164_);fill:#FFFFFF;}
	.st179{clip-path:url(#SVGID_166_);fill:#FFFFFF;}
	.st180{clip-path:url(#SVGID_168_);fill:#FFFFFF;}
	.st181{clip-path:url(#SVGID_170_);fill:#FFFFFF;}
	.st182{clip-path:url(#SVGID_172_);fill:#FFFFFF;}
	.st183{clip-path:url(#SVGID_174_);fill:#FFFFFF;}
	.st184{clip-path:url(#SVGID_176_);fill:#FFFFFF;}
	.st185{clip-path:url(#SVGID_178_);fill:#FFFFFF;}
	.st186{clip-path:url(#SVGID_180_);fill:#FFFFFF;}
	.st187{opacity:0.5;clip-path:url(#SVGID_182_);}
	.st188{clip-path:url(#SVGID_184_);fill:#FFFFFF;}
	.st189{clip-path:url(#SVGID_186_);fill:#FFFFFF;}
	.st190{clip-path:url(#SVGID_188_);fill:#FFFFFF;}
	.st191{clip-path:url(#SVGID_190_);fill:#FFFFFF;}
	.st192{clip-path:url(#SVGID_192_);fill:#FFFFFF;}
	.st193{clip-path:url(#SVGID_194_);fill:#FFFFFF;}
	.st194{clip-path:url(#SVGID_196_);fill:#FFFFFF;}
	.st195{clip-path:url(#SVGID_198_);fill:#FFFFFF;}
	.st196{clip-path:url(#SVGID_200_);fill:#FFFFFF;}
	.st197{clip-path:url(#SVGID_202_);fill:#FFFFFF;}
	.st198{clip-path:url(#SVGID_204_);fill:#FFFFFF;}
	.st199{clip-path:url(#SVGID_206_);fill:#FFFFFF;}
	.st200{clip-path:url(#SVGID_208_);fill:#FFFFFF;}
	.st201{clip-path:url(#SVGID_210_);fill:#FFFFFF;}
	.st202{clip-path:url(#SVGID_212_);fill:#FFFFFF;}
	.st203{clip-path:url(#SVGID_214_);fill:#FFFFFF;}
	.st204{clip-path:url(#SVGID_216_);fill:#FFFFFF;}
	.st205{fill:#F4D8C6;}
	.st206{fill:#004249;}
	.st207{opacity:0.75;}
	.st208{clip-path:url(#SVGID_218_);fill:#FF304A;}
	.st209{fill:#FBEAE2;}
	.st210{clip-path:url(#SVGID_220_);fill:#20201F;}
	.st211{clip-path:url(#SVGID_220_);}
	.st212{clip-path:url(#SVGID_220_);fill:#FFFFFF;}
	.st213{clip-path:url(#SVGID_222_);fill:#20201F;}
	.st214{clip-path:url(#SVGID_222_);}
	.st215{clip-path:url(#SVGID_222_);fill:#FFFFFF;}
	.st216{fill:#CB6858;}
	.st217{opacity:0.35;}
	.st218{clip-path:url(#SVGID_224_);fill:#FFFFFF;}
	.st219{clip-path:url(#SVGID_226_);fill:#FFFFFF;}
	.st220{fill:#FF383B;}
	.st221{fill:#3C3C3B;}
	.st222{fill:#5431FF;}
	.st223{fill:#F8CEB0;}
	.st224{fill:#EFB659;}
	.st225{fill:#003C54;}
	.st226{fill:#9D9D9C;}
	.st227{fill:#35261B;}
	.st228{fill:#F7CEAF;}
	.st229{fill:#CC6858;}
	.st230{fill:#DF806E;}
	.st231{fill:#004C92;}
	.st232{opacity:0.25;}
	.st233{clip-path:url(#SVGID_228_);fill:#FFFFFF;}
	.st234{clip-path:url(#SVGID_230_);fill:#FFFFFF;}
	.st235{clip-path:url(#SVGID_232_);fill:#FF304A;}
	.st236{clip-path:url(#SVGID_234_);fill:#FFDFBA;}
	.st237{clip-path:url(#SVGID_234_);fill:#0D274D;}
	.st238{clip-path:url(#SVGID_234_);fill:#FFEBD2;}
	.st239{clip-path:url(#SVGID_234_);fill:#42434D;}
	.st240{clip-path:url(#SVGID_234_);fill:#FFD6A6;}
	.st241{clip-path:url(#SVGID_234_);fill:#4D4E59;}
	.st242{clip-path:url(#SVGID_234_);fill:#FFF3E4;}
	.st243{fill:#F4A700;}
	.st244{clip-path:url(#SVGID_236_);fill:#FFDFBA;}
	.st245{clip-path:url(#SVGID_236_);fill:#0D274D;}
	.st246{clip-path:url(#SVGID_236_);fill:#FFEBD2;}
	.st247{clip-path:url(#SVGID_236_);fill:#FFFFFF;}
	.st248{clip-path:url(#SVGID_236_);fill:#FFD6A6;}
	.st249{clip-path:url(#SVGID_236_);fill:#FFF3E4;}
	.st250{clip-path:url(#SVGID_236_);fill:#42434D;}
	.st251{clip-path:url(#SVGID_238_);fill:#58F7FF;}
	.st252{clip-path:url(#SVGID_238_);fill:#27B9E5;}
	.st253{clip-path:url(#SVGID_238_);fill:#FFFFFF;}
	.st254{fill:#0E2DAF;}
	.st255{fill:#380E00;}
	.st256{fill:#5FA8FF;}
	.st257{fill:#00355E;}
	.st258{fill:#F2C8AD;}
	.st259{clip-path:url(#SVGID_240_);}
	.st260{clip-path:url(#SVGID_242_);}
	.st261{clip-path:url(#SVGID_244_);}
	.st262{clip-path:url(#SVGID_246_);}
	.st263{fill:#F8B395;}
	.st264{fill:#191712;}
	.st265{fill:#9B3A31;}
	.st266{fill:#0D101E;}
	.st267{fill:#60362F;}
	.st268{fill:#381F1B;}
	.st269{fill:url(#SVGID_247_);}
	.st270{fill:url(#SVGID_248_);}
	.st271{fill:url(#SVGID_249_);}
	.st272{fill:#8AB1FF;}
	.st273{fill:#E7E7E7;}
	.st274{fill:url(#SVGID_250_);}
	.st275{fill:url(#SVGID_251_);}
	.st276{fill:url(#SVGID_252_);}
	.st277{fill:url(#SVGID_253_);}
	.st278{fill:url(#SVGID_254_);}
	.st279{fill:url(#SVGID_255_);}
	.st280{fill:none;stroke:#5D5D5C;stroke-width:3;stroke-miterlimit:10;}
	.st281{fill:#F2F6FF;}
	.st282{fill:#878787;}
	.st283{fill:#4A4A49;}
	.st284{fill:#B2B2B2;}
	.st285{fill:#00C356;}
	.st286{fill:#FF4E55;}
	.st287{fill:#FF894B;}
	.st288{fill:#FF7012;}
	.st289{fill:#FFF8F0;}
	.st290{fill:#FFF1E3;}
	.st291{fill:#0669BF;}
	.st292{fill:none;stroke:#4A4A49;stroke-width:0.5;stroke-miterlimit:10;}
	.st293{fill:#FF8610;stroke:#4A4A49;stroke-width:0.5;stroke-miterlimit:10;}
	.st294{fill:#FF610F;}
	.st295{clip-path:url(#SVGID_261_);}
	.st296{clip-path:url(#SVGID_263_);}
	.st297{fill:#FFC200;}
	.st298{clip-path:url(#SVGID_265_);}
	.st299{fill:#F9DCA4;}
	.st300{fill:#DEC492;}
	.st301{fill:#677079;}
	.st302{fill:#FFE8BE;}
	.st303{fill:#434955;}
	.st304{fill:#FF8610;}
	.st305{fill:none;stroke:#FFFFFF;stroke-width:0.5;stroke-miterlimit:10;}
	.st306{clip-path:url(#SVGID_267_);}
	.st307{fill:#232422;}
	.st308{fill:#CCE2F2;}
	.st309{fill:#FFFCEB;}
	.st310{clip-path:url(#SVGID_268_);fill:#C14F4F;}
	.st311{fill:#D6C8B2;}
	.st312{clip-path:url(#SVGID_269_);fill:#C14F4F;}
	.st313{clip-path:url(#SVGID_269_);fill:#F7DBCB;}
	.st314{clip-path:url(#SVGID_270_);fill:#5A5A5A;}
	.st315{clip-path:url(#SVGID_270_);}
	.st316{fill:#5A5A5A;}
	.st317{clip-path:url(#SVGID_271_);}
	.st318{fill:#FFFDFA;}
	.st319{clip-path:url(#SVGID_271_);fill:#C14F4F;}
	.st320{fill:#E0D4C3;}
	.st321{fill:#B2B6B7;}
	.st322{fill:#6A7072;}
	.st323{fill:#92989B;}
	.st324{fill:#E5E5E5;}
	.st325{fill:#6C7377;}
	.st326{fill:#CECDE0;}
	.st327{fill:#C6B299;}
	.st328{fill:#20201F;}
	.st329{fill:#CB6255;}
	.st330{fill:#DF8675;}
	.st331{fill:#2B2620;}
	.st332{fill:#33312D;}
	.st333{fill:#E5E1CA;}
	.st334{fill:#C14F4F;}
	.st335{fill:#E8BE82;}
	.st336{fill:#D8D8D8;}
	.st337{clip-path:url(#SVGID_272_);}
	.st338{clip-path:url(#SVGID_273_);}
	.st339{opacity:0.6;fill:#19827C;}
	.st340{opacity:0.6;clip-path:url(#SVGID_273_);}
	.st341{fill:#19827C;}
	.st342{opacity:0.6;clip-path:url(#SVGID_273_);fill:#19827C;}
	.st343{opacity:0.65;clip-path:url(#SVGID_273_);}
	.st344{opacity:0.6;fill:#117C5D;}
	.st345{fill:#686868;}
	.st346{fill:#437A60;}
	.st347{opacity:0.2;fill:#935B31;}
	.st348{fill:#231C1A;}
	.st349{fill:#F9AB8C;}
	.st350{fill:#3F322D;}
	.st351{fill:#DBDBDB;}
	.st352{fill:#5AD19D;}
	.st353{fill:#EFE7D3;}
	.st354{fill:#A4F2FF;}
	.st355{fill:#3364FF;}
	.st356{fill:#1D9E12;}
	.st357{fill:#DB1414;}
	.st358{opacity:0.25;fill:#3A3A3A;}
	.st359{fill:#302D54;}
	.st360{fill:#FFD8C5;}
	.st361{fill:#FFFEEB;}
	.st362{fill:#FF001F;}
	.st363{clip-path:url(#SVGID_275_);}
	.st364{clip-path:url(#SVGID_276_);}
	.st365{clip-path:url(#SVGID_277_);}
	.st366{opacity:0.6;clip-path:url(#SVGID_277_);}
	.st367{opacity:0.6;clip-path:url(#SVGID_277_);fill:#19827C;}
	.st368{opacity:0.65;clip-path:url(#SVGID_277_);}
	.st369{fill:#5D5D5C;}
	.st370{fill:none;stroke:#000000;stroke-miterlimit:10;}
	.st371{fill:none;stroke:#7A93FF;stroke-miterlimit:10;}
	.st372{fill:none;stroke:#0046D0;stroke-miterlimit:10;}
	.st373{fill:none;stroke:#FFF90A;stroke-miterlimit:10;}
	.st374{fill:#46A0FF;}
	.st375{clip-path:url(#SVGID_279_);}
	.st376{clip-path:url(#SVGID_280_);fill:#C14F4F;}
	.st377{clip-path:url(#SVGID_281_);fill:#C14F4F;}
	.st378{clip-path:url(#SVGID_281_);fill:#F7DBCB;}
	.st379{clip-path:url(#SVGID_282_);fill:#5A5A5A;}
	.st380{opacity:0.44;clip-path:url(#SVGID_282_);}
	.st381{clip-path:url(#SVGID_283_);fill:#C14F4F;}
	.st382{fill:#B6BEC2;}
	.st383{fill:#EC6D20;}
	.st384{clip-path:url(#SVGID_285_);}
	.st385{clip-path:url(#SVGID_289_);}
	.st386{clip-path:url(#SVGID_291_);}
	.st387{opacity:0.25;clip-path:url(#SVGID_295_);}
	.st388{clip-path:url(#SVGID_297_);fill:#0F1ADE;}
	.st389{clip-path:url(#SVGID_299_);fill:#0F1ADE;}
	.st390{opacity:0.5;clip-path:url(#SVGID_301_);}
	.st391{clip-path:url(#SVGID_303_);fill:#FFFFFF;}
	.st392{clip-path:url(#SVGID_305_);fill:#FFFFFF;}
	.st393{clip-path:url(#SVGID_307_);fill:#FFFFFF;}
	.st394{clip-path:url(#SVGID_309_);fill:#FFFFFF;}
	.st395{clip-path:url(#SVGID_311_);fill:#FFFFFF;}
	.st396{clip-path:url(#SVGID_313_);fill:#FFFFFF;}
	.st397{clip-path:url(#SVGID_315_);fill:#FFFFFF;}
	.st398{clip-path:url(#SVGID_317_);fill:#FFFFFF;}
	.st399{clip-path:url(#SVGID_319_);fill:#FFFFFF;}
	.st400{clip-path:url(#SVGID_321_);fill:#FFFFFF;}
	.st401{clip-path:url(#SVGID_323_);fill:#FFFFFF;}
	.st402{clip-path:url(#SVGID_325_);fill:#FFFFFF;}
	.st403{clip-path:url(#SVGID_327_);fill:#FFFFFF;}
	.st404{clip-path:url(#SVGID_329_);fill:#FFFFFF;}
	.st405{clip-path:url(#SVGID_331_);fill:#FFFFFF;}
	.st406{opacity:0.5;clip-path:url(#SVGID_333_);}
	.st407{clip-path:url(#SVGID_335_);fill:#FFFFFF;}
	.st408{clip-path:url(#SVGID_337_);fill:#FFFFFF;}
	.st409{clip-path:url(#SVGID_339_);fill:#FFFFFF;}
	.st410{clip-path:url(#SVGID_341_);fill:#FFFFFF;}
	.st411{clip-path:url(#SVGID_343_);fill:#FFFFFF;}
	.st412{clip-path:url(#SVGID_345_);fill:#FFFFFF;}
	.st413{clip-path:url(#SVGID_347_);fill:#FFFFFF;}
	.st414{clip-path:url(#SVGID_349_);fill:#FFFFFF;}
	.st415{clip-path:url(#SVGID_351_);fill:#FFFFFF;}
	.st416{clip-path:url(#SVGID_353_);fill:#FFFFFF;}
	.st417{clip-path:url(#SVGID_355_);fill:#FFFFFF;}
	.st418{clip-path:url(#SVGID_357_);fill:#FFFFFF;}
	.st419{clip-path:url(#SVGID_359_);fill:#FFFFFF;}
	.st420{clip-path:url(#SVGID_361_);fill:#FFFFFF;}
	.st421{clip-path:url(#SVGID_363_);fill:#FFFFFF;}
	.st422{clip-path:url(#SVGID_365_);fill:#FFFFFF;}
	.st423{clip-path:url(#SVGID_367_);fill:#FFFFFF;}
	.st424{clip-path:url(#SVGID_369_);}
	.st425{opacity:0.25;clip-path:url(#SVGID_371_);}
	.st426{clip-path:url(#SVGID_373_);fill:#0F1ADE;}
	.st427{clip-path:url(#SVGID_375_);fill:#0F1ADE;}
	.st428{opacity:0.5;clip-path:url(#SVGID_377_);}
	.st429{clip-path:url(#SVGID_379_);fill:#FFFFFF;}
	.st430{clip-path:url(#SVGID_381_);fill:#FFFFFF;}
	.st431{clip-path:url(#SVGID_383_);fill:#FFFFFF;}
	.st432{clip-path:url(#SVGID_385_);fill:#FFFFFF;}
	.st433{clip-path:url(#SVGID_387_);fill:#FFFFFF;}
	.st434{clip-path:url(#SVGID_389_);fill:#FFFFFF;}
	.st435{clip-path:url(#SVGID_391_);fill:#FFFFFF;}
	.st436{clip-path:url(#SVGID_393_);fill:#FFFFFF;}
	.st437{clip-path:url(#SVGID_395_);fill:#FFFFFF;}
	.st438{clip-path:url(#SVGID_397_);fill:#FFFFFF;}
	.st439{clip-path:url(#SVGID_399_);fill:#FFFFFF;}
	.st440{clip-path:url(#SVGID_401_);fill:#FFFFFF;}
	.st441{clip-path:url(#SVGID_403_);fill:#FFFFFF;}
	.st442{clip-path:url(#SVGID_405_);fill:#FFFFFF;}
	.st443{clip-path:url(#SVGID_407_);fill:#FFFFFF;}
	.st444{opacity:0.5;clip-path:url(#SVGID_409_);}
	.st445{clip-path:url(#SVGID_411_);fill:#FFFFFF;}
	.st446{clip-path:url(#SVGID_413_);fill:#FFFFFF;}
	.st447{clip-path:url(#SVGID_415_);fill:#FFFFFF;}
	.st448{clip-path:url(#SVGID_417_);fill:#FFFFFF;}
	.st449{clip-path:url(#SVGID_419_);fill:#FFFFFF;}
	.st450{clip-path:url(#SVGID_421_);fill:#FFFFFF;}
	.st451{clip-path:url(#SVGID_423_);fill:#FFFFFF;}
	.st452{clip-path:url(#SVGID_425_);fill:#FFFFFF;}
	.st453{clip-path:url(#SVGID_427_);fill:#FFFFFF;}
	.st454{clip-path:url(#SVGID_429_);fill:#FFFFFF;}
	.st455{clip-path:url(#SVGID_431_);fill:#FFFFFF;}
	.st456{clip-path:url(#SVGID_433_);fill:#FFFFFF;}
	.st457{clip-path:url(#SVGID_435_);fill:#FFFFFF;}
	.st458{clip-path:url(#SVGID_437_);fill:#FFFFFF;}
	.st459{clip-path:url(#SVGID_439_);fill:#FFFFFF;}
	.st460{clip-path:url(#SVGID_441_);fill:#FFFFFF;}
	.st461{clip-path:url(#SVGID_443_);fill:#FFFFFF;}
	.st462{clip-path:url(#SVGID_445_);fill:#FF304A;}
	.st463{clip-path:url(#SVGID_447_);fill:#20201F;}
	.st464{clip-path:url(#SVGID_447_);}
	.st465{clip-path:url(#SVGID_447_);fill:#FFFFFF;}
	.st466{clip-path:url(#SVGID_449_);fill:#20201F;}
	.st467{clip-path:url(#SVGID_449_);}
	.st468{clip-path:url(#SVGID_449_);fill:#FFFFFF;}
	.st469{clip-path:url(#SVGID_451_);fill:#FFFFFF;}
	.st470{clip-path:url(#SVGID_453_);fill:#FFFFFF;}
	.st471{clip-path:url(#SVGID_455_);fill:#FFFFFF;}
	.st472{clip-path:url(#SVGID_457_);fill:#FFFFFF;}
	.st473{clip-path:url(#SVGID_459_);fill:#FF304A;}
	.st474{clip-path:url(#SVGID_461_);fill:#FFDFBA;}
	.st475{clip-path:url(#SVGID_461_);fill:#0D274D;}
	.st476{clip-path:url(#SVGID_461_);fill:#FFEBD2;}
	.st477{clip-path:url(#SVGID_461_);fill:#42434D;}
	.st478{clip-path:url(#SVGID_461_);fill:#FFD6A6;}
	.st479{clip-path:url(#SVGID_461_);fill:#4D4E59;}
	.st480{clip-path:url(#SVGID_461_);fill:#FFF3E4;}
	.st481{clip-path:url(#SVGID_463_);fill:#FFDFBA;}
	.st482{clip-path:url(#SVGID_463_);fill:#0D274D;}
	.st483{clip-path:url(#SVGID_463_);fill:#FFEBD2;}
	.st484{clip-path:url(#SVGID_463_);fill:#FFFFFF;}
	.st485{clip-path:url(#SVGID_463_);fill:#FFD6A6;}
	.st486{clip-path:url(#SVGID_463_);fill:#FFF3E4;}
	.st487{clip-path:url(#SVGID_463_);fill:#42434D;}
	.st488{clip-path:url(#SVGID_465_);fill:#58F7FF;}
	.st489{clip-path:url(#SVGID_465_);fill:#27B9E5;}
	.st490{clip-path:url(#SVGID_465_);fill:#FFFFFF;}
	.st491{clip-path:url(#SVGID_467_);}
	.st492{clip-path:url(#SVGID_469_);}
	.st493{clip-path:url(#SVGID_471_);}
	.st494{fill:#272726;}
	.st495{fill:#242422;}
	.st496{clip-path:url(#SVGID_473_);fill:#026847;}
	.st497{clip-path:url(#SVGID_473_);fill:#FFFFFF;}
	.st498{clip-path:url(#SVGID_473_);fill:#E52421;}
	.st499{clip-path:url(#SVGID_475_);fill:#006847;}
	.st500{clip-path:url(#SVGID_475_);fill:#ECE13C;}
	.st501{clip-path:url(#SVGID_475_);fill:#CF2011;}
	.st502{clip-path:url(#SVGID_477_);fill:#F8CD16;}
	.st503{clip-path:url(#SVGID_477_);fill:#00388F;}
	.st504{clip-path:url(#SVGID_477_);fill:#CA1126;}
	.st505{clip-path:url(#SVGID_479_);fill:#E52421;}
	.st506{clip-path:url(#SVGID_479_);fill:#FFFFFF;}
	.st507{fill:url(#SVGID_480_);}
	.st508{fill:#F2F0E6;}
	.st509{clip-path:url(#SVGID_482_);}
	.st510{clip-path:url(#SVGID_483_);}
</style>
<g id="base">
	<g>
		<path class="st16" d="M41,0.1C18.45,0.1,0.1,18.45,0.1,41c0,22.55,18.35,40.9,40.9,40.9c22.55,0,40.9-18.35,40.9-40.9
			C81.9,18.45,63.55,0.1,41,0.1z"/>
		<path class="st0" d="M60.55,37.95c0.34,0,0.62-0.28,0.62-0.62v-5.42c0-0.34-0.28-0.62-0.62-0.62s-0.62,0.28-0.62,0.62v5.42
			C59.94,37.67,60.21,37.95,60.55,37.95z"/>
		<path class="st0" d="M64.76,38.53V24.29c0-3.09-2.51-5.6-5.6-5.6h-1.12H23.96h-1.12c-3.09,0-5.6,2.51-5.6,5.6v14.24
			c-0.64,1.03-4.25,6.96-4.64,9.21c-0.46,2.68,3.37,12.85,4.39,15.2c0.1,0.23,0.33,0.37,0.57,0.37c0.08,0,0.16-0.02,0.24-0.05
			c0.23-0.1,0.37-0.33,0.37-0.57c0-0.08-0.02-0.16-0.05-0.24c-1.44-3.34-4.65-12.5-4.3-14.5c0.23-1.37,2.05-4.68,3.42-7.03v3.31
			c0,1.72,0.54,4.11,2.06,5.17c0.58,0.4,1.55,0.77,2.93,0.26c1.36-0.51,2.47-1.87,3.54-3.2c1.67-2.06,2.77-3.28,4.15-2.45
			c0.38,0.23,0.59,0.51,0.66,0.88c0.27,1.43-1.57,3.83-2.67,5.26c-0.54,0.7-0.92,1.2-1.08,1.56c-0.31,0.73-0.31,2.23-0.28,4.81
			c0.02,1.97,0.05,4.21-0.14,6.11c0,0.02,0.01,0.04,0.01,0.06c0,0.31,0.23,0.58,0.54,0.61c0.36,0.05,0.64-0.21,0.67-0.55
			c0.2-1.98,0.17-4.25,0.15-6.25c-0.02-1.87-0.05-3.8,0.18-4.32c0.09-0.22,0.51-0.76,0.92-1.29c0.08-0.11,0.17-0.23,0.26-0.34h23.71
			c0.09,0.11,0.17,0.23,0.26,0.34c0.41,0.53,0.83,1.08,0.92,1.29c0.22,0.52,0.2,2.45,0.18,4.32c-0.02,2-0.05,4.28,0.15,6.25
			c0.03,0.34,0.33,0.6,0.67,0.55c0.32-0.03,0.54-0.3,0.54-0.61c0-0.02,0.01-0.04,0.01-0.06c-0.19-1.91-0.17-4.14-0.15-6.12
			c0.03-2.59,0.03-4.09-0.28-4.81c-0.15-0.36-0.54-0.86-1.08-1.56c-1.1-1.43-2.94-3.83-2.66-5.26c0.07-0.37,0.28-0.65,0.66-0.88
			c1.38-0.83,2.47,0.39,4.15,2.45c1.07,1.32,2.18,2.69,3.54,3.2c1.37,0.51,2.35,0.14,2.93-0.26c1.52-1.06,2.06-3.44,2.06-5.17v-3.31
			c1.38,2.35,3.19,5.66,3.42,7.03c0.34,2-2.86,11.17-4.3,14.5c-0.03,0.08-0.05,0.16-0.05,0.24c0,0.24,0.14,0.47,0.37,0.57
			c0.08,0.03,0.16,0.05,0.24,0.05c0.24,0,0.46-0.14,0.57-0.37c1.02-2.35,4.85-12.52,4.39-15.2C69.01,45.49,65.4,39.56,64.76,38.53z
			 M63.53,24.29v14.41v5.53c0,0.88-0.17,1.9-0.52,2.75c-0.34,0.65-0.83,1.21-1.44,1.61c-0.4,0.13-0.85,0.1-1.37-0.09
			c-0.53-0.2-1.04-0.61-1.55-1.12V19.92h0.5C61.57,19.92,63.53,21.88,63.53,24.29z M18.47,24.29c0-2.41,1.96-4.37,4.37-4.37h0.5
			v27.47c-0.51,0.51-1.02,0.92-1.55,1.12c-0.52,0.19-0.97,0.22-1.37,0.09c-0.61-0.4-1.09-0.96-1.44-1.61
			c-0.35-0.85-0.52-1.88-0.52-2.75v-5.53V24.29z M30.05,49.33c1.07-1.52,2.01-3.23,1.73-4.67c-0.14-0.72-0.55-1.29-1.24-1.7
			c-2.37-1.42-4.16,0.79-5.74,2.73c-0.08,0.1-0.16,0.19-0.24,0.29V19.92h32.85v26.06c-0.08-0.1-0.16-0.19-0.24-0.29
			c-1.58-1.95-3.37-4.15-5.74-2.73c-0.69,0.41-1.1,0.98-1.24,1.7c-0.28,1.45,0.67,3.15,1.73,4.67H30.05z"/>
		<path class="st0" d="M55.16,31.93c0-0.34-0.28-0.62-0.62-0.62h-8.31c-0.34,0-0.62,0.28-0.62,0.62v8h-2.98v-3.78
			c0-0.34-0.28-0.62-0.62-0.62h-4.52c-0.34,0-0.62,0.28-0.62,0.62v3.78h-9.44c-0.34,0-0.62,0.28-0.62,0.62s0.28,0.62,0.62,0.62
			h10.06c0.34,0,0.62-0.28,0.62-0.62v-3.78h3.28v3.78c0,0.34,0.28,0.62,0.62,0.62h4.21c0.34,0,0.62-0.28,0.62-0.62v-8h7.69
			C54.89,32.54,55.16,32.27,55.16,31.93z"/>
		<path class="st0" d="M30.01,38.63c-0.27,0.2-0.33,0.59-0.13,0.86c0.12,0.16,0.31,0.25,0.5,0.25c0.13,0,0.25-0.04,0.36-0.12
			l1.6-1.18l1.71,1.26c0.11,0.08,0.24,0.12,0.36,0.12c0.19,0,0.37-0.09,0.5-0.25c0.2-0.27,0.14-0.66-0.13-0.86l-1.77-1.31v-1.72
			c1.07-0.28,1.87-1.24,1.87-2.4c0-1.37-1.12-2.49-2.49-2.49c-1.37,0-2.49,1.12-2.49,2.49c0,1.16,0.8,2.13,1.87,2.4v1.64
			L30.01,38.63z M31.14,33.28c0-0.69,0.56-1.26,1.26-1.26c0.69,0,1.26,0.56,1.26,1.26c0,0.69-0.56,1.26-1.26,1.26
			C31.7,34.54,31.14,33.98,31.14,33.28z"/>
		<path class="st0" d="M39.7,32.85c0.99,0,1.79-0.8,1.79-1.79c0-0.99-0.8-1.79-1.79-1.79c-0.99,0-1.79,0.81-1.79,1.79
			C37.91,32.04,38.71,32.85,39.7,32.85z M39.7,30.49c0.31,0,0.56,0.25,0.56,0.56c0,0.31-0.25,0.56-0.56,0.56
			c-0.31,0-0.56-0.25-0.56-0.56C39.14,30.74,39.39,30.49,39.7,30.49z"/>
		<path class="st0" d="M47.24,27.81c0.99,0,1.79-0.8,1.79-1.79c0-0.99-0.8-1.79-1.79-1.79c-0.99,0-1.79,0.8-1.79,1.79
			C45.44,27,46.25,27.81,47.24,27.81z M47.24,25.45c0.31,0,0.56,0.25,0.56,0.56c0,0.31-0.25,0.56-0.56,0.56
			c-0.31,0-0.56-0.25-0.56-0.56C46.67,25.7,46.93,25.45,47.24,25.45z"/>
		<path class="st0" d="M52.35,27.81c0.99,0,1.79-0.8,1.79-1.79c0-0.99-0.8-1.79-1.79-1.79c-0.99,0-1.79,0.81-1.79,1.79
			C50.56,27,51.36,27.81,52.35,27.81z M52.35,25.45c0.31,0,0.56,0.25,0.56,0.56c0,0.31-0.25,0.56-0.56,0.56
			c-0.31,0-0.56-0.25-0.56-0.56C51.79,25.7,52.04,25.45,52.35,25.45z"/>
	</g>
</g>
<g id="guías">
</g>
</svg>
