<?xml version="1.0" encoding="utf-8"?>
<!-- Generator: Adobe Illustrator 24.0.2, SVG Export Plug-In . SVG Version: 6.00 Build 0)  -->
<svg version="1.1" xmlns="http://www.w3.org/2000/svg" xmlns:xlink="http://www.w3.org/1999/xlink" x="0px" y="0px"
	 viewBox="0 0 36 36" style="enable-background:new 0 0 36 36;" xml:space="preserve">
<style type="text/css">
	.st0{fill:#F5F9FF;}
	.st1{fill:#CFFFE6;}
	.st2{fill:#B5FFD9;}
	.st3{fill:#9CFFCA;}
	.st4{fill:none;stroke:#B2B2B2;stroke-width:0.25;stroke-miterlimit:10;}
	.st5{fill:none;stroke:#0684F2;stroke-width:2;stroke-miterlimit:10;}
	.st6{fill:none;stroke:#0AAFF1;stroke-width:2;stroke-miterlimit:10;}
	.st7{fill:#FF7523;}
	.st8{fill:#CFFFE6;stroke:#4A4A49;stroke-width:0.5;stroke-linecap:round;stroke-linejoin:round;stroke-miterlimit:10;}
	.st9{fill:none;stroke:#4A4A49;stroke-width:0.5;stroke-miterlimit:10;}
	.st10{fill:#F8CEB0;}
	.st11{fill:#BBB2AD;}
	.st12{fill:#FFFFFF;}
	.st13{fill:#1D1D1D;}
	.st14{fill:#20201F;}
	.st15{fill:#CB6255;}
	.st16{fill:#FFFFFF;stroke:#000000;stroke-miterlimit:10;}
	.st17{fill:#DF8675;stroke:#000000;stroke-miterlimit:10;}
	.st18{fill:none;stroke:#000000;stroke-width:2;stroke-miterlimit:10;}
	.st19{opacity:0.25;fill:#FFFFFF;}
	.st20{fill:#E90016;}
	.st21{fill:#00575E;}
	.st22{fill:#ACA7A4;}
	.st23{clip-path:url(#SVGID_4_);}
	.st24{clip-path:url(#SVGID_6_);}
	.st25{fill:#FF6CD5;}
	.st26{fill:#DF8675;}
	.st27{clip-path:url(#SVGID_7_);fill:#FFFFFF;}
	.st28{clip-path:url(#SVGID_7_);}
	.st29{fill:#00224B;}
	.st30{fill:#D9E8FB;}
	.st31{clip-path:url(#SVGID_7_);fill:#F7FAFE;}
	.st32{clip-path:url(#SVGID_7_);fill:#D9E8FB;}
	.st33{clip-path:url(#SVGID_7_);fill:#DDF2FF;}
	.st34{fill:#DDF2FF;}
	.st35{clip-path:url(#SVGID_7_);fill:#1D1D1D;}
	.st36{fill:#F7FAFE;}
	.st37{fill:#0454CA;}
	.st38{fill:#FF8800;}
	.st39{clip-path:url(#SVGID_9_);}
	.st40{fill:#E52421;}
	.st41{fill:#F4F4F4;}
	.st42{fill:none;stroke:#494949;stroke-width:0.5;stroke-miterlimit:10;}
	.st43{fill:none;stroke:#494949;stroke-width:0.5;stroke-linecap:round;stroke-linejoin:round;stroke-miterlimit:10;}
	.st44{clip-path:url(#SVGID_11_);fill:#026847;}
	.st45{clip-path:url(#SVGID_11_);fill:#FFFFFF;}
	.st46{clip-path:url(#SVGID_11_);fill:#E52421;}
	.st47{clip-path:url(#SVGID_13_);fill:#006847;}
	.st48{clip-path:url(#SVGID_13_);fill:#ECE13C;}
	.st49{clip-path:url(#SVGID_13_);fill:#CF2011;}
	.st50{clip-path:url(#SVGID_15_);fill:#F8CD16;}
	.st51{clip-path:url(#SVGID_15_);fill:#00388F;}
	.st52{clip-path:url(#SVGID_15_);fill:#CA1126;}
	.st53{clip-path:url(#SVGID_17_);fill:#E52421;}
	.st54{clip-path:url(#SVGID_17_);fill:#FFFFFF;}
	.st55{fill:#0444BF;}
	.st56{clip-path:url(#SVGID_19_);}
	.st57{fill:#FFC200;}
	.st58{clip-path:url(#SVGID_21_);}
	.st59{fill:#F9DCA4;}
	.st60{fill:#DEC492;}
	.st61{fill:#677079;}
	.st62{fill:#FFE8BE;}
	.st63{fill:#434955;}
	.st64{fill:#FF8610;}
	.st65{fill:#AFCA13;}
	.st66{fill:none;stroke:#FFFFFF;stroke-width:0.5;stroke-miterlimit:10;}
	.st67{fill:#272628;}
	.st68{clip-path:url(#SVGID_23_);fill:#FFFFFF;}
	.st69{fill:#AFAFAF;}
	.st70{fill:#FFFAE6;}
	.st71{fill:none;}
	.st72{fill:#3B56DB;}
	.st73{fill:#2545BA;}
	.st74{fill:#0A2677;}
	.st75{clip-path:url(#SVGID_25_);fill:#FFFFFF;}
	.st76{fill:#FFFFFF;stroke:#000000;stroke-width:1.0583;stroke-miterlimit:10;}
	.st77{fill:#DF8675;stroke:#000000;stroke-width:1.0583;stroke-miterlimit:10;}
	.st78{fill:none;stroke:#000000;stroke-width:2.1166;stroke-miterlimit:10;}
	.st79{fill:#AFAFAF;stroke:#000000;stroke-width:1.6517;stroke-linecap:round;stroke-linejoin:round;stroke-miterlimit:10;}
	.st80{clip-path:url(#SVGID_26_);fill:#FFFFFF;}
	.st81{fill:#FFFFFF;stroke:#000000;stroke-linecap:round;stroke-linejoin:round;stroke-miterlimit:10;}
	.st82{fill:none;stroke:#000000;stroke-linecap:round;stroke-linejoin:round;stroke-miterlimit:10;}
	.st83{fill:#EDEDED;}
	.st84{fill:#2E9EFF;}
	.st85{clip-path:url(#SVGID_28_);}
	.st86{clip-path:url(#SVGID_30_);}
	.st87{fill:#0684F2;}
	.st88{fill:none;stroke:#575756;stroke-width:0.25;stroke-miterlimit:10;}
	.st89{fill:#0AAFF1;}
	.st90{fill:none;stroke:#FFFFFF;stroke-miterlimit:10;}
	.st91{fill:#4A4A49;}
	.st92{fill:none;stroke:#B2B2B2;stroke-width:0.5;stroke-miterlimit:10;}
	.st93{clip-path:url(#SVGID_32_);}
	.st94{clip-path:url(#SVGID_34_);}
	.st95{clip-path:url(#SVGID_36_);}
	.st96{fill:#F8CEB0;stroke:#000000;stroke-width:3.5;stroke-miterlimit:10;}
	.st97{fill:none;stroke:#000000;stroke-width:3.5;stroke-miterlimit:10;}
	.st98{clip-path:url(#SVGID_38_);}
	.st99{clip-path:url(#SVGID_40_);fill:#FFFFFF;}
</style>
<g id="base">
</g>
<g id="guías">
	<g>
		<defs>
			<rect id="SVGID_37_" x="-97.9" y="-726.81" width="557.55" height="597.94"/>
		</defs>
		<clipPath id="SVGID_4_">
			<use xlink:href="#SVGID_37_"  style="overflow:visible;"/>
		</clipPath>
		<g class="st23">
			<path class="st67" d="M424.3-369.02c-8.04-17.39-25.39-28.18-42.91-35.7c-24.81-10.64-51.07-13.78-77.08-19.61
				c-2.77,3.5-5.6,6.63-8.71,9.65c-6.03,5.85-11.33,11.16-18.41,16.08c-12.15,8.43-25.48,12.55-40.4,12.72
				c-2.25,13.19-4.11,25.43-6.98,38.76c-2.34,10.86-5.46,22.66-13.52,30.98c-1.55,1.6-3.79,0.49-3.92-1.59
				c-1.51-24.83-2.27-49.8-3.96-74.66c-0.01-0.11,0-0.21,0-0.31c-7.6-6.55-11.81-13.35-13.78-23.34c-0.32-1.63-0.57-4.18-0.68-5.98
				c-3.82,0.51-7.72,0.6-11.52,1.26c-5.35,0.93-10.69,2.08-15.87,3.67c-11.93,3.67-21.7,9.75-31.46,17.38
				c-0.82,0.64-1.96-0.32-1.32-1.2c2.15-2.96,4.8-5.41,7.64-7.73c-7.59,1.82-15.28,3.02-22.89,4.85
				c-14.17,3.4-27.38,7.17-38.56,16.81c-4.35,3.75-7.96,7.78-12.14,11.5c-5.75,5.12-11.24,10.11-17.49,14.61
				c-6.25,4.5-12.97,8.09-19.33,12.56s-12.66,9.45-18.87,14.2c-1.12,2.53-2.23,5.03-3.34,7.55c0.24,0.75,0.39,1.47,0.66,2.24
				c7.55,21.8,18.66,40.38,36.99,54.62c4.45,3.46,9.1,5.95,14.4,7.3c6.03,1.53,10.98-0.61,15.58-4.56
				c6.77-5.81,12.07-13.1,20.39-16.94c0.92-3.7,1.89-7.31,2.87-10.97c4.5-16.88,8.15-34.02,13.05-50.79
				c2.69-9.19,6.44-17.93,10.31-26.65c0.59-1.34,2.5-0.42,1.98,0.92c-3.24,8.36-6.68,16.63-8.91,25.37
				c-3.66,14.37-6.43,28.84-9.98,43.28c-6.34,25.8-12.99,51.44-10.86,78.25c1.14,14.36,5.38,28.15,8.3,42.2
				c2.46,11.83,5,23.62,6.7,35.62c3.46,24.38,4.77,48.78,3.28,73.38c-0.9,14.76-3,29.27-5.64,43.8c-1.38,7.59-3.15,14.95-5.08,22.47
				c-2.07,8.09-4.25,16.29-7.47,24.1c1.2-0.11-0.03-0.4,0.36-0.58c35.43-15.53,52.92-18.05,96.96-16.52
				c41.47,1.44,108.6,17.41,153.58,26.59c0.14-4.99-1.18-9.66-3.93-15.18c-10.83,0.27-65.48-2.55-68.04-5.83
				c-9.3-11.91,13.69-9.43,17.36-11.14c2.74-1.27,7.31-1.11,10.11-2.22c-1.04,0.05-2.16,0.04-3.27,0.04
				c-10.63-0.01-21.08-0.07-31.81-0.23c-3.91-0.06-8.58,0.45-11.59-2.71c-3.01-3.16-2-7.2,0.16-10.51c-2.04,0.15-3.91,0.6-6.05,0.49
				c-4.11-0.2-8.37-1.39-9.93-5.58c-0.98-2.64,0.15-4.88,2.39-6.32c2.24-1.44,4.82-2.17,7.28-3.27c2.46-1.1,5.14-2.16,7.65-3.21
				c-0.21-0.01-0.4,0.01-0.62-0.01c-4.69-0.52-8.57-1.73-11.58-5.56c-0.69-0.88-1.04-1.79-1.26-3c-0.22-1.21-0.06-2.67,0.86-3.74
				c1.72-1.99,4.22-2.81,6.71-3.31c13.53-2.72,26.94-5.33,40.42-8.14c6.63-1.38,13.28-2.85,19.95-4.17
				c3.31-0.65,6.7-1.24,10.09-1.15c2.14,0.06,4.27,0.41,6.33,0.88c5.29,1.19,10.36,2.79,15.4,4.72c1.86,0.71,3.35,2.57,5.5,2.09
				c0.02-0.01,0.01,0,0-0.02c-0.47-0.9-1.65-1.07-1.72-2.25c-1.06-18.02,0.37-36.41,1.62-54.28c1.25-17.87,2.76-35.26,5.43-52.79
				c1.33-8.72,3.12-17.36,5.02-25.85c3.22,2.27,8.62,5.69,14.01,7.44c8.48,2.75,24.8,3.32,41.26-2.45
				c16.46-5.77,32.6-22.05,32.2-27.62c-0.11-1.53-0.67-6.12-1.41-11.96C443.69-257.2,428.5-359.93,424.3-369.02z"/>
			<g>
				<defs>
					<path id="SVGID_39_" d="M424.3-369.02c-8.04-17.39-25.39-28.18-42.91-35.7c-24.81-10.64-51.07-13.78-77.08-19.61
						c-2.77,3.5-5.6,6.63-8.71,9.65c-6.03,5.85-11.33,11.16-18.41,16.08c-12.15,8.43-25.48,12.55-40.4,12.72
						c-2.25,13.19-4.11,25.43-6.98,38.76c-2.34,10.86-5.46,22.66-13.52,30.98c-1.55,1.6-3.79,0.49-3.92-1.59
						c-1.51-24.83-2.27-49.8-3.96-74.66c-0.01-0.11,0-0.21,0-0.31c-7.6-6.55-11.81-13.35-13.78-23.34
						c-0.32-1.63-0.57-4.18-0.68-5.98c-3.82,0.51-7.72,0.6-11.52,1.26c-5.35,0.93-10.69,2.08-15.87,3.67
						c-11.93,3.67-21.7,9.75-31.46,17.38c-0.82,0.64-1.96-0.32-1.32-1.2c2.15-2.96,4.8-5.41,7.64-7.73
						c-7.59,1.82-15.28,3.02-22.89,4.85c-14.17,3.4-27.38,7.17-38.56,16.81c-4.35,3.75-7.96,7.78-12.14,11.5
						c-5.75,5.12-11.24,10.11-17.49,14.61c-6.25,4.5-12.97,8.09-19.33,12.56s-12.66,9.45-18.87,14.2c-1.12,2.53-2.23,5.03-3.34,7.55
						c0.24,0.75,0.39,1.47,0.66,2.24c7.55,21.8,18.66,40.38,36.99,54.62c4.45,3.46,9.1,5.95,14.4,7.3
						c6.03,1.53,10.98-0.61,15.58-4.56c6.77-5.81,12.07-13.1,20.39-16.94c0.92-3.7,1.89-7.31,2.87-10.97
						c4.5-16.88,8.15-34.02,13.05-50.79c2.69-9.19,6.44-17.93,10.31-26.65c0.59-1.34,2.5-0.42,1.98,0.92
						c-3.24,8.36-6.68,16.63-8.91,25.37c-3.66,14.37-6.43,28.84-9.98,43.28c-6.34,25.8-12.99,51.44-10.86,78.25
						c1.14,14.36,5.38,28.15,8.3,42.2c2.46,11.83,5,23.62,6.7,35.62c3.46,24.38,4.77,48.78,3.28,73.38c-0.9,14.76-3,29.27-5.64,43.8
						c-1.38,7.59-3.15,14.95-5.08,22.47c-2.07,8.09-4.25,16.29-7.47,24.1c1.2-0.11-0.03-0.4,0.36-0.58
						c35.43-15.53,52.92-18.05,96.96-16.52c41.47,1.44,108.6,17.41,153.58,26.59c0.14-4.99-1.18-9.66-3.93-15.18
						c-10.83,0.27-65.48-2.55-68.04-5.83c-9.3-11.91,13.69-9.43,17.36-11.14c2.74-1.27,7.31-1.11,10.11-2.22
						c-1.04,0.05-2.16,0.04-3.27,0.04c-10.63-0.01-21.08-0.07-31.81-0.23c-3.91-0.06-8.58,0.45-11.59-2.71
						c-3.01-3.16-2-7.2,0.16-10.51c-2.04,0.15-3.91,0.6-6.05,0.49c-4.11-0.2-8.37-1.39-9.93-5.58c-0.98-2.64,0.15-4.88,2.39-6.32
						c2.24-1.44,4.82-2.17,7.28-3.27c2.46-1.1,5.14-2.16,7.65-3.21c-0.21-0.01-0.4,0.01-0.62-0.01c-4.69-0.52-8.57-1.73-11.58-5.56
						c-0.69-0.88-1.04-1.79-1.26-3c-0.22-1.21-0.06-2.67,0.86-3.74c1.72-1.99,4.22-2.81,6.71-3.31c13.53-2.72,26.94-5.33,40.42-8.14
						c6.63-1.38,13.28-2.85,19.95-4.17c3.31-0.65,6.7-1.24,10.09-1.15c2.14,0.06,4.27,0.41,6.33,0.88
						c5.29,1.19,10.36,2.79,15.4,4.72c1.86,0.71,3.35,2.57,5.5,2.09c0.02-0.01,0.01,0,0-0.02c-0.47-0.9-1.65-1.07-1.72-2.25
						c-1.06-18.02,0.37-36.41,1.62-54.28c1.25-17.87,2.76-35.26,5.43-52.79c1.33-8.72,3.12-17.36,5.02-25.85
						c3.22,2.27,8.62,5.69,14.01,7.44c8.48,2.75,24.8,3.32,41.26-2.45c16.46-5.77,32.6-22.05,32.2-27.62
						c-0.11-1.53-0.67-6.12-1.41-11.96C443.69-257.2,428.5-359.93,424.3-369.02z"/>
				</defs>
				<clipPath id="SVGID_6_">
					<use xlink:href="#SVGID_39_"  style="overflow:visible;"/>
				</clipPath>
				<path style="clip-path:url(#SVGID_6_);fill:#FFFFFF;" d="M455.75-400.37c0,2.6,2.11,4.71,4.71,4.71c2.6,0,4.71-2.11,4.71-4.71
					c0-2.6-2.11-4.71-4.71-4.71C457.86-405.08,455.75-402.97,455.75-400.37z M421.2-407.05c2.6,0,4.71,2.11,4.71,4.71
					c0,2.6-2.11,4.71-4.71,4.71c-2.6,0-4.71-2.11-4.71-4.71C416.49-404.95,418.6-407.05,421.2-407.05z M381.94-409.03
					c2.6,0,4.71,2.11,4.71,4.71s-2.11,4.71-4.71,4.71s-4.71-2.11-4.71-4.71S379.34-409.03,381.94-409.03z M342.69-411
					c2.6,0,4.71,2.11,4.71,4.71s-2.11,4.71-4.71,4.71s-4.71-2.11-4.71-4.71S340.09-411,342.69-411z M303.43-412.98
					c2.6,0,4.71,2.11,4.71,4.71s-2.11,4.71-4.71,4.71s-4.71-2.11-4.71-4.71S300.83-412.98,303.43-412.98z M185.66-418.9
					c2.6,0,4.71,2.11,4.71,4.71s-2.11,4.71-4.71,4.71c-2.6,0-4.71-2.11-4.71-4.71S183.06-418.9,185.66-418.9z M146.41-420.88
					c2.6,0,4.71,2.11,4.71,4.71c0,2.6-2.11,4.71-4.71,4.71s-4.71-2.11-4.71-4.71C141.7-418.77,143.81-420.88,146.41-420.88z
					 M107.15-422.85c2.6,0,4.71,2.11,4.71,4.71c0,2.6-2.11,4.71-4.71,4.71c-2.6,0-4.71-2.11-4.71-4.71
					C102.44-420.74,104.55-422.85,107.15-422.85z M67.9-424.83c2.6,0,4.71,2.11,4.71,4.71c0,2.6-2.11,4.71-4.71,4.71
					c-2.6,0-4.71-2.11-4.71-4.71C63.19-422.72,65.3-424.83,67.9-424.83z M28.64-426.8c2.6,0,4.71,2.11,4.71,4.71
					c0,2.6-2.11,4.71-4.71,4.71s-4.71-2.11-4.71-4.71C23.93-424.69,26.04-426.8,28.64-426.8z M479.41-374.69
					c2.6,0,4.71,2.11,4.71,4.71s-2.11,4.71-4.71,4.71c-2.6,0-4.71-2.11-4.71-4.71S476.81-374.69,479.41-374.69z M440.15-376.66
					c2.6,0,4.71,2.11,4.71,4.71s-2.11,4.71-4.71,4.71c-2.6,0-4.71-2.11-4.71-4.71S437.55-376.66,440.15-376.66z M400.89-378.64
					c2.6,0,4.71,2.11,4.71,4.71c0,2.6-2.11,4.71-4.71,4.71c-2.6,0-4.71-2.11-4.71-4.71C396.19-376.53,398.29-378.64,400.89-378.64z
					 M361.64-380.61c2.6,0,4.71,2.11,4.71,4.71c0,2.6-2.11,4.71-4.71,4.71s-4.71-2.11-4.71-4.71
					C356.93-378.5,359.04-380.61,361.64-380.61z M322.38-382.59c2.6,0,4.71,2.11,4.71,4.71c0,2.6-2.11,4.71-4.71,4.71
					s-4.71-2.11-4.71-4.71C317.67-380.48,319.78-382.59,322.38-382.59z M283.13-384.56c2.6,0,4.71,2.11,4.71,4.71
					c0,2.6-2.11,4.71-4.71,4.71s-4.71-2.11-4.71-4.71C278.42-382.45,280.53-384.56,283.13-384.56z M165.36-390.49
					c2.6,0,4.71,2.11,4.71,4.71c0,2.6-2.11,4.71-4.71,4.71s-4.71-2.11-4.71-4.71C160.65-388.38,162.76-390.49,165.36-390.49z
					 M126.1-392.46c2.6,0,4.71,2.11,4.71,4.71c0,2.6-2.11,4.71-4.71,4.71c-2.6,0-4.71-2.11-4.71-4.71
					C121.39-390.35,123.5-392.46,126.1-392.46z M86.84-394.43c2.6,0,4.71,2.11,4.71,4.71c0,2.6-2.11,4.71-4.71,4.71
					c-2.6,0-4.71-2.11-4.71-4.71C82.14-392.33,84.25-394.43,86.84-394.43z M47.59-396.41c2.6,0,4.71,2.11,4.71,4.71
					c0,2.6-2.11,4.71-4.71,4.71s-4.71-2.11-4.71-4.71C42.88-394.3,44.99-396.41,47.59-396.41z M8.33-398.38
					c2.6,0,4.71,2.11,4.71,4.71c0,2.6-2.11,4.71-4.71,4.71s-4.71-2.11-4.71-4.71C3.63-396.28,5.73-398.38,8.33-398.38z
					 M460.46-345.98c2.6,0,4.71,2.11,4.71,4.71c0,2.6-2.11,4.71-4.71,4.71c-2.6,0-4.71-2.11-4.71-4.71
					C455.75-343.87,457.86-345.98,460.46-345.98z M421.2-347.95c2.6,0,4.71,2.11,4.71,4.71c0,2.6-2.11,4.71-4.71,4.71
					c-2.6,0-4.71-2.11-4.71-4.71C416.49-345.84,418.6-347.95,421.2-347.95z M381.94-349.93c2.6,0,4.71,2.11,4.71,4.71
					c0,2.6-2.11,4.71-4.71,4.71s-4.71-2.11-4.71-4.71C377.24-347.82,379.34-349.93,381.94-349.93z M342.69-351.9
					c2.6,0,4.71,2.11,4.71,4.71c0,2.6-2.11,4.71-4.71,4.71s-4.71-2.11-4.71-4.71C337.98-349.79,340.09-351.9,342.69-351.9z
					 M303.43-353.88c2.6,0,4.71,2.11,4.71,4.71c0,2.6-2.11,4.71-4.71,4.71s-4.71-2.11-4.71-4.71
					C298.72-351.77,300.83-353.88,303.43-353.88z M264.18-355.85c2.6,0,4.71,2.11,4.71,4.71c0,2.6-2.11,4.71-4.71,4.71
					c-2.6,0-4.71-2.11-4.71-4.71C259.47-353.74,261.58-355.85,264.18-355.85z M185.66-359.8c2.6,0,4.71,2.11,4.71,4.71
					s-2.11,4.71-4.71,4.71c-2.6,0-4.71-2.11-4.71-4.71S183.06-359.8,185.66-359.8z M146.41-361.77c2.6,0,4.71,2.11,4.71,4.71
					s-2.11,4.71-4.71,4.71s-4.71-2.11-4.71-4.71S143.81-361.77,146.41-361.77z M107.15-363.75c2.6,0,4.71,2.11,4.71,4.71
					s-2.11,4.71-4.71,4.71c-2.6,0-4.71-2.11-4.71-4.71S104.55-363.75,107.15-363.75z M67.9-365.72c2.6,0,4.71,2.11,4.71,4.71
					s-2.11,4.71-4.71,4.71c-2.6,0-4.71-2.11-4.71-4.71S65.3-365.72,67.9-365.72z M28.64-367.7c2.6,0,4.71,2.11,4.71,4.71
					s-2.11,4.71-4.71,4.71s-4.71-2.11-4.71-4.71S26.04-367.7,28.64-367.7z M479.41-315.59c2.6,0,4.71,2.11,4.71,4.71
					s-2.11,4.71-4.71,4.71c-2.6,0-4.71-2.11-4.71-4.71S476.81-315.59,479.41-315.59z M440.15-317.56c2.6,0,4.71,2.11,4.71,4.71
					s-2.11,4.71-4.71,4.71c-2.6,0-4.71-2.11-4.71-4.71S437.55-317.56,440.15-317.56z M400.89-319.53c2.6,0,4.71,2.11,4.71,4.71
					s-2.11,4.71-4.71,4.71c-2.6,0-4.71-2.11-4.71-4.71S398.29-319.53,400.89-319.53z M361.64-321.51c2.6,0,4.71,2.11,4.71,4.71
					s-2.11,4.71-4.71,4.71s-4.71-2.11-4.71-4.71S359.04-321.51,361.64-321.51z M322.38-323.48c2.6,0,4.71,2.11,4.71,4.71
					s-2.11,4.71-4.71,4.71s-4.71-2.11-4.71-4.71S319.78-323.48,322.38-323.48z M283.13-325.46c2.6,0,4.71,2.11,4.71,4.71
					s-2.11,4.71-4.71,4.71s-4.71-2.11-4.71-4.71S280.53-325.46,283.13-325.46z M165.36-331.38c2.6,0,4.71,2.11,4.71,4.71
					c0,2.6-2.11,4.71-4.71,4.71s-4.71-2.11-4.71-4.71C160.65-329.28,162.76-331.38,165.36-331.38z M126.1-333.36
					c2.6,0,4.71,2.11,4.71,4.71c0,2.6-2.11,4.71-4.71,4.71c-2.6,0-4.71-2.11-4.71-4.71C121.39-331.25,123.5-333.36,126.1-333.36z
					 M86.84-335.33c2.6,0,4.71,2.11,4.71,4.71c0,2.6-2.11,4.71-4.71,4.71c-2.6,0-4.71-2.11-4.71-4.71
					C82.14-333.23,84.25-335.33,86.84-335.33z M47.59-337.31c2.6,0,4.71,2.11,4.71,4.71c0,2.6-2.11,4.71-4.71,4.71
					s-4.71-2.11-4.71-4.71C42.88-335.2,44.99-337.31,47.59-337.31z M8.33-339.28c2.6,0,4.71,2.11,4.71,4.71
					c0,2.6-2.11,4.71-4.71,4.71s-4.71-2.11-4.71-4.71C3.63-337.17,5.73-339.28,8.33-339.28z M460.46-286.87
					c2.6,0,4.71,2.11,4.71,4.71c0,2.6-2.11,4.71-4.71,4.71c-2.6,0-4.71-2.11-4.71-4.71C455.75-284.77,457.86-286.87,460.46-286.87z
					 M421.2-288.85c2.6,0,4.71,2.11,4.71,4.71c0,2.6-2.11,4.71-4.71,4.71c-2.6,0-4.71-2.11-4.71-4.71
					C416.49-286.74,418.6-288.85,421.2-288.85z M381.94-290.82c2.6,0,4.71,2.11,4.71,4.71c0,2.6-2.11,4.71-4.71,4.71
					s-4.71-2.11-4.71-4.71C377.24-288.72,379.34-290.82,381.94-290.82z M342.69-292.8c2.6,0,4.71,2.11,4.71,4.71
					c0,2.6-2.11,4.71-4.71,4.71s-4.71-2.11-4.71-4.71C337.98-290.69,340.09-292.8,342.69-292.8z M303.43-294.77
					c2.6,0,4.71,2.11,4.71,4.71c0,2.6-2.11,4.71-4.71,4.71s-4.71-2.11-4.71-4.71C298.72-292.67,300.83-294.77,303.43-294.77z
					 M264.18-296.75c2.6,0,4.71,2.11,4.71,4.71c0,2.6-2.11,4.71-4.71,4.71c-2.6,0-4.71-2.11-4.71-4.71
					C259.47-294.64,261.58-296.75,264.18-296.75z M224.92-298.72c2.6,0,4.71,2.11,4.71,4.71c0,2.6-2.11,4.71-4.71,4.71
					c-2.6,0-4.71-2.11-4.71-4.71C220.21-296.62,222.32-298.72,224.92-298.72z M185.66-300.7c2.6,0,4.71,2.11,4.71,4.71
					c0,2.6-2.11,4.71-4.71,4.71c-2.6,0-4.71-2.11-4.71-4.71C180.96-298.59,183.06-300.7,185.66-300.7z M146.41-302.67
					c2.6,0,4.71,2.11,4.71,4.71c0,2.6-2.11,4.71-4.71,4.71s-4.71-2.11-4.71-4.71C141.7-300.56,143.81-302.67,146.41-302.67z
					 M107.15-304.65c2.6,0,4.71,2.11,4.71,4.71s-2.11,4.71-4.71,4.71c-2.6,0-4.71-2.11-4.71-4.71S104.55-304.65,107.15-304.65z
					 M67.9-306.62c2.6,0,4.71,2.11,4.71,4.71s-2.11,4.71-4.71,4.71c-2.6,0-4.71-2.11-4.71-4.71S65.3-306.62,67.9-306.62z
					 M28.64-308.6c2.6,0,4.71,2.11,4.71,4.71s-2.11,4.71-4.71,4.71s-4.71-2.11-4.71-4.71S26.04-308.6,28.64-308.6z M479.41-256.48
					c2.6,0,4.71,2.11,4.71,4.71c0,2.6-2.11,4.71-4.71,4.71c-2.6,0-4.71-2.11-4.71-4.71C474.7-254.38,476.81-256.48,479.41-256.48z
					 M440.15-258.46c2.6,0,4.71,2.11,4.71,4.71c0,2.6-2.11,4.71-4.71,4.71c-2.6,0-4.71-2.11-4.71-4.71
					C435.44-256.35,437.55-258.46,440.15-258.46z M400.89-260.43c2.6,0,4.71,2.11,4.71,4.71c0,2.6-2.11,4.71-4.71,4.71
					c-2.6,0-4.71-2.11-4.71-4.71C396.19-258.33,398.29-260.43,400.89-260.43z M361.64-262.41c2.6,0,4.71,2.11,4.71,4.71
					c0,2.6-2.11,4.71-4.71,4.71s-4.71-2.11-4.71-4.71C356.93-260.3,359.04-262.41,361.64-262.41z M322.38-264.38
					c2.6,0,4.71,2.11,4.71,4.71s-2.11,4.71-4.71,4.71s-4.71-2.11-4.71-4.71S319.78-264.38,322.38-264.38z M283.13-266.36
					c2.6,0,4.71,2.11,4.71,4.71s-2.11,4.71-4.71,4.71s-4.71-2.11-4.71-4.71S280.53-266.36,283.13-266.36z M243.87-268.33
					c2.6,0,4.71,2.11,4.71,4.71s-2.11,4.71-4.71,4.71c-2.6,0-4.71-2.11-4.71-4.71S241.27-268.33,243.87-268.33z M204.61-270.31
					c2.6,0,4.71,2.11,4.71,4.71s-2.11,4.71-4.71,4.71c-2.6,0-4.71-2.11-4.71-4.71S202.01-270.31,204.61-270.31z M165.36-272.28
					c2.6,0,4.71,2.11,4.71,4.71s-2.11,4.71-4.71,4.71s-4.71-2.11-4.71-4.71S162.76-272.28,165.36-272.28z M126.1-274.26
					c2.6,0,4.71,2.11,4.71,4.71c0,2.6-2.11,4.71-4.71,4.71c-2.6,0-4.71-2.11-4.71-4.71C121.39-272.15,123.5-274.26,126.1-274.26z
					 M86.84-276.23c2.6,0,4.71,2.11,4.71,4.71c0,2.6-2.11,4.71-4.71,4.71c-2.6,0-4.71-2.11-4.71-4.71
					C82.14-274.12,84.25-276.23,86.84-276.23z M47.59-278.21c2.6,0,4.71,2.11,4.71,4.71c0,2.6-2.11,4.71-4.71,4.71
					s-4.71-2.11-4.71-4.71C42.88-276.1,44.99-278.21,47.59-278.21z M8.33-280.18c2.6,0,4.71,2.11,4.71,4.71
					c0,2.6-2.11,4.71-4.71,4.71s-4.71-2.11-4.71-4.71C3.63-278.07,5.73-280.18,8.33-280.18z M460.46-227.77
					c2.6,0,4.71,2.11,4.71,4.71c0,2.6-2.11,4.71-4.71,4.71c-2.6,0-4.71-2.11-4.71-4.71C455.75-225.66,457.86-227.77,460.46-227.77z
					 M421.2-229.75c2.6,0,4.71,2.11,4.71,4.71c0,2.6-2.11,4.71-4.71,4.71c-2.6,0-4.71-2.11-4.71-4.71
					C416.49-227.64,418.6-229.75,421.2-229.75z M381.94-231.72c2.6,0,4.71,2.11,4.71,4.71c0,2.6-2.11,4.71-4.71,4.71
					s-4.71-2.11-4.71-4.71C377.24-229.61,379.34-231.72,381.94-231.72z M342.69-233.7c2.6,0,4.71,2.11,4.71,4.71
					c0,2.6-2.11,4.71-4.71,4.71s-4.71-2.11-4.71-4.71C337.98-231.59,340.09-233.7,342.69-233.7z M303.43-235.67
					c2.6,0,4.71,2.11,4.71,4.71c0,2.6-2.11,4.71-4.71,4.71s-4.71-2.11-4.71-4.71C298.72-233.56,300.83-235.67,303.43-235.67z
					 M264.18-237.65c2.6,0,4.71,2.11,4.71,4.71s-2.11,4.71-4.71,4.71c-2.6,0-4.71-2.11-4.71-4.71S261.58-237.65,264.18-237.65z
					 M224.92-239.62c2.6,0,4.71,2.11,4.71,4.71s-2.11,4.71-4.71,4.71c-2.6,0-4.71-2.11-4.71-4.71S222.32-239.62,224.92-239.62z
					 M185.66-241.6c2.6,0,4.71,2.11,4.71,4.71s-2.11,4.71-4.71,4.71c-2.6,0-4.71-2.11-4.71-4.71S183.06-241.6,185.66-241.6z
					 M146.41-243.57c2.6,0,4.71,2.11,4.71,4.71c0,2.6-2.11,4.71-4.71,4.71s-4.71-2.11-4.71-4.71
					C141.7-241.46,143.81-243.57,146.41-243.57z M107.15-245.54c2.6,0,4.71,2.11,4.71,4.71c0,2.6-2.11,4.71-4.71,4.71
					c-2.6,0-4.71-2.11-4.71-4.71C102.44-243.44,104.55-245.54,107.15-245.54z M67.9-247.52c2.6,0,4.71,2.11,4.71,4.71
					c0,2.6-2.11,4.71-4.71,4.71c-2.6,0-4.71-2.11-4.71-4.71C63.19-245.41,65.3-247.52,67.9-247.52z M28.64-249.49
					c2.6,0,4.71,2.11,4.71,4.71c0,2.6-2.11,4.71-4.71,4.71s-4.71-2.11-4.71-4.71C23.93-247.39,26.04-249.49,28.64-249.49z
					 M479.41-197.38c2.6,0,4.71,2.11,4.71,4.71s-2.11,4.71-4.71,4.71c-2.6,0-4.71-2.11-4.71-4.71S476.81-197.38,479.41-197.38z
					 M440.15-199.36c2.6,0,4.71,2.11,4.71,4.71s-2.11,4.71-4.71,4.71c-2.6,0-4.71-2.11-4.71-4.71S437.55-199.36,440.15-199.36z
					 M400.89-201.33c2.6,0,4.71,2.11,4.71,4.71c0,2.6-2.11,4.71-4.71,4.71c-2.6,0-4.71-2.11-4.71-4.71
					C396.19-199.22,398.29-201.33,400.89-201.33z M361.64-203.31c2.6,0,4.71,2.11,4.71,4.71c0,2.6-2.11,4.71-4.71,4.71
					s-4.71-2.11-4.71-4.71C356.93-201.2,359.04-203.31,361.64-203.31z M322.38-205.28c2.6,0,4.71,2.11,4.71,4.71
					c0,2.6-2.11,4.71-4.71,4.71s-4.71-2.11-4.71-4.71C317.67-203.17,319.78-205.28,322.38-205.28z M283.13-207.25
					c2.6,0,4.71,2.11,4.71,4.71c0,2.6-2.11,4.71-4.71,4.71s-4.71-2.11-4.71-4.71C278.42-205.15,280.53-207.25,283.13-207.25z
					 M243.87-209.23c2.6,0,4.71,2.11,4.71,4.71c0,2.6-2.11,4.71-4.71,4.71c-2.6,0-4.71-2.11-4.71-4.71
					C239.16-207.12,241.27-209.23,243.87-209.23z M204.61-211.2c2.6,0,4.71,2.11,4.71,4.71c0,2.6-2.11,4.71-4.71,4.71
					c-2.6,0-4.71-2.11-4.71-4.71C199.91-209.1,202.01-211.2,204.61-211.2z M165.36-213.18c2.6,0,4.71,2.11,4.71,4.71
					s-2.11,4.71-4.71,4.71s-4.71-2.11-4.71-4.71S162.76-213.18,165.36-213.18z M126.1-215.15c2.6,0,4.71,2.11,4.71,4.71
					s-2.11,4.71-4.71,4.71c-2.6,0-4.71-2.11-4.71-4.71S123.5-215.15,126.1-215.15z M86.84-217.13c2.6,0,4.71,2.11,4.71,4.71
					s-2.11,4.71-4.71,4.71c-2.6,0-4.71-2.11-4.71-4.71S84.25-217.13,86.84-217.13z M47.59-219.1c2.6,0,4.71,2.11,4.71,4.71
					c0,2.6-2.11,4.71-4.71,4.71s-4.71-2.11-4.71-4.71C42.88-217,44.99-219.1,47.59-219.1z M8.33-221.08c2.6,0,4.71,2.11,4.71,4.71
					c0,2.6-2.11,4.71-4.71,4.71s-4.71-2.11-4.71-4.71C3.63-218.97,5.73-221.08,8.33-221.08z M460.46-168.67
					c2.6,0,4.71,2.11,4.71,4.71s-2.11,4.71-4.71,4.71c-2.6,0-4.71-2.11-4.71-4.71S457.86-168.67,460.46-168.67z M421.2-170.64
					c2.6,0,4.71,2.11,4.71,4.71s-2.11,4.71-4.71,4.71c-2.6,0-4.71-2.11-4.71-4.71S418.6-170.64,421.2-170.64z M381.94-172.62
					c2.6,0,4.71,2.11,4.71,4.71c0,2.6-2.11,4.71-4.71,4.71s-4.71-2.11-4.71-4.71C377.24-170.51,379.34-172.62,381.94-172.62z
					 M342.69-174.59c2.6,0,4.71,2.11,4.71,4.71c0,2.6-2.11,4.71-4.71,4.71s-4.71-2.11-4.71-4.71
					C337.98-172.49,340.09-174.59,342.69-174.59z M303.43-176.57c2.6,0,4.71,2.11,4.71,4.71c0,2.6-2.11,4.71-4.71,4.71
					s-4.71-2.11-4.71-4.71C298.72-174.46,300.83-176.57,303.43-176.57z M264.18-178.54c2.6,0,4.71,2.11,4.71,4.71
					c0,2.6-2.11,4.71-4.71,4.71c-2.6,0-4.71-2.11-4.71-4.71C259.47-176.44,261.58-178.54,264.18-178.54z M224.92-180.52
					c2.6,0,4.71,2.11,4.71,4.71c0,2.6-2.11,4.71-4.71,4.71c-2.6,0-4.71-2.11-4.71-4.71C220.21-178.41,222.32-180.52,224.92-180.52z
					 M185.66-182.49c2.6,0,4.71,2.11,4.71,4.71c0,2.6-2.11,4.71-4.71,4.71c-2.6,0-4.71-2.11-4.71-4.71
					C180.96-180.39,183.06-182.49,185.66-182.49z M146.41-184.47c2.6,0,4.71,2.11,4.71,4.71s-2.11,4.71-4.71,4.71
					s-4.71-2.11-4.71-4.71S143.81-184.47,146.41-184.47z M107.15-186.44c2.6,0,4.71,2.11,4.71,4.71s-2.11,4.71-4.71,4.71
					c-2.6,0-4.71-2.11-4.71-4.71S104.55-186.44,107.15-186.44z M67.9-188.42c2.6,0,4.71,2.11,4.71,4.71S70.49-179,67.9-179
					c-2.6,0-4.71-2.11-4.71-4.71S65.3-188.42,67.9-188.42z M28.64-190.39c2.6,0,4.71,2.11,4.71,4.71s-2.11,4.71-4.71,4.71
					s-4.71-2.11-4.71-4.71S26.04-190.39,28.64-190.39z M479.41-138.28c2.6,0,4.71,2.11,4.71,4.71c0,2.6-2.11,4.71-4.71,4.71
					c-2.6,0-4.71-2.11-4.71-4.71C474.7-136.17,476.81-138.28,479.41-138.28z M440.15-140.25c2.6,0,4.71,2.11,4.71,4.71
					c0,2.6-2.11,4.71-4.71,4.71c-2.6,0-4.71-2.11-4.71-4.71C435.44-138.15,437.55-140.25,440.15-140.25z M400.89-142.23
					c2.6,0,4.71,2.11,4.71,4.71s-2.11,4.71-4.71,4.71c-2.6,0-4.71-2.11-4.71-4.71S398.29-142.23,400.89-142.23z M361.64-144.2
					c2.6,0,4.71,2.11,4.71,4.71s-2.11,4.71-4.71,4.71s-4.71-2.11-4.71-4.71S359.04-144.2,361.64-144.2z M322.38-146.18
					c2.6,0,4.71,2.11,4.71,4.71s-2.11,4.71-4.71,4.71s-4.71-2.11-4.71-4.71S319.78-146.18,322.38-146.18z M283.13-148.15
					c2.6,0,4.71,2.11,4.71,4.71c0,2.6-2.11,4.71-4.71,4.71s-4.71-2.11-4.71-4.71C278.42-146.05,280.53-148.15,283.13-148.15z
					 M243.87-150.13c2.6,0,4.71,2.11,4.71,4.71c0,2.6-2.11,4.71-4.71,4.71c-2.6,0-4.71-2.11-4.71-4.71
					C239.16-148.02,241.27-150.13,243.87-150.13z M204.61-152.1c2.6,0,4.71,2.11,4.71,4.71c0,2.6-2.11,4.71-4.71,4.71
					c-2.6,0-4.71-2.11-4.71-4.71C199.91-149.99,202.01-152.1,204.61-152.1z M165.36-154.08c2.6,0,4.71,2.11,4.71,4.71
					c0,2.6-2.11,4.71-4.71,4.71s-4.71-2.11-4.71-4.71C160.65-151.97,162.76-154.08,165.36-154.08z M126.1-156.05
					c2.6,0,4.71,2.11,4.71,4.71c0,2.6-2.11,4.71-4.71,4.71c-2.6,0-4.71-2.11-4.71-4.71C121.39-153.94,123.5-156.05,126.1-156.05z
					 M86.84-158.03c2.6,0,4.71,2.11,4.71,4.71c0,2.6-2.11,4.71-4.71,4.71c-2.6,0-4.71-2.11-4.71-4.71
					C82.14-155.92,84.25-158.03,86.84-158.03z M47.59-160c2.6,0,4.71,2.11,4.71,4.71s-2.11,4.71-4.71,4.71s-4.71-2.11-4.71-4.71
					S44.99-160,47.59-160z M8.33-161.98c2.6,0,4.71,2.11,4.71,4.71s-2.11,4.71-4.71,4.71s-4.71-2.11-4.71-4.71
					S5.73-161.98,8.33-161.98z M460.46-109.57c2.6,0,4.71,2.11,4.71,4.71c0,2.6-2.11,4.71-4.71,4.71c-2.6,0-4.71-2.11-4.71-4.71
					C455.75-107.46,457.86-109.57,460.46-109.57z M421.2-111.54c2.6,0,4.71,2.11,4.71,4.71c0,2.6-2.11,4.71-4.71,4.71
					c-2.6,0-4.71-2.11-4.71-4.71C416.49-109.43,418.6-111.54,421.2-111.54z M381.94-113.52c2.6,0,4.71,2.11,4.71,4.71
					c0,2.6-2.11,4.71-4.71,4.71s-4.71-2.11-4.71-4.71C377.24-111.41,379.34-113.52,381.94-113.52z M342.69-115.49
					c2.6,0,4.71,2.11,4.71,4.71s-2.11,4.71-4.71,4.71s-4.71-2.11-4.71-4.71S340.09-115.49,342.69-115.49z M303.43-117.47
					c2.6,0,4.71,2.11,4.71,4.71s-2.11,4.71-4.71,4.71s-4.71-2.11-4.71-4.71S300.83-117.47,303.43-117.47z M264.18-119.44
					c2.6,0,4.71,2.11,4.71,4.71c0,2.6-2.11,4.71-4.71,4.71c-2.6,0-4.71-2.11-4.71-4.71C259.47-117.33,261.58-119.44,264.18-119.44z
					 M224.92-121.42c2.6,0,4.71,2.11,4.71,4.71c0,2.6-2.11,4.71-4.71,4.71c-2.6,0-4.71-2.11-4.71-4.71
					C220.21-119.31,222.32-121.42,224.92-121.42z M185.66-123.39c2.6,0,4.71,2.11,4.71,4.71c0,2.6-2.11,4.71-4.71,4.71
					c-2.6,0-4.71-2.11-4.71-4.71C180.96-121.28,183.06-123.39,185.66-123.39z M146.41-125.37c2.6,0,4.71,2.11,4.71,4.71
					s-2.11,4.71-4.71,4.71s-4.71-2.11-4.71-4.71S143.81-125.37,146.41-125.37z M107.15-127.34c2.6,0,4.71,2.11,4.71,4.71
					c0,2.6-2.11,4.71-4.71,4.71c-2.6,0-4.71-2.11-4.71-4.71C102.44-125.23,104.55-127.34,107.15-127.34z M67.9-129.31
					c2.6,0,4.71,2.11,4.71,4.71c0,2.6-2.11,4.71-4.71,4.71c-2.6,0-4.71-2.11-4.71-4.71C63.19-127.21,65.3-129.31,67.9-129.31z
					 M28.64-131.29c2.6,0,4.71,2.11,4.71,4.71c0,2.6-2.11,4.71-4.71,4.71s-4.71-2.11-4.71-4.71
					C23.93-129.18,26.04-131.29,28.64-131.29z M479.41-79.18c2.6,0,4.71,2.11,4.71,4.71c0,2.6-2.11,4.71-4.71,4.71
					c-2.6,0-4.71-2.11-4.71-4.71C474.7-77.07,476.81-79.18,479.41-79.18z M440.15-81.15c2.6,0,4.71,2.11,4.71,4.71
					c0,2.6-2.11,4.71-4.71,4.71c-2.6,0-4.71-2.11-4.71-4.71C435.44-79.04,437.55-81.15,440.15-81.15z M400.89-83.13
					c2.6,0,4.71,2.11,4.71,4.71s-2.11,4.71-4.71,4.71c-2.6,0-4.71-2.11-4.71-4.71S398.29-83.13,400.89-83.13z M361.64-85.1
					c2.6,0,4.71,2.11,4.71,4.71c0,2.6-2.11,4.71-4.71,4.71s-4.71-2.11-4.71-4.71C356.93-82.99,359.04-85.1,361.64-85.1z
					 M322.38-87.08c2.6,0,4.71,2.11,4.71,4.71c0,2.6-2.11,4.71-4.71,4.71s-4.71-2.11-4.71-4.71
					C317.67-84.97,319.78-87.08,322.38-87.08z M283.13-89.05c2.6,0,4.71,2.11,4.71,4.71c0,2.6-2.11,4.71-4.71,4.71
					s-4.71-2.11-4.71-4.71C278.42-86.94,280.53-89.05,283.13-89.05z M243.87-91.03c2.6,0,4.71,2.11,4.71,4.71
					c0,2.6-2.11,4.71-4.71,4.71c-2.6,0-4.71-2.11-4.71-4.71C239.16-88.92,241.27-91.03,243.87-91.03z M204.61-93
					c2.6,0,4.71,2.11,4.71,4.71s-2.11,4.71-4.71,4.71c-2.6,0-4.71-2.11-4.71-4.71S202.01-93,204.61-93z M165.36-94.97
					c2.6,0,4.71,2.11,4.71,4.71c0,2.6-2.11,4.71-4.71,4.71s-4.71-2.11-4.71-4.71C160.65-92.87,162.76-94.97,165.36-94.97z
					 M126.1-96.95c2.6,0,4.71,2.11,4.71,4.71c0,2.6-2.11,4.71-4.71,4.71c-2.6,0-4.71-2.11-4.71-4.71
					C121.39-94.84,123.5-96.95,126.1-96.95z M86.84-98.92c2.6,0,4.71,2.11,4.71,4.71c0,2.6-2.11,4.71-4.71,4.71
					c-2.6,0-4.71-2.11-4.71-4.71C82.14-96.82,84.25-98.92,86.84-98.92z M47.59-100.9c2.6,0,4.71,2.11,4.71,4.71
					s-2.11,4.71-4.71,4.71s-4.71-2.11-4.71-4.71S44.99-100.9,47.59-100.9z M8.33-102.87c2.6,0,4.71,2.11,4.71,4.71
					s-2.11,4.71-4.71,4.71s-4.71-2.11-4.71-4.71S5.73-102.87,8.33-102.87z M460.46-50.47c2.6,0,4.71,2.11,4.71,4.71
					s-2.11,4.71-4.71,4.71c-2.6,0-4.71-2.11-4.71-4.71S457.86-50.47,460.46-50.47z M421.2-52.44c2.6,0,4.71,2.11,4.71,4.71
					c0,2.6-2.11,4.71-4.71,4.71c-2.6,0-4.71-2.11-4.71-4.71C416.49-50.33,418.6-52.44,421.2-52.44z M381.94-54.41
					c2.6,0,4.71,2.11,4.71,4.71S384.54-45,381.94-45s-4.71-2.11-4.71-4.71S379.34-54.41,381.94-54.41z M342.69-56.39
					c2.6,0,4.71,2.11,4.71,4.71c0,2.6-2.11,4.71-4.71,4.71s-4.71-2.11-4.71-4.71C337.98-54.28,340.09-56.39,342.69-56.39z
					 M303.43-58.36c2.6,0,4.71,2.11,4.71,4.71c0,2.6-2.11,4.71-4.71,4.71s-4.71-2.11-4.71-4.71
					C298.72-56.26,300.83-58.36,303.43-58.36z M264.18-60.34c2.6,0,4.71,2.11,4.71,4.71s-2.11,4.71-4.71,4.71
					c-2.6,0-4.71-2.11-4.71-4.71S261.58-60.34,264.18-60.34z M224.92-62.31c2.6,0,4.71,2.11,4.71,4.71c0,2.6-2.11,4.71-4.71,4.71
					c-2.6,0-4.71-2.11-4.71-4.71C220.21-60.21,222.32-62.31,224.92-62.31z M185.66-64.29c2.6,0,4.71,2.11,4.71,4.71
					s-2.11,4.71-4.71,4.71c-2.6,0-4.71-2.11-4.71-4.71S183.06-64.29,185.66-64.29z M146.41-66.26c2.6,0,4.71,2.11,4.71,4.71
					c0,2.6-2.11,4.71-4.71,4.71s-4.71-2.11-4.71-4.71C141.7-64.16,143.81-66.26,146.41-66.26z M107.15-68.24
					c2.6,0,4.71,2.11,4.71,4.71s-2.11,4.71-4.71,4.71c-2.6,0-4.71-2.11-4.71-4.71S104.55-68.24,107.15-68.24z M67.9-70.21
					c2.6,0,4.71,2.11,4.71,4.71c0,2.6-2.11,4.71-4.71,4.71c-2.6,0-4.71-2.11-4.71-4.71C63.19-68.11,65.3-70.21,67.9-70.21z
					 M28.64-72.19c2.6,0,4.71,2.11,4.71,4.71c0,2.6-2.11,4.71-4.71,4.71s-4.71-2.11-4.71-4.71C23.93-70.08,26.04-72.19,28.64-72.19z
					 M479.41-20.07c2.6,0,4.71,2.11,4.71,4.71s-2.11,4.71-4.71,4.71c-2.6,0-4.71-2.11-4.71-4.71S476.81-20.07,479.41-20.07z
					 M440.15-22.05c2.6,0,4.71,2.11,4.71,4.71s-2.11,4.71-4.71,4.71c-2.6,0-4.71-2.11-4.71-4.71S437.55-22.05,440.15-22.05z
					 M400.89-24.02c2.6,0,4.71,2.11,4.71,4.71s-2.11,4.71-4.71,4.71c-2.6,0-4.71-2.11-4.71-4.71S398.29-24.02,400.89-24.02z
					 M361.64-26c2.6,0,4.71,2.11,4.71,4.71s-2.11,4.71-4.71,4.71s-4.71-2.11-4.71-4.71S359.04-26,361.64-26z M322.38-27.97
					c2.6,0,4.71,2.11,4.71,4.71s-2.11,4.71-4.71,4.71s-4.71-2.11-4.71-4.71S319.78-27.97,322.38-27.97z M283.13-29.95
					c2.6,0,4.71,2.11,4.71,4.71s-2.11,4.71-4.71,4.71s-4.71-2.11-4.71-4.71S280.53-29.95,283.13-29.95z M243.87-31.92
					c2.6,0,4.71,2.11,4.71,4.71s-2.11,4.71-4.71,4.71c-2.6,0-4.71-2.11-4.71-4.71S241.27-31.92,243.87-31.92z M204.61-33.9
					c2.6,0,4.71,2.11,4.71,4.71s-2.11,4.71-4.71,4.71c-2.6,0-4.71-2.11-4.71-4.71S202.01-33.9,204.61-33.9z M165.36-35.87
					c2.6,0,4.71,2.11,4.71,4.71s-2.11,4.71-4.71,4.71s-4.71-2.11-4.71-4.71S162.76-35.87,165.36-35.87z M126.1-37.85
					c2.6,0,4.71,2.11,4.71,4.71s-2.11,4.71-4.71,4.71c-2.6,0-4.71-2.11-4.71-4.71S123.5-37.85,126.1-37.85z M86.84-39.82
					c2.6,0,4.71,2.11,4.71,4.71s-2.11,4.71-4.71,4.71c-2.6,0-4.71-2.11-4.71-4.71S84.25-39.82,86.84-39.82z M47.59-41.8
					c2.6,0,4.71,2.11,4.71,4.71c0,2.6-2.11,4.71-4.71,4.71s-4.71-2.11-4.71-4.71C42.88-39.69,44.99-41.8,47.59-41.8z M8.33-43.77
					c2.6,0,4.71,2.11,4.71,4.71c0,2.6-2.11,4.71-4.71,4.71s-4.71-2.11-4.71-4.71C3.63-41.66,5.73-43.77,8.33-43.77z M460.46,8.64
					c2.6,0,4.71,2.11,4.71,4.71s-2.11,4.71-4.71,4.71c-2.6,0-4.71-2.11-4.71-4.71S457.86,8.64,460.46,8.64z M421.2,6.66
					c2.6,0,4.71,2.11,4.71,4.71s-2.11,4.71-4.71,4.71c-2.6,0-4.71-2.11-4.71-4.71S418.6,6.66,421.2,6.66z M381.94,4.69
					c2.6,0,4.71,2.11,4.71,4.71s-2.11,4.71-4.71,4.71s-4.71-2.11-4.71-4.71S379.34,4.69,381.94,4.69z M342.69,2.71
					c2.6,0,4.71,2.11,4.71,4.71s-2.11,4.71-4.71,4.71s-4.71-2.11-4.71-4.71S340.09,2.71,342.69,2.71z M303.43,0.74
					c2.6,0,4.71,2.11,4.71,4.71s-2.11,4.71-4.71,4.71s-4.71-2.11-4.71-4.71S300.83,0.74,303.43,0.74z M264.18-1.24
					c2.6,0,4.71,2.11,4.71,4.71s-2.11,4.71-4.71,4.71c-2.6,0-4.71-2.11-4.71-4.71S261.58-1.24,264.18-1.24z M224.92-3.21
					c2.6,0,4.71,2.11,4.71,4.71s-2.11,4.71-4.71,4.71c-2.6,0-4.71-2.11-4.71-4.71S222.32-3.21,224.92-3.21z M185.66-5.19
					c2.6,0,4.71,2.11,4.71,4.71s-2.11,4.71-4.71,4.71c-2.6,0-4.71-2.11-4.71-4.71S183.06-5.19,185.66-5.19z M146.41-7.16
					c2.6,0,4.71,2.11,4.71,4.71s-2.11,4.71-4.71,4.71s-4.71-2.11-4.71-4.71S143.81-7.16,146.41-7.16z M107.15-9.14
					c2.6,0,4.71,2.11,4.71,4.71s-2.11,4.71-4.71,4.71c-2.6,0-4.71-2.11-4.71-4.71S104.55-9.14,107.15-9.14z M67.9-11.11
					c2.6,0,4.71,2.11,4.71,4.71S70.49-1.7,67.9-1.7c-2.6,0-4.71-2.11-4.71-4.71S65.3-11.11,67.9-11.11z M28.64-13.09
					c2.6,0,4.71,2.11,4.71,4.71s-2.11,4.71-4.71,4.71s-4.71-2.11-4.71-4.71S26.04-13.09,28.64-13.09z M479.41,39.03
					c2.6,0,4.71,2.11,4.71,4.71s-2.11,4.71-4.71,4.71c-2.6,0-4.71-2.11-4.71-4.71S476.81,39.03,479.41,39.03z M440.15,37.05
					c2.6,0,4.71,2.11,4.71,4.71c0,2.6-2.11,4.71-4.71,4.71c-2.6,0-4.71-2.11-4.71-4.71C435.44,39.16,437.55,37.05,440.15,37.05z
					 M400.89,35.08c2.6,0,4.71,2.11,4.71,4.71s-2.11,4.71-4.71,4.71c-2.6,0-4.71-2.11-4.71-4.71S398.29,35.08,400.89,35.08z
					 M361.64,33.1c2.6,0,4.71,2.11,4.71,4.71c0,2.6-2.11,4.71-4.71,4.71s-4.71-2.11-4.71-4.71C356.93,35.21,359.04,33.1,361.64,33.1
					z M322.38,31.13c2.6,0,4.71,2.11,4.71,4.71s-2.11,4.71-4.71,4.71s-4.71-2.11-4.71-4.71S319.78,31.13,322.38,31.13z
					 M283.13,29.15c2.6,0,4.71,2.11,4.71,4.71c0,2.6-2.11,4.71-4.71,4.71s-4.71-2.11-4.71-4.71
					C278.42,31.26,280.53,29.15,283.13,29.15z M243.87,27.18c2.6,0,4.71,2.11,4.71,4.71s-2.11,4.71-4.71,4.71
					c-2.6,0-4.71-2.11-4.71-4.71S241.27,27.18,243.87,27.18z M204.61,25.2c2.6,0,4.71,2.11,4.71,4.71s-2.11,4.71-4.71,4.71
					c-2.6,0-4.71-2.11-4.71-4.71S202.01,25.2,204.61,25.2z M165.36,23.23c2.6,0,4.71,2.11,4.71,4.71s-2.11,4.71-4.71,4.71
					s-4.71-2.11-4.71-4.71S162.76,23.23,165.36,23.23z M126.1,21.26c2.6,0,4.71,2.11,4.71,4.71s-2.11,4.71-4.71,4.71
					c-2.6,0-4.71-2.11-4.71-4.71S123.5,21.26,126.1,21.26z M86.84,19.28c2.6,0,4.71,2.11,4.71,4.71s-2.11,4.71-4.71,4.71
					c-2.6,0-4.71-2.11-4.71-4.71S84.25,19.28,86.84,19.28z M47.59,17.31c2.6,0,4.71,2.11,4.71,4.71s-2.11,4.71-4.71,4.71
					s-4.71-2.11-4.71-4.71S44.99,17.31,47.59,17.31z M8.33,15.33c2.6,0,4.71,2.11,4.71,4.71s-2.11,4.71-4.71,4.71
					s-4.71-2.11-4.71-4.71S5.73,15.33,8.33,15.33z"/>
			</g>
			<path d="M315.68-32.71c-4.81,0.52-9.55,1.44-14.32,2.29c-0.66,0.12-1.34,0.18-2.02,0.26c-3.38,0.4-6.74,0.92-10.13,1.28
				c-2.54,0.27-5.08,0.33-7.65,0.41c-4.78,0.13-9.5,0.16-14.25,1.05c-1.73,0.32-3.51,0.91-5.18,1.51c-1.86,0.19-3.69,0.4-5.53,0.66
				c-2.26,0.31-4.48,0.71-6.78,0.83c-1.8,0.09-3.57,0.16-5.23-0.69c-0.73-0.37-1.33-0.96-1.61-1.76c-0.28-0.8,0.16-1.19,0.9-1.63
				c1.96-1.18,4.3-1.97,6.43-2.84c2.5-1.02,4.92-2.06,7.42-3.04c7.45-2.92,14.92-5.63,22.65-7.73c0.88-0.24,1.8-0.28,2.71-0.44
				c3.42-0.59,6.81-1.08,10.1-2.25c3.04-0.4,6.11-0.72,9.17-0.83c2.5-0.09,5.07-0.13,7.54-0.07c1.36,0.03,2.89,0.17,4.12,0.08
				c1.23-0.09,2.43-0.27,3.44-0.46c1.01-0.19,0.93-1.36,0.28-1.75c-1.34-0.8-2.78-1.46-4.31-1.82c-1.53-0.36-3.13-0.5-4.69-0.62
				c-3.1-0.24-6.16-0.32-9.26-0.08c-6.21,0.46-12.31,1.52-18.35,3.02c-4.95,1.22-9.73,2.82-14.53,4.47
				c-1.7,0.02-3.37,0.06-5.08,0.09c-2.46,0.05-4.75,0.29-7.26-0.04c-1.93-0.26-3.69-0.6-5.54-1.73c-1.02-0.63-2.43-2.13-2.7-3.49
				c-0.97,0.12-1.88,0.29-2.84,0.44c0.3,1.05,0.58,2.09,1.28,2.96c3.03,3.79,6.88,5.05,11.59,5.55c0.23,0.02,0.41,0,0.62,0.01
				c-2.51,1.05-5.19,2.11-7.65,3.21c-2.46,1.1-5.05,1.83-7.28,3.27c-2.24,1.44-3.37,3.68-2.39,6.32c1.56,4.19,5.81,5.38,9.93,5.58
				c2.15,0.1,4.01-0.34,6.05-0.49c-2.16,3.31-3.17,7.36-0.16,10.51c3.01,3.16,7.67,2.65,11.59,2.71
				c10.73,0.16,21.16,0.21,31.81,0.23c1.12,0,2.16-0.01,3.36-0.02c-4.07,0.74-5.86,1.38-10.45,2.12c-6.14,0.99-20.59,1-20.23,10.3
				c0.1,2.56,2.63,3.25,4.59,3.92c0.9,0.3,2.01,0.32,2.96,0.4c6.53,0.5,13.11,0.8,19.64,1.18c13.08,0.77,26.13,1.54,39.19,2.37
				c1.27,0.08,2.52,0.16,3.79,0.24c0.21,3.4,0.67,6.72,1.66,9.98c-22.84-3.04-45.01-7.54-67.7-11.77
				c-28.58-5.33-56.31-10.31-85.89-11.14c-31.4-0.88-64.75,0.82-93.03,16.72c-0.32,0.18-0.68,0.39-0.96,0.55
				c3.06-7.81,5.34-16.01,7.4-24.1c1.91-7.52,3.7-14.89,5.07-22.47c2.64-14.53,4.75-29.05,5.64-43.8c1.49-24.6,0.18-49-3.28-73.39
				c-1.71-12-4.23-23.78-6.7-35.62c-2.94-14.06-7.15-27.84-8.3-42.2c-2.16-26.81,4.54-52.45,10.85-78.25
				c3.53-14.44,6.33-28.91,9.99-43.28c2.23-8.74,5.67-17.01,8.91-25.37c0.52-1.34-1.39-2.26-1.98-0.92
				c-3.87,8.71-7.61,17.46-10.31,26.65c-4.91,16.77-8.55,33.91-13.06,50.79c-0.98,3.66-1.95,7.28-2.87,10.97
				c-8.33,3.84-13.63,11.13-20.39,16.94c-4.61,3.95-9.56,6.09-15.58,4.56c-5.3-1.34-9.96-3.84-14.41-7.3
				c-18.33-14.24-29.42-32.82-36.99-54.62c-0.62,0.17-1.25,0.38-1.87,0.58c6.12,23.61,17.93,44.23,37.77,58.8
				c3.45,2.53,6.96,4.15,10.84,5.89c-20.91,15.09-42.8,28.23-66.59,38.44c-12.01,5.15-24.74,3.89-37.33,1.81
				c-6.07-1-11.58-2.83-17.42-4.55c-2.98-0.87-6.08-1.95-9.06-2.92c-0.45,0.86-0.89,1.73-1.33,2.61c0.21,0.06,0.52,0.21,0.77,0.3
				c21.11,7.53,44.34,14.4,65.84,5.44c25.04-10.43,47.1-24.31,68.87-39.98c4.71,0.65,9.02,0.8,13.5-1.46
				c5.37-2.7,9.4-7.42,13.58-11.59c2.68-2.67,5.39-4.82,8.34-7.06c-4.17,19.51-7.17,38.22-5.26,58.24
				c1.3,13.56,5.31,26.78,8.06,40.13c2.53,12.29,5.05,24.58,6.7,37.04c3.24,24.44,4.18,48.86,2.3,73.45
				c-1.05,13.72-3.22,27.17-5.69,40.71c-1.43,7.88-3.22,15.49-4.92,23.43c-1.7,7.94-4.11,16.13-5.28,24.26
				c-0.02,0.17,0.11,0.37,0.02,0.46c-0.7,0.73-1.53,1.42-2.01,2.36c-2.25,4.44-3.58,9.48-5.23,14.07s-3.27,8.97-4.88,13.46
				c-7.65,21.29-15.05,42.56-22.34,63.95c-30.07,88.19-58.3,176.99-86.57,265.76c-15.15-2.34-30.56-5.31-45.55-7.92
				c-4.59-0.8-6.57,5.94-1.92,6.87c36.6,7.38,73.57,12.69,110.65,17.06c22.25,2.62,44.56,4.53,66.85,6.35
				c-3.19,5.49-7.15,10.59-10.24,16.15c-2.3,4.14,3.46,7.19,6.2,3.5c4.42-5.94,8.21-12.79,12.35-19.02
				c42.75,2.99,85.61,4.7,128.44,5.57c0.97,6.07,1.37,12.66,2.45,18.59c0.81,4.44,7.31,4.82,7.14,0.05
				c-0.22-6.25-1.64-12.31-2.16-18.51c41.56,0.69,83.22,0.67,124.8,0.38c-8.38,22.62-18.84,44.33-30.32,65.45
				c-2.26,4.16,3.79,7.64,6.17,3.55c12.75-21.95,23.09-45.26,32.04-69.04c18.4-0.35,37.04-0.1,55.38-0.69
				c4.71-0.15,4.66-7.04-0.05-7.1c-17.47-0.22-35.21,0.39-52.74,0.36c2.52-7.47,4.92-15.07,7.09-22.64
				c0.25-0.85,0.16-1.48-0.04-2.28c7.33-26.45,13.27-53.1,16.51-80.41c2.96-24.96,4.18-50.18,2.06-75.25
				c-1.72-20.37-5.34-40.5-9.64-60.37c-9.83-45.43-22.56-90.89-40.96-133.64c-0.71-1.64-1.96-2.3-3.67-2.59
				c-0.02,0-0.06,0.01-0.07-0.01c-1.3-3.43-2.1-6.85-2.37-10.49c17.03,0.68,33.37,0.98,49.94-3.65c8.85-2.48,12.33-9.2,4.26-6.41
				c-18.94,6.55-37.94,6.23-57.69,5.13c-20.93-1.17-41.83-2.66-62.6-3.8c-1.93-0.11-7.39,0.42-4.4-2.42
				c1.29-1.23,5.02-1.18,6.9-1.56c5.2-1.06,10.38-2.08,15.52-3.15c10.69-2.22,21.51-4.02,32.02-6.82c2.55-0.68,1.58-4.09-0.9-3.84
				c-3.64,0.36-7.47,1.2-11.12,1.79c-2.39-0.03-4.74-0.02-7.12-0.03c-5.42-0.03-10.82-0.07-16.25-0.09
				c-9.8-0.03-19.61,0.11-29.41,0.17c-2.15,0.01-4.35,0.16-6.5-0.05c-1.55-0.15-3.47-0.45-4.06-2.11c-1.32-3.68,1.78-6.31,4.81-7.72
				c1.38-0.64,2.56-1.1,3.93-1.36c2.77-0.52,5.45-1.03,8.24-1.32c4.58-0.48,9-0.33,13.65-0.77c4.66-0.44,9.5-1.19,14.17-2.1
				c3.36-0.65,6.75-1.53,10.09-2.32c1.97-0.47,4.06-0.41,5.94-1.22c0.97-0.41,0.76-1.51-0.21-1.74c-0.42-0.1-0.9,0.1-1.29-0.09
				C316.29-32.45,316.12-32.76,315.68-32.71z M-22.38,380.44c14.84-46.6,29.7-93.22,44.83-139.73
				C37.32,195,52.22,149.34,67.9,103.89c6.98-20.24,13.98-40.4,21.32-60.52c1.75-4.8,3.5-9.58,5.28-14.36
				c0.42-1.14,0.77-2.38,1.31-3.45c0.1-0.2,0.4-0.24,0.58-0.34c2.75-1.46,5.22-3.38,8.05-4.73c11.07-5.31,22.83-8.75,34.94-10.55
				c23.1-3.44,46.61-3.76,69.68-1.53c47.12,4.55,92.71,16.8,139.65,22.22c9.14,22.94,17.17,45.96,24.08,69.74
				c11.99,41.26,23.06,83.22,25.65,126.35c3.26,54.14-6.62,107.6-22.33,159.19c-0.27,0.9-0.23,1.48,0.02,2.34
				c-1.35,4.25-2.75,8.5-4.21,12.72c-16.92,0.11-33.83,0.23-50.76,0.23c-25.89,0.01-51.81-0.18-77.69-0.61
				c-1.63-11.7-3.21-23.43-5.04-35.1c-11.4-72.68-27.07-144.68-47.58-215.3c-1.32-4.55-8.12-2.58-6.91,1.97
				c3.86,14.53,8.23,29.28,11.95,43.91c-1.35,0.47-2.28,1.03-2.74,2.52c-21.17,68.81-50.89,134.56-88.46,195.99
				C62.17,391.37,19.79,386.81-22.38,380.44z M112.98,395.17c4.01-6.64,8.01-13.26,11.85-20c30.54-53.58,55.14-110.17,73.67-168.99
				c0.45,1.8,0.93,3.6,1.38,5.41c15.52,62.25,27.55,125.28,36.21,188.85C195.01,399.59,153.97,397.97,112.98,395.17z"/>
			<path class="st72" d="M22.44,240.71C37.32,195,52.22,149.34,67.89,103.89c6.98-20.24,14-40.4,21.33-60.52
				c1.75-4.8,3.5-9.58,5.28-14.36c0.42-1.14,0.77-2.38,1.31-3.45c0.1-0.2,0.4-0.24,0.58-0.34c2.75-1.46,5.23-3.38,8.05-4.73
				c11.07-5.31,22.83-8.75,34.94-10.55C162.48,6.5,186,6.18,209.06,8.4c40.52,3.91,79.92,13.51,120.01,19.58l0,0.01
				c4.91,23.16,10.52,52.91,15.45,86.68c-1.5,0.25-2.74,1.4-2.51,3.45c2.2,20.31,4.83,40.6,6.97,60.97
				c7.56,71.87,10.05,144.91-5.42,215.91c-0.52,2.37,1.03,4,2.81,4.42l-0.22,1.7c-8.33,0.04-16.65,0.07-24.99,0.07
				c-25.89,0.01-51.81-0.18-77.7-0.61c-1.6-11.7-3.23-23.42-5.05-35.1c-11.37-72.68-27.07-144.68-47.56-215.31
				c-1.32-4.55-8.11-2.58-6.91,1.97c3.86,14.53,8.23,29.28,11.95,43.91c-1.34,0.47-2.29,1.03-2.75,2.53
				C172,267.4,142.26,333.14,104.7,394.57c-42.53-3.2-84.9-7.76-127.08-14.13C-7.52,333.84,7.3,287.22,22.44,240.71z M291.12,79.14
				c12.37,12.41,26.35,21.44,41.85,28.61c4.27,1.98,7.89-3.92,3.6-6.1c-13.85-7.05-26.36-14.26-37.87-25.24
				c-11.51-10.98-20.27-23.21-21.34-39.56c-0.32-4.83-7.15-4.68-7.06,0.07C270.63,53.83,279.43,67.41,291.12,79.14z M188.58,123.12
				c0.78,4.65,7.57,2.57,6.86-2.05c-4.4-28.53-5.51-57.54-3.88-86.46c0.27-4.74-6.8-4.55-7.13,0.11
				C182.36,64.16,183.66,93.9,188.58,123.12z M185.58,114.78c-8.91-28.71-14.13-58.11-15.4-88.11c-0.2-4.73-7.25-4.69-7.12,0.04
				c0.84,30.61,6.15,60.9,15.62,89.98C180.15,121.17,186.99,119.32,185.58,114.78z M129.01,332.8
				c24.26-47.52,43.89-97.37,58.69-148.62c1.32-4.57-5.66-6.39-6.99-1.86c-14.83,50.55-34.26,99.82-57.93,146.86
				C120.65,333.4,126.85,337.02,129.01,332.8z"/>
		</g>
	</g>
	<g>
		<path class="st12" d="M18,0C8.08,0,0,8.07,0,18s8.08,18,18,18s18-8.07,18-18S27.92,0,18,0z M18,35C8.63,35,1,27.37,1,18
			S8.63,1,18,1s17,7.63,17,17S27.37,35,18,35z"/>
		<path class="st12" d="M9.26,13.95c0-1.65,1.36-2.45,2.92-2.45c1.12,0,1.93,0.44,2.53,1.28l1.04-0.75
			c-0.88-1.15-2.13-1.63-3.54-1.63c-2.18,0-4.16,1.24-4.16,3.55c0,4.92,6.69,2.8,6.69,6.42c0,1.56-1.28,2.54-2.92,2.54
			c-1.28,0-2.33-0.55-2.97-1.63l-1.16,0.77c1.01,1.41,2.51,1.96,4.22,1.96c2.11,0,4.04-1.3,4.04-3.64
			C15.96,15.5,9.26,17.84,9.26,13.95z"/>
		<polygon class="st12" points="17.1,24.01 18.07,24.34 23.63,10.4 22.67,10.07 		"/>
		<path class="st12" d="M26.1,22.03c-0.5,0-0.88,0.38-0.88,0.88c0,0.49,0.38,0.88,0.88,0.88c0.5,0,0.88-0.38,0.88-0.88
			C26.98,22.42,26.6,22.03,26.1,22.03z"/>
	</g>
</g>
</svg>
