<?xml version="1.0" encoding="utf-8"?>
<!-- Generator: Adobe Illustrator 24.0.2, SVG Export Plug-In . SVG Version: 6.00 Build 0)  -->
<svg version="1.1" xmlns="http://www.w3.org/2000/svg" xmlns:xlink="http://www.w3.org/1999/xlink" x="0px" y="0px"
	 viewBox="0 0 37.5 34.5" style="enable-background:new 0 0 37.5 34.5;" xml:space="preserve">
<style type="text/css">
	.st0{fill:#F5F9FF;}
	.st1{fill:#CFFFE6;}
	.st2{fill:#B5FFD9;}
	.st3{fill:#9CFFCA;}
	.st4{fill:none;stroke:#B2B2B2;stroke-width:0.25;stroke-miterlimit:10;}
	.st5{fill:none;stroke:#0684F2;stroke-width:2;stroke-miterlimit:10;}
	.st6{fill:none;stroke:#0AAFF1;stroke-width:2;stroke-miterlimit:10;}
	.st7{fill:#FF7523;}
	.st8{fill:#CFFFE6;stroke:#4A4A49;stroke-width:0.5;stroke-linecap:round;stroke-linejoin:round;stroke-miterlimit:10;}
	.st9{fill:none;stroke:#4A4A49;stroke-width:0.5;stroke-miterlimit:10;}
	.st10{fill:#F8CEB0;}
	.st11{fill:#BBB2AD;}
	.st12{fill:#FFFFFF;}
	.st13{fill:#1D1D1D;}
	.st14{fill:#20201F;}
	.st15{fill:#CB6255;}
	.st16{fill:#FFFFFF;stroke:#000000;stroke-miterlimit:10;}
	.st17{fill:#DF8675;stroke:#000000;stroke-miterlimit:10;}
	.st18{fill:none;stroke:#000000;stroke-width:2;stroke-miterlimit:10;}
	.st19{opacity:0.25;fill:#FFFFFF;}
	.st20{fill:#E90016;}
	.st21{fill:#00575E;}
	.st22{fill:#ACA7A4;}
	.st23{clip-path:url(#SVGID_4_);}
	.st24{clip-path:url(#SVGID_6_);}
	.st25{fill:#FF6CD5;}
	.st26{fill:#DF8675;}
	.st27{clip-path:url(#SVGID_7_);fill:#FFFFFF;}
	.st28{clip-path:url(#SVGID_7_);}
	.st29{fill:#00224B;}
	.st30{fill:#D9E8FB;}
	.st31{clip-path:url(#SVGID_7_);fill:#F7FAFE;}
	.st32{clip-path:url(#SVGID_7_);fill:#D9E8FB;}
	.st33{clip-path:url(#SVGID_7_);fill:#DDF2FF;}
	.st34{fill:#DDF2FF;}
	.st35{clip-path:url(#SVGID_7_);fill:#1D1D1D;}
	.st36{fill:#F7FAFE;}
	.st37{fill:#0454CA;}
	.st38{fill:#FF8800;}
	.st39{clip-path:url(#SVGID_9_);}
	.st40{fill:#E52421;}
	.st41{fill:#F4F4F4;}
	.st42{fill:none;stroke:#494949;stroke-width:0.5;stroke-miterlimit:10;}
	.st43{fill:none;stroke:#494949;stroke-width:0.5;stroke-linecap:round;stroke-linejoin:round;stroke-miterlimit:10;}
	.st44{clip-path:url(#SVGID_11_);fill:#026847;}
	.st45{clip-path:url(#SVGID_11_);fill:#FFFFFF;}
	.st46{clip-path:url(#SVGID_11_);fill:#E52421;}
	.st47{clip-path:url(#SVGID_13_);fill:#006847;}
	.st48{clip-path:url(#SVGID_13_);fill:#ECE13C;}
	.st49{clip-path:url(#SVGID_13_);fill:#CF2011;}
	.st50{clip-path:url(#SVGID_15_);fill:#F8CD16;}
	.st51{clip-path:url(#SVGID_15_);fill:#00388F;}
	.st52{clip-path:url(#SVGID_15_);fill:#CA1126;}
	.st53{clip-path:url(#SVGID_17_);fill:#E52421;}
	.st54{clip-path:url(#SVGID_17_);fill:#FFFFFF;}
	.st55{fill:#0444BF;}
	.st56{clip-path:url(#SVGID_19_);}
	.st57{fill:#FFC200;}
	.st58{clip-path:url(#SVGID_21_);}
	.st59{fill:#F9DCA4;}
	.st60{fill:#DEC492;}
	.st61{fill:#677079;}
	.st62{fill:#FFE8BE;}
	.st63{fill:#434955;}
	.st64{fill:#FF8610;}
	.st65{fill:#AFCA13;}
	.st66{fill:none;stroke:#FFFFFF;stroke-width:0.5;stroke-miterlimit:10;}
	.st67{fill:#272628;}
	.st68{clip-path:url(#SVGID_23_);fill:#FFFFFF;}
	.st69{fill:#AFAFAF;}
	.st70{fill:#FFFAE6;}
	.st71{fill:none;}
	.st72{fill:#3B56DB;}
	.st73{fill:#2545BA;}
	.st74{fill:#0A2677;}
	.st75{clip-path:url(#SVGID_25_);fill:#FFFFFF;}
	.st76{fill:#FFFFFF;stroke:#000000;stroke-width:1.0583;stroke-miterlimit:10;}
	.st77{fill:#DF8675;stroke:#000000;stroke-width:1.0583;stroke-miterlimit:10;}
	.st78{fill:none;stroke:#000000;stroke-width:2.1166;stroke-miterlimit:10;}
	.st79{fill:#AFAFAF;stroke:#000000;stroke-width:1.6517;stroke-linecap:round;stroke-linejoin:round;stroke-miterlimit:10;}
	.st80{clip-path:url(#SVGID_26_);fill:#FFFFFF;}
	.st81{fill:#FFFFFF;stroke:#000000;stroke-linecap:round;stroke-linejoin:round;stroke-miterlimit:10;}
	.st82{fill:none;stroke:#000000;stroke-linecap:round;stroke-linejoin:round;stroke-miterlimit:10;}
	.st83{fill:#EDEDED;}
	.st84{fill:#2E9EFF;}
	.st85{clip-path:url(#SVGID_28_);}
	.st86{clip-path:url(#SVGID_30_);}
	.st87{fill:#0684F2;}
	.st88{fill:none;stroke:#575756;stroke-width:0.25;stroke-miterlimit:10;}
	.st89{fill:#0AAFF1;}
	.st90{fill:none;stroke:#FFFFFF;stroke-miterlimit:10;}
	.st91{fill:#4A4A49;}
	.st92{fill:none;stroke:#B2B2B2;stroke-width:0.5;stroke-miterlimit:10;}
	.st93{clip-path:url(#SVGID_32_);}
	.st94{clip-path:url(#SVGID_34_);}
	.st95{clip-path:url(#SVGID_36_);}
	.st96{fill:#F8CEB0;stroke:#000000;stroke-width:3.5;stroke-miterlimit:10;}
	.st97{fill:none;stroke:#000000;stroke-width:3.5;stroke-miterlimit:10;}
	.st98{clip-path:url(#SVGID_38_);}
	.st99{clip-path:url(#SVGID_40_);fill:#FFFFFF;}
</style>
<g id="base">
</g>
<g id="guías">
	<g>
		<defs>
			<rect id="SVGID_37_" x="-149.33" y="-727.81" width="557.55" height="597.94"/>
		</defs>
		<clipPath id="SVGID_4_">
			<use xlink:href="#SVGID_37_"  style="overflow:visible;"/>
		</clipPath>
		<g class="st23">
			<path class="st67" d="M372.87-370.02c-8.04-17.39-25.39-28.18-42.91-35.7c-24.81-10.64-51.07-13.78-77.08-19.61
				c-2.77,3.5-5.6,6.63-8.71,9.65c-6.03,5.85-11.33,11.16-18.41,16.08c-12.15,8.43-25.48,12.55-40.4,12.72
				c-2.25,13.19-4.11,25.43-6.98,38.76c-2.34,10.86-5.46,22.66-13.52,30.98c-1.55,1.6-3.79,0.49-3.92-1.59
				c-1.51-24.83-2.27-49.8-3.96-74.66c-0.01-0.11,0-0.21,0-0.31c-7.6-6.55-11.81-13.35-13.78-23.34c-0.32-1.63-0.57-4.18-0.68-5.98
				c-3.82,0.51-7.72,0.6-11.52,1.26c-5.35,0.93-10.69,2.08-15.87,3.67c-11.93,3.67-21.7,9.75-31.46,17.38
				c-0.82,0.64-1.96-0.32-1.32-1.2c2.15-2.96,4.8-5.41,7.64-7.73c-7.59,1.82-15.28,3.02-22.89,4.85
				c-14.17,3.4-27.38,7.17-38.56,16.81c-4.35,3.75-7.96,7.78-12.14,11.5c-5.75,5.12-11.24,10.11-17.49,14.61
				c-6.25,4.5-12.97,8.09-19.33,12.56s-12.66,9.45-18.87,14.2c-1.12,2.53-2.23,5.03-3.34,7.55c0.24,0.75,0.39,1.47,0.66,2.24
				c7.55,21.8,18.66,40.38,36.99,54.62c4.45,3.46,9.1,5.95,14.4,7.3c6.03,1.53,10.98-0.61,15.58-4.56
				c6.77-5.81,12.07-13.1,20.39-16.94c0.92-3.7,1.89-7.31,2.87-10.97c4.5-16.88,8.15-34.02,13.05-50.79
				c2.69-9.19,6.44-17.93,10.31-26.65c0.59-1.34,2.5-0.42,1.98,0.92c-3.24,8.36-6.68,16.63-8.91,25.37
				c-3.66,14.37-6.43,28.84-9.98,43.28c-6.34,25.8-12.99,51.44-10.86,78.25c1.14,14.36,5.38,28.15,8.3,42.2
				c2.46,11.83,5,23.62,6.7,35.62c3.46,24.38,4.77,48.78,3.28,73.38c-0.9,14.76-3,29.27-5.64,43.8c-1.38,7.59-3.15,14.95-5.08,22.47
				c-2.07,8.09-4.25,16.29-7.47,24.1c1.2-0.11-0.03-0.4,0.36-0.58C79.75-0.02,97.24-2.54,141.28-1.02
				c41.47,1.44,108.6,17.41,153.58,26.59c0.14-4.99-1.18-9.66-3.93-15.18c-10.83,0.27-65.48-2.55-68.04-5.83
				c-9.3-11.91,13.69-9.43,17.36-11.14c2.74-1.27,7.31-1.11,10.11-2.22c-1.04,0.05-2.16,0.04-3.27,0.04
				C236.45-8.77,226-8.82,215.28-8.98c-3.91-0.06-8.58,0.45-11.59-2.71c-3.01-3.16-2-7.2,0.16-10.51c-2.04,0.15-3.91,0.6-6.05,0.49
				c-4.11-0.2-8.37-1.39-9.93-5.58c-0.98-2.64,0.15-4.88,2.39-6.32c2.24-1.44,4.82-2.17,7.28-3.27c2.46-1.1,5.14-2.16,7.65-3.21
				c-0.21-0.01-0.4,0.01-0.62-0.01c-4.69-0.52-8.57-1.73-11.58-5.56c-0.69-0.88-1.04-1.79-1.26-3c-0.22-1.21-0.06-2.67,0.86-3.74
				c1.72-1.99,4.22-2.81,6.71-3.31c13.53-2.72,26.94-5.33,40.42-8.14c6.63-1.38,13.28-2.85,19.95-4.17
				c3.31-0.65,6.7-1.24,10.09-1.15c2.14,0.06,4.27,0.41,6.33,0.88c5.29,1.19,10.36,2.79,15.4,4.72c1.86,0.71,3.35,2.57,5.5,2.09
				c0.02-0.01,0.01,0,0-0.02c-0.47-0.9-1.65-1.07-1.72-2.25c-1.06-18.02,0.37-36.41,1.62-54.28c1.25-17.87,2.76-35.26,5.43-52.79
				c1.33-8.72,3.12-17.36,5.02-25.85c3.22,2.27,8.62,5.69,14.01,7.44c8.48,2.75,24.8,3.32,41.26-2.45
				c16.46-5.77,32.6-22.05,32.2-27.62c-0.11-1.53-0.67-6.12-1.41-11.96C392.26-258.2,377.07-360.93,372.87-370.02z"/>
			<g>
				<defs>
					<path id="SVGID_39_" d="M372.87-370.02c-8.04-17.39-25.39-28.18-42.91-35.7c-24.81-10.64-51.07-13.78-77.08-19.61
						c-2.77,3.5-5.6,6.63-8.71,9.65c-6.03,5.85-11.33,11.16-18.41,16.08c-12.15,8.43-25.48,12.55-40.4,12.72
						c-2.25,13.19-4.11,25.43-6.98,38.76c-2.34,10.86-5.46,22.66-13.52,30.98c-1.55,1.6-3.79,0.49-3.92-1.59
						c-1.51-24.83-2.27-49.8-3.96-74.66c-0.01-0.11,0-0.21,0-0.31c-7.6-6.55-11.81-13.35-13.78-23.34
						c-0.32-1.63-0.57-4.18-0.68-5.98c-3.82,0.51-7.72,0.6-11.52,1.26c-5.35,0.93-10.69,2.08-15.87,3.67
						c-11.93,3.67-21.7,9.75-31.46,17.38c-0.82,0.64-1.96-0.32-1.32-1.2c2.15-2.96,4.8-5.41,7.64-7.73
						c-7.59,1.82-15.28,3.02-22.89,4.85c-14.17,3.4-27.38,7.17-38.56,16.81c-4.35,3.75-7.96,7.78-12.14,11.5
						c-5.75,5.12-11.24,10.11-17.49,14.61c-6.25,4.5-12.97,8.09-19.33,12.56s-12.66,9.45-18.87,14.2c-1.12,2.53-2.23,5.03-3.34,7.55
						c0.24,0.75,0.39,1.47,0.66,2.24c7.55,21.8,18.66,40.38,36.99,54.62c4.45,3.46,9.1,5.95,14.4,7.3
						c6.03,1.53,10.98-0.61,15.58-4.56c6.77-5.81,12.07-13.1,20.39-16.94c0.92-3.7,1.89-7.31,2.87-10.97
						c4.5-16.88,8.15-34.02,13.05-50.79c2.69-9.19,6.44-17.93,10.31-26.65c0.59-1.34,2.5-0.42,1.98,0.92
						c-3.24,8.36-6.68,16.63-8.91,25.37c-3.66,14.37-6.43,28.84-9.98,43.28c-6.34,25.8-12.99,51.44-10.86,78.25
						c1.14,14.36,5.38,28.15,8.3,42.2c2.46,11.83,5,23.62,6.7,35.62c3.46,24.38,4.77,48.78,3.28,73.38c-0.9,14.76-3,29.27-5.64,43.8
						c-1.38,7.59-3.15,14.95-5.08,22.47c-2.07,8.09-4.25,16.29-7.47,24.1c1.2-0.11-0.03-0.4,0.36-0.58
						C79.75-0.02,97.24-2.54,141.28-1.02c41.47,1.44,108.6,17.41,153.58,26.59c0.14-4.99-1.18-9.66-3.93-15.18
						c-10.83,0.27-65.48-2.55-68.04-5.83c-9.3-11.91,13.69-9.43,17.36-11.14c2.74-1.27,7.31-1.11,10.11-2.22
						c-1.04,0.05-2.16,0.04-3.27,0.04C236.45-8.77,226-8.82,215.28-8.98c-3.91-0.06-8.58,0.45-11.59-2.71
						c-3.01-3.16-2-7.2,0.16-10.51c-2.04,0.15-3.91,0.6-6.05,0.49c-4.11-0.2-8.37-1.39-9.93-5.58c-0.98-2.64,0.15-4.88,2.39-6.32
						c2.24-1.44,4.82-2.17,7.28-3.27c2.46-1.1,5.14-2.16,7.65-3.21c-0.21-0.01-0.4,0.01-0.62-0.01c-4.69-0.52-8.57-1.73-11.58-5.56
						c-0.69-0.88-1.04-1.79-1.26-3c-0.22-1.21-0.06-2.67,0.86-3.74c1.72-1.99,4.22-2.81,6.71-3.31c13.53-2.72,26.94-5.33,40.42-8.14
						c6.63-1.38,13.28-2.85,19.95-4.17c3.31-0.65,6.7-1.24,10.09-1.15c2.14,0.06,4.27,0.41,6.33,0.88
						c5.29,1.19,10.36,2.79,15.4,4.72c1.86,0.71,3.35,2.57,5.5,2.09c0.02-0.01,0.01,0,0-0.02c-0.47-0.9-1.65-1.07-1.72-2.25
						c-1.06-18.02,0.37-36.41,1.62-54.28c1.25-17.87,2.76-35.26,5.43-52.79c1.33-8.72,3.12-17.36,5.02-25.85
						c3.22,2.27,8.62,5.69,14.01,7.44c8.48,2.75,24.8,3.32,41.26-2.45c16.46-5.77,32.6-22.05,32.2-27.62
						c-0.11-1.53-0.67-6.12-1.41-11.96C392.26-258.2,377.07-360.93,372.87-370.02z"/>
				</defs>
				<clipPath id="SVGID_6_">
					<use xlink:href="#SVGID_39_"  style="overflow:visible;"/>
				</clipPath>
				<path style="clip-path:url(#SVGID_6_);fill:#FFFFFF;" d="M404.32-401.37c0,2.6,2.11,4.71,4.71,4.71c2.6,0,4.71-2.11,4.71-4.71
					c0-2.6-2.11-4.71-4.71-4.71C406.43-406.08,404.32-403.97,404.32-401.37z M369.77-408.05c2.6,0,4.71,2.11,4.71,4.71
					c0,2.6-2.11,4.71-4.71,4.71c-2.6,0-4.71-2.11-4.71-4.71C365.06-405.95,367.17-408.05,369.77-408.05z M330.51-410.03
					c2.6,0,4.71,2.11,4.71,4.71s-2.11,4.71-4.71,4.71s-4.71-2.11-4.71-4.71S327.92-410.03,330.51-410.03z M291.26-412
					c2.6,0,4.71,2.11,4.71,4.71s-2.11,4.71-4.71,4.71s-4.71-2.11-4.71-4.71S288.66-412,291.26-412z M252-413.98
					c2.6,0,4.71,2.11,4.71,4.71s-2.11,4.71-4.71,4.71c-2.6,0-4.71-2.11-4.71-4.71S249.4-413.98,252-413.98z M134.23-419.9
					c2.6,0,4.71,2.11,4.71,4.71s-2.11,4.71-4.71,4.71c-2.6,0-4.71-2.11-4.71-4.71S131.63-419.9,134.23-419.9z M94.98-421.88
					c2.6,0,4.71,2.11,4.71,4.71c0,2.6-2.11,4.71-4.71,4.71s-4.71-2.11-4.71-4.71C90.27-419.77,92.38-421.88,94.98-421.88z
					 M55.72-423.85c2.6,0,4.71,2.11,4.71,4.71c0,2.6-2.11,4.71-4.71,4.71s-4.71-2.11-4.71-4.71
					C51.02-421.74,53.12-423.85,55.72-423.85z M16.47-425.83c2.6,0,4.71,2.11,4.71,4.71c0,2.6-2.11,4.71-4.71,4.71
					s-4.71-2.11-4.71-4.71C11.76-423.72,13.87-425.83,16.47-425.83z M-22.79-427.8c2.6,0,4.71,2.11,4.71,4.71
					c0,2.6-2.11,4.71-4.71,4.71s-4.71-2.11-4.71-4.71C-27.5-425.69-25.39-427.8-22.79-427.8z M427.98-375.69
					c2.6,0,4.71,2.11,4.71,4.71s-2.11,4.71-4.71,4.71c-2.6,0-4.71-2.11-4.71-4.71S425.38-375.69,427.98-375.69z M388.72-377.66
					c2.6,0,4.71,2.11,4.71,4.71s-2.11,4.71-4.71,4.71c-2.6,0-4.71-2.11-4.71-4.71S386.12-377.66,388.72-377.66z M349.46-379.64
					c2.6,0,4.71,2.11,4.71,4.71c0,2.6-2.11,4.71-4.71,4.71c-2.6,0-4.71-2.11-4.71-4.71C344.76-377.53,346.86-379.64,349.46-379.64z
					 M310.21-381.61c2.6,0,4.71,2.11,4.71,4.71c0,2.6-2.11,4.71-4.71,4.71s-4.71-2.11-4.71-4.71
					C305.5-379.5,307.61-381.61,310.21-381.61z M270.95-383.59c2.6,0,4.71,2.11,4.71,4.71c0,2.6-2.11,4.71-4.71,4.71
					s-4.71-2.11-4.71-4.71C266.25-381.48,268.35-383.59,270.95-383.59z M231.7-385.56c2.6,0,4.71,2.11,4.71,4.71
					c0,2.6-2.11,4.71-4.71,4.71c-2.6,0-4.71-2.11-4.71-4.71C226.99-383.45,229.1-385.56,231.7-385.56z M113.93-391.49
					c2.6,0,4.71,2.11,4.71,4.71c0,2.6-2.11,4.71-4.71,4.71c-2.6,0-4.71-2.11-4.71-4.71C109.22-389.38,111.33-391.49,113.93-391.49z
					 M74.67-393.46c2.6,0,4.71,2.11,4.71,4.71c0,2.6-2.11,4.71-4.71,4.71c-2.6,0-4.71-2.11-4.71-4.71
					C69.97-391.35,72.07-393.46,74.67-393.46z M35.42-395.43c2.6,0,4.71,2.11,4.71,4.71c0,2.6-2.11,4.71-4.71,4.71
					s-4.71-2.11-4.71-4.71C30.71-393.33,32.82-395.43,35.42-395.43z M-3.84-397.41c2.6,0,4.71,2.11,4.71,4.71
					c0,2.6-2.11,4.71-4.71,4.71s-4.71-2.11-4.71-4.71C-8.55-395.3-6.44-397.41-3.84-397.41z M-43.1-399.38
					c2.6,0,4.71,2.11,4.71,4.71c0,2.6-2.11,4.71-4.71,4.71s-4.71-2.11-4.71-4.71C-47.8-397.28-45.7-399.38-43.1-399.38z
					 M409.03-346.98c2.6,0,4.71,2.11,4.71,4.71c0,2.6-2.11,4.71-4.71,4.71c-2.6,0-4.71-2.11-4.71-4.71
					C404.32-344.87,406.43-346.98,409.03-346.98z M369.77-348.95c2.6,0,4.71,2.11,4.71,4.71c0,2.6-2.11,4.71-4.71,4.71
					c-2.6,0-4.71-2.11-4.71-4.71C365.06-346.84,367.17-348.95,369.77-348.95z M330.51-350.93c2.6,0,4.71,2.11,4.71,4.71
					c0,2.6-2.11,4.71-4.71,4.71s-4.71-2.11-4.71-4.71C325.81-348.82,327.92-350.93,330.51-350.93z M291.26-352.9
					c2.6,0,4.71,2.11,4.71,4.71c0,2.6-2.11,4.71-4.71,4.71s-4.71-2.11-4.71-4.71C286.55-350.79,288.66-352.9,291.26-352.9z
					 M252-354.88c2.6,0,4.71,2.11,4.71,4.71c0,2.6-2.11,4.71-4.71,4.71c-2.6,0-4.71-2.11-4.71-4.71
					C247.3-352.77,249.4-354.88,252-354.88z M212.75-356.85c2.6,0,4.71,2.11,4.71,4.71c0,2.6-2.11,4.71-4.71,4.71
					c-2.6,0-4.71-2.11-4.71-4.71C208.04-354.74,210.15-356.85,212.75-356.85z M134.23-360.8c2.6,0,4.71,2.11,4.71,4.71
					s-2.11,4.71-4.71,4.71c-2.6,0-4.71-2.11-4.71-4.71S131.63-360.8,134.23-360.8z M94.98-362.77c2.6,0,4.71,2.11,4.71,4.71
					s-2.11,4.71-4.71,4.71s-4.71-2.11-4.71-4.71S92.38-362.77,94.98-362.77z M55.72-364.75c2.6,0,4.71,2.11,4.71,4.71
					s-2.11,4.71-4.71,4.71s-4.71-2.11-4.71-4.71S53.12-364.75,55.72-364.75z M16.47-366.72c2.6,0,4.71,2.11,4.71,4.71
					s-2.11,4.71-4.71,4.71s-4.71-2.11-4.71-4.71S13.87-366.72,16.47-366.72z M-22.79-368.7c2.6,0,4.71,2.11,4.71,4.71
					s-2.11,4.71-4.71,4.71s-4.71-2.11-4.71-4.71S-25.39-368.7-22.79-368.7z M427.98-316.59c2.6,0,4.71,2.11,4.71,4.71
					s-2.11,4.71-4.71,4.71c-2.6,0-4.71-2.11-4.71-4.71S425.38-316.59,427.98-316.59z M388.72-318.56c2.6,0,4.71,2.11,4.71,4.71
					s-2.11,4.71-4.71,4.71c-2.6,0-4.71-2.11-4.71-4.71S386.12-318.56,388.72-318.56z M349.46-320.53c2.6,0,4.71,2.11,4.71,4.71
					s-2.11,4.71-4.71,4.71c-2.6,0-4.71-2.11-4.71-4.71S346.86-320.53,349.46-320.53z M310.21-322.51c2.6,0,4.71,2.11,4.71,4.71
					s-2.11,4.71-4.71,4.71s-4.71-2.11-4.71-4.71S307.61-322.51,310.21-322.51z M270.95-324.48c2.6,0,4.71,2.11,4.71,4.71
					s-2.11,4.71-4.71,4.71s-4.71-2.11-4.71-4.71S268.35-324.48,270.95-324.48z M231.7-326.46c2.6,0,4.71,2.11,4.71,4.71
					s-2.11,4.71-4.71,4.71c-2.6,0-4.71-2.11-4.71-4.71S229.1-326.46,231.7-326.46z M113.93-332.38c2.6,0,4.71,2.11,4.71,4.71
					c0,2.6-2.11,4.71-4.71,4.71c-2.6,0-4.71-2.11-4.71-4.71C109.22-330.28,111.33-332.38,113.93-332.38z M74.67-334.36
					c2.6,0,4.71,2.11,4.71,4.71c0,2.6-2.11,4.71-4.71,4.71c-2.6,0-4.71-2.11-4.71-4.71C69.97-332.25,72.07-334.36,74.67-334.36z
					 M35.42-336.33c2.6,0,4.71,2.11,4.71,4.71c0,2.6-2.11,4.71-4.71,4.71s-4.71-2.11-4.71-4.71
					C30.71-334.23,32.82-336.33,35.42-336.33z M-3.84-338.31c2.6,0,4.71,2.11,4.71,4.71c0,2.6-2.11,4.71-4.71,4.71
					s-4.71-2.11-4.71-4.71C-8.55-336.2-6.44-338.31-3.84-338.31z M-43.1-340.28c2.6,0,4.71,2.11,4.71,4.71
					c0,2.6-2.11,4.71-4.71,4.71s-4.71-2.11-4.71-4.71C-47.8-338.17-45.7-340.28-43.1-340.28z M409.03-287.87
					c2.6,0,4.71,2.11,4.71,4.71c0,2.6-2.11,4.71-4.71,4.71c-2.6,0-4.71-2.11-4.71-4.71C404.32-285.77,406.43-287.87,409.03-287.87z
					 M369.77-289.85c2.6,0,4.71,2.11,4.71,4.71c0,2.6-2.11,4.71-4.71,4.71c-2.6,0-4.71-2.11-4.71-4.71
					C365.06-287.74,367.17-289.85,369.77-289.85z M330.51-291.82c2.6,0,4.71,2.11,4.71,4.71c0,2.6-2.11,4.71-4.71,4.71
					s-4.71-2.11-4.71-4.71C325.81-289.72,327.92-291.82,330.51-291.82z M291.26-293.8c2.6,0,4.71,2.11,4.71,4.71
					c0,2.6-2.11,4.71-4.71,4.71s-4.71-2.11-4.71-4.71C286.55-291.69,288.66-293.8,291.26-293.8z M252-295.77
					c2.6,0,4.71,2.11,4.71,4.71c0,2.6-2.11,4.71-4.71,4.71c-2.6,0-4.71-2.11-4.71-4.71C247.3-293.67,249.4-295.77,252-295.77z
					 M212.75-297.75c2.6,0,4.71,2.11,4.71,4.71c0,2.6-2.11,4.71-4.71,4.71c-2.6,0-4.71-2.11-4.71-4.71
					C208.04-295.64,210.15-297.75,212.75-297.75z M173.49-299.72c2.6,0,4.71,2.11,4.71,4.71c0,2.6-2.11,4.71-4.71,4.71
					c-2.6,0-4.71-2.11-4.71-4.71C168.78-297.62,170.89-299.72,173.49-299.72z M134.23-301.7c2.6,0,4.71,2.11,4.71,4.71
					c0,2.6-2.11,4.71-4.71,4.71c-2.6,0-4.71-2.11-4.71-4.71C129.53-299.59,131.63-301.7,134.23-301.7z M94.98-303.67
					c2.6,0,4.71,2.11,4.71,4.71c0,2.6-2.11,4.71-4.71,4.71s-4.71-2.11-4.71-4.71C90.27-301.56,92.38-303.67,94.98-303.67z
					 M55.72-305.65c2.6,0,4.71,2.11,4.71,4.71s-2.11,4.71-4.71,4.71s-4.71-2.11-4.71-4.71S53.12-305.65,55.72-305.65z M16.47-307.62
					c2.6,0,4.71,2.11,4.71,4.71s-2.11,4.71-4.71,4.71s-4.71-2.11-4.71-4.71S13.87-307.62,16.47-307.62z M-22.79-309.6
					c2.6,0,4.71,2.11,4.71,4.71s-2.11,4.71-4.71,4.71s-4.71-2.11-4.71-4.71S-25.39-309.6-22.79-309.6z M427.98-257.48
					c2.6,0,4.71,2.11,4.71,4.71c0,2.6-2.11,4.71-4.71,4.71c-2.6,0-4.71-2.11-4.71-4.71C423.27-255.38,425.38-257.48,427.98-257.48z
					 M388.72-259.46c2.6,0,4.71,2.11,4.71,4.71c0,2.6-2.11,4.71-4.71,4.71c-2.6,0-4.71-2.11-4.71-4.71
					C384.01-257.35,386.12-259.46,388.72-259.46z M349.46-261.43c2.6,0,4.71,2.11,4.71,4.71c0,2.6-2.11,4.71-4.71,4.71
					c-2.6,0-4.71-2.11-4.71-4.71C344.76-259.33,346.86-261.43,349.46-261.43z M310.21-263.41c2.6,0,4.71,2.11,4.71,4.71
					s-2.11,4.71-4.71,4.71s-4.71-2.11-4.71-4.71S307.61-263.41,310.21-263.41z M270.95-265.38c2.6,0,4.71,2.11,4.71,4.71
					s-2.11,4.71-4.71,4.71s-4.71-2.11-4.71-4.71S268.35-265.38,270.95-265.38z M231.7-267.36c2.6,0,4.71,2.11,4.71,4.71
					s-2.11,4.71-4.71,4.71c-2.6,0-4.71-2.11-4.71-4.71S229.1-267.36,231.7-267.36z M192.44-269.33c2.6,0,4.71,2.11,4.71,4.71
					s-2.11,4.71-4.71,4.71c-2.6,0-4.71-2.11-4.71-4.71S189.84-269.33,192.44-269.33z M153.18-271.31c2.6,0,4.71,2.11,4.71,4.71
					s-2.11,4.71-4.71,4.71c-2.6,0-4.71-2.11-4.71-4.71S150.58-271.31,153.18-271.31z M113.93-273.28c2.6,0,4.71,2.11,4.71,4.71
					s-2.11,4.71-4.71,4.71c-2.6,0-4.71-2.11-4.71-4.71S111.33-273.28,113.93-273.28z M74.67-275.26c2.6,0,4.71,2.11,4.71,4.71
					c0,2.6-2.11,4.71-4.71,4.71c-2.6,0-4.71-2.11-4.71-4.71C69.97-273.15,72.07-275.26,74.67-275.26z M35.42-277.23
					c2.6,0,4.71,2.11,4.71,4.71c0,2.6-2.11,4.71-4.71,4.71s-4.71-2.11-4.71-4.71C30.71-275.12,32.82-277.23,35.42-277.23z
					 M-3.84-279.21c2.6,0,4.71,2.11,4.71,4.71c0,2.6-2.11,4.71-4.71,4.71s-4.71-2.11-4.71-4.71C-8.55-277.1-6.44-279.21-3.84-279.21
					z M-43.1-281.18c2.6,0,4.71,2.11,4.71,4.71c0,2.6-2.11,4.71-4.71,4.71s-4.71-2.11-4.71-4.71
					C-47.8-279.07-45.7-281.18-43.1-281.18z M409.03-228.77c2.6,0,4.71,2.11,4.71,4.71c0,2.6-2.11,4.71-4.71,4.71
					c-2.6,0-4.71-2.11-4.71-4.71C404.32-226.66,406.43-228.77,409.03-228.77z M369.77-230.75c2.6,0,4.71,2.11,4.71,4.71
					c0,2.6-2.11,4.71-4.71,4.71c-2.6,0-4.71-2.11-4.71-4.71C365.06-228.64,367.17-230.75,369.77-230.75z M330.51-232.72
					c2.6,0,4.71,2.11,4.71,4.71c0,2.6-2.11,4.71-4.71,4.71s-4.71-2.11-4.71-4.71C325.81-230.61,327.92-232.72,330.51-232.72z
					 M291.26-234.7c2.6,0,4.71,2.11,4.71,4.71c0,2.6-2.11,4.71-4.71,4.71s-4.71-2.11-4.71-4.71
					C286.55-232.59,288.66-234.7,291.26-234.7z M252-236.67c2.6,0,4.71,2.11,4.71,4.71c0,2.6-2.11,4.71-4.71,4.71
					c-2.6,0-4.71-2.11-4.71-4.71C247.3-234.56,249.4-236.67,252-236.67z M212.75-238.65c2.6,0,4.71,2.11,4.71,4.71
					s-2.11,4.71-4.71,4.71c-2.6,0-4.71-2.11-4.71-4.71S210.15-238.65,212.75-238.65z M173.49-240.62c2.6,0,4.71,2.11,4.71,4.71
					s-2.11,4.71-4.71,4.71c-2.6,0-4.71-2.11-4.71-4.71S170.89-240.62,173.49-240.62z M134.23-242.6c2.6,0,4.71,2.11,4.71,4.71
					s-2.11,4.71-4.71,4.71c-2.6,0-4.71-2.11-4.71-4.71S131.63-242.6,134.23-242.6z M94.98-244.57c2.6,0,4.71,2.11,4.71,4.71
					c0,2.6-2.11,4.71-4.71,4.71s-4.71-2.11-4.71-4.71C90.27-242.46,92.38-244.57,94.98-244.57z M55.72-246.54
					c2.6,0,4.71,2.11,4.71,4.71c0,2.6-2.11,4.71-4.71,4.71s-4.71-2.11-4.71-4.71C51.02-244.44,53.12-246.54,55.72-246.54z
					 M16.47-248.52c2.6,0,4.71,2.11,4.71,4.71c0,2.6-2.11,4.71-4.71,4.71s-4.71-2.11-4.71-4.71
					C11.76-246.41,13.87-248.52,16.47-248.52z M-22.79-250.49c2.6,0,4.71,2.11,4.71,4.71c0,2.6-2.11,4.71-4.71,4.71
					s-4.71-2.11-4.71-4.71C-27.5-248.39-25.39-250.49-22.79-250.49z M427.98-198.38c2.6,0,4.71,2.11,4.71,4.71s-2.11,4.71-4.71,4.71
					c-2.6,0-4.71-2.11-4.71-4.71S425.38-198.38,427.98-198.38z M388.72-200.36c2.6,0,4.71,2.11,4.71,4.71s-2.11,4.71-4.71,4.71
					c-2.6,0-4.71-2.11-4.71-4.71S386.12-200.36,388.72-200.36z M349.46-202.33c2.6,0,4.71,2.11,4.71,4.71c0,2.6-2.11,4.71-4.71,4.71
					c-2.6,0-4.71-2.11-4.71-4.71C344.76-200.22,346.86-202.33,349.46-202.33z M310.21-204.31c2.6,0,4.71,2.11,4.71,4.71
					c0,2.6-2.11,4.71-4.71,4.71s-4.71-2.11-4.71-4.71C305.5-202.2,307.61-204.31,310.21-204.31z M270.95-206.28
					c2.6,0,4.71,2.11,4.71,4.71c0,2.6-2.11,4.71-4.71,4.71s-4.71-2.11-4.71-4.71C266.25-204.17,268.35-206.28,270.95-206.28z
					 M231.7-208.25c2.6,0,4.71,2.11,4.71,4.71c0,2.6-2.11,4.71-4.71,4.71c-2.6,0-4.71-2.11-4.71-4.71
					C226.99-206.15,229.1-208.25,231.7-208.25z M192.44-210.23c2.6,0,4.71,2.11,4.71,4.71c0,2.6-2.11,4.71-4.71,4.71
					c-2.6,0-4.71-2.11-4.71-4.71C187.73-208.12,189.84-210.23,192.44-210.23z M153.18-212.2c2.6,0,4.71,2.11,4.71,4.71
					c0,2.6-2.11,4.71-4.71,4.71c-2.6,0-4.71-2.11-4.71-4.71C148.48-210.1,150.58-212.2,153.18-212.2z M113.93-214.18
					c2.6,0,4.71,2.11,4.71,4.71s-2.11,4.71-4.71,4.71c-2.6,0-4.71-2.11-4.71-4.71S111.33-214.18,113.93-214.18z M74.67-216.15
					c2.6,0,4.71,2.11,4.71,4.71s-2.11,4.71-4.71,4.71c-2.6,0-4.71-2.11-4.71-4.71S72.07-216.15,74.67-216.15z M35.42-218.13
					c2.6,0,4.71,2.11,4.71,4.71s-2.11,4.71-4.71,4.71s-4.71-2.11-4.71-4.71S32.82-218.13,35.42-218.13z M-3.84-220.1
					c2.6,0,4.71,2.11,4.71,4.71c0,2.6-2.11,4.71-4.71,4.71s-4.71-2.11-4.71-4.71C-8.55-218-6.44-220.1-3.84-220.1z M-43.1-222.08
					c2.6,0,4.71,2.11,4.71,4.71c0,2.6-2.11,4.71-4.71,4.71s-4.71-2.11-4.71-4.71C-47.8-219.97-45.7-222.08-43.1-222.08z
					 M409.03-169.67c2.6,0,4.71,2.11,4.71,4.71s-2.11,4.71-4.71,4.71c-2.6,0-4.71-2.11-4.71-4.71S406.43-169.67,409.03-169.67z
					 M369.77-171.64c2.6,0,4.71,2.11,4.71,4.71s-2.11,4.71-4.71,4.71c-2.6,0-4.71-2.11-4.71-4.71S367.17-171.64,369.77-171.64z
					 M330.51-173.62c2.6,0,4.71,2.11,4.71,4.71c0,2.6-2.11,4.71-4.71,4.71s-4.71-2.11-4.71-4.71
					C325.81-171.51,327.92-173.62,330.51-173.62z M291.26-175.59c2.6,0,4.71,2.11,4.71,4.71c0,2.6-2.11,4.71-4.71,4.71
					s-4.71-2.11-4.71-4.71C286.55-173.49,288.66-175.59,291.26-175.59z M252-177.57c2.6,0,4.71,2.11,4.71,4.71
					c0,2.6-2.11,4.71-4.71,4.71c-2.6,0-4.71-2.11-4.71-4.71C247.3-175.46,249.4-177.57,252-177.57z M212.75-179.54
					c2.6,0,4.71,2.11,4.71,4.71c0,2.6-2.11,4.71-4.71,4.71c-2.6,0-4.71-2.11-4.71-4.71C208.04-177.44,210.15-179.54,212.75-179.54z
					 M173.49-181.52c2.6,0,4.71,2.11,4.71,4.71c0,2.6-2.11,4.71-4.71,4.71c-2.6,0-4.71-2.11-4.71-4.71
					C168.78-179.41,170.89-181.52,173.49-181.52z M134.23-183.49c2.6,0,4.71,2.11,4.71,4.71c0,2.6-2.11,4.71-4.71,4.71
					c-2.6,0-4.71-2.11-4.71-4.71C129.53-181.39,131.63-183.49,134.23-183.49z M94.98-185.47c2.6,0,4.71,2.11,4.71,4.71
					s-2.11,4.71-4.71,4.71s-4.71-2.11-4.71-4.71S92.38-185.47,94.98-185.47z M55.72-187.44c2.6,0,4.71,2.11,4.71,4.71
					s-2.11,4.71-4.71,4.71s-4.71-2.11-4.71-4.71S53.12-187.44,55.72-187.44z M16.47-189.42c2.6,0,4.71,2.11,4.71,4.71
					S19.07-180,16.47-180s-4.71-2.11-4.71-4.71S13.87-189.42,16.47-189.42z M-22.79-191.39c2.6,0,4.71,2.11,4.71,4.71
					s-2.11,4.71-4.71,4.71s-4.71-2.11-4.71-4.71S-25.39-191.39-22.79-191.39z M427.98-139.28c2.6,0,4.71,2.11,4.71,4.71
					c0,2.6-2.11,4.71-4.71,4.71c-2.6,0-4.71-2.11-4.71-4.71C423.27-137.17,425.38-139.28,427.98-139.28z M388.72-141.25
					c2.6,0,4.71,2.11,4.71,4.71c0,2.6-2.11,4.71-4.71,4.71c-2.6,0-4.71-2.11-4.71-4.71C384.01-139.15,386.12-141.25,388.72-141.25z
					 M349.46-143.23c2.6,0,4.71,2.11,4.71,4.71s-2.11,4.71-4.71,4.71c-2.6,0-4.71-2.11-4.71-4.71S346.86-143.23,349.46-143.23z
					 M310.21-145.2c2.6,0,4.71,2.11,4.71,4.71s-2.11,4.71-4.71,4.71s-4.71-2.11-4.71-4.71S307.61-145.2,310.21-145.2z
					 M270.95-147.18c2.6,0,4.71,2.11,4.71,4.71s-2.11,4.71-4.71,4.71s-4.71-2.11-4.71-4.71S268.35-147.18,270.95-147.18z
					 M231.7-149.15c2.6,0,4.71,2.11,4.71,4.71c0,2.6-2.11,4.71-4.71,4.71c-2.6,0-4.71-2.11-4.71-4.71
					C226.99-147.05,229.1-149.15,231.7-149.15z M192.44-151.13c2.6,0,4.71,2.11,4.71,4.71c0,2.6-2.11,4.71-4.71,4.71
					c-2.6,0-4.71-2.11-4.71-4.71C187.73-149.02,189.84-151.13,192.44-151.13z M153.18-153.1c2.6,0,4.71,2.11,4.71,4.71
					c0,2.6-2.11,4.71-4.71,4.71c-2.6,0-4.71-2.11-4.71-4.71C148.48-150.99,150.58-153.1,153.18-153.1z M113.93-155.08
					c2.6,0,4.71,2.11,4.71,4.71c0,2.6-2.11,4.71-4.71,4.71c-2.6,0-4.71-2.11-4.71-4.71C109.22-152.97,111.33-155.08,113.93-155.08z
					 M74.67-157.05c2.6,0,4.71,2.11,4.71,4.71c0,2.6-2.11,4.71-4.71,4.71c-2.6,0-4.71-2.11-4.71-4.71
					C69.97-154.94,72.07-157.05,74.67-157.05z M35.42-159.03c2.6,0,4.71,2.11,4.71,4.71c0,2.6-2.11,4.71-4.71,4.71
					s-4.71-2.11-4.71-4.71C30.71-156.92,32.82-159.03,35.42-159.03z M-3.84-161c2.6,0,4.71,2.11,4.71,4.71s-2.11,4.71-4.71,4.71
					s-4.71-2.11-4.71-4.71S-6.44-161-3.84-161z M-43.1-162.98c2.6,0,4.71,2.11,4.71,4.71s-2.11,4.71-4.71,4.71s-4.71-2.11-4.71-4.71
					S-45.7-162.98-43.1-162.98z M409.03-110.57c2.6,0,4.71,2.11,4.71,4.71c0,2.6-2.11,4.71-4.71,4.71c-2.6,0-4.71-2.11-4.71-4.71
					C404.32-108.46,406.43-110.57,409.03-110.57z M369.77-112.54c2.6,0,4.71,2.11,4.71,4.71c0,2.6-2.11,4.71-4.71,4.71
					c-2.6,0-4.71-2.11-4.71-4.71C365.06-110.43,367.17-112.54,369.77-112.54z M330.51-114.52c2.6,0,4.71,2.11,4.71,4.71
					c0,2.6-2.11,4.71-4.71,4.71s-4.71-2.11-4.71-4.71C325.81-112.41,327.92-114.52,330.51-114.52z M291.26-116.49
					c2.6,0,4.71,2.11,4.71,4.71s-2.11,4.71-4.71,4.71s-4.71-2.11-4.71-4.71S288.66-116.49,291.26-116.49z M252-118.47
					c2.6,0,4.71,2.11,4.71,4.71s-2.11,4.71-4.71,4.71c-2.6,0-4.71-2.11-4.71-4.71S249.4-118.47,252-118.47z M212.75-120.44
					c2.6,0,4.71,2.11,4.71,4.71c0,2.6-2.11,4.71-4.71,4.71c-2.6,0-4.71-2.11-4.71-4.71C208.04-118.33,210.15-120.44,212.75-120.44z
					 M173.49-122.42c2.6,0,4.71,2.11,4.71,4.71c0,2.6-2.11,4.71-4.71,4.71c-2.6,0-4.71-2.11-4.71-4.71
					C168.78-120.31,170.89-122.42,173.49-122.42z M134.23-124.39c2.6,0,4.71,2.11,4.71,4.71c0,2.6-2.11,4.71-4.71,4.71
					c-2.6,0-4.71-2.11-4.71-4.71C129.53-122.28,131.63-124.39,134.23-124.39z M94.98-126.37c2.6,0,4.71,2.11,4.71,4.71
					s-2.11,4.71-4.71,4.71s-4.71-2.11-4.71-4.71S92.38-126.37,94.98-126.37z M55.72-128.34c2.6,0,4.71,2.11,4.71,4.71
					c0,2.6-2.11,4.71-4.71,4.71s-4.71-2.11-4.71-4.71C51.02-126.23,53.12-128.34,55.72-128.34z M16.47-130.31
					c2.6,0,4.71,2.11,4.71,4.71s-2.11,4.71-4.71,4.71s-4.71-2.11-4.71-4.71S13.87-130.31,16.47-130.31z M-22.79-132.29
					c2.6,0,4.71,2.11,4.71,4.71c0,2.6-2.11,4.71-4.71,4.71s-4.71-2.11-4.71-4.71C-27.5-130.18-25.39-132.29-22.79-132.29z
					 M427.98-80.18c2.6,0,4.71,2.11,4.71,4.71c0,2.6-2.11,4.71-4.71,4.71c-2.6,0-4.71-2.11-4.71-4.71
					C423.27-78.07,425.38-80.18,427.98-80.18z M388.72-82.15c2.6,0,4.71,2.11,4.71,4.71c0,2.6-2.11,4.71-4.71,4.71
					c-2.6,0-4.71-2.11-4.71-4.71C384.01-80.04,386.12-82.15,388.72-82.15z M349.46-84.13c2.6,0,4.71,2.11,4.71,4.71
					s-2.11,4.71-4.71,4.71c-2.6,0-4.71-2.11-4.71-4.71S346.86-84.13,349.46-84.13z M310.21-86.1c2.6,0,4.71,2.11,4.71,4.71
					c0,2.6-2.11,4.71-4.71,4.71s-4.71-2.11-4.71-4.71C305.5-83.99,307.61-86.1,310.21-86.1z M270.95-88.08
					c2.6,0,4.71,2.11,4.71,4.71c0,2.6-2.11,4.71-4.71,4.71s-4.71-2.11-4.71-4.71C266.25-85.97,268.35-88.08,270.95-88.08z
					 M231.7-90.05c2.6,0,4.71,2.11,4.71,4.71c0,2.6-2.11,4.71-4.71,4.71c-2.6,0-4.71-2.11-4.71-4.71
					C226.99-87.94,229.1-90.05,231.7-90.05z M192.44-92.03c2.6,0,4.71,2.11,4.71,4.71c0,2.6-2.11,4.71-4.71,4.71
					c-2.6,0-4.71-2.11-4.71-4.71C187.73-89.92,189.84-92.03,192.44-92.03z M153.18-94c2.6,0,4.71,2.11,4.71,4.71
					s-2.11,4.71-4.71,4.71c-2.6,0-4.71-2.11-4.71-4.71S150.58-94,153.18-94z M113.93-95.97c2.6,0,4.71,2.11,4.71,4.71
					c0,2.6-2.11,4.71-4.71,4.71c-2.6,0-4.71-2.11-4.71-4.71C109.22-93.87,111.33-95.97,113.93-95.97z M74.67-97.95
					c2.6,0,4.71,2.11,4.71,4.71c0,2.6-2.11,4.71-4.71,4.71c-2.6,0-4.71-2.11-4.71-4.71C69.97-95.84,72.07-97.95,74.67-97.95z
					 M35.42-99.92c2.6,0,4.71,2.11,4.71,4.71c0,2.6-2.11,4.71-4.71,4.71s-4.71-2.11-4.71-4.71C30.71-97.82,32.82-99.92,35.42-99.92z
					 M-3.84-101.9c2.6,0,4.71,2.11,4.71,4.71s-2.11,4.71-4.71,4.71s-4.71-2.11-4.71-4.71S-6.44-101.9-3.84-101.9z M-43.1-103.87
					c2.6,0,4.71,2.11,4.71,4.71s-2.11,4.71-4.71,4.71s-4.71-2.11-4.71-4.71S-45.7-103.87-43.1-103.87z M409.03-51.47
					c2.6,0,4.71,2.11,4.71,4.71s-2.11,4.71-4.71,4.71c-2.6,0-4.71-2.11-4.71-4.71S406.43-51.47,409.03-51.47z M369.77-53.44
					c2.6,0,4.71,2.11,4.71,4.71c0,2.6-2.11,4.71-4.71,4.71c-2.6,0-4.71-2.11-4.71-4.71C365.06-51.33,367.17-53.44,369.77-53.44z
					 M330.51-55.41c2.6,0,4.71,2.11,4.71,4.71S333.11-46,330.51-46s-4.71-2.11-4.71-4.71S327.92-55.41,330.51-55.41z M291.26-57.39
					c2.6,0,4.71,2.11,4.71,4.71c0,2.6-2.11,4.71-4.71,4.71s-4.71-2.11-4.71-4.71C286.55-55.28,288.66-57.39,291.26-57.39z
					 M252-59.36c2.6,0,4.71,2.11,4.71,4.71c0,2.6-2.11,4.71-4.71,4.71c-2.6,0-4.71-2.11-4.71-4.71
					C247.3-57.26,249.4-59.36,252-59.36z M212.75-61.34c2.6,0,4.71,2.11,4.71,4.71s-2.11,4.71-4.71,4.71c-2.6,0-4.71-2.11-4.71-4.71
					S210.15-61.34,212.75-61.34z M173.49-63.31c2.6,0,4.71,2.11,4.71,4.71c0,2.6-2.11,4.71-4.71,4.71c-2.6,0-4.71-2.11-4.71-4.71
					C168.78-61.21,170.89-63.31,173.49-63.31z M134.23-65.29c2.6,0,4.71,2.11,4.71,4.71s-2.11,4.71-4.71,4.71
					c-2.6,0-4.71-2.11-4.71-4.71S131.63-65.29,134.23-65.29z M94.98-67.26c2.6,0,4.71,2.11,4.71,4.71c0,2.6-2.11,4.71-4.71,4.71
					s-4.71-2.11-4.71-4.71C90.27-65.16,92.38-67.26,94.98-67.26z M55.72-69.24c2.6,0,4.71,2.11,4.71,4.71c0,2.6-2.11,4.71-4.71,4.71
					s-4.71-2.11-4.71-4.71C51.02-67.13,53.12-69.24,55.72-69.24z M16.47-71.21c2.6,0,4.71,2.11,4.71,4.71c0,2.6-2.11,4.71-4.71,4.71
					s-4.71-2.11-4.71-4.71C11.76-69.11,13.87-71.21,16.47-71.21z M-22.79-73.19c2.6,0,4.71,2.11,4.71,4.71
					c0,2.6-2.11,4.71-4.71,4.71s-4.71-2.11-4.71-4.71C-27.5-71.08-25.39-73.19-22.79-73.19z M427.98-21.07
					c2.6,0,4.71,2.11,4.71,4.71s-2.11,4.71-4.71,4.71c-2.6,0-4.71-2.11-4.71-4.71S425.38-21.07,427.98-21.07z M388.72-23.05
					c2.6,0,4.71,2.11,4.71,4.71s-2.11,4.71-4.71,4.71c-2.6,0-4.71-2.11-4.71-4.71S386.12-23.05,388.72-23.05z M349.46-25.02
					c2.6,0,4.71,2.11,4.71,4.71s-2.11,4.71-4.71,4.71c-2.6,0-4.71-2.11-4.71-4.71S346.86-25.02,349.46-25.02z M310.21-27
					c2.6,0,4.71,2.11,4.71,4.71s-2.11,4.71-4.71,4.71s-4.71-2.11-4.71-4.71S307.61-27,310.21-27z M270.95-28.97
					c2.6,0,4.71,2.11,4.71,4.71s-2.11,4.71-4.71,4.71s-4.71-2.11-4.71-4.71S268.35-28.97,270.95-28.97z M231.7-30.95
					c2.6,0,4.71,2.11,4.71,4.71s-2.11,4.71-4.71,4.71c-2.6,0-4.71-2.11-4.71-4.71S229.1-30.95,231.7-30.95z M192.44-32.92
					c2.6,0,4.71,2.11,4.71,4.71s-2.11,4.71-4.71,4.71c-2.6,0-4.71-2.11-4.71-4.71S189.84-32.92,192.44-32.92z M153.18-34.9
					c2.6,0,4.71,2.11,4.71,4.71s-2.11,4.71-4.71,4.71c-2.6,0-4.71-2.11-4.71-4.71S150.58-34.9,153.18-34.9z M113.93-36.87
					c2.6,0,4.71,2.11,4.71,4.71s-2.11,4.71-4.71,4.71c-2.6,0-4.71-2.11-4.71-4.71S111.33-36.87,113.93-36.87z M74.67-38.85
					c2.6,0,4.71,2.11,4.71,4.71s-2.11,4.71-4.71,4.71c-2.6,0-4.71-2.11-4.71-4.71S72.07-38.85,74.67-38.85z M35.42-40.82
					c2.6,0,4.71,2.11,4.71,4.71s-2.11,4.71-4.71,4.71s-4.71-2.11-4.71-4.71S32.82-40.82,35.42-40.82z M-3.84-42.8
					c2.6,0,4.71,2.11,4.71,4.71c0,2.6-2.11,4.71-4.71,4.71s-4.71-2.11-4.71-4.71C-8.55-40.69-6.44-42.8-3.84-42.8z M-43.1-44.77
					c2.6,0,4.71,2.11,4.71,4.71c0,2.6-2.11,4.71-4.71,4.71s-4.71-2.11-4.71-4.71C-47.8-42.66-45.7-44.77-43.1-44.77z M409.03,7.64
					c2.6,0,4.71,2.11,4.71,4.71s-2.11,4.71-4.71,4.71c-2.6,0-4.71-2.11-4.71-4.71S406.43,7.64,409.03,7.64z M369.77,5.66
					c2.6,0,4.71,2.11,4.71,4.71s-2.11,4.71-4.71,4.71c-2.6,0-4.71-2.11-4.71-4.71S367.17,5.66,369.77,5.66z M330.51,3.69
					c2.6,0,4.71,2.11,4.71,4.71s-2.11,4.71-4.71,4.71s-4.71-2.11-4.71-4.71S327.92,3.69,330.51,3.69z M291.26,1.71
					c2.6,0,4.71,2.11,4.71,4.71s-2.11,4.71-4.71,4.71s-4.71-2.11-4.71-4.71S288.66,1.71,291.26,1.71z M252-0.26
					c2.6,0,4.71,2.11,4.71,4.71S254.6,9.15,252,9.15c-2.6,0-4.71-2.11-4.71-4.71S249.4-0.26,252-0.26z M212.75-2.24
					c2.6,0,4.71,2.11,4.71,4.71s-2.11,4.71-4.71,4.71c-2.6,0-4.71-2.11-4.71-4.71S210.15-2.24,212.75-2.24z M173.49-4.21
					c2.6,0,4.71,2.11,4.71,4.71s-2.11,4.71-4.71,4.71c-2.6,0-4.71-2.11-4.71-4.71S170.89-4.21,173.49-4.21z M134.23-6.19
					c2.6,0,4.71,2.11,4.71,4.71s-2.11,4.71-4.71,4.71c-2.6,0-4.71-2.11-4.71-4.71S131.63-6.19,134.23-6.19z M94.98-8.16
					c2.6,0,4.71,2.11,4.71,4.71s-2.11,4.71-4.71,4.71s-4.71-2.11-4.71-4.71S92.38-8.16,94.98-8.16z M55.72-10.14
					c2.6,0,4.71,2.11,4.71,4.71s-2.11,4.71-4.71,4.71s-4.71-2.11-4.71-4.71S53.12-10.14,55.72-10.14z M16.47-12.11
					c2.6,0,4.71,2.11,4.71,4.71S19.07-2.7,16.47-2.7S11.76-4.8,11.76-7.4S13.87-12.11,16.47-12.11z M-22.79-14.09
					c2.6,0,4.71,2.11,4.71,4.71s-2.11,4.71-4.71,4.71s-4.71-2.11-4.71-4.71S-25.39-14.09-22.79-14.09z M427.98,38.03
					c2.6,0,4.71,2.11,4.71,4.71s-2.11,4.71-4.71,4.71c-2.6,0-4.71-2.11-4.71-4.71S425.38,38.03,427.98,38.03z M388.72,36.05
					c2.6,0,4.71,2.11,4.71,4.71c0,2.6-2.11,4.71-4.71,4.71c-2.6,0-4.71-2.11-4.71-4.71C384.01,38.16,386.12,36.05,388.72,36.05z
					 M349.46,34.08c2.6,0,4.71,2.11,4.71,4.71s-2.11,4.71-4.71,4.71c-2.6,0-4.71-2.11-4.71-4.71S346.86,34.08,349.46,34.08z
					 M310.21,32.1c2.6,0,4.71,2.11,4.71,4.71c0,2.6-2.11,4.71-4.71,4.71s-4.71-2.11-4.71-4.71C305.5,34.21,307.61,32.1,310.21,32.1z
					 M270.95,30.13c2.6,0,4.71,2.11,4.71,4.71s-2.11,4.71-4.71,4.71s-4.71-2.11-4.71-4.71S268.35,30.13,270.95,30.13z M231.7,28.15
					c2.6,0,4.71,2.11,4.71,4.71c0,2.6-2.11,4.71-4.71,4.71c-2.6,0-4.71-2.11-4.71-4.71C226.99,30.26,229.1,28.15,231.7,28.15z
					 M192.44,26.18c2.6,0,4.71,2.11,4.71,4.71s-2.11,4.71-4.71,4.71c-2.6,0-4.71-2.11-4.71-4.71S189.84,26.18,192.44,26.18z
					 M153.18,24.2c2.6,0,4.71,2.11,4.71,4.71s-2.11,4.71-4.71,4.71c-2.6,0-4.71-2.11-4.71-4.71S150.58,24.2,153.18,24.2z
					 M113.93,22.23c2.6,0,4.71,2.11,4.71,4.71s-2.11,4.71-4.71,4.71c-2.6,0-4.71-2.11-4.71-4.71S111.33,22.23,113.93,22.23z
					 M74.67,20.26c2.6,0,4.71,2.11,4.71,4.71s-2.11,4.71-4.71,4.71c-2.6,0-4.71-2.11-4.71-4.71S72.07,20.26,74.67,20.26z
					 M35.42,18.28c2.6,0,4.71,2.11,4.71,4.71s-2.11,4.71-4.71,4.71s-4.71-2.11-4.71-4.71S32.82,18.28,35.42,18.28z M-3.84,16.31
					c2.6,0,4.71,2.11,4.71,4.71s-2.11,4.71-4.71,4.71s-4.71-2.11-4.71-4.71S-6.44,16.31-3.84,16.31z M-43.1,14.33
					c2.6,0,4.71,2.11,4.71,4.71s-2.11,4.71-4.71,4.71s-4.71-2.11-4.71-4.71S-45.7,14.33-43.1,14.33z"/>
			</g>
			<path d="M264.25-33.71c-4.81,0.52-9.55,1.44-14.32,2.29c-0.66,0.12-1.34,0.18-2.02,0.26c-3.38,0.4-6.74,0.92-10.13,1.28
				c-2.54,0.27-5.08,0.33-7.65,0.41c-4.78,0.13-9.5,0.16-14.25,1.05c-1.73,0.32-3.51,0.91-5.18,1.51c-1.86,0.19-3.69,0.4-5.53,0.66
				c-2.26,0.31-4.48,0.71-6.78,0.83c-1.8,0.09-3.57,0.16-5.23-0.69c-0.73-0.37-1.33-0.96-1.61-1.76c-0.28-0.8,0.16-1.19,0.9-1.63
				c1.96-1.18,4.3-1.97,6.43-2.84c2.5-1.02,4.92-2.06,7.42-3.04c7.45-2.92,14.92-5.63,22.65-7.73c0.88-0.24,1.8-0.28,2.71-0.44
				c3.42-0.59,6.81-1.08,10.1-2.25c3.04-0.4,6.11-0.72,9.17-0.83c2.5-0.09,5.07-0.13,7.54-0.07c1.36,0.03,2.89,0.17,4.12,0.08
				c1.23-0.09,2.43-0.27,3.44-0.46c1.01-0.19,0.93-1.36,0.28-1.75c-1.34-0.8-2.78-1.46-4.31-1.82c-1.53-0.36-3.13-0.5-4.69-0.62
				c-3.1-0.24-6.16-0.32-9.26-0.08c-6.21,0.46-12.31,1.52-18.35,3.02c-4.95,1.22-9.73,2.82-14.53,4.47
				c-1.7,0.02-3.37,0.06-5.08,0.09c-2.46,0.05-4.75,0.29-7.26-0.04c-1.93-0.26-3.69-0.6-5.54-1.73c-1.02-0.63-2.43-2.13-2.7-3.49
				c-0.97,0.12-1.88,0.29-2.84,0.44c0.3,1.05,0.58,2.09,1.28,2.96c3.03,3.79,6.88,5.05,11.59,5.55c0.23,0.02,0.41,0,0.62,0.01
				c-2.51,1.05-5.19,2.11-7.65,3.21c-2.46,1.1-5.05,1.83-7.28,3.27c-2.24,1.44-3.37,3.68-2.39,6.32c1.56,4.19,5.81,5.38,9.93,5.58
				c2.15,0.1,4.01-0.34,6.05-0.49c-2.16,3.31-3.17,7.36-0.16,10.51c3.01,3.16,7.67,2.65,11.59,2.71
				c10.73,0.16,21.16,0.21,31.81,0.23c1.12,0,2.16-0.01,3.36-0.02c-4.07,0.74-5.86,1.38-10.45,2.12c-6.14,0.99-20.59,1-20.23,10.3
				c0.1,2.56,2.63,3.25,4.59,3.92c0.9,0.3,2.01,0.32,2.96,0.4c6.53,0.5,13.11,0.8,19.64,1.18c13.08,0.77,26.13,1.54,39.19,2.37
				c1.27,0.08,2.52,0.16,3.79,0.24c0.21,3.4,0.67,6.72,1.66,9.98c-22.84-3.04-45.01-7.54-67.7-11.77
				c-28.58-5.33-56.31-10.31-85.89-11.14c-31.4-0.88-64.75,0.82-93.03,16.72c-0.32,0.18-0.68,0.39-0.96,0.55
				c3.06-7.81,5.34-16.01,7.4-24.1c1.91-7.52,3.7-14.89,5.07-22.47c2.64-14.53,4.75-29.05,5.64-43.8c1.49-24.6,0.18-49-3.28-73.39
				c-1.71-12-4.23-23.78-6.7-35.62c-2.94-14.06-7.15-27.84-8.3-42.2c-2.16-26.81,4.54-52.45,10.85-78.25
				c3.53-14.44,6.33-28.91,9.99-43.28c2.23-8.74,5.67-17.01,8.91-25.37c0.52-1.34-1.39-2.26-1.98-0.92
				c-3.87,8.71-7.61,17.46-10.31,26.65c-4.91,16.77-8.55,33.91-13.06,50.79c-0.98,3.66-1.95,7.28-2.87,10.97
				c-8.33,3.84-13.63,11.13-20.39,16.94c-4.61,3.95-9.56,6.09-15.58,4.56c-5.3-1.34-9.96-3.84-14.41-7.3
				c-18.33-14.24-29.42-32.82-36.99-54.62c-0.62,0.17-1.25,0.38-1.87,0.58c6.12,23.61,17.93,44.23,37.77,58.8
				c3.45,2.53,6.96,4.15,10.84,5.89c-20.91,15.09-42.8,28.23-66.59,38.44c-12.01,5.15-24.74,3.89-37.33,1.81
				c-6.07-1-11.58-2.83-17.42-4.55c-2.98-0.87-6.08-1.95-9.06-2.92c-0.45,0.86-0.89,1.73-1.33,2.61c0.21,0.06,0.52,0.21,0.77,0.3
				c21.11,7.53,44.34,14.4,65.84,5.44c25.04-10.43,47.1-24.31,68.87-39.98c4.71,0.65,9.02,0.8,13.5-1.46
				c5.37-2.7,9.4-7.42,13.58-11.59c2.68-2.67,5.39-4.82,8.34-7.06c-4.17,19.51-7.17,38.22-5.26,58.24
				c1.3,13.56,5.31,26.78,8.06,40.13c2.53,12.29,5.05,24.58,6.7,37.04c3.24,24.44,4.18,48.86,2.3,73.45
				c-1.05,13.72-3.22,27.17-5.69,40.71c-1.43,7.88-3.22,15.49-4.92,23.43c-1.7,7.94-4.11,16.13-5.28,24.26
				c-0.02,0.17,0.11,0.37,0.02,0.46c-0.7,0.73-1.53,1.42-2.01,2.36c-2.25,4.44-3.58,9.48-5.23,14.07s-3.27,8.97-4.88,13.46
				c-7.65,21.29-15.05,42.56-22.34,63.95c-30.07,88.19-58.3,176.99-86.57,265.76c-15.15-2.34-30.56-5.31-45.55-7.92
				c-4.59-0.8-6.57,5.94-1.92,6.87c36.6,7.38,73.57,12.69,110.65,17.06c22.25,2.62,44.56,4.53,66.85,6.35
				c-3.19,5.49-7.15,10.59-10.24,16.15c-2.3,4.14,3.46,7.19,6.2,3.5c4.42-5.94,8.21-12.79,12.35-19.02
				c42.75,2.99,85.61,4.7,128.44,5.57c0.97,6.07,1.37,12.66,2.45,18.59c0.81,4.44,7.31,4.82,7.14,0.05
				c-0.22-6.25-1.64-12.31-2.16-18.51c41.56,0.69,83.22,0.67,124.8,0.38c-8.38,22.62-18.84,44.33-30.32,65.45
				c-2.26,4.16,3.79,7.64,6.17,3.55c12.75-21.95,23.09-45.26,32.04-69.04c18.4-0.35,37.04-0.1,55.38-0.69
				c4.71-0.15,4.66-7.04-0.05-7.1c-17.47-0.22-35.21,0.39-52.74,0.36c2.52-7.47,4.92-15.07,7.09-22.64
				c0.25-0.85,0.16-1.48-0.04-2.28c7.33-26.45,13.27-53.1,16.51-80.41c2.96-24.96,4.18-50.18,2.06-75.25
				c-1.72-20.37-5.34-40.5-9.64-60.37c-9.83-45.43-22.56-90.89-40.96-133.64c-0.71-1.64-1.96-2.3-3.67-2.59
				c-0.02,0-0.06,0.01-0.07-0.01c-1.3-3.43-2.1-6.85-2.37-10.49c17.03,0.68,33.37,0.98,49.94-3.65c8.85-2.48,12.33-9.2,4.26-6.41
				c-18.94,6.55-37.94,6.23-57.69,5.13c-20.93-1.17-41.83-2.66-62.6-3.8c-1.93-0.11-7.39,0.42-4.4-2.42
				c1.29-1.23,5.02-1.18,6.9-1.56c5.2-1.06,10.38-2.08,15.52-3.15c10.69-2.22,21.51-4.02,32.02-6.82c2.55-0.68,1.58-4.09-0.9-3.84
				c-3.64,0.36-7.47,1.2-11.12,1.79c-2.39-0.03-4.74-0.02-7.12-0.03c-5.42-0.03-10.82-0.07-16.25-0.09
				c-9.8-0.03-19.61,0.11-29.41,0.17c-2.15,0.01-4.35,0.16-6.5-0.05c-1.55-0.15-3.47-0.45-4.06-2.11c-1.32-3.68,1.78-6.31,4.81-7.72
				c1.38-0.64,2.56-1.1,3.93-1.36c2.77-0.52,5.45-1.03,8.24-1.32c4.58-0.48,9-0.33,13.65-0.77c4.66-0.44,9.5-1.19,14.17-2.1
				c3.36-0.65,6.75-1.53,10.09-2.32c1.97-0.47,4.06-0.41,5.94-1.22c0.97-0.41,0.76-1.51-0.21-1.74c-0.42-0.1-0.9,0.1-1.29-0.09
				C264.87-33.45,264.69-33.76,264.25-33.71z M-73.81,379.44c14.84-46.6,29.7-93.22,44.83-139.73
				C-14.11,194,0.79,148.34,16.47,102.89c6.98-20.24,13.98-40.4,21.32-60.52c1.75-4.8,3.5-9.58,5.28-14.36
				c0.42-1.14,0.77-2.38,1.31-3.45c0.1-0.2,0.4-0.24,0.58-0.34c2.75-1.46,5.22-3.38,8.05-4.73c11.07-5.31,22.83-8.75,34.94-10.55
				c23.1-3.44,46.61-3.76,69.68-1.53c47.12,4.55,92.71,16.8,139.65,22.22c9.14,22.94,17.17,45.96,24.08,69.74
				c11.99,41.26,23.06,83.22,25.65,126.35c3.26,54.14-6.62,107.6-22.33,159.19c-0.27,0.9-0.23,1.48,0.02,2.34
				c-1.35,4.25-2.75,8.5-4.21,12.72c-16.92,0.11-33.83,0.23-50.76,0.23c-25.89,0.01-51.81-0.18-77.69-0.61
				c-1.63-11.7-3.21-23.43-5.04-35.1c-11.4-72.68-27.07-144.68-47.58-215.3c-1.32-4.55-8.12-2.58-6.91,1.97
				c3.86,14.53,8.23,29.28,11.95,43.91c-1.35,0.47-2.28,1.03-2.74,2.52c-21.17,68.81-50.89,134.56-88.46,195.99
				C10.74,390.37-31.64,385.81-73.81,379.44z M61.55,394.17c4.01-6.64,8.01-13.26,11.85-20c30.54-53.58,55.14-110.17,73.67-168.99
				c0.45,1.8,0.93,3.6,1.38,5.41c15.52,62.25,27.55,125.28,36.21,188.85C143.59,398.59,102.54,396.97,61.55,394.17z"/>
			<path class="st72" d="M-28.99,239.71C-14.11,194,0.79,148.34,16.46,102.89c6.98-20.24,14-40.4,21.33-60.52
				c1.75-4.8,3.5-9.58,5.28-14.36c0.42-1.14,0.77-2.38,1.31-3.45c0.1-0.2,0.4-0.24,0.58-0.34c2.75-1.46,5.23-3.38,8.05-4.73
				c11.07-5.31,22.83-8.75,34.94-10.55c23.1-3.44,46.62-3.76,69.69-1.53c40.52,3.91,79.92,13.51,120.01,19.58l0,0.01
				c4.91,23.16,10.52,52.91,15.45,86.68c-1.5,0.25-2.74,1.4-2.51,3.45c2.2,20.31,4.83,40.6,6.97,60.97
				C305.11,249.96,307.6,323,292.14,394c-0.52,2.37,1.03,4,2.81,4.42l-0.22,1.7c-8.33,0.04-16.65,0.07-24.99,0.07
				c-25.89,0.01-51.81-0.18-77.7-0.61c-1.6-11.7-3.23-23.42-5.05-35.1c-11.37-72.68-27.07-144.68-47.56-215.31
				c-1.32-4.55-8.11-2.58-6.91,1.97c3.86,14.53,8.23,29.28,11.95,43.91c-1.34,0.47-2.29,1.03-2.75,2.53
				c-21.15,68.81-50.89,134.56-88.45,195.99c-42.53-3.2-84.9-7.76-127.08-14.13C-58.95,332.84-44.13,286.22-28.99,239.71z
				 M239.69,78.14c12.37,12.41,26.35,21.44,41.85,28.61c4.27,1.98,7.89-3.92,3.6-6.1c-13.85-7.05-26.36-14.26-37.87-25.24
				C235.76,64.43,227,52.2,225.93,35.85c-0.32-4.83-7.15-4.68-7.06,0.07C219.2,52.83,228,66.41,239.69,78.14z M137.15,122.12
				c0.78,4.65,7.57,2.57,6.86-2.05c-4.4-28.53-5.51-57.54-3.88-86.46c0.27-4.74-6.8-4.55-7.13,0.11
				C130.93,63.16,132.23,92.9,137.15,122.12z M134.15,113.78c-8.91-28.71-14.13-58.11-15.4-88.11c-0.2-4.73-7.25-4.69-7.12,0.04
				c0.84,30.61,6.15,60.9,15.62,89.98C128.72,120.17,135.56,118.32,134.15,113.78z M77.58,331.8
				c24.26-47.52,43.89-97.37,58.69-148.62c1.32-4.57-5.66-6.39-6.99-1.86c-14.83,50.55-34.26,99.82-57.93,146.86
				C69.23,332.4,75.42,336.02,77.58,331.8z"/>
		</g>
	</g>
	<g>
		<path class="st12" d="M33.81,1.92h-4.23V0h-1v1.92H8.92V0h-1v1.92H3.69C1.65,1.92,0,3.57,0,5.6v25.21c0,2.03,1.65,3.69,3.69,3.69
			h30.12c2.03,0,3.69-1.65,3.69-3.69V5.6C37.5,3.57,35.84,1.92,33.81,1.92z M3.69,2.92h4.23v1.92h1V2.92h19.66v1.92h1V2.92h4.23
			c1.48,0,2.69,1.21,2.69,2.69v3.55H1V5.6C1,4.12,2.21,2.92,3.69,2.92z M33.81,33.5H3.69C2.21,33.5,1,32.29,1,30.81V10.15h35.5
			v20.66C36.5,32.29,35.29,33.5,33.81,33.5z"/>
	</g>
</g>
</svg>
