<?xml version="1.0" encoding="utf-8"?>
<!-- Generator: Adobe Illustrator 24.0.2, SVG Export Plug-In . SVG Version: 6.00 Build 0)  -->
<svg version="1.1" xmlns="http://www.w3.org/2000/svg" xmlns:xlink="http://www.w3.org/1999/xlink" x="0px" y="0px"
	 viewBox="0 0 36 36" style="enable-background:new 0 0 36 36;" xml:space="preserve">
<style type="text/css">
	.st0{fill:#F5F9FF;}
	.st1{fill:#CFFFE6;}
	.st2{fill:#B5FFD9;}
	.st3{fill:#9CFFCA;}
	.st4{fill:none;stroke:#B2B2B2;stroke-width:0.25;stroke-miterlimit:10;}
	.st5{fill:none;stroke:#0684F2;stroke-width:2;stroke-miterlimit:10;}
	.st6{fill:none;stroke:#0AAFF1;stroke-width:2;stroke-miterlimit:10;}
	.st7{fill:#FF7523;}
	.st8{fill:#CFFFE6;stroke:#4A4A49;stroke-width:0.5;stroke-linecap:round;stroke-linejoin:round;stroke-miterlimit:10;}
	.st9{fill:none;stroke:#4A4A49;stroke-width:0.5;stroke-miterlimit:10;}
	.st10{fill:#F8CEB0;}
	.st11{fill:#BBB2AD;}
	.st12{fill:#FFFFFF;}
	.st13{fill:#1D1D1D;}
	.st14{fill:#20201F;}
	.st15{fill:#CB6255;}
	.st16{fill:#FFFFFF;stroke:#000000;stroke-miterlimit:10;}
	.st17{fill:#DF8675;stroke:#000000;stroke-miterlimit:10;}
	.st18{fill:none;stroke:#000000;stroke-width:2;stroke-miterlimit:10;}
	.st19{opacity:0.25;fill:#FFFFFF;}
	.st20{fill:#E90016;}
	.st21{fill:#00575E;}
	.st22{fill:#ACA7A4;}
	.st23{clip-path:url(#SVGID_4_);}
	.st24{clip-path:url(#SVGID_6_);}
	.st25{fill:#FF6CD5;}
	.st26{fill:#DF8675;}
	.st27{clip-path:url(#SVGID_7_);fill:#FFFFFF;}
	.st28{clip-path:url(#SVGID_7_);}
	.st29{fill:#00224B;}
	.st30{fill:#D9E8FB;}
	.st31{clip-path:url(#SVGID_7_);fill:#F7FAFE;}
	.st32{clip-path:url(#SVGID_7_);fill:#D9E8FB;}
	.st33{clip-path:url(#SVGID_7_);fill:#DDF2FF;}
	.st34{fill:#DDF2FF;}
	.st35{clip-path:url(#SVGID_7_);fill:#1D1D1D;}
	.st36{fill:#F7FAFE;}
	.st37{fill:#0454CA;}
	.st38{fill:#FF8800;}
	.st39{clip-path:url(#SVGID_9_);}
	.st40{fill:#E52421;}
	.st41{fill:#F4F4F4;}
	.st42{fill:none;stroke:#494949;stroke-width:0.5;stroke-miterlimit:10;}
	.st43{fill:none;stroke:#494949;stroke-width:0.5;stroke-linecap:round;stroke-linejoin:round;stroke-miterlimit:10;}
	.st44{clip-path:url(#SVGID_11_);fill:#026847;}
	.st45{clip-path:url(#SVGID_11_);fill:#FFFFFF;}
	.st46{clip-path:url(#SVGID_11_);fill:#E52421;}
	.st47{clip-path:url(#SVGID_13_);fill:#006847;}
	.st48{clip-path:url(#SVGID_13_);fill:#ECE13C;}
	.st49{clip-path:url(#SVGID_13_);fill:#CF2011;}
	.st50{clip-path:url(#SVGID_15_);fill:#F8CD16;}
	.st51{clip-path:url(#SVGID_15_);fill:#00388F;}
	.st52{clip-path:url(#SVGID_15_);fill:#CA1126;}
	.st53{clip-path:url(#SVGID_17_);fill:#E52421;}
	.st54{clip-path:url(#SVGID_17_);fill:#FFFFFF;}
	.st55{fill:#0444BF;}
	.st56{clip-path:url(#SVGID_19_);}
	.st57{fill:#FFC200;}
	.st58{clip-path:url(#SVGID_21_);}
	.st59{fill:#F9DCA4;}
	.st60{fill:#DEC492;}
	.st61{fill:#677079;}
	.st62{fill:#FFE8BE;}
	.st63{fill:#434955;}
	.st64{fill:#FF8610;}
	.st65{fill:#AFCA13;}
	.st66{fill:none;stroke:#FFFFFF;stroke-width:0.5;stroke-miterlimit:10;}
	.st67{fill:#272628;}
	.st68{clip-path:url(#SVGID_23_);fill:#FFFFFF;}
	.st69{fill:#AFAFAF;}
	.st70{fill:#FFFAE6;}
	.st71{fill:none;}
	.st72{fill:#3B56DB;}
	.st73{fill:#2545BA;}
	.st74{fill:#0A2677;}
	.st75{clip-path:url(#SVGID_25_);fill:#FFFFFF;}
	.st76{fill:#FFFFFF;stroke:#000000;stroke-width:1.0583;stroke-miterlimit:10;}
	.st77{fill:#DF8675;stroke:#000000;stroke-width:1.0583;stroke-miterlimit:10;}
	.st78{fill:none;stroke:#000000;stroke-width:2.1166;stroke-miterlimit:10;}
	.st79{fill:#AFAFAF;stroke:#000000;stroke-width:1.6517;stroke-linecap:round;stroke-linejoin:round;stroke-miterlimit:10;}
	.st80{clip-path:url(#SVGID_26_);fill:#FFFFFF;}
	.st81{fill:#FFFFFF;stroke:#000000;stroke-linecap:round;stroke-linejoin:round;stroke-miterlimit:10;}
	.st82{fill:none;stroke:#000000;stroke-linecap:round;stroke-linejoin:round;stroke-miterlimit:10;}
	.st83{fill:#EDEDED;}
	.st84{fill:#2E9EFF;}
	.st85{clip-path:url(#SVGID_28_);}
	.st86{clip-path:url(#SVGID_30_);}
	.st87{fill:#0684F2;}
	.st88{fill:none;stroke:#575756;stroke-width:0.25;stroke-miterlimit:10;}
	.st89{fill:#0AAFF1;}
	.st90{fill:none;stroke:#FFFFFF;stroke-miterlimit:10;}
	.st91{fill:#4A4A49;}
	.st92{fill:none;stroke:#B2B2B2;stroke-width:0.5;stroke-miterlimit:10;}
	.st93{clip-path:url(#SVGID_32_);}
	.st94{clip-path:url(#SVGID_34_);}
	.st95{clip-path:url(#SVGID_36_);}
	.st96{fill:#F8CEB0;stroke:#000000;stroke-width:3.5;stroke-miterlimit:10;}
	.st97{fill:none;stroke:#000000;stroke-width:3.5;stroke-miterlimit:10;}
	.st98{clip-path:url(#SVGID_38_);}
	.st99{clip-path:url(#SVGID_40_);fill:#FFFFFF;}
</style>
<g id="base">
</g>
<g id="guías">
	<g>
	</g>
	<g>
		<defs>
			<rect id="SVGID_37_" x="-46.62" y="-726.81" width="557.55" height="597.94"/>
		</defs>
		<clipPath id="SVGID_4_">
			<use xlink:href="#SVGID_37_"  style="overflow:visible;"/>
		</clipPath>
		<g class="st23">
			<path d="M366.95-32.71c-4.81,0.52-9.55,1.44-14.32,2.29c-0.66,0.12-1.34,0.18-2.02,0.26c-3.38,0.4-6.74,0.92-10.13,1.28
				c-2.54,0.27-5.08,0.33-7.65,0.41c-4.78,0.13-9.5,0.16-14.25,1.05c-1.73,0.32-3.51,0.91-5.18,1.51c-1.86,0.19-3.69,0.4-5.53,0.66
				c-2.26,0.31-4.48,0.71-6.78,0.83c-1.8,0.09-3.57,0.16-5.23-0.69c-0.73-0.37-1.33-0.96-1.61-1.76c-0.28-0.8,0.16-1.19,0.9-1.63
				c1.96-1.18,4.3-1.97,6.43-2.84c2.5-1.02,4.92-2.06,7.42-3.04c7.45-2.92,14.92-5.63,22.65-7.73c0.88-0.24,1.8-0.28,2.71-0.44
				c3.42-0.59,6.81-1.08,10.1-2.25c3.04-0.4,6.11-0.72,9.17-0.83c2.5-0.09,5.07-0.13,7.54-0.07c1.36,0.03,2.89,0.17,4.12,0.08
				c1.23-0.09,2.43-0.27,3.44-0.46c1.01-0.19,0.93-1.36,0.28-1.75c-1.34-0.8-2.78-1.46-4.31-1.82c-1.53-0.36-3.13-0.5-4.69-0.62
				c-3.1-0.24-6.16-0.32-9.26-0.08c-6.21,0.46-12.31,1.52-18.35,3.02c-4.95,1.22-9.73,2.82-14.53,4.47
				c-1.7,0.02-3.37,0.06-5.08,0.09c-2.46,0.05-4.75,0.29-7.26-0.04c-1.93-0.26-3.69-0.6-5.54-1.73c-1.02-0.63-2.43-2.13-2.7-3.49
				c-0.97,0.12-1.88,0.29-2.84,0.44c0.3,1.05,0.58,2.09,1.28,2.96c3.03,3.79,6.88,5.05,11.59,5.55c0.23,0.02,0.41,0,0.62,0.01
				c-2.51,1.05-5.19,2.11-7.65,3.21c-2.46,1.1-5.05,1.83-7.28,3.27c-2.24,1.44-3.37,3.68-2.39,6.32c1.56,4.19,5.81,5.38,9.93,5.58
				c2.15,0.1,4.01-0.34,6.05-0.49c-2.16,3.31-3.17,7.36-0.16,10.51c3.01,3.16,7.67,2.65,11.59,2.71
				c10.73,0.16,21.16,0.21,31.81,0.23c1.12,0,2.16-0.01,3.36-0.02c-4.07,0.74-5.86,1.38-10.45,2.12c-6.14,0.99-20.59,1-20.23,10.3
				c0.1,2.56,2.63,3.25,4.59,3.92c0.9,0.3,2.01,0.32,2.96,0.4c6.53,0.5,13.11,0.8,19.64,1.18c13.08,0.77,26.13,1.54,39.19,2.37
				c1.27,0.08,2.52,0.16,3.79,0.24c0.21,3.4,0.67,6.72,1.66,9.98c-22.84-3.04-45.01-7.54-67.7-11.77
				c-28.58-5.33-56.31-10.31-85.89-11.14c-31.4-0.88-64.75,0.82-93.03,16.72c-0.32,0.18-0.68,0.39-0.96,0.55
				c3.06-7.81,5.34-16.01,7.4-24.1c1.91-7.52,3.7-14.89,5.07-22.47c2.64-14.53,4.75-29.05,5.64-43.8c1.49-24.6,0.18-49-3.28-73.39
				c-1.71-12-4.23-23.78-6.7-35.62c-2.94-14.06-7.15-27.84-8.3-42.2c-2.16-26.81,4.54-52.45,10.85-78.25
				c3.53-14.44,6.33-28.91,9.99-43.28c2.23-8.74,5.67-17.01,8.91-25.37c0.52-1.34-1.39-2.26-1.98-0.92
				c-3.87,8.71-7.61,17.46-10.31,26.65c-4.91,16.77-8.55,33.91-13.06,50.79c-0.98,3.66-1.95,7.28-2.87,10.97
				c-8.33,3.84-13.63,11.13-20.39,16.94c-4.61,3.95-9.56,6.09-15.58,4.56c-5.3-1.34-9.96-3.84-14.41-7.3
				c-18.33-14.24-29.42-32.82-36.99-54.62c-0.62,0.17-1.25,0.38-1.87,0.58c6.12,23.61,17.93,44.23,37.77,58.8
				c3.45,2.53,6.96,4.15,10.84,5.89c-20.91,15.09-42.8,28.23-66.59,38.44c-12.01,5.15-24.74,3.89-37.33,1.81
				c-6.07-1-11.58-2.83-17.42-4.55c-2.98-0.87-6.08-1.95-9.06-2.92c-0.45,0.86-0.89,1.73-1.33,2.61c0.21,0.06,0.52,0.21,0.77,0.3
				c21.11,7.53,44.34,14.4,65.84,5.44c25.04-10.43,47.1-24.31,68.87-39.98c4.71,0.65,9.02,0.8,13.5-1.46
				c5.37-2.7,9.4-7.42,13.58-11.59c2.68-2.67,5.39-4.82,8.34-7.06c-4.17,19.51-7.17,38.22-5.26,58.24
				c1.3,13.56,5.31,26.78,8.06,40.13c2.53,12.29,5.05,24.58,6.7,37.04c3.24,24.44,4.18,48.86,2.3,73.45
				c-1.05,13.72-3.22,27.17-5.69,40.71c-1.43,7.88-3.22,15.49-4.92,23.43c-1.7,7.94-4.11,16.13-5.28,24.26
				c-0.02,0.17,0.11,0.37,0.02,0.46c-0.7,0.73-1.53,1.42-2.01,2.36c-2.25,4.44-3.58,9.48-5.23,14.07s-3.27,8.97-4.88,13.46
				c-7.65,21.29-15.05,42.56-22.34,63.95c-30.07,88.19-58.3,176.99-86.57,265.76c-15.15-2.34-30.56-5.31-45.55-7.92
				c-4.59-0.8-6.57,5.94-1.92,6.87c36.6,7.38,73.57,12.69,110.65,17.06c22.25,2.62,44.56,4.53,66.85,6.35
				c-3.19,5.49-7.15,10.59-10.24,16.15c-2.3,4.14,3.46,7.19,6.2,3.5c4.42-5.94,8.21-12.79,12.35-19.02
				c42.75,2.99,85.61,4.7,128.44,5.57c0.97,6.07,1.37,12.66,2.45,18.59c0.81,4.44,7.31,4.82,7.14,0.05
				c-0.22-6.25-1.64-12.31-2.16-18.51c41.56,0.69,83.22,0.67,124.8,0.38c-8.38,22.62-18.84,44.33-30.32,65.45
				c-2.26,4.16,3.79,7.64,6.17,3.55c12.75-21.95,23.09-45.26,32.04-69.04c18.4-0.35,37.04-0.1,55.38-0.69
				c4.71-0.15,4.66-7.04-0.05-7.1c-17.47-0.22-35.21,0.39-52.74,0.36c2.52-7.47,4.92-15.07,7.09-22.64
				c0.25-0.85,0.16-1.48-0.04-2.28c7.33-26.45,13.27-53.1,16.51-80.41c2.96-24.96,4.18-50.18,2.06-75.25
				c-1.72-20.37-5.34-40.5-9.64-60.37c-9.83-45.43-22.56-90.89-40.96-133.64c-0.71-1.64-1.96-2.3-3.67-2.59
				c-0.02,0-0.06,0.01-0.07-0.01c-1.3-3.43-2.1-6.85-2.37-10.49c17.03,0.68,33.37,0.98,49.94-3.65c8.85-2.48,12.33-9.2,4.26-6.41
				c-18.94,6.55-37.94,6.23-57.69,5.13c-20.93-1.17-41.83-2.66-62.6-3.8c-1.93-0.11-7.39,0.42-4.4-2.42
				c1.29-1.23,5.02-1.18,6.9-1.56c5.2-1.06,10.38-2.08,15.52-3.15c10.69-2.22,21.51-4.02,32.02-6.82c2.55-0.68,1.58-4.09-0.9-3.84
				c-3.64,0.36-7.47,1.2-11.12,1.79c-2.39-0.03-4.74-0.02-7.12-0.03c-5.42-0.03-10.82-0.07-16.25-0.09
				c-9.8-0.03-19.61,0.11-29.41,0.17c-2.15,0.01-4.35,0.16-6.5-0.05c-1.55-0.15-3.47-0.45-4.06-2.11c-1.32-3.68,1.78-6.31,4.81-7.72
				c1.38-0.64,2.56-1.1,3.93-1.36c2.77-0.52,5.45-1.03,8.24-1.32c4.58-0.48,9-0.33,13.65-0.77c4.66-0.44,9.5-1.19,14.17-2.1
				c3.36-0.65,6.75-1.53,10.09-2.32c1.97-0.47,4.06-0.41,5.94-1.22c0.97-0.41,0.76-1.51-0.21-1.74c-0.42-0.1-0.9,0.1-1.29-0.09
				C367.57-32.45,367.4-32.76,366.95-32.71z M28.89,380.44c14.84-46.6,29.7-93.22,44.83-139.73
				c14.87-45.71,29.77-91.37,45.45-136.82c6.98-20.24,13.98-40.4,21.32-60.52c1.75-4.8,3.5-9.58,5.28-14.36
				c0.42-1.14,0.77-2.38,1.31-3.45c0.1-0.2,0.4-0.24,0.58-0.34c2.75-1.46,5.22-3.38,8.05-4.73c11.07-5.31,22.83-8.75,34.94-10.55
				c23.1-3.44,46.61-3.76,69.68-1.53c47.12,4.55,92.71,16.8,139.65,22.22c9.14,22.94,17.17,45.96,24.08,69.74
				c11.99,41.26,23.06,83.22,25.65,126.35c3.26,54.14-6.62,107.6-22.33,159.19c-0.27,0.9-0.23,1.48,0.02,2.34
				c-1.35,4.25-2.75,8.5-4.21,12.72c-16.92,0.11-33.83,0.23-50.76,0.23c-25.89,0.01-51.81-0.18-77.69-0.61
				c-1.63-11.7-3.21-23.43-5.04-35.1c-11.4-72.68-27.07-144.68-47.58-215.3c-1.32-4.55-8.12-2.58-6.91,1.97
				c3.86,14.53,8.23,29.28,11.95,43.91c-1.35,0.47-2.28,1.03-2.74,2.52c-21.17,68.81-50.89,134.56-88.46,195.99
				C113.45,391.37,71.06,386.81,28.89,380.44z M164.26,395.17c4.01-6.64,8.01-13.26,11.85-20c30.54-53.58,55.14-110.17,73.67-168.99
				c0.45,1.8,0.93,3.6,1.38,5.41c15.52,62.25,27.55,125.28,36.21,188.85C246.29,399.59,205.24,397.97,164.26,395.17z"/>
			<path class="st72" d="M73.71,240.71c14.88-45.72,29.79-91.37,45.45-136.82c6.98-20.24,14-40.4,21.33-60.52
				c1.75-4.8,3.5-9.58,5.28-14.36c0.42-1.14,0.77-2.38,1.31-3.45c0.1-0.2,0.4-0.24,0.58-0.34c2.75-1.46,5.23-3.38,8.05-4.73
				c11.07-5.31,22.83-8.75,34.94-10.55c23.1-3.44,46.62-3.76,69.69-1.53c40.52,3.91,79.92,13.51,120.01,19.58l0,0.01
				c4.91,23.16,10.52,52.91,15.45,86.68c-1.5,0.25-2.74,1.4-2.51,3.45c2.2,20.31,4.83,40.6,6.97,60.97
				c7.56,71.87,10.05,144.91-5.42,215.91c-0.52,2.37,1.03,4,2.81,4.42l-0.22,1.7c-8.33,0.04-16.65,0.07-24.99,0.07
				c-25.89,0.01-51.81-0.18-77.7-0.61c-1.6-11.7-3.23-23.42-5.05-35.1c-11.37-72.68-27.07-144.68-47.56-215.31
				c-1.32-4.55-8.11-2.58-6.91,1.97c3.86,14.53,8.23,29.28,11.95,43.91c-1.34,0.47-2.29,1.03-2.75,2.53
				c-21.15,68.81-50.89,134.56-88.45,195.99c-42.53-3.2-84.9-7.76-127.08-14.13C43.75,333.84,58.57,287.22,73.71,240.71z
				 M342.39,79.14c12.37,12.41,26.35,21.44,41.85,28.61c4.27,1.98,7.89-3.92,3.6-6.1c-13.85-7.05-26.36-14.26-37.87-25.24
				c-11.51-10.98-20.27-23.21-21.34-39.56c-0.32-4.83-7.15-4.68-7.06,0.07C321.9,53.83,330.7,67.41,342.39,79.14z M239.86,123.12
				c0.78,4.65,7.57,2.57,6.86-2.05c-4.4-28.53-5.51-57.54-3.88-86.46c0.27-4.74-6.8-4.55-7.13,0.11
				C233.63,64.16,234.93,93.9,239.86,123.12z M236.85,114.78c-8.91-28.71-14.13-58.11-15.4-88.11c-0.2-4.73-7.25-4.69-7.12,0.04
				c0.84,30.61,6.15,60.9,15.62,89.98C231.42,121.17,238.26,119.32,236.85,114.78z M180.28,332.8
				c24.26-47.52,43.89-97.37,58.69-148.62c1.32-4.57-5.66-6.39-6.99-1.86c-14.83,50.55-34.26,99.82-57.93,146.86
				C171.93,333.4,178.12,337.02,180.28,332.8z"/>
		</g>
	</g>
	<g>
		<path class="st12" d="M18,0C8.08,0,0,8.07,0,18s8.08,18,18,18s18-8.07,18-18S27.92,0,18,0z M18,35C8.63,35,1,27.37,1,18
			S8.63,1,18,1s17,7.63,17,17S27.37,35,18,35z"/>
		<path class="st12" d="M27.19,7.43l-8.26,8.85c-0.28-0.15-0.59-0.24-0.92-0.24c-0.91,0-1.66,0.62-1.89,1.46H7.91v1h8.21
			c0.22,0.84,0.98,1.46,1.89,1.46c1.08,0,1.96-0.88,1.96-1.96c0-0.38-0.11-0.74-0.3-1.04l8.26-8.85L27.19,7.43z M18,18.96
			c-0.53,0-0.96-0.43-0.96-0.96s0.43-0.96,0.96-0.96s0.96,0.43,0.96,0.96S18.53,18.96,18,18.96z"/>
	</g>
</g>
</svg>
