<svg width="22" height="22" viewBox="0 0 22 22" fill="none" xmlns="http://www.w3.org/2000/svg">
<path d="M10.72 0C4.8 0 0 4.8 0 10.72C0 16.64 4.8 21.44 10.72 21.44C16.64 21.44 21.44 16.64 21.44 10.72C21.45 4.8 16.65 0 10.72 0ZM17.01 13.22C17.01 15.3 15.32 17 13.23 17H8.21C6.13 17 4.43 15.31 4.43 13.22V8.2C4.43 6.12 6.12 4.42 8.21 4.42H13.23C15.31 4.42 17.01 6.11 17.01 8.2V13.22ZM12.76 10.71C12.76 11.8 11.87 12.69 10.78 12.69C9.69 12.69 8.8 11.8 8.8 10.71C8.8 9.62 9.69 8.73 10.78 8.73C11.87 8.73 12.76 9.62 12.76 10.71ZM13.23 5.61H8.21C6.78 5.61 5.62 6.77 5.62 8.2V13.22C5.62 14.65 6.78 15.81 8.21 15.81H13.23C14.66 15.81 15.82 14.65 15.82 13.22V8.2C15.83 6.77 14.66 5.61 13.23 5.61ZM10.77 13.81C9.06 13.81 7.67 12.42 7.67 10.71C7.67 9 9.06 7.61 10.77 7.61C12.48 7.61 13.87 9 13.87 10.71C13.87 12.42 12.48 13.81 10.77 13.81ZM14.05 8.14C13.64 8.14 13.31 7.81 13.31 7.4C13.31 6.99 13.64 6.66 14.05 6.66C14.46 6.66 14.79 6.99 14.79 7.4C14.79 7.81 14.46 8.14 14.05 8.14Z" fill="black"/>
</svg>
