<?xml version="1.0" encoding="utf-8"?>
<!-- Generator: Adobe Illustrator 24.0.2, SVG Export Plug-In . SVG Version: 6.00 Build 0)  -->
<svg version="1.1" xmlns="http://www.w3.org/2000/svg" xmlns:xlink="http://www.w3.org/1999/xlink" x="0px" y="0px"
	 viewBox="0 0 54 35" style="enable-background:new 0 0 54 35;" xml:space="preserve">
<style type="text/css">
	.st0{fill:#CFFFE6;}
	.st1{fill:#82FFBE;}
	.st2{fill:#C3FFE4;}
	.st3{fill:none;stroke:#575756;stroke-width:0.25;stroke-miterlimit:10;}
	.st4{fill:#F4F4F4;}
	.st5{fill:#FF7523;}
	.st6{fill:#00C65A;}
	.st7{fill:#E9E9E6;}
	.st8{opacity:0.75;}
	.st9{fill:#FFFFFF;}
	.st10{fill:#FF8800;}
	.st11{opacity:0.5;fill:none;stroke:#B2B2B2;stroke-miterlimit:10;}
	.st12{fill:#FFFFFF;stroke:#000000;stroke-width:0.25;stroke-miterlimit:10;}
	.st13{fill:#F8F8F8;}
	.st14{fill:#575756;}
	.st15{fill:#AFCA13;}
	.st16{clip-path:url(#SVGID_4_);}
	.st17{fill:#E52421;}
	.st18{fill:none;stroke:#3985FF;stroke-width:0.75;stroke-miterlimit:10;}
	.st19{fill:none;stroke:#000000;stroke-width:0.25;stroke-miterlimit:10;}
	.st20{fill:#0444BF;}
	.st21{fill:#0684F2;}
	.st22{fill:#FAFAFA;stroke:#E9E9E6;stroke-width:0.25;stroke-miterlimit:10;}
	.st23{fill:#F4F4F4;stroke:#FF8800;stroke-miterlimit:10;}
	.st24{fill:none;stroke:#FF8800;stroke-miterlimit:10;}
	.st25{fill:#00BE8C;}
	.st26{fill:none;stroke:#FFFFFF;stroke-width:3;stroke-miterlimit:10;}
	.st27{fill:#FF915F;}
	.st28{fill:#0079BF;}
	.st29{fill:#FFCD41;}
	.st30{fill:#F4F4F4;stroke:#FF8800;stroke-width:0.5;stroke-miterlimit:10;}
	.st31{fill:#00202B;}
	.st32{fill:none;stroke:#FFFFFF;stroke-width:6;stroke-miterlimit:10;}
	.st33{fill:none;stroke:#0444BF;stroke-width:0.75;stroke-miterlimit:10;}
	.st34{fill:#FFE90D;}
	.st35{opacity:0.5;fill:#E3ECFF;}
	.st36{fill:#AFFFFD;}
	.st37{fill:#FC910E;}
	.st38{fill:none;stroke:#EDEDED;stroke-miterlimit:10;}
	.st39{fill:none;stroke:#0684F2;stroke-width:0.5;stroke-linecap:round;stroke-linejoin:round;stroke-miterlimit:10;}
	.st40{fill:none;stroke:#0684F2;stroke-linecap:round;stroke-linejoin:round;stroke-miterlimit:10;}
	.st41{fill:#FFFFFF;stroke:#0684F2;stroke-linecap:round;stroke-linejoin:round;stroke-miterlimit:10;}
	.st42{fill:#FFFCF1;}
	.st43{fill:#DB5B00;}
	.st44{fill:#00AAFF;}
	.st45{fill:#F6BE00;}
	.st46{fill:#F1F2D0;}
	.st47{fill:#F5F9FF;}
	.st48{fill:none;stroke:#4A4A49;stroke-width:0.25;stroke-miterlimit:10;}
	.st49{fill:#0EFF97;}
	.st50{fill:#F8F9FA;}
	.st51{fill:#FFFFFF;stroke:#C6C6C6;stroke-width:0.25;stroke-miterlimit:10;}
	.st52{fill:#FF9922;}
	.st53{fill:none;stroke:#B2B2B2;stroke-width:0.25;stroke-miterlimit:10;}
	.st54{fill:none;stroke:#0AAFF1;stroke-miterlimit:10;}
	.st55{fill:none;stroke:#4A4A49;stroke-width:0.5;stroke-miterlimit:10;}
	.st56{fill:#CFFFE6;stroke:#4A4A49;stroke-width:0.5;stroke-linecap:round;stroke-linejoin:round;stroke-miterlimit:10;}
	.st57{fill:#FFFFFF;stroke:#F2F3F7;stroke-miterlimit:10;}
	.st58{fill:#5D5D5D;}
	.st59{fill:#FFFFFF;stroke:#DADADA;stroke-miterlimit:10;}
	.st60{fill:#F8F9FA;stroke:#B2B2B2;stroke-width:0.25;stroke-miterlimit:10;}
	.st61{fill:none;stroke:#0444BF;stroke-width:0.5;stroke-miterlimit:10;}
	.st62{opacity:0.3;fill:#0684F2;}
	.st63{fill:none;stroke:#0AAFF1;stroke-width:0.75;stroke-miterlimit:10;}
	.st64{fill:#C0CFF0;}
	.st65{fill:#FFFFFF;stroke:#C0CFF0;stroke-width:2;stroke-miterlimit:10;}
	.st66{fill:#D6E8FB;stroke:#C0CFF0;stroke-width:2;stroke-miterlimit:10;}
	.st67{fill:#FFFFFF;stroke:#C0CFF0;stroke-linecap:round;stroke-linejoin:round;stroke-miterlimit:10;}
	.st68{clip-path:url(#SVGID_12_);}
	.st69{fill:none;stroke:#C0CFF0;stroke-width:0.75;stroke-miterlimit:10;}
	.st70{fill:#E02107;}
	.st71{fill:#FFC715;}
	.st72{fill:#2B9FE0;}
	.st73{fill:#8FC912;}
	.st74{fill:#878787;}
	.st75{fill:none;stroke:#4A4A49;stroke-miterlimit:10;}
	.st76{fill:none;stroke:#C6C6C6;stroke-width:0.25;stroke-miterlimit:10;}
	.st77{fill:#FAFAFA;stroke:#DADADA;stroke-width:0.25;stroke-miterlimit:10;}
	.st78{fill:#FF9708;}
	.st79{fill:#D9FCEE;}
	.st80{fill:#EBF1FF;}
	.st81{fill:#F0F5FF;}
	.st82{fill:#E6633E;}
	.st83{fill:#0AAFF1;}
	.st84{fill:#4A4A49;}
	.st85{fill:#014B8E;}
	.st86{fill:#F57D31;}
	.st87{fill:#244298;}
	.st88{fill:#EB001B;}
	.st89{fill:#F79E1B;}
	.st90{fill:#FF5F00;}
	.st91{fill:#306FC5;}
	.st92{fill:#00529E;}
	.st93{fill:#34495E;}
	.st94{fill:#E0811D;}
	.st95{fill:#0F549D;}
	.st96{fill:#B41F36;}
	.st97{fill:#329947;}
	.st98{fill:#009ADE;}
	.st99{fill:#002F87;}
	.st100{fill:#002169;}
	.st101{fill:#EDEDED;}
	.st102{fill:#FBBA00;}
	.st103{fill:#0454CA;}
	.st104{clip-path:url(#SVGID_14_);}
	.st105{fill:none;stroke:#A69674;stroke-width:0.75;stroke-miterlimit:10;}
	.st106{fill:none;stroke:#9D9D9C;stroke-width:0.25;stroke-miterlimit:10;}
	.st107{clip-path:url(#SVGID_24_);}
	.st108{fill:#CFFFE6;stroke:#0684F2;stroke-linecap:round;stroke-linejoin:round;stroke-miterlimit:10;}
	.st109{fill:none;stroke:#494949;stroke-width:0.5;stroke-miterlimit:10;}
	.st110{fill:none;stroke:#494949;stroke-width:0.5;stroke-linecap:round;stroke-linejoin:round;stroke-miterlimit:10;}
	.st111{clip-path:url(#SVGID_26_);fill:#026847;}
	.st112{clip-path:url(#SVGID_26_);fill:#FFFFFF;}
	.st113{clip-path:url(#SVGID_26_);fill:#E52421;}
	.st114{clip-path:url(#SVGID_28_);fill:#006847;}
	.st115{clip-path:url(#SVGID_28_);fill:#ECE13C;}
	.st116{clip-path:url(#SVGID_28_);fill:#CF2011;}
	.st117{clip-path:url(#SVGID_30_);fill:#F8CD16;}
	.st118{clip-path:url(#SVGID_30_);fill:#00388F;}
	.st119{clip-path:url(#SVGID_30_);fill:#CA1126;}
	.st120{clip-path:url(#SVGID_32_);fill:#E52421;}
	.st121{clip-path:url(#SVGID_32_);fill:#FFFFFF;}
	.st122{clip-path:url(#SVGID_34_);}
	.st123{clip-path:url(#SVGID_36_);fill:#026847;}
	.st124{clip-path:url(#SVGID_36_);fill:#FFFFFF;}
	.st125{clip-path:url(#SVGID_36_);fill:#E52421;}
	.st126{clip-path:url(#SVGID_38_);fill:#006847;}
	.st127{clip-path:url(#SVGID_38_);fill:#ECE13C;}
	.st128{clip-path:url(#SVGID_38_);fill:#CF2011;}
	.st129{clip-path:url(#SVGID_40_);fill:#F8CD16;}
	.st130{clip-path:url(#SVGID_40_);fill:#00388F;}
	.st131{clip-path:url(#SVGID_40_);fill:#CA1126;}
	.st132{clip-path:url(#SVGID_42_);fill:#E52421;}
	.st133{clip-path:url(#SVGID_42_);fill:#FFFFFF;}
	.st134{fill-rule:evenodd;clip-rule:evenodd;fill:#00ACEC;}
	.st135{fill:#00ACEC;}
	.st136{fill:#EDEDEA;}
	.st137{fill:#B5FFD9;}
	.st138{fill:#9CFFCA;}
</style>
<g id="base">
	<g>
		<path class="st9" d="M50,35H4c-2.21,0-4-1.79-4-4V4c0-2.21,1.79-4,4-4h46c2.21,0,4,1.79,4,4v27C54,33.21,52.21,35,50,35z"/>
		<g>
			<path class="st95" d="M19.64,3.6h-6.56c-3.19,0-5.33,2.14-5.33,5.33v9.53c0,0,0,0.01,0,0.01c0.25,1.19,1.5,2.1,2.91,2.1
				c1.56,0,2.73-1.09,2.73-2.54v-4.76h4.01v4.7c0,2.68-3.45,3.94-5.78,3.95c-1.38-0.01-2.73-0.43-3.7-1.16
				c-0.02-0.02-0.05-0.02-0.07-0.01c0,0,0,0,0,0c-0.02-0.01-0.04-0.01-0.06,0c-0.02,0.01-0.04,0.04-0.04,0.06v10.52
				c0,0.04,0.03,0.07,0.07,0.07h6.74c2.38,0,5.14-2.25,5.14-5.14V3.67C19.71,3.63,19.68,3.6,19.64,3.6z"/>
			<path class="st96" d="M32.82,3.6h-6.5c-3.24,0-5.33,2.07-5.33,5.27v5.38c0,0.03,0.02,0.05,0.04,0.06
				c0.02,0.01,0.05,0.01,0.07-0.01c0.57-0.47,1.48-1.04,2.62-1.04h6.99v1.27c-1.7-0.37-3.27-0.54-4.02-0.54
				c-1.78,0-3.22,1.45-3.22,3.22l0,0.02l0,0.04c0,1.78,1.45,3.22,3.22,3.22c0.91,0,2.5-0.15,4.02-0.48v1.15h-6.99
				c-1,0-1.96-0.38-2.61-1.03c-0.02-0.02-0.05-0.03-0.07-0.01c-0.03,0.01-0.04,0.04-0.04,0.06v11.14c0,0.04,0.03,0.07,0.07,0.07
				h6.68c2.38,0,5.14-2.25,5.14-5.14V3.67C32.89,3.63,32.86,3.6,32.82,3.6z"/>
			<g>
				<path class="st97" d="M36.4,20.38c0,0.04,0.03,0.07,0.07,0.07h2.91c0.78,0,1.49-0.71,1.49-1.49c0-0.78-0.71-1.49-1.49-1.49
					h-2.91c-0.04,0-0.07,0.03-0.07,0.07V20.38z"/>
				<path class="st97" d="M46.18,3.6h-6.44c-1.71,0-3.1,0.58-4.04,1.6v0c0,0-1.35,1.32-1.35,3.5c0,0.08,0,0.16,0,0.23v1.95v2.32
					c0,0.04,0.03,0.07,0.07,0.07h7.8c1.07,0,1.97,0.9,1.97,1.97s-0.9,1.97-1.97,1.97c-0.04,0-0.07,0.03-0.07,0.07
					s0.03,0.07,0.07,0.07c1.21,0,2.16,0.84,2.16,1.91c0,1.09-0.93,1.91-2.16,1.91h-7.8c-0.04,0-0.07,0.03-0.07,0.07v10.09
					c0,0.04,0.03,0.07,0.07,0.07h6.68c2.38,0,5.14-2.25,5.14-5.14V3.67C46.25,3.63,46.22,3.6,46.18,3.6z"/>
				<path class="st97" d="M36.47,16.92h2.91c0.77,0,1.43-0.65,1.43-1.43c0-0.78-0.71-1.49-1.49-1.49h-2.85
					c-0.04,0-0.07,0.03-0.07,0.07v2.78C36.4,16.89,36.43,16.92,36.47,16.92z"/>
			</g>
		</g>
	</g>
</g>
<g id="guías">
</g>
</svg>
