<svg width="22" height="22" viewBox="0 0 22 22" fill="none" xmlns="http://www.w3.org/2000/svg">
<path d="M10.72 0C4.8 0 0 4.8 0 10.72C0 16.64 4.8 21.44 10.72 21.44C16.64 21.44 21.44 16.64 21.44 10.72C21.44 4.8 16.64 0 10.72 0ZM8.3 15.4H6.22V8.73H8.3V15.4ZM7.26001 7.81C6.59001 7.81 6.06 7.27 6.06 6.61C6.06 5.95 6.60001 5.41 7.26001 5.41C7.92001 5.41 8.46001 5.95 8.46001 6.61C8.46001 7.27 7.92001 7.81 7.26001 7.81ZM16.06 15.4H13.99V12.16C13.99 11.39 13.97 10.39 12.91 10.39C11.83 10.39 11.67 11.23 11.67 12.1V15.4H9.60001V8.73H11.59V9.64H11.62C11.9 9.11 12.57 8.56 13.58 8.56C15.68 8.56 16.07 9.94 16.07 11.74V15.4H16.06Z" fill="black"/>
</svg>
