<?xml version="1.0" encoding="utf-8"?>
<!-- Generator: Adobe Illustrator 24.0.2, SVG Export Plug-In . SVG Version: 6.00 Build 0)  -->
<svg version="1.1" xmlns="http://www.w3.org/2000/svg" xmlns:xlink="http://www.w3.org/1999/xlink" x="0px" y="0px"
	 viewBox="0 0 54 35" style="enable-background:new 0 0 54 35;" xml:space="preserve">
<style type="text/css">
	.st0{fill:#CFFFE6;}
	.st1{fill:#82FFBE;}
	.st2{fill:#C3FFE4;}
	.st3{fill:none;stroke:#575756;stroke-width:0.25;stroke-miterlimit:10;}
	.st4{fill:#F4F4F4;}
	.st5{fill:#FF7523;}
	.st6{fill:#00C65A;}
	.st7{fill:#E9E9E6;}
	.st8{opacity:0.75;}
	.st9{fill:#FFFFFF;}
	.st10{fill:#FF8800;}
	.st11{opacity:0.5;fill:none;stroke:#B2B2B2;stroke-miterlimit:10;}
	.st12{fill:#FFFFFF;stroke:#000000;stroke-width:0.25;stroke-miterlimit:10;}
	.st13{fill:#F8F8F8;}
	.st14{fill:#575756;}
	.st15{fill:#AFCA13;}
	.st16{clip-path:url(#SVGID_4_);}
	.st17{fill:#E52421;}
	.st18{fill:none;stroke:#3985FF;stroke-width:0.75;stroke-miterlimit:10;}
	.st19{fill:none;stroke:#000000;stroke-width:0.25;stroke-miterlimit:10;}
	.st20{fill:#0444BF;}
	.st21{fill:#0684F2;}
	.st22{fill:#FAFAFA;stroke:#E9E9E6;stroke-width:0.25;stroke-miterlimit:10;}
	.st23{fill:#F4F4F4;stroke:#FF8800;stroke-miterlimit:10;}
	.st24{fill:none;stroke:#FF8800;stroke-miterlimit:10;}
	.st25{fill:#00BE8C;}
	.st26{fill:none;stroke:#FFFFFF;stroke-width:3;stroke-miterlimit:10;}
	.st27{fill:#FF915F;}
	.st28{fill:#0079BF;}
	.st29{fill:#FFCD41;}
	.st30{fill:#F4F4F4;stroke:#FF8800;stroke-width:0.5;stroke-miterlimit:10;}
	.st31{fill:#00202B;}
	.st32{fill:none;stroke:#FFFFFF;stroke-width:6;stroke-miterlimit:10;}
	.st33{fill:none;stroke:#0444BF;stroke-width:0.75;stroke-miterlimit:10;}
	.st34{fill:#FFE90D;}
	.st35{opacity:0.5;fill:#E3ECFF;}
	.st36{fill:#AFFFFD;}
	.st37{fill:#FC910E;}
	.st38{fill:none;stroke:#EDEDED;stroke-miterlimit:10;}
	.st39{fill:none;stroke:#0684F2;stroke-width:0.5;stroke-linecap:round;stroke-linejoin:round;stroke-miterlimit:10;}
	.st40{fill:none;stroke:#0684F2;stroke-linecap:round;stroke-linejoin:round;stroke-miterlimit:10;}
	.st41{fill:#FFFFFF;stroke:#0684F2;stroke-linecap:round;stroke-linejoin:round;stroke-miterlimit:10;}
	.st42{fill:#FFFCF1;}
	.st43{fill:#DB5B00;}
	.st44{fill:#00AAFF;}
	.st45{fill:#F6BE00;}
	.st46{fill:#F1F2D0;}
	.st47{fill:#F5F9FF;}
	.st48{fill:none;stroke:#4A4A49;stroke-width:0.25;stroke-miterlimit:10;}
	.st49{fill:#0EFF97;}
	.st50{fill:#F8F9FA;}
	.st51{fill:#FFFFFF;stroke:#C6C6C6;stroke-width:0.25;stroke-miterlimit:10;}
	.st52{fill:#FF9922;}
	.st53{fill:none;stroke:#B2B2B2;stroke-width:0.25;stroke-miterlimit:10;}
	.st54{fill:none;stroke:#0AAFF1;stroke-miterlimit:10;}
	.st55{fill:none;stroke:#4A4A49;stroke-width:0.5;stroke-miterlimit:10;}
	.st56{fill:#CFFFE6;stroke:#4A4A49;stroke-width:0.5;stroke-linecap:round;stroke-linejoin:round;stroke-miterlimit:10;}
	.st57{fill:#FFFFFF;stroke:#F2F3F7;stroke-miterlimit:10;}
	.st58{fill:#5D5D5D;}
	.st59{fill:#FFFFFF;stroke:#DADADA;stroke-miterlimit:10;}
	.st60{fill:#F8F9FA;stroke:#B2B2B2;stroke-width:0.25;stroke-miterlimit:10;}
	.st61{fill:none;stroke:#0444BF;stroke-width:0.5;stroke-miterlimit:10;}
	.st62{opacity:0.3;fill:#0684F2;}
	.st63{fill:none;stroke:#0AAFF1;stroke-width:0.75;stroke-miterlimit:10;}
	.st64{fill:#C0CFF0;}
	.st65{fill:#FFFFFF;stroke:#C0CFF0;stroke-width:2;stroke-miterlimit:10;}
	.st66{fill:#D6E8FB;stroke:#C0CFF0;stroke-width:2;stroke-miterlimit:10;}
	.st67{fill:#FFFFFF;stroke:#C0CFF0;stroke-linecap:round;stroke-linejoin:round;stroke-miterlimit:10;}
	.st68{clip-path:url(#SVGID_12_);}
	.st69{fill:none;stroke:#C0CFF0;stroke-width:0.75;stroke-miterlimit:10;}
	.st70{fill:#E02107;}
	.st71{fill:#FFC715;}
	.st72{fill:#2B9FE0;}
	.st73{fill:#8FC912;}
	.st74{fill:#878787;}
	.st75{fill:none;stroke:#4A4A49;stroke-miterlimit:10;}
	.st76{fill:none;stroke:#C6C6C6;stroke-width:0.25;stroke-miterlimit:10;}
	.st77{fill:#FAFAFA;stroke:#DADADA;stroke-width:0.25;stroke-miterlimit:10;}
	.st78{fill:#FF9708;}
	.st79{fill:#D9FCEE;}
	.st80{fill:#EBF1FF;}
	.st81{fill:#F0F5FF;}
	.st82{fill:#E6633E;}
	.st83{fill:#0AAFF1;}
	.st84{fill:#4A4A49;}
	.st85{fill:#014B8E;}
	.st86{fill:#F57D31;}
	.st87{fill:#244298;}
	.st88{fill:#EB001B;}
	.st89{fill:#F79E1B;}
	.st90{fill:#FF5F00;}
	.st91{fill:#306FC5;}
	.st92{fill:#00529E;}
	.st93{fill:#34495E;}
	.st94{fill:#E0811D;}
	.st95{fill:#0F549D;}
	.st96{fill:#B41F36;}
	.st97{fill:#329947;}
	.st98{fill:#009ADE;}
	.st99{fill:#002F87;}
	.st100{fill:#002169;}
	.st101{fill:#EDEDED;}
	.st102{fill:#FBBA00;}
	.st103{fill:#0454CA;}
	.st104{clip-path:url(#SVGID_14_);}
	.st105{fill:none;stroke:#A69674;stroke-width:0.75;stroke-miterlimit:10;}
	.st106{fill:none;stroke:#9D9D9C;stroke-width:0.25;stroke-miterlimit:10;}
	.st107{clip-path:url(#SVGID_24_);}
	.st108{fill:#CFFFE6;stroke:#0684F2;stroke-linecap:round;stroke-linejoin:round;stroke-miterlimit:10;}
	.st109{fill:none;stroke:#494949;stroke-width:0.5;stroke-miterlimit:10;}
	.st110{fill:none;stroke:#494949;stroke-width:0.5;stroke-linecap:round;stroke-linejoin:round;stroke-miterlimit:10;}
	.st111{clip-path:url(#SVGID_26_);fill:#026847;}
	.st112{clip-path:url(#SVGID_26_);fill:#FFFFFF;}
	.st113{clip-path:url(#SVGID_26_);fill:#E52421;}
	.st114{clip-path:url(#SVGID_28_);fill:#006847;}
	.st115{clip-path:url(#SVGID_28_);fill:#ECE13C;}
	.st116{clip-path:url(#SVGID_28_);fill:#CF2011;}
	.st117{clip-path:url(#SVGID_30_);fill:#F8CD16;}
	.st118{clip-path:url(#SVGID_30_);fill:#00388F;}
	.st119{clip-path:url(#SVGID_30_);fill:#CA1126;}
	.st120{clip-path:url(#SVGID_32_);fill:#E52421;}
	.st121{clip-path:url(#SVGID_32_);fill:#FFFFFF;}
	.st122{clip-path:url(#SVGID_34_);}
	.st123{clip-path:url(#SVGID_36_);fill:#026847;}
	.st124{clip-path:url(#SVGID_36_);fill:#FFFFFF;}
	.st125{clip-path:url(#SVGID_36_);fill:#E52421;}
	.st126{clip-path:url(#SVGID_38_);fill:#006847;}
	.st127{clip-path:url(#SVGID_38_);fill:#ECE13C;}
	.st128{clip-path:url(#SVGID_38_);fill:#CF2011;}
	.st129{clip-path:url(#SVGID_40_);fill:#F8CD16;}
	.st130{clip-path:url(#SVGID_40_);fill:#00388F;}
	.st131{clip-path:url(#SVGID_40_);fill:#CA1126;}
	.st132{clip-path:url(#SVGID_42_);fill:#E52421;}
	.st133{clip-path:url(#SVGID_42_);fill:#FFFFFF;}
	.st134{fill-rule:evenodd;clip-rule:evenodd;fill:#00ACEC;}
	.st135{fill:#00ACEC;}
	.st136{fill:#EDEDEA;}
	.st137{fill:#B5FFD9;}
	.st138{fill:#9CFFCA;}
</style>
<g id="base">
	<g>
		<path class="st9" d="M50,35H4c-2.21,0-4-1.79-4-4V4c0-2.21,1.79-4,4-4h46c2.21,0,4,1.79,4,4v27C54,33.21,52.21,35,50,35z"/>
		<g>
			<path class="st88" d="M22.31,17.5c0-3.74,1.86-7.04,4.7-9.05c0,0,0,0,0,0c-1.81-1.28-4.02-2.04-6.4-2.04
				c-6.12,0-11.1,4.98-11.1,11.1s4.98,11.1,11.1,11.1c2.38,0,4.59-0.76,6.4-2.04c0,0,0,0,0,0C24.17,24.54,22.31,21.24,22.31,17.5z"
				/>
			<path class="st89" d="M43.22,12.33c-0.4-0.76-0.89-1.47-1.46-2.12c-0.58-0.66-1.24-1.26-1.96-1.77C38,7.16,35.79,6.4,33.4,6.4
				c-2.38,0-4.59,0.76-6.4,2.05c0.72,0.51,1.37,1.1,1.95,1.76c0.56,0.64,1.05,1.35,1.46,2.12c0.82,1.55,1.28,3.3,1.28,5.17
				c0,1.87-0.47,3.63-1.28,5.17c-0.4,0.76-0.89,1.47-1.46,2.12c-0.58,0.66-1.23,1.25-1.95,1.76c1.81,1.28,4.01,2.05,6.4,2.05
				c2.38,0,4.59-0.76,6.4-2.04c0.72-0.51,1.38-1.1,1.96-1.77c0.56-0.64,1.05-1.35,1.46-2.12c0.82-1.55,1.28-3.3,1.28-5.17
				C44.5,15.63,44.04,13.87,43.22,12.33z"/>
			<path class="st90" d="M28.96,24.79c0.56-0.64,1.05-1.35,1.46-2.12c0.82-1.55,1.28-3.3,1.28-5.17c0-1.87-0.47-3.63-1.28-5.17
				c-0.4-0.76-0.89-1.47-1.46-2.12c-0.58-0.66-1.23-1.25-1.95-1.76c-2.84,2.01-4.7,5.32-4.7,9.05c0,3.74,1.86,7.04,4.7,9.05
				C27.73,26.04,28.38,25.45,28.96,24.79z"/>
		</g>
	</g>
</g>
<g id="guías">
</g>
</svg>
