<?xml version="1.0" encoding="utf-8"?>
<!-- Generator: Adobe Illustrator 24.0.2, SVG Export Plug-In . SVG Version: 6.00 Build 0)  -->
<svg version="1.1" id="Capa_1" xmlns="http://www.w3.org/2000/svg" xmlns:xlink="http://www.w3.org/1999/xlink" x="0px" y="0px"
	 viewBox="0 0 17.77 14.89" style="enable-background:new 0 0 17.77 14.89;" xml:space="preserve">
<style type="text/css">
	.st0{fill:#FF7012;}
	.st1{fill:#43BAFF;}
	.st2{fill:#FFFFFF;}
	.st3{fill:none;stroke:#FF7012;stroke-width:0.75;stroke-miterlimit:10;}
	.st4{fill:#4A4A49;}
	.st5{fill:#4A4A49;stroke:#FFFFFF;stroke-linecap:round;stroke-linejoin:round;stroke-miterlimit:10;}
	.st6{fill:none;stroke:#FFFFFF;stroke-linecap:round;stroke-linejoin:round;stroke-miterlimit:10;}
	.st7{fill:none;stroke:#FFFFFF;stroke-linecap:round;stroke-miterlimit:10;}
	.st8{fill:none;stroke:#4A4A49;stroke-linecap:round;stroke-miterlimit:10;}
	.st9{fill:#0684F2;}
	.st10{fill:#FFCB0D;}
	.st11{fill:#00C356;}
	.st12{fill:none;stroke:#FFFFFF;stroke-miterlimit:10;}
	.st13{fill:none;}
	.st14{fill:#FF4E55;}
	.st15{fill:none;stroke:#FF4E55;stroke-width:2.24;stroke-linecap:round;stroke-linejoin:round;stroke-miterlimit:10;}
	.st16{clip-path:url(#SVGID_2_);}
	.st17{fill:#E52421;}
	.st18{fill:#FF8610;}
	.st19{fill:#FFC200;}
	.st20{clip-path:url(#SVGID_4_);}
	.st21{fill:#F9DCA4;}
	.st22{fill:#DEC492;}
	.st23{fill:#677079;}
	.st24{fill:#FFE8BE;}
	.st25{fill:#434955;}
	.st26{fill:#1D1D1D;}
	.st27{fill:none;stroke:#FF7012;stroke-width:0.75;stroke-linecap:round;stroke-linejoin:round;stroke-miterlimit:10;}
	.st28{fill:#FFA2B0;}
	.st29{fill:none;stroke:#FF7012;stroke-miterlimit:10;}
	.st30{fill:#FF894B;}
	.st31{fill:none;stroke:#FF7012;stroke-linecap:round;stroke-linejoin:round;stroke-miterlimit:10;}
	.st32{fill:#0669BF;}
	.st33{fill:#0669BF;stroke:#FFFFFF;stroke-linecap:round;stroke-linejoin:round;stroke-miterlimit:10;}
	.st34{fill:#F4F4F4;}
	.st35{fill:#0444BF;}
	.st36{fill:#F2F6FF;}
	.st37{fill:#E7E7E7;}
	.st38{fill:#878787;}
	.st39{fill:#B2B2B2;}
	.st40{fill:#FFF8F0;}
	.st41{fill:#FFF1E3;}
	.st42{fill:none;stroke:#B2B2B2;stroke-width:0.5;stroke-miterlimit:10;}
	.st43{fill:#DADADA;}
	.st44{fill:none;stroke:#4A4A49;stroke-linecap:round;stroke-linejoin:round;stroke-miterlimit:10;}
	.st45{fill:none;stroke:#4A4A49;stroke-miterlimit:10;}
	.st46{fill:none;stroke:#F4F4F4;stroke-linecap:round;stroke-linejoin:round;stroke-miterlimit:10;}
	.st47{fill:none;stroke:#E7B600;stroke-miterlimit:10;}
	.st48{fill:none;stroke:#0684F2;stroke-miterlimit:10;}
	.st49{fill:#FF7012;stroke:#FFFFFF;stroke-linecap:round;stroke-linejoin:round;stroke-miterlimit:10;}
	.st50{fill:none;stroke:#606060;stroke-miterlimit:10;}
	.st51{fill:none;stroke:#FFFFFF;stroke-width:0.8;stroke-miterlimit:10;}
	.st52{fill:none;stroke:#FFFFFF;stroke-width:2;stroke-miterlimit:10;}
	.st53{fill:#FFFFFF;stroke:#FF7012;stroke-width:2;stroke-linecap:round;stroke-linejoin:round;stroke-miterlimit:10;}
	.st54{fill:none;stroke:#FF7012;stroke-width:2;stroke-linecap:round;stroke-linejoin:round;stroke-miterlimit:10;}
	.st55{fill:none;stroke:#FFFFFF;stroke-width:1.25;stroke-linecap:round;stroke-linejoin:round;stroke-miterlimit:10;}
	.st56{fill:none;stroke:#FF740D;stroke-width:2;stroke-linecap:round;stroke-linejoin:round;stroke-miterlimit:10;}
	.st57{fill:#4A4A49;stroke:#FFFFFF;stroke-miterlimit:10;}
	.st58{fill:#FF7012;stroke:#FFFFFF;stroke-miterlimit:10;}
</style>
<g>
	<g>
		<path class="st4" d="M8.89,0C9,0.03,9.11,0.06,9.22,0.09c2.68,0.95,5.36,1.9,8.05,2.84c0.27,0.1,0.51,0.22,0.51,0.55
			c0,0.33-0.22,0.46-0.5,0.56C14.59,5,11.92,5.96,9.23,6.91c-0.21,0.07-0.48,0.07-0.69,0C5.85,5.96,3.16,4.99,0.47,4.04
			C0.21,3.94,0,3.8,0,3.49c0-0.31,0.21-0.45,0.48-0.54c2.7-0.95,5.4-1.91,8.1-2.87C8.68,0.05,8.78,0.03,8.89,0z"/>
	</g>
	<g>
		<path class="st4" d="M14.09,6.3c0,0.84,0.03,3.68-0.01,4.47c-0.02,0.39-0.34,0.66-0.68,0.8c-0.68,0.28-1.37,0.56-2.09,0.71
			c-1.94,0.41-3.88,0.34-5.78-0.23c-0.46-0.14-0.91-0.37-1.33-0.6c-0.38-0.21-0.55-0.56-0.54-1.02c0.02-0.69,0.01-3.41,0.01-4.13
			c0.13,0.04,0.21,0.05,0.3,0.08c1.41,0.5,2.83,1,4.24,1.51c0.46,0.17,0.91,0.17,1.37,0c1.4-0.51,2.81-1,4.21-1.5
			C13.87,6.37,13.97,6.34,14.09,6.3z"/>
	</g>
	<path class="st4" d="M17.04,10.93c0-0.38-0.21-0.69-0.51-0.87V5.42l-1.05,0.37v4.27c-0.3,0.18-0.51,0.5-0.51,0.87
		s0.21,0.69,0.51,0.87v2.56c0,0.29,0.23,0.52,0.52,0.52s0.52-0.23,0.52-0.52V11.8C16.83,11.62,17.04,11.31,17.04,10.93z"/>
</g>
</svg>
