<?xml version="1.0" encoding="utf-8"?>
<!-- Generator: Adobe Illustrator 24.0.2, SVG Export Plug-In . SVG Version: 6.00 Build 0)  -->
<svg version="1.1" id="Capa_1" xmlns="http://www.w3.org/2000/svg" xmlns:xlink="http://www.w3.org/1999/xlink" x="0px" y="0px"
	 viewBox="0 0 17.85 20.55" style="enable-background:new 0 0 17.85 20.55;" xml:space="preserve">
<style type="text/css">
	.st0{fill:#FF7012;}
	.st1{fill:#43BAFF;}
	.st2{fill:#FFFFFF;}
	.st3{fill:none;stroke:#FF7012;stroke-width:0.75;stroke-miterlimit:10;}
	.st4{fill:#4A4A49;}
	.st5{fill:#4A4A49;stroke:#FFFFFF;stroke-linecap:round;stroke-linejoin:round;stroke-miterlimit:10;}
	.st6{fill:none;stroke:#FFFFFF;stroke-linecap:round;stroke-linejoin:round;stroke-miterlimit:10;}
	.st7{fill:none;stroke:#FFFFFF;stroke-linecap:round;stroke-miterlimit:10;}
	.st8{fill:none;stroke:#4A4A49;stroke-linecap:round;stroke-miterlimit:10;}
	.st9{fill:#0684F2;}
	.st10{fill:#FFCB0D;}
	.st11{fill:#00C356;}
	.st12{fill:none;}
	.st13{fill:#FF4E55;}
	.st14{fill:none;stroke:#FF4E55;stroke-width:2.24;stroke-linecap:round;stroke-linejoin:round;stroke-miterlimit:10;}
	.st15{clip-path:url(#SVGID_2_);}
	.st16{fill:#E52421;}
	.st17{fill:#FF8610;}
	.st18{fill:#FFC200;}
	.st19{clip-path:url(#SVGID_4_);}
	.st20{fill:#F9DCA4;}
	.st21{fill:#DEC492;}
	.st22{fill:#677079;}
	.st23{fill:#FFE8BE;}
	.st24{fill:#434955;}
	.st25{fill:#1D1D1D;}
	.st26{fill:none;stroke:#FF7012;stroke-width:0.75;stroke-linecap:round;stroke-linejoin:round;stroke-miterlimit:10;}
	.st27{fill:#FFA2B0;}
	.st28{fill:none;stroke:#FF7012;stroke-miterlimit:10;}
	.st29{fill:#FF894B;}
	.st30{fill:none;stroke:#FF7012;stroke-linecap:round;stroke-linejoin:round;stroke-miterlimit:10;}
	.st31{fill:#0669BF;}
	.st32{fill:#0669BF;stroke:#FFFFFF;stroke-linecap:round;stroke-linejoin:round;stroke-miterlimit:10;}
	.st33{fill:#F4F4F4;}
	.st34{fill:#0444BF;}
	.st35{fill:#F2F6FF;}
	.st36{fill:#E7E7E7;}
	.st37{fill:#878787;}
	.st38{fill:#B2B2B2;}
	.st39{fill:#FFF8F0;}
	.st40{fill:#FFF1E3;}
	.st41{fill:none;stroke:#B2B2B2;stroke-width:0.5;stroke-miterlimit:10;}
	.st42{fill:#DADADA;}
	.st43{fill:none;stroke:#4A4A49;stroke-linecap:round;stroke-linejoin:round;stroke-miterlimit:10;}
	.st44{fill:none;stroke:#4A4A49;stroke-miterlimit:10;}
	.st45{fill:none;stroke:#F4F4F4;stroke-linecap:round;stroke-linejoin:round;stroke-miterlimit:10;}
	.st46{fill:none;stroke:#E7B600;stroke-miterlimit:10;}
	.st47{fill:none;stroke:#0684F2;stroke-miterlimit:10;}
	.st48{fill:#FF7012;stroke:#FFFFFF;stroke-linecap:round;stroke-linejoin:round;stroke-miterlimit:10;}
	.st49{fill:none;stroke:#606060;stroke-miterlimit:10;}
	.st50{fill:none;stroke:#FFFFFF;stroke-width:0.8;stroke-miterlimit:10;}
	.st51{fill:none;stroke:#FFFFFF;stroke-width:2;stroke-miterlimit:10;}
	.st52{fill:#FFFFFF;stroke:#FF7012;stroke-width:2;stroke-linecap:round;stroke-linejoin:round;stroke-miterlimit:10;}
	.st53{fill:none;stroke:#FF7012;stroke-width:2;stroke-linecap:round;stroke-linejoin:round;stroke-miterlimit:10;}
	.st54{fill:none;stroke:#FFFFFF;stroke-miterlimit:10;}
	.st55{fill:none;stroke:#FFFFFF;stroke-width:1.25;stroke-linecap:round;stroke-linejoin:round;stroke-miterlimit:10;}
	.st56{fill:#4A4A49;stroke:#FFFFFF;stroke-miterlimit:10;}
	.st57{fill:#FF7012;stroke:#FFFFFF;stroke-miterlimit:10;}
	.st58{fill:none;stroke:#FF7012;stroke-linecap:round;stroke-miterlimit:10;}
</style>
<path class="st9" d="M14.85,14.55c-0.98,0-1.84,0.48-2.38,1.2l-6.64-4.5C5.93,10.94,6,10.62,6,10.27C6,9.93,5.93,9.61,5.82,9.3
	l6.64-4.5C13.02,5.52,13.88,6,14.85,6c1.65,0,3-1.35,3-3s-1.35-3-3-3s-3,1.35-3,3c0,0.32,0.06,0.62,0.15,0.9L5.34,8.42
	C4.79,7.73,3.95,7.27,3,7.27c-1.65,0-3,1.35-3,3s1.35,3,3,3c0.95,0,1.79-0.45,2.34-1.15l6.67,4.52c-0.09,0.29-0.15,0.59-0.15,0.9
	c0,1.65,1.35,3,3,3s3-1.35,3-3S16.51,14.55,14.85,14.55z"/>
</svg>
