<?xml version="1.0" encoding="utf-8"?>
<!-- Generator: Adobe Illustrator 24.0.2, SVG Export Plug-In . SVG Version: 6.00 Build 0)  -->
<svg version="1.1" id="Capa_1" xmlns="http://www.w3.org/2000/svg" xmlns:xlink="http://www.w3.org/1999/xlink" x="0px" y="0px"
	 viewBox="0 0 21.02 26.35" style="enable-background:new 0 0 21.02 26.35;" xml:space="preserve">
<style type="text/css">
	.st0{fill:#FF7012;}
	.st1{fill:#43BAFF;}
	.st2{fill:#FFFFFF;}
	.st3{fill:none;stroke:#FF7012;stroke-width:0.75;stroke-miterlimit:10;}
	.st4{fill:#4A4A49;}
	.st5{fill:#4A4A49;stroke:#FFFFFF;stroke-linecap:round;stroke-linejoin:round;stroke-miterlimit:10;}
	.st6{fill:none;stroke:#FFFFFF;stroke-linecap:round;stroke-linejoin:round;stroke-miterlimit:10;}
	.st7{fill:none;stroke:#FFFFFF;stroke-linecap:round;stroke-miterlimit:10;}
	.st8{fill:none;stroke:#4A4A49;stroke-linecap:round;stroke-miterlimit:10;}
	.st9{fill:#0684F2;}
	.st10{fill:#FFCB0D;}
	.st11{fill:#00C356;}
	.st12{fill:none;}
	.st13{fill:#FF4E55;}
	.st14{fill:none;stroke:#FF4E55;stroke-width:2.24;stroke-linecap:round;stroke-linejoin:round;stroke-miterlimit:10;}
	.st15{clip-path:url(#SVGID_2_);}
	.st16{fill:#E52421;}
	.st17{fill:#FF8610;}
	.st18{fill:#FFC200;}
	.st19{clip-path:url(#SVGID_4_);}
	.st20{fill:#F9DCA4;}
	.st21{fill:#DEC492;}
	.st22{fill:#677079;}
	.st23{fill:#FFE8BE;}
	.st24{fill:#434955;}
	.st25{fill:#1D1D1D;}
	.st26{fill:none;stroke:#FF7012;stroke-width:0.75;stroke-linecap:round;stroke-linejoin:round;stroke-miterlimit:10;}
	.st27{fill:#FFA2B0;}
	.st28{fill:none;stroke:#FF7012;stroke-miterlimit:10;}
	.st29{fill:#FF894B;}
	.st30{fill:none;stroke:#FF7012;stroke-linecap:round;stroke-linejoin:round;stroke-miterlimit:10;}
	.st31{fill:#0669BF;}
	.st32{fill:#0669BF;stroke:#FFFFFF;stroke-linecap:round;stroke-linejoin:round;stroke-miterlimit:10;}
	.st33{fill:#F4F4F4;}
	.st34{fill:#0444BF;}
	.st35{fill:#F2F6FF;}
	.st36{fill:#E7E7E7;}
	.st37{fill:#878787;}
	.st38{fill:#B2B2B2;}
	.st39{fill:#FFF8F0;}
	.st40{fill:#FFF1E3;}
	.st41{fill:none;stroke:#B2B2B2;stroke-width:0.5;stroke-miterlimit:10;}
	.st42{fill:#DADADA;}
	.st43{fill:none;stroke:#4A4A49;stroke-linecap:round;stroke-linejoin:round;stroke-miterlimit:10;}
	.st44{fill:none;stroke:#4A4A49;stroke-miterlimit:10;}
	.st45{fill:none;stroke:#F4F4F4;stroke-linecap:round;stroke-linejoin:round;stroke-miterlimit:10;}
	.st46{fill:none;stroke:#E7B600;stroke-miterlimit:10;}
	.st47{fill:none;stroke:#0684F2;stroke-miterlimit:10;}
	.st48{fill:#FF7012;stroke:#FFFFFF;stroke-linecap:round;stroke-linejoin:round;stroke-miterlimit:10;}
	.st49{fill:none;stroke:#606060;stroke-miterlimit:10;}
	.st50{fill:none;stroke:#FFFFFF;stroke-width:0.8;stroke-miterlimit:10;}
	.st51{fill:none;stroke:#FFFFFF;stroke-width:2;stroke-miterlimit:10;}
	.st52{fill:#FFFFFF;stroke:#FF7012;stroke-width:2;stroke-linecap:round;stroke-linejoin:round;stroke-miterlimit:10;}
	.st53{fill:none;stroke:#FF7012;stroke-width:2;stroke-linecap:round;stroke-linejoin:round;stroke-miterlimit:10;}
	.st54{fill:none;stroke:#FFFFFF;stroke-miterlimit:10;}
	.st55{fill:none;stroke:#FFFFFF;stroke-width:1.25;stroke-linecap:round;stroke-linejoin:round;stroke-miterlimit:10;}
	.st56{fill:#4A4A49;stroke:#FFFFFF;stroke-miterlimit:10;}
	.st57{fill:#FF7012;stroke:#FFFFFF;stroke-miterlimit:10;}
	.st58{fill:none;stroke:#FF7012;stroke-linecap:round;stroke-miterlimit:10;}
</style>
<g>
	<path class="st0" d="M4.86,17.36c0.09,0,0.18-0.01,0.27-0.03c1.25-0.26,2.54-2.34,3.45-4.18c0.52-0.18,1.08-0.36,1.71-0.54
		c0.66-0.19,1.28-0.33,1.85-0.45c1.54,1.39,3.16,1.97,4.17,1.78c0.57-0.11,0.96-0.45,1.09-0.97c0.16-0.62-0.08-1.02-0.31-1.24
		c-0.78-0.76-2.7-0.73-4.72-0.37c-0.38-0.38-0.77-0.82-1.13-1.33c-0.33-0.45-0.61-0.92-0.86-1.38c0.61-2,1.01-4.21,0.36-5.12
		c-0.23-0.32-0.57-0.47-0.99-0.45C9.26,3.13,8.88,3.4,8.67,3.85C8.19,4.87,8.59,6.82,9.57,8.75c-0.21,0.66-0.46,1.35-0.75,2.05
		c-0.26,0.63-0.52,1.22-0.79,1.77c-2.58,0.95-4.16,2.06-4.44,3.15c-0.12,0.47,0.02,0.93,0.38,1.28C4.24,17.24,4.54,17.36,4.86,17.36
		z M16.58,12.28c0.09,0.09,0.18,0.22,0.11,0.52c-0.02,0.08-0.09,0.34-0.51,0.42c-0.65,0.12-1.82-0.22-3.07-1.2
		C14.95,11.75,16.19,11.89,16.58,12.28z M9.35,4.17c0.1-0.21,0.24-0.31,0.45-0.32c0.02,0,0.03,0,0.04,0c0.16,0,0.23,0.07,0.29,0.14
		c0.34,0.48,0.23,1.89-0.24,3.66C9.25,6.14,9.06,4.79,9.35,4.17z M9.52,11.08c0.17-0.42,0.36-0.92,0.55-1.45
		c0.18,0.29,0.37,0.58,0.57,0.85c0.28,0.39,0.57,0.74,0.87,1.06c-0.48,0.11-0.96,0.23-1.42,0.36c-0.37,0.1-0.72,0.21-1.06,0.32
		C9.23,11.79,9.39,11.39,9.52,11.08z M7.52,13.57c-0.96,1.76-1.89,2.9-2.55,3.04c-0.18,0.04-0.32-0.01-0.47-0.15v0
		c-0.18-0.17-0.23-0.35-0.18-0.56C4.48,15.31,5.42,14.45,7.52,13.57z"/>
	<path class="st0" d="M21.02,4.55c0-0.11-0.05-0.21-0.13-0.28l-4.15-4.15C16.68,0.05,16.58,0,16.47,0c0,0,0,0,0,0s0,0,0,0H2
		C0.9,0,0,0.9,0,2v22.36c0,1.1,0.9,2,2,2h17.03c1.1,0,2-0.9,2-2V4.55C21.02,4.56,21.02,4.56,21.02,4.55
		C21.02,4.55,21.02,4.55,21.02,4.55z M16.85,1.29l2.89,2.89h-2.1c-0.44,0-0.79-0.36-0.79-0.79V1.29z M2,0.75h14.1v2.63
		c0,0.85,0.69,1.54,1.54,1.54h2.63v14.01H0.75V2C0.75,1.31,1.31,0.75,2,0.75z M19.03,25.6H2c-0.69,0-1.25-0.56-1.25-1.25v-4.67
		h19.52v4.67C20.27,25.04,19.71,25.6,19.03,25.6z"/>
</g>
</svg>
