<?xml version="1.0" encoding="utf-8"?>
<!-- Generator: Adobe Illustrator 24.0.2, SVG Export Plug-In . SVG Version: 6.00 Build 0)  -->
<svg version="1.1" id="Capa_1" xmlns="http://www.w3.org/2000/svg" xmlns:xlink="http://www.w3.org/1999/xlink" x="0px" y="0px"
	 viewBox="0 0 49.47 36.61" style="enable-background:new 0 0 49.47 36.61;" xml:space="preserve">
<style type="text/css">
	.st0{fill:#FF7012;}
	.st1{fill:#43BAFF;}
	.st2{fill:#FFFFFF;}
	.st3{fill:none;stroke:#FF7012;stroke-width:0.75;stroke-miterlimit:10;}
	.st4{fill:#4A4A49;}
	.st5{fill:#4A4A49;stroke:#FFFFFF;stroke-linecap:round;stroke-linejoin:round;stroke-miterlimit:10;}
	.st6{fill:none;stroke:#FFFFFF;stroke-linecap:round;stroke-linejoin:round;stroke-miterlimit:10;}
	.st7{fill:none;stroke:#FFFFFF;stroke-linecap:round;stroke-miterlimit:10;}
	.st8{fill:none;stroke:#4A4A49;stroke-linecap:round;stroke-miterlimit:10;}
	.st9{fill:#0684F2;}
	.st10{fill:#FFCB0D;}
	.st11{fill:#00C356;}
	.st12{fill:none;}
	.st13{fill:#FF4E55;}
	.st14{fill:none;stroke:#FF4E55;stroke-width:2.24;stroke-linecap:round;stroke-linejoin:round;stroke-miterlimit:10;}
	.st15{clip-path:url(#SVGID_2_);}
	.st16{fill:#E52421;}
	.st17{fill:#FF8610;}
	.st18{fill:#FFC200;}
	.st19{clip-path:url(#SVGID_4_);}
	.st20{fill:#F9DCA4;}
	.st21{fill:#DEC492;}
	.st22{fill:#677079;}
	.st23{fill:#FFE8BE;}
	.st24{fill:#434955;}
	.st25{fill:#1D1D1D;}
	.st26{fill:none;stroke:#FF7012;stroke-width:0.75;stroke-linecap:round;stroke-linejoin:round;stroke-miterlimit:10;}
	.st27{fill:#FFA2B0;}
	.st28{fill:none;stroke:#FF7012;stroke-miterlimit:10;}
	.st29{fill:#FF894B;}
	.st30{fill:none;stroke:#FF7012;stroke-linecap:round;stroke-linejoin:round;stroke-miterlimit:10;}
	.st31{fill:#0669BF;}
	.st32{fill:#0669BF;stroke:#FFFFFF;stroke-linecap:round;stroke-linejoin:round;stroke-miterlimit:10;}
	.st33{fill:#F4F4F4;}
	.st34{fill:#0444BF;}
	.st35{fill:#F2F6FF;}
	.st36{fill:#E7E7E7;}
	.st37{fill:#878787;}
	.st38{fill:#B2B2B2;}
	.st39{fill:#FFF8F0;}
	.st40{fill:#FFF1E3;}
	.st41{fill:none;stroke:#B2B2B2;stroke-width:0.5;stroke-miterlimit:10;}
	.st42{fill:#DADADA;}
	.st43{fill:none;stroke:#4A4A49;stroke-linecap:round;stroke-linejoin:round;stroke-miterlimit:10;}
	.st44{fill:none;stroke:#4A4A49;stroke-miterlimit:10;}
	.st45{fill:none;stroke:#F4F4F4;stroke-linecap:round;stroke-linejoin:round;stroke-miterlimit:10;}
	.st46{fill:none;stroke:#E7B600;stroke-miterlimit:10;}
	.st47{fill:none;stroke:#0684F2;stroke-miterlimit:10;}
	.st48{fill:#FF7012;stroke:#FFFFFF;stroke-linecap:round;stroke-linejoin:round;stroke-miterlimit:10;}
	.st49{fill:none;stroke:#606060;stroke-miterlimit:10;}
	.st50{fill:none;stroke:#FFFFFF;stroke-width:0.8;stroke-miterlimit:10;}
	.st51{fill:none;stroke:#FFFFFF;stroke-width:2;stroke-miterlimit:10;}
	.st52{fill:#FFFFFF;stroke:#FF7012;stroke-width:2;stroke-linecap:round;stroke-linejoin:round;stroke-miterlimit:10;}
	.st53{fill:none;stroke:#FF7012;stroke-width:2;stroke-linecap:round;stroke-linejoin:round;stroke-miterlimit:10;}
	.st54{fill:none;stroke:#FFFFFF;stroke-miterlimit:10;}
	.st55{fill:none;stroke:#FFFFFF;stroke-width:1.25;stroke-linecap:round;stroke-linejoin:round;stroke-miterlimit:10;}
	.st56{fill:#4A4A49;stroke:#FFFFFF;stroke-miterlimit:10;}
	.st57{fill:#FF7012;stroke:#FFFFFF;stroke-miterlimit:10;}
	.st58{fill:none;stroke:#FF7012;stroke-linecap:round;stroke-miterlimit:10;}
</style>
<g>
	<g>
		<path class="st4" d="M48.38,13.03c-1.31-1.12-3.29-0.97-4.41,0.34c-0.71,0.84-0.91,1.94-0.62,2.92l-5.21,3.07
			c-0.47,0.28-1.05-0.09-1-0.63l0.66-7.18c1.01-0.16,1.93-0.8,2.38-1.81c0.71-1.58,0-3.43-1.57-4.14s-3.43-0.01-4.14,1.57
			c-0.45,1-0.33,2.12,0.23,2.98l-4.19,4.47c-0.34,0.37-0.95,0.24-1.11-0.24l-2.96-8.63c0.86-0.56,1.43-1.52,1.43-2.62
			c0-1.73-1.4-3.13-3.13-3.13s-3.13,1.4-3.13,3.13c0,1.1,0.57,2.06,1.43,2.62l-2.96,8.63c-0.16,0.47-0.77,0.61-1.11,0.24l-4.19-4.47
			C15.33,9.3,15.45,8.19,15,7.18c-0.71-1.58-2.56-2.28-4.14-1.57C9.29,6.32,8.58,8.17,9.29,9.75c0.45,1,1.37,1.65,2.38,1.81
			l0.66,7.18c0.05,0.54-0.53,0.91-1,0.63L6.13,16.3c0.29-0.98,0.1-2.08-0.62-2.92c-1.12-1.31-3.1-1.47-4.41-0.34
			c-1.31,1.12-1.47,3.1-0.34,4.41c0.71,0.84,1.77,1.2,2.79,1.06l3.38,8.53c0.1,0.25,0.35,0.42,0.62,0.42h5.6h2.45v0h18.3v0h2.45h5.6
			c0.27,0,0.52-0.17,0.62-0.42l3.38-8.53c1.01,0.13,2.07-0.23,2.79-1.06C49.84,16.13,49.69,14.16,48.38,13.03z M24.74,25.34
			c-1.46,0-2.65-1.58-2.65-3.53s1.19-3.53,2.65-3.53c1.46,0,2.65,1.58,2.65,3.53S26.2,25.34,24.74,25.34z"/>
		<path class="st4" d="M41.17,30.5H8.31c-0.39,0-0.7,0.33-0.66,0.72l0.39,4.78c0.03,0.35,0.32,0.61,0.66,0.61h32.08
			c0.35,0,0.64-0.27,0.66-0.61l0.39-4.78C41.86,30.83,41.56,30.5,41.17,30.5z"/>
	</g>
</g>
</svg>
