<?xml version="1.0" encoding="utf-8"?>
<!-- Generator: Adobe Illustrator 24.0.2, SVG Export Plug-In . SVG Version: 6.00 Build 0)  -->
<svg version="1.1" id="Capa_1" xmlns="http://www.w3.org/2000/svg" xmlns:xlink="http://www.w3.org/1999/xlink" x="0px" y="0px"
	 viewBox="0 0 20.2 19.04" style="enable-background:new 0 0 20.2 19.04;" xml:space="preserve">
<style type="text/css">
	.st0{fill:#FF7012;}
	.st1{fill:#43BAFF;}
	.st2{fill:#FFFFFF;}
	.st3{fill:none;stroke:#FF7012;stroke-width:0.75;stroke-miterlimit:10;}
	.st4{fill:#F4F4F4;}
	.st5{fill:#4A4A49;}
	.st6{fill:#4A4A49;stroke:#FFFFFF;stroke-linecap:round;stroke-linejoin:round;stroke-miterlimit:10;}
	.st7{fill:none;stroke:#FFFFFF;stroke-linecap:round;stroke-linejoin:round;stroke-miterlimit:10;}
	.st8{fill:none;stroke:#FFFFFF;stroke-linecap:round;stroke-miterlimit:10;}
	.st9{fill:none;stroke:#4A4A49;stroke-linecap:round;stroke-miterlimit:10;}
	.st10{fill:#0684F2;}
	.st11{fill:#FFCB0D;}
	.st12{fill:#00C356;}
	.st13{fill:none;stroke:#FFFFFF;stroke-miterlimit:10;}
	.st14{fill:none;}
	.st15{fill:#FF4E55;}
	.st16{fill:none;stroke:#FF4E55;stroke-width:2.24;stroke-linecap:round;stroke-linejoin:round;stroke-miterlimit:10;}
	.st17{clip-path:url(#SVGID_2_);}
	.st18{fill:#E52421;}
	.st19{fill:#FF8610;}
	.st20{fill:#FFC200;}
	.st21{clip-path:url(#SVGID_4_);}
	.st22{fill:#F9DCA4;}
	.st23{fill:#DEC492;}
	.st24{fill:#677079;}
	.st25{fill:#FFE8BE;}
	.st26{fill:#434955;}
	.st27{fill:#1D1D1D;}
	.st28{fill:none;stroke:#FF7012;stroke-width:0.75;stroke-linecap:round;stroke-linejoin:round;stroke-miterlimit:10;}
	.st29{fill:#FFA2B0;}
	.st30{fill:none;stroke:#FF7012;stroke-miterlimit:10;}
	.st31{fill:#FF894B;}
	.st32{fill:none;stroke:#FF7012;stroke-linecap:round;stroke-linejoin:round;stroke-miterlimit:10;}
	.st33{fill:#0669BF;}
	.st34{fill:#0669BF;stroke:#FFFFFF;stroke-linecap:round;stroke-linejoin:round;stroke-miterlimit:10;}
	.st35{fill:#0444BF;}
	.st36{fill:#F2F6FF;}
	.st37{fill:#E7E7E7;}
	.st38{fill:#878787;}
	.st39{fill:#B2B2B2;}
	.st40{fill:#FFF8F0;}
	.st41{fill:#FFF1E3;}
	.st42{fill:none;stroke:#B2B2B2;stroke-width:0.5;stroke-miterlimit:10;}
	.st43{fill:#DADADA;}
	.st44{fill:none;stroke:#4A4A49;stroke-linecap:round;stroke-linejoin:round;stroke-miterlimit:10;}
	.st45{fill:none;stroke:#4A4A49;stroke-miterlimit:10;}
	.st46{fill:none;stroke:#F4F4F4;stroke-linecap:round;stroke-linejoin:round;stroke-miterlimit:10;}
	.st47{fill:none;stroke:#E7B600;stroke-miterlimit:10;}
	.st48{fill:none;stroke:#0684F2;stroke-miterlimit:10;}
	.st49{fill:#FF7012;stroke:#FFFFFF;stroke-linecap:round;stroke-linejoin:round;stroke-miterlimit:10;}
	.st50{fill:none;stroke:#606060;stroke-miterlimit:10;}
	.st51{fill:none;stroke:#FFFFFF;stroke-width:0.8;stroke-miterlimit:10;}
	.st52{fill:none;stroke:#FFFFFF;stroke-width:2;stroke-miterlimit:10;}
	.st53{fill:#FFFFFF;stroke:#FF7012;stroke-width:2;stroke-linecap:round;stroke-linejoin:round;stroke-miterlimit:10;}
	.st54{fill:none;stroke:#FF7012;stroke-width:2;stroke-linecap:round;stroke-linejoin:round;stroke-miterlimit:10;}
	.st55{fill:none;stroke:#FFFFFF;stroke-width:1.25;stroke-linecap:round;stroke-linejoin:round;stroke-miterlimit:10;}
	.st56{fill:none;stroke:#FF740D;stroke-width:2;stroke-linecap:round;stroke-linejoin:round;stroke-miterlimit:10;}
	.st57{fill:#4A4A49;stroke:#FFFFFF;stroke-miterlimit:10;}
	.st58{fill:#FF7012;stroke:#FFFFFF;stroke-miterlimit:10;}
</style>
<g>
	<path class="st0" d="M1.27,19.04h12.16c0.7,0,1.27-0.57,1.27-1.27v-1.35c0,0,0,0,0,0c-3.58,0-6.5-2.92-6.5-6.5s2.92-6.5,6.5-6.5
		c0,0,0,0,0,0V1.27c0-0.7-0.57-1.27-1.27-1.27H4.94v3.08c0,0.97-0.79,1.77-1.77,1.77H1.54c-0.28,0-0.5-0.22-0.5-0.5
		s0.22-0.5,0.5-0.5h1.63c0.42,0,0.77-0.34,0.77-0.77V0.06C3.73,0.12,3.53,0.21,3.37,0.37l-3,3C0.13,3.61,0,3.93,0,4.26v13.51
		C0,18.47,0.57,19.04,1.27,19.04z M2.63,6.78h3.73c0.28,0,0.5,0.22,0.5,0.5s-0.22,0.5-0.5,0.5H2.63c-0.28,0-0.5-0.22-0.5-0.5
		S2.36,6.78,2.63,6.78z M2.63,9.72h3.74c0.28,0,0.5,0.22,0.5,0.5s-0.22,0.5-0.5,0.5H2.63c-0.28,0-0.5-0.22-0.5-0.5
		S2.36,9.72,2.63,9.72z M2.63,12.65h3.74c0.28,0,0.5,0.22,0.5,0.5s-0.22,0.5-0.5,0.5H2.63c-0.28,0-0.5-0.22-0.5-0.5
		S2.36,12.65,2.63,12.65z"/>
	<path class="st0" d="M20.2,9.92c0-3.03-2.47-5.5-5.5-5.5s-5.5,2.47-5.5,5.5s2.47,5.5,5.5,5.5S20.2,12.95,20.2,9.92z M12.7,8.68
		c0.14-1.14,0.95-1.82,2.1-1.82c1.07,0,1.9,0.62,1.9,1.76c0,0.78-0.46,1.16-0.98,1.66c-0.33,0.32-0.48,0.43-0.48,0.9v0.34h-1.08
		v-0.5c0-0.54,0.12-0.68,0.49-1.05l0.69-0.7c0.15-0.15,0.23-0.36,0.23-0.59c0-0.47-0.34-0.79-0.81-0.79c-0.5,0-0.86,0.4-0.9,0.88
		L12.7,8.68z M13.98,12.77c0-0.39,0.32-0.7,0.72-0.7c0.39,0,0.72,0.3,0.72,0.68c0,0.39-0.32,0.7-0.72,0.7
		C14.32,13.45,13.98,13.15,13.98,12.77z"/>
</g>
</svg>
