<?xml version="1.0" encoding="utf-8"?>
<!-- Generator: Adobe Illustrator 24.0.2, SVG Export Plug-In . SVG Version: 6.00 Build 0)  -->
<svg version="1.1" id="Capa_1" xmlns="http://www.w3.org/2000/svg" xmlns:xlink="http://www.w3.org/1999/xlink" x="0px" y="0px"
	 viewBox="0 0 20.2 19.04" style="enable-background:new 0 0 20.2 19.04;" xml:space="preserve">
<style type="text/css">
	.st0{fill:#FF7012;}
	.st1{fill:#43BAFF;}
	.st2{fill:#FFFFFF;}
	.st3{fill:none;stroke:#FF7012;stroke-width:0.75;stroke-miterlimit:10;}
	.st4{fill:#F4F4F4;}
	.st5{fill:#4A4A49;}
	.st6{fill:#4A4A49;stroke:#FFFFFF;stroke-linecap:round;stroke-linejoin:round;stroke-miterlimit:10;}
	.st7{fill:none;stroke:#FFFFFF;stroke-linecap:round;stroke-linejoin:round;stroke-miterlimit:10;}
	.st8{fill:none;stroke:#FFFFFF;stroke-linecap:round;stroke-miterlimit:10;}
	.st9{fill:none;stroke:#4A4A49;stroke-linecap:round;stroke-miterlimit:10;}
	.st10{fill:#0684F2;}
	.st11{fill:#FFCB0D;}
	.st12{fill:#00C356;}
	.st13{fill:none;stroke:#FFFFFF;stroke-miterlimit:10;}
	.st14{fill:none;}
	.st15{fill:#FF4E55;}
	.st16{fill:none;stroke:#FF4E55;stroke-width:2.24;stroke-linecap:round;stroke-linejoin:round;stroke-miterlimit:10;}
	.st17{clip-path:url(#SVGID_2_);}
	.st18{fill:#E52421;}
	.st19{fill:#FF8610;}
	.st20{fill:#FFC200;}
	.st21{clip-path:url(#SVGID_4_);}
	.st22{fill:#F9DCA4;}
	.st23{fill:#DEC492;}
	.st24{fill:#677079;}
	.st25{fill:#FFE8BE;}
	.st26{fill:#434955;}
	.st27{fill:#1D1D1D;}
	.st28{fill:none;stroke:#FF7012;stroke-width:0.75;stroke-linecap:round;stroke-linejoin:round;stroke-miterlimit:10;}
	.st29{fill:#FFA2B0;}
	.st30{fill:none;stroke:#FF7012;stroke-miterlimit:10;}
	.st31{fill:#FF894B;}
	.st32{fill:none;stroke:#FF7012;stroke-linecap:round;stroke-linejoin:round;stroke-miterlimit:10;}
	.st33{fill:#0669BF;}
	.st34{fill:#0669BF;stroke:#FFFFFF;stroke-linecap:round;stroke-linejoin:round;stroke-miterlimit:10;}
	.st35{fill:#0444BF;}
	.st36{fill:#F2F6FF;}
	.st37{fill:#E7E7E7;}
	.st38{fill:#878787;}
	.st39{fill:#B2B2B2;}
	.st40{fill:#FFF8F0;}
	.st41{fill:#FFF1E3;}
	.st42{fill:none;stroke:#B2B2B2;stroke-width:0.5;stroke-miterlimit:10;}
	.st43{fill:#DADADA;}
	.st44{fill:none;stroke:#4A4A49;stroke-linecap:round;stroke-linejoin:round;stroke-miterlimit:10;}
	.st45{fill:none;stroke:#4A4A49;stroke-miterlimit:10;}
	.st46{fill:none;stroke:#F4F4F4;stroke-linecap:round;stroke-linejoin:round;stroke-miterlimit:10;}
	.st47{fill:none;stroke:#E7B600;stroke-miterlimit:10;}
	.st48{fill:none;stroke:#0684F2;stroke-miterlimit:10;}
	.st49{fill:#FF7012;stroke:#FFFFFF;stroke-linecap:round;stroke-linejoin:round;stroke-miterlimit:10;}
	.st50{fill:none;stroke:#606060;stroke-miterlimit:10;}
	.st51{fill:none;stroke:#FFFFFF;stroke-width:0.8;stroke-miterlimit:10;}
	.st52{fill:none;stroke:#FFFFFF;stroke-width:2;stroke-miterlimit:10;}
	.st53{fill:#FFFFFF;stroke:#FF7012;stroke-width:2;stroke-linecap:round;stroke-linejoin:round;stroke-miterlimit:10;}
	.st54{fill:none;stroke:#FF7012;stroke-width:2;stroke-linecap:round;stroke-linejoin:round;stroke-miterlimit:10;}
	.st55{fill:none;stroke:#FFFFFF;stroke-width:1.25;stroke-linecap:round;stroke-linejoin:round;stroke-miterlimit:10;}
	.st56{fill:none;stroke:#FF740D;stroke-width:2;stroke-linecap:round;stroke-linejoin:round;stroke-miterlimit:10;}
	.st57{fill:#4A4A49;stroke:#FFFFFF;stroke-miterlimit:10;}
	.st58{fill:#FF7012;stroke:#FFFFFF;stroke-miterlimit:10;}
</style>
<g>
	<path class="st0" d="M8.2,9.92c0-3.58,2.92-6.5,6.5-6.5c0,0,0,0,0,0V1.27c0-0.7-0.57-1.27-1.27-1.27H4.94v3.08
		c0,0.97-0.79,1.77-1.77,1.77H1.54c-0.28,0-0.5-0.22-0.5-0.5s0.22-0.5,0.5-0.5h1.63c0.42,0,0.77-0.34,0.77-0.77V0.06
		C3.73,0.12,3.53,0.21,3.37,0.37l-3,3C0.13,3.61,0,3.93,0,4.26v13.51c0,0.7,0.57,1.27,1.27,1.27h12.16c0.7,0,1.27-0.57,1.27-1.27
		v-1.35c0,0,0,0,0,0C11.12,16.42,8.2,13.51,8.2,9.92z M2.63,6.78h3.73c0.28,0,0.5,0.22,0.5,0.5s-0.22,0.5-0.5,0.5H2.63
		c-0.28,0-0.5-0.22-0.5-0.5S2.36,6.78,2.63,6.78z M6.37,13.65H2.63c-0.28,0-0.5-0.22-0.5-0.5s0.22-0.5,0.5-0.5h3.74
		c0.28,0,0.5,0.22,0.5,0.5S6.65,13.65,6.37,13.65z M6.37,10.72H2.63c-0.28,0-0.5-0.22-0.5-0.5s0.22-0.5,0.5-0.5h3.74
		c0.28,0,0.5,0.22,0.5,0.5S6.65,10.72,6.37,10.72z"/>
	<path class="st0" d="M20.2,9.92c0-3.03-2.47-5.5-5.5-5.5s-5.5,2.47-5.5,5.5s2.47,5.5,5.5,5.5S20.2,12.95,20.2,9.92z M14.73,6.65
		c0.74,0,0.77,0.76,0.77,0.9c0,0.18-0.03,0.61-0.06,0.95l-0.14,1.51c-0.09,0.98-0.16,1.21-0.57,1.21c-0.42,0-0.56-0.39-0.63-1.21
		l-0.15-1.69c-0.01-0.13-0.04-0.71-0.04-0.82C13.89,6.95,14.28,6.65,14.73,6.65z M14.69,13.19c-0.42,0-0.77-0.34-0.77-0.77
		c0-0.42,0.34-0.77,0.77-0.77c0.42,0,0.77,0.34,0.77,0.77C15.46,12.85,15.11,13.19,14.69,13.19z"/>
</g>
</svg>
