<?xml version="1.0" encoding="utf-8"?>
<!-- Generator: Adobe Illustrator 24.0.2, SVG Export Plug-In . SVG Version: 6.00 Build 0)  -->
<svg version="1.1" id="Capa_1" xmlns="http://www.w3.org/2000/svg" xmlns:xlink="http://www.w3.org/1999/xlink" x="0px" y="0px"
	 viewBox="0 0 14.7 19.04" style="enable-background:new 0 0 14.7 19.04;" xml:space="preserve">
<style type="text/css">
	.st0{fill:#FF7012;}
	.st1{fill:#43BAFF;}
	.st2{fill:#FFFFFF;}
	.st3{fill:none;stroke:#FF7012;stroke-width:0.75;stroke-miterlimit:10;}
	.st4{fill:#F4F4F4;}
	.st5{fill:#4A4A49;}
	.st6{fill:#4A4A49;stroke:#FFFFFF;stroke-linecap:round;stroke-linejoin:round;stroke-miterlimit:10;}
	.st7{fill:none;stroke:#FFFFFF;stroke-linecap:round;stroke-linejoin:round;stroke-miterlimit:10;}
	.st8{fill:none;stroke:#FFFFFF;stroke-linecap:round;stroke-miterlimit:10;}
	.st9{fill:none;stroke:#4A4A49;stroke-linecap:round;stroke-miterlimit:10;}
	.st10{fill:#0684F2;}
	.st11{fill:#FFCB0D;}
	.st12{fill:#00C356;}
	.st13{fill:none;stroke:#FFFFFF;stroke-miterlimit:10;}
	.st14{fill:none;}
	.st15{fill:#FF4E55;}
	.st16{fill:none;stroke:#FF4E55;stroke-width:2.24;stroke-linecap:round;stroke-linejoin:round;stroke-miterlimit:10;}
	.st17{clip-path:url(#SVGID_2_);}
	.st18{fill:#E52421;}
	.st19{fill:#FF8610;}
	.st20{fill:#FFC200;}
	.st21{clip-path:url(#SVGID_4_);}
	.st22{fill:#F9DCA4;}
	.st23{fill:#DEC492;}
	.st24{fill:#677079;}
	.st25{fill:#FFE8BE;}
	.st26{fill:#434955;}
	.st27{fill:#1D1D1D;}
	.st28{fill:none;stroke:#FF7012;stroke-width:0.75;stroke-linecap:round;stroke-linejoin:round;stroke-miterlimit:10;}
	.st29{fill:#FFA2B0;}
	.st30{fill:none;stroke:#FF7012;stroke-miterlimit:10;}
	.st31{fill:#FF894B;}
	.st32{fill:none;stroke:#FF7012;stroke-linecap:round;stroke-linejoin:round;stroke-miterlimit:10;}
	.st33{fill:#0669BF;}
	.st34{fill:#0669BF;stroke:#FFFFFF;stroke-linecap:round;stroke-linejoin:round;stroke-miterlimit:10;}
	.st35{fill:#0444BF;}
	.st36{fill:#F2F6FF;}
	.st37{fill:#E7E7E7;}
	.st38{fill:#878787;}
	.st39{fill:#B2B2B2;}
	.st40{fill:#FFF8F0;}
	.st41{fill:#FFF1E3;}
	.st42{fill:none;stroke:#B2B2B2;stroke-width:0.5;stroke-miterlimit:10;}
	.st43{fill:#DADADA;}
	.st44{fill:none;stroke:#4A4A49;stroke-linecap:round;stroke-linejoin:round;stroke-miterlimit:10;}
	.st45{fill:none;stroke:#4A4A49;stroke-miterlimit:10;}
	.st46{fill:none;stroke:#F4F4F4;stroke-linecap:round;stroke-linejoin:round;stroke-miterlimit:10;}
	.st47{fill:none;stroke:#E7B600;stroke-miterlimit:10;}
	.st48{fill:none;stroke:#0684F2;stroke-miterlimit:10;}
	.st49{fill:#FF7012;stroke:#FFFFFF;stroke-linecap:round;stroke-linejoin:round;stroke-miterlimit:10;}
	.st50{fill:none;stroke:#606060;stroke-miterlimit:10;}
	.st51{fill:none;stroke:#FFFFFF;stroke-width:0.8;stroke-miterlimit:10;}
	.st52{fill:none;stroke:#FFFFFF;stroke-width:2;stroke-miterlimit:10;}
	.st53{fill:#FFFFFF;stroke:#FF7012;stroke-width:2;stroke-linecap:round;stroke-linejoin:round;stroke-miterlimit:10;}
	.st54{fill:none;stroke:#FF7012;stroke-width:2;stroke-linecap:round;stroke-linejoin:round;stroke-miterlimit:10;}
	.st55{fill:none;stroke:#FFFFFF;stroke-width:1.25;stroke-linecap:round;stroke-linejoin:round;stroke-miterlimit:10;}
	.st56{fill:none;stroke:#FF740D;stroke-width:2;stroke-linecap:round;stroke-linejoin:round;stroke-miterlimit:10;}
	.st57{fill:#4A4A49;stroke:#FFFFFF;stroke-miterlimit:10;}
	.st58{fill:#FF7012;stroke:#FFFFFF;stroke-miterlimit:10;}
</style>
<path class="st5" d="M13.43,0H4.94v3.08c0,0.97-0.79,1.77-1.77,1.77H1.54c-0.28,0-0.5-0.22-0.5-0.5s0.22-0.5,0.5-0.5h1.63
	c0.42,0,0.77-0.34,0.77-0.77V0.06C3.73,0.12,3.53,0.21,3.37,0.37l-3,3C0.13,3.61,0,3.93,0,4.26v13.51c0,0.7,0.57,1.27,1.27,1.27
	h12.16c0.7,0,1.27-0.57,1.27-1.27V1.27C14.7,0.57,14.13,0,13.43,0z M7.35,16.58H2.63c-0.28,0-0.5-0.22-0.5-0.5s0.22-0.5,0.5-0.5
	h4.72c0.28,0,0.5,0.22,0.5,0.5S7.63,16.58,7.35,16.58z M12.15,13.65H2.63c-0.28,0-0.5-0.22-0.5-0.5s0.22-0.5,0.5-0.5h9.52
	c0.28,0,0.5,0.22,0.5,0.5S12.43,13.65,12.15,13.65z M12.15,10.72H2.63c-0.28,0-0.5-0.22-0.5-0.5s0.22-0.5,0.5-0.5h9.52
	c0.28,0,0.5,0.22,0.5,0.5S12.43,10.72,12.15,10.72z M12.15,7.78H2.63c-0.28,0-0.5-0.22-0.5-0.5s0.22-0.5,0.5-0.5h9.52
	c0.28,0,0.5,0.22,0.5,0.5S12.43,7.78,12.15,7.78z M12.15,4.85h-4.8c-0.28,0-0.5-0.22-0.5-0.5s0.22-0.5,0.5-0.5h4.8
	c0.28,0,0.5,0.22,0.5,0.5S12.43,4.85,12.15,4.85z"/>
</svg>
