<?xml version="1.0" encoding="utf-8"?>
<!-- Generator: Adobe Illustrator 24.0.2, SVG Export Plug-In . SVG Version: 6.00 Build 0)  -->
<svg version="1.1" id="Capa_1" xmlns="http://www.w3.org/2000/svg" xmlns:xlink="http://www.w3.org/1999/xlink" x="0px" y="0px"
	 viewBox="0 0 22.97 24" style="enable-background:new 0 0 22.97 24;" xml:space="preserve">
<style type="text/css">
	.st0{fill:#FF7012;}
	.st1{fill:#43BAFF;}
	.st2{fill:#FFFFFF;}
	.st3{fill:none;stroke:#FF7012;stroke-width:0.75;stroke-miterlimit:10;}
	.st4{fill:#4A4A49;}
	.st5{fill:#4A4A49;stroke:#FFFFFF;stroke-linecap:round;stroke-linejoin:round;stroke-miterlimit:10;}
	.st6{fill:none;stroke:#FFFFFF;stroke-linecap:round;stroke-linejoin:round;stroke-miterlimit:10;}
	.st7{fill:none;stroke:#FFFFFF;stroke-linecap:round;stroke-miterlimit:10;}
	.st8{fill:none;stroke:#4A4A49;stroke-linecap:round;stroke-miterlimit:10;}
	.st9{fill:#0684F2;}
	.st10{fill:#FFCB0D;}
	.st11{fill:#00C356;}
	.st12{fill:none;}
	.st13{fill:#FF4E55;}
	.st14{fill:none;stroke:#FF4E55;stroke-width:2.24;stroke-linecap:round;stroke-linejoin:round;stroke-miterlimit:10;}
	.st15{clip-path:url(#SVGID_2_);}
	.st16{fill:#E52421;}
	.st17{fill:#FF8610;}
	.st18{fill:#FFC200;}
	.st19{clip-path:url(#SVGID_4_);}
	.st20{fill:#F9DCA4;}
	.st21{fill:#DEC492;}
	.st22{fill:#677079;}
	.st23{fill:#FFE8BE;}
	.st24{fill:#434955;}
	.st25{fill:#1D1D1D;}
	.st26{fill:none;stroke:#FF7012;stroke-width:0.75;stroke-linecap:round;stroke-linejoin:round;stroke-miterlimit:10;}
	.st27{fill:#FFA2B0;}
	.st28{fill:none;stroke:#FF7012;stroke-miterlimit:10;}
	.st29{fill:#FF894B;}
	.st30{fill:none;stroke:#FF7012;stroke-linecap:round;stroke-linejoin:round;stroke-miterlimit:10;}
	.st31{fill:#0669BF;}
	.st32{fill:#0669BF;stroke:#FFFFFF;stroke-linecap:round;stroke-linejoin:round;stroke-miterlimit:10;}
	.st33{fill:#F4F4F4;}
	.st34{fill:#0444BF;}
	.st35{fill:#F2F6FF;}
	.st36{fill:#E7E7E7;}
	.st37{fill:#878787;}
	.st38{fill:#B2B2B2;}
	.st39{fill:#FFF8F0;}
	.st40{fill:#FFF1E3;}
	.st41{fill:none;stroke:#B2B2B2;stroke-width:0.5;stroke-miterlimit:10;}
	.st42{fill:#DADADA;}
	.st43{fill:none;stroke:#4A4A49;stroke-linecap:round;stroke-linejoin:round;stroke-miterlimit:10;}
	.st44{fill:none;stroke:#4A4A49;stroke-miterlimit:10;}
	.st45{fill:none;stroke:#F4F4F4;stroke-linecap:round;stroke-linejoin:round;stroke-miterlimit:10;}
	.st46{fill:none;stroke:#E7B600;stroke-miterlimit:10;}
	.st47{fill:none;stroke:#0684F2;stroke-miterlimit:10;}
	.st48{fill:#FF7012;stroke:#FFFFFF;stroke-linecap:round;stroke-linejoin:round;stroke-miterlimit:10;}
	.st49{fill:none;stroke:#606060;stroke-miterlimit:10;}
	.st50{fill:none;stroke:#FFFFFF;stroke-width:0.8;stroke-miterlimit:10;}
	.st51{fill:none;stroke:#FFFFFF;stroke-width:2;stroke-miterlimit:10;}
	.st52{fill:#FFFFFF;stroke:#FF7012;stroke-width:2;stroke-linecap:round;stroke-linejoin:round;stroke-miterlimit:10;}
	.st53{fill:none;stroke:#FF7012;stroke-width:2;stroke-linecap:round;stroke-linejoin:round;stroke-miterlimit:10;}
	.st54{fill:none;stroke:#FFFFFF;stroke-miterlimit:10;}
	.st55{fill:none;stroke:#FFFFFF;stroke-width:1.25;stroke-linecap:round;stroke-linejoin:round;stroke-miterlimit:10;}
	.st56{fill:#4A4A49;stroke:#FFFFFF;stroke-miterlimit:10;}
	.st57{fill:#FF7012;stroke:#FFFFFF;stroke-miterlimit:10;}
</style>
<g>
	<path class="st0" d="M16.96,17.4c-0.02,0.03-0.05,0.06-0.08,0.08c-0.04,0.04-0.07,0.07-0.12,0.09c-0.01,0.01-0.02,0.02-0.03,0.02
		l-3.53,1.32c-0.06,0.02-0.12,0.03-0.18,0.03c-0.09,0-0.17-0.02-0.25-0.07c-0.13-0.07-0.22-0.2-0.24-0.35l-0.62-3.72
		c0-0.01,0.01-0.02,0-0.04c-0.01-0.07,0-0.13,0.02-0.2c0.01-0.02,0.01-0.04,0.02-0.06c0.01-0.01,0.01-0.02,0.01-0.04l6.02-10.43
		L18,4.04V3.2V1.1C18,0.49,17.51,0,16.9,0H1.1C0.49,0,0,0.49,0,1.1V22.9C0,23.51,0.49,24,1.1,24H16.9c0.61,0,1.1-0.49,1.1-1.1v-3.66
		v-3.62l-1.02,1.77C16.97,17.39,16.96,17.39,16.96,17.4z M3.5,4H14.5C14.78,4,15,4.22,15,4.5S14.78,5,14.5,5H3.5
		C3.22,5,3,4.78,3,4.5S3.22,4,3.5,4z M3.5,7.75h9.31c0.28,0,0.5,0.22,0.5,0.5s-0.22,0.5-0.5,0.5H3.5C3.22,8.75,3,8.53,3,8.25
		S3.22,7.75,3.5,7.75z M3.5,11.5h6.62c0.28,0,0.5,0.22,0.5,0.5s-0.22,0.5-0.5,0.5H3.5C3.22,12.5,3,12.28,3,12S3.22,11.5,3.5,11.5z
		 M3.5,15.25h6.62c0.28,0,0.5,0.22,0.5,0.5s-0.22,0.5-0.5,0.5H3.5c-0.28,0-0.5-0.22-0.5-0.5S3.22,15.25,3.5,15.25z M10.94,20H3.5
		C3.22,20,3,19.78,3,19.5S3.22,19,3.5,19h7.45c0.28,0,0.5,0.22,0.5,0.5S11.22,20,10.94,20z"/>
	<polygon class="st0" points="21.89,6.88 20.25,5.94 18.6,4.99 13.08,14.55 14.72,15.5 16.36,16.45 	"/>
	<polygon class="st0" points="15.38,17.04 13.07,15.7 13.41,17.77 	"/>
	<path class="st0" d="M19.1,4.12l3.28,1.89l0.49-0.84c0.2-0.34,0.08-0.78-0.26-0.98l-2.04-1.18c-0.17-0.1-0.36-0.12-0.54-0.07
		C19.84,3,19.69,3.12,19.59,3.28L19.1,4.12z"/>
</g>
</svg>
