<?xml version="1.0" encoding="utf-8"?>
<!-- Generator: Adobe Illustrator 24.0.2, SVG Export Plug-In . SVG Version: 6.00 Build 0)  -->
<svg version="1.1" id="Capa_1" xmlns="http://www.w3.org/2000/svg" xmlns:xlink="http://www.w3.org/1999/xlink" x="0px" y="0px"
	 viewBox="0 0 26.92 35" style="enable-background:new 0 0 26.92 35;" xml:space="preserve">
<style type="text/css">
	.st0{fill:#FF7012;}
	.st1{fill:#43BAFF;}
	.st2{fill:#FFFFFF;}
	.st3{fill:none;stroke:#FF7012;stroke-width:0.75;stroke-miterlimit:10;}
	.st4{fill:#4A4A49;}
	.st5{fill:#4A4A49;stroke:#FFFFFF;stroke-linecap:round;stroke-linejoin:round;stroke-miterlimit:10;}
	.st6{fill:none;stroke:#FFFFFF;stroke-linecap:round;stroke-linejoin:round;stroke-miterlimit:10;}
	.st7{fill:none;stroke:#FFFFFF;stroke-linecap:round;stroke-miterlimit:10;}
	.st8{fill:none;stroke:#4A4A49;stroke-linecap:round;stroke-miterlimit:10;}
	.st9{fill:#0684F2;}
	.st10{fill:#FFCB0D;}
	.st11{fill:#00C356;}
	.st12{fill:none;}
	.st13{fill:#FF4E55;}
	.st14{fill:none;stroke:#FF4E55;stroke-width:2.24;stroke-linecap:round;stroke-linejoin:round;stroke-miterlimit:10;}
	.st15{clip-path:url(#SVGID_2_);}
	.st16{fill:#E52421;}
	.st17{fill:#FF8610;}
	.st18{fill:#FFC200;}
	.st19{clip-path:url(#SVGID_4_);}
	.st20{fill:#F9DCA4;}
	.st21{fill:#DEC492;}
	.st22{fill:#677079;}
	.st23{fill:#FFE8BE;}
	.st24{fill:#434955;}
	.st25{fill:#1D1D1D;}
	.st26{fill:none;stroke:#FF7012;stroke-width:0.75;stroke-linecap:round;stroke-linejoin:round;stroke-miterlimit:10;}
	.st27{fill:#FFA2B0;}
	.st28{fill:none;stroke:#FF7012;stroke-miterlimit:10;}
	.st29{fill:#FF894B;}
	.st30{fill:none;stroke:#FF7012;stroke-linecap:round;stroke-linejoin:round;stroke-miterlimit:10;}
	.st31{fill:#0669BF;}
	.st32{fill:#0669BF;stroke:#FFFFFF;stroke-linecap:round;stroke-linejoin:round;stroke-miterlimit:10;}
	.st33{fill:#F4F4F4;}
	.st34{fill:#0444BF;}
	.st35{fill:#F2F6FF;}
	.st36{fill:#E7E7E7;}
	.st37{fill:#878787;}
	.st38{fill:#B2B2B2;}
	.st39{fill:#FFF8F0;}
	.st40{fill:#FFF1E3;}
	.st41{fill:none;stroke:#B2B2B2;stroke-width:0.5;stroke-miterlimit:10;}
	.st42{fill:#DADADA;}
	.st43{fill:none;stroke:#4A4A49;stroke-linecap:round;stroke-linejoin:round;stroke-miterlimit:10;}
	.st44{fill:none;stroke:#4A4A49;stroke-miterlimit:10;}
	.st45{fill:none;stroke:#F4F4F4;stroke-linecap:round;stroke-linejoin:round;stroke-miterlimit:10;}
	.st46{fill:none;stroke:#E7B600;stroke-miterlimit:10;}
	.st47{fill:none;stroke:#0684F2;stroke-miterlimit:10;}
	.st48{fill:#FF7012;stroke:#FFFFFF;stroke-linecap:round;stroke-linejoin:round;stroke-miterlimit:10;}
	.st49{fill:none;stroke:#606060;stroke-miterlimit:10;}
	.st50{fill:none;stroke:#FFFFFF;stroke-width:0.8;stroke-miterlimit:10;}
	.st51{fill:none;stroke:#FFFFFF;stroke-width:2;stroke-miterlimit:10;}
	.st52{fill:#FFFFFF;stroke:#FF7012;stroke-width:2;stroke-linecap:round;stroke-linejoin:round;stroke-miterlimit:10;}
	.st53{fill:none;stroke:#FF7012;stroke-width:2;stroke-linecap:round;stroke-linejoin:round;stroke-miterlimit:10;}
	.st54{fill:none;stroke:#FFFFFF;stroke-miterlimit:10;}
	.st55{fill:none;stroke:#FFFFFF;stroke-width:1.25;stroke-linecap:round;stroke-linejoin:round;stroke-miterlimit:10;}
	.st56{fill:#4A4A49;stroke:#FFFFFF;stroke-miterlimit:10;}
	.st57{fill:#FF7012;stroke:#FFFFFF;stroke-miterlimit:10;}
	.st58{fill:none;stroke:#FF7012;stroke-linecap:round;stroke-miterlimit:10;}
</style>
<g>
	<g>
		<path class="st2" d="M16.4,0c1.3,0.27,2.25,1.12,3.15,2c1.93,1.9,3.84,3.83,5.73,5.77c0.61,0.63,1.18,1.31,1.46,2.16
			c0.11,0.32,0.17,0.67,0.17,1c0.01,6.17,0.01,12.35,0.01,18.52c0,3.19-2.36,5.55-5.55,5.55c-5.27,0-10.55,0-15.82,0
			C2.36,35,0,32.64,0,29.45c0-8,0-15.99,0-23.99c0-2.75,1.96-5.01,4.66-5.39C4.72,0.06,4.78,0.02,4.85,0C8.7,0,12.55,0,16.4,0z
			 M2.67,17.5C2.67,17.5,2.68,17.5,2.67,17.5c0,3.94,0,7.88,0,11.83c0,0.68,0.11,1.33,0.54,1.9c0.6,0.79,1.42,1.1,2.38,1.1
			c1.95,0,3.9,0,5.84,0c3.3,0,6.61,0,9.91,0c0.94,0,1.73-0.32,2.33-1.08c0.44-0.56,0.56-1.2,0.56-1.89c0-2.06,0-4.12,0-6.19
			c0-3.63,0-7.27,0-10.9c0-0.86-0.32-1.27-1.17-1.4c-0.57-0.09-1.16-0.1-1.74-0.1c-1.23-0.02-2.46,0-3.69-0.01
			c-0.74,0-1.25-0.34-1.42-0.94c-0.06-0.23-0.07-0.47-0.07-0.71c-0.01-1.62-0.01-3.24-0.04-4.85c-0.01-0.3-0.08-0.61-0.19-0.89
			c-0.17-0.46-0.53-0.69-1.03-0.69c-3.1,0.01-6.2,0.01-9.3,0.01c-0.69,0-1.33,0.15-1.88,0.59C2.93,3.89,2.67,4.74,2.67,5.71
			C2.68,9.64,2.67,13.57,2.67,17.5z"/>
		<path class="st2" d="M13.42,16.14c-2.19,0-4.37,0-6.56,0c-0.83,0-1.41-0.51-1.45-1.23c-0.05-0.85,0.55-1.43,1.49-1.43
			c2.41,0,4.83,0,7.24,0c1.97,0,3.94,0,5.91,0c0.81,0,1.41,0.52,1.45,1.24c0.05,0.82-0.53,1.41-1.43,1.42
			c-1.22,0.01-2.44,0.01-3.65,0.01C15.43,16.14,14.42,16.14,13.42,16.14C13.42,16.14,13.42,16.14,13.42,16.14z"/>
		<path class="st2" d="M13.48,24.25c2.17,0,4.35,0,6.52,0c0.59,0,1.09,0.18,1.36,0.73c0.48,0.97-0.17,1.93-1.32,1.94
			c-1.07,0.01-2.14,0.01-3.21,0.01c-3.3,0-6.6,0-9.91,0c-0.71,0-1.19-0.3-1.42-0.86c-0.32-0.79,0.19-1.68,1.04-1.78
			c0.35-0.04,0.7-0.04,1.06-0.04C9.56,24.24,11.52,24.25,13.48,24.25C13.48,24.25,13.48,24.25,13.48,24.25z"/>
		<path class="st2" d="M12.08,21.53c-1.74,0-3.48,0-5.23,0c-0.8,0-1.39-0.51-1.44-1.21c-0.06-0.84,0.53-1.44,1.44-1.45
			c1.42-0.01,2.85-0.01,4.27-0.01c2.07,0,4.15,0.01,6.22,0c0.58,0,1.06,0.19,1.32,0.73c0.47,0.96-0.17,1.93-1.29,1.93
			C15.61,21.54,13.84,21.53,12.08,21.53z"/>
	</g>
</g>
</svg>
