<svg width="22" height="22" viewBox="0 0 22 22" fill="none" xmlns="http://www.w3.org/2000/svg">
<path d="M10.72 0C4.8 0 0 4.8 0 10.72C0 16.64 4.8 21.44 10.72 21.44C16.64 21.44 21.44 16.64 21.44 10.72C21.44 4.8 16.64 0 10.72 0ZM16.69 7.06C16.69 7.09 16.69 7.16 16.63 7.25C16.36 7.62 16.06 7.95 15.7 8.22C15.65 8.26 15.56 8.3 15.56 8.38C15.56 10.31 15.07 12.24 13.66 13.64C11.87 15.42 9.18 15.91 6.79 15.25C6.33 15.12 5.89 14.94 5.46 14.72C5.32 14.64 5.18 14.56 5.05 14.47C5.02 14.44 4.99 14.42 5.02 14.4C5.05 14.39 5.07 14.38 5.18 14.4C5.85 14.47 6.54 14.37 7.17 14.15C7.52 14.03 8.26 13.78 8.48 13.46C8.49 13.45 8.49 13.45 8.5 13.44C8.41 13.42 8.33 13.42 8.24 13.4C7.59 13.21 6.72 12.89 6.32 11.8C6.29 11.74 6.32 11.7 6.39 11.72C6.92 11.76 7.12 11.73 7.3 11.69C7.2 11.67 7.09 11.64 6.99 11.6C6.17 11.29 5.58 10.49 5.47 9.63C5.46 9.53 5.45 9.45 5.45 9.35C5.46 9.29 5.48 9.27 5.54 9.3C5.96 9.52 6.43 9.57 6.47 9.56C6.37 9.48 6.27 9.39 6.17 9.3C5.46 8.63 5.19 7.26 5.75 6.41C5.8 6.34 5.83 6.34 5.88 6.41C7.18 7.89 8.77 8.58 10.7 8.86C10.75 8.87 10.76 8.86 10.75 8.8C10.7 8.46 10.69 8.13 10.78 7.79C10.86 7.44 11.03 7.11 11.26 6.84C11.48 6.57 11.75 6.35 12.06 6.19C12.37 6.03 12.7 5.93 13.05 5.91C13.4 5.89 13.76 5.94 14.09 6.08C14.34 6.18 14.56 6.32 14.77 6.5C14.81 6.54 14.85 6.58 14.89 6.63C14.92 6.66 14.95 6.67 14.99 6.66C15.48 6.54 15.95 6.36 16.39 6.12C16.41 6.11 16.43 6.1 16.45 6.11C16.47 6.13 16.46 6.15 16.45 6.17C16.37 6.43 16.23 6.67 16.06 6.89C15.95 7.03 15.67 7.37 15.48 7.41C15.88 7.34 16.29 7.24 16.66 7.07C16.71 7.05 16.71 7.04 16.71 7.07C16.69 7.05 16.69 7.05 16.69 7.06Z" fill="black"/>
</svg>
