<?xml version="1.0" encoding="utf-8"?>
<!-- Generator: Adobe Illustrator 24.0.2, SVG Export Plug-In . SVG Version: 6.00 Build 0)  -->
<svg version="1.1" xmlns="http://www.w3.org/2000/svg" xmlns:xlink="http://www.w3.org/1999/xlink" x="0px" y="0px"
	 viewBox="0 0 24.5 24.5" style="enable-background:new 0 0 24.5 24.5;" xml:space="preserve">
<style type="text/css">
	.st0{fill:#FFFFFF;}
	.st1{fill:#0444BF;}
	.st2{fill:#F4F4F4;}
	.st3{fill:#8C8C8A;}
	.st4{fill:none;stroke:#4A4A49;stroke-width:1.6;stroke-linecap:round;stroke-linejoin:round;stroke-miterlimit:10;}
	.st5{fill:#E7E7E7;}
	.st6{fill:none;stroke:#4A4A49;stroke-width:0.5;stroke-miterlimit:10;}
	.st7{fill:#F5F9FF;}
	.st8{fill:none;stroke:#575756;stroke-width:0.25;stroke-miterlimit:10;}
	.st9{fill:#CDFF00;}
	.st10{fill:none;stroke:#4A4A49;stroke-miterlimit:10;}
	.st11{fill:#F4F4F4;stroke:#4A4A49;stroke-width:0.5;stroke-miterlimit:10;}
	.st12{fill:none;stroke:#494949;stroke-width:0.5;stroke-miterlimit:10;}
	.st13{fill:#AFCA13;}
	.st14{fill:#FF7523;}
	.st15{fill:#0454CA;}
	.st16{fill:#FF8800;}
	.st17{clip-path:url(#SVGID_2_);}
	.st18{fill:#E52421;}
	.st19{fill:none;stroke:#A69674;stroke-width:0.75;stroke-miterlimit:10;}
	.st20{fill:#0684F2;}
	.st21{fill:#F2F6FF;}
	.st22{fill:#878787;}
	.st23{fill:#4A4A49;}
	.st24{fill:#B2B2B2;}
	.st25{fill:#00C356;}
	.st26{fill:#FF4E55;}
	.st27{fill:#FF894B;}
	.st28{fill:#FF7012;}
	.st29{fill:#FFF8F0;}
	.st30{fill:#FFF1E3;}
	.st31{fill:#0669BF;}
	.st32{fill:#FFFFFF;stroke:#4A4A49;stroke-width:0.5;stroke-miterlimit:10;}
	.st33{fill:none;stroke:#FF8928;stroke-miterlimit:10;}
	.st34{fill:#FF8928;}
	.st35{fill:none;stroke:#4A4A49;stroke-width:0.25;stroke-miterlimit:10;}
	.st36{fill:none;stroke:#B2B2B2;stroke-width:0.5;stroke-miterlimit:10;}
	.st37{fill:none;stroke:#FFFFFF;stroke-miterlimit:10;}
	.st38{fill:none;stroke:#FFFFFF;stroke-linecap:round;stroke-linejoin:round;stroke-miterlimit:10;}
	.st39{fill:none;stroke:#4A4A49;stroke-width:1.75;stroke-linecap:round;stroke-linejoin:round;stroke-miterlimit:10;}
	.st40{fill:#FFFFFF;stroke:#4A4A49;stroke-width:1.75;stroke-linecap:round;stroke-linejoin:round;stroke-miterlimit:10;}
	.st41{fill:#FFFFFF;stroke:#4A4A49;stroke-width:1.6;stroke-linecap:round;stroke-linejoin:round;stroke-miterlimit:10;}
	.st42{fill:#EDEDED;}
	.st43{fill:#082359;}
	.st44{fill:#FFC200;}
	.st45{clip-path:url(#SVGID_4_);}
	.st46{fill:#F9DCA4;}
	.st47{fill:#DEC492;}
	.st48{fill:#677079;}
	.st49{fill:#FFE8BE;}
	.st50{fill:#434955;}
	.st51{fill:#1D1D1D;}
	.st52{fill:#FF8610;}
	.st53{clip-path:url(#SVGID_6_);}
	.st54{fill:none;stroke:#494949;stroke-width:0.5;stroke-linecap:round;stroke-linejoin:round;stroke-miterlimit:10;}
	.st55{clip-path:url(#SVGID_8_);fill:#026847;}
	.st56{clip-path:url(#SVGID_8_);fill:#FFFFFF;}
	.st57{clip-path:url(#SVGID_8_);fill:#E52421;}
	.st58{clip-path:url(#SVGID_10_);fill:#006847;}
	.st59{clip-path:url(#SVGID_10_);fill:#ECE13C;}
	.st60{clip-path:url(#SVGID_10_);fill:#CF2011;}
	.st61{clip-path:url(#SVGID_12_);fill:#F8CD16;}
	.st62{clip-path:url(#SVGID_12_);fill:#00388F;}
	.st63{clip-path:url(#SVGID_12_);fill:#CA1126;}
	.st64{clip-path:url(#SVGID_14_);fill:#E52421;}
	.st65{clip-path:url(#SVGID_14_);fill:#FFFFFF;}
	.st66{fill:none;stroke:#FFFFFF;stroke-width:0.5;stroke-miterlimit:10;}
	.st67{fill:#0444BF;stroke:#FFFFFF;stroke-width:1.5;stroke-miterlimit:10;}
	.st68{fill:none;stroke:#FFFFFF;stroke-width:1.5;stroke-miterlimit:10;}
	.st69{fill:none;stroke:#FFFFFF;stroke-width:1.75;stroke-miterlimit:10;}
	.st70{fill:none;stroke:#0444BF;stroke-width:1.6;stroke-linecap:round;stroke-linejoin:round;stroke-miterlimit:10;}
	.st71{fill:#E7E7E7;stroke:#4A4A49;stroke-width:1.6;stroke-linecap:round;stroke-linejoin:round;stroke-miterlimit:10;}
	.st72{fill:#1023CC;}
</style>
<g id="base">
	<g>
		<path class="st0" d="M12.25,15.13c-1.83,0-3.4-1.37-3.66-3.18L8.31,9.97C8.16,8.91,8.48,7.83,9.18,7.03
			c0.7-0.81,1.72-1.27,2.79-1.27h0.56c1.07,0,2.09,0.46,2.79,1.27c0.7,0.81,1.02,1.88,0.87,2.94l-0.28,1.98
			C15.65,13.76,14.08,15.13,12.25,15.13z M11.97,7.25c-0.64,0-1.24,0.28-1.66,0.76C9.89,8.49,9.71,9.13,9.79,9.76l0.28,1.98
			c0.15,1.08,1.09,1.89,2.18,1.89s2.02-0.81,2.18-1.89l0.28-1.98c0.09-0.63-0.1-1.27-0.52-1.75c-0.42-0.48-1.02-0.76-1.66-0.76
			H11.97z"/>
		<path class="st0" d="M12.25,0C5.5,0,0,5.5,0,12.25S5.5,24.5,12.25,24.5S24.5,19,24.5,12.25S19,0,12.25,0z M5.27,20.41
			c0.49-1.51,1.88-2.59,3.54-2.59h6.87c1.66,0,3.05,1.08,3.54,2.59C17.35,22.02,14.91,23,12.25,23S7.15,22.02,5.27,20.41z
			 M20.38,19.27c-0.85-1.74-2.63-2.94-4.69-2.94H8.81c-2.06,0-3.84,1.19-4.69,2.94c-1.63-1.88-2.62-4.33-2.62-7.02
			C1.5,6.32,6.32,1.5,12.25,1.5S23,6.32,23,12.25C23,14.93,22.01,17.38,20.38,19.27z"/>
	</g>
</g>
<g id="guías">
</g>
</svg>
