<?xml version="1.0" encoding="utf-8"?>
<!-- Generator: Adobe Illustrator 24.0.2, SVG Export Plug-In . SVG Version: 6.00 Build 0)  -->
<svg version="1.1" xmlns="http://www.w3.org/2000/svg" xmlns:xlink="http://www.w3.org/1999/xlink" x="0px" y="0px"
	 viewBox="0 0 24.75 24.75" style="enable-background:new 0 0 24.75 24.75;" xml:space="preserve">
<style type="text/css">
	.st0{fill:#FFFFFF;}
	.st1{fill:#0444BF;}
	.st2{fill:#F4F4F4;}
	.st3{fill:#8C8C8A;}
	.st4{fill:none;stroke:#4A4A49;stroke-width:1.6;stroke-linecap:round;stroke-linejoin:round;stroke-miterlimit:10;}
	.st5{fill:#E7E7E7;}
	.st6{fill:none;stroke:#4A4A49;stroke-width:0.5;stroke-miterlimit:10;}
	.st7{fill:#F5F9FF;}
	.st8{fill:none;stroke:#575756;stroke-width:0.25;stroke-miterlimit:10;}
	.st9{fill:#CDFF00;}
	.st10{fill:none;stroke:#4A4A49;stroke-miterlimit:10;}
	.st11{fill:#F4F4F4;stroke:#4A4A49;stroke-width:0.5;stroke-miterlimit:10;}
	.st12{fill:none;stroke:#494949;stroke-width:0.5;stroke-miterlimit:10;}
	.st13{fill:#AFCA13;}
	.st14{fill:#FF7523;}
	.st15{fill:#0454CA;}
	.st16{fill:#FF8800;}
	.st17{clip-path:url(#SVGID_2_);}
	.st18{fill:#E52421;}
	.st19{fill:none;stroke:#A69674;stroke-width:0.75;stroke-miterlimit:10;}
	.st20{fill:#0684F2;}
	.st21{fill:#F2F6FF;}
	.st22{fill:#878787;}
	.st23{fill:#4A4A49;}
	.st24{fill:#B2B2B2;}
	.st25{fill:#00C356;}
	.st26{fill:#FF4E55;}
	.st27{fill:#FF894B;}
	.st28{fill:#FF7012;}
	.st29{fill:#FFF8F0;}
	.st30{fill:#FFF1E3;}
	.st31{fill:#0669BF;}
	.st32{fill:#FFFFFF;stroke:#4A4A49;stroke-width:0.5;stroke-miterlimit:10;}
	.st33{fill:none;stroke:#FF8928;stroke-miterlimit:10;}
	.st34{fill:#FF8928;}
	.st35{fill:none;stroke:#4A4A49;stroke-width:0.25;stroke-miterlimit:10;}
	.st36{fill:none;stroke:#B2B2B2;stroke-width:0.5;stroke-miterlimit:10;}
	.st37{fill:none;stroke:#FFFFFF;stroke-miterlimit:10;}
	.st38{fill:none;stroke:#FFFFFF;stroke-linecap:round;stroke-linejoin:round;stroke-miterlimit:10;}
	.st39{fill:none;stroke:#4A4A49;stroke-width:1.75;stroke-linecap:round;stroke-linejoin:round;stroke-miterlimit:10;}
	.st40{fill:#FFFFFF;stroke:#4A4A49;stroke-width:1.75;stroke-linecap:round;stroke-linejoin:round;stroke-miterlimit:10;}
	.st41{fill:#FFFFFF;stroke:#4A4A49;stroke-width:1.6;stroke-linecap:round;stroke-linejoin:round;stroke-miterlimit:10;}
	.st42{fill:#EDEDED;}
	.st43{fill:#082359;}
	.st44{fill:#FFC200;}
	.st45{clip-path:url(#SVGID_4_);}
	.st46{fill:#F9DCA4;}
	.st47{fill:#DEC492;}
	.st48{fill:#677079;}
	.st49{fill:#FFE8BE;}
	.st50{fill:#434955;}
	.st51{fill:#1D1D1D;}
	.st52{fill:#FF8610;}
	.st53{clip-path:url(#SVGID_6_);}
	.st54{fill:none;stroke:#494949;stroke-width:0.5;stroke-linecap:round;stroke-linejoin:round;stroke-miterlimit:10;}
	.st55{clip-path:url(#SVGID_8_);fill:#026847;}
	.st56{clip-path:url(#SVGID_8_);fill:#FFFFFF;}
	.st57{clip-path:url(#SVGID_8_);fill:#E52421;}
	.st58{clip-path:url(#SVGID_10_);fill:#006847;}
	.st59{clip-path:url(#SVGID_10_);fill:#ECE13C;}
	.st60{clip-path:url(#SVGID_10_);fill:#CF2011;}
	.st61{clip-path:url(#SVGID_12_);fill:#F8CD16;}
	.st62{clip-path:url(#SVGID_12_);fill:#00388F;}
	.st63{clip-path:url(#SVGID_12_);fill:#CA1126;}
	.st64{clip-path:url(#SVGID_14_);fill:#E52421;}
	.st65{clip-path:url(#SVGID_14_);fill:#FFFFFF;}
	.st66{fill:none;stroke:#FFFFFF;stroke-width:0.5;stroke-miterlimit:10;}
	.st67{fill:#0444BF;stroke:#FFFFFF;stroke-width:1.5;stroke-miterlimit:10;}
	.st68{fill:none;stroke:#FFFFFF;stroke-width:1.5;stroke-miterlimit:10;}
	.st69{fill:none;stroke:#FFFFFF;stroke-width:1.75;stroke-miterlimit:10;}
	.st70{fill:none;stroke:#0444BF;stroke-width:1.6;stroke-linecap:round;stroke-linejoin:round;stroke-miterlimit:10;}
	.st71{fill:#E7E7E7;stroke:#4A4A49;stroke-width:1.6;stroke-linecap:round;stroke-linejoin:round;stroke-miterlimit:10;}
	.st72{fill:#1023CC;}
</style>
<g id="base">
	<g>
		<path class="st1" d="M9.04,10.78c0.23,1.66,1.66,2.9,3.34,2.9s3.1-1.24,3.34-2.9l0.32-2.26c0.29-2.03-1.29-3.84-3.34-3.84h-0.64
			c-2.05,0-3.62,1.81-3.34,3.84L9.04,10.78z"/>
		<path class="st1" d="M16.3,15.67H8.45c-2.06,0-3.81,1.22-4.62,2.99C5.76,21.29,8.87,23,12.38,23c3.51,0,6.61-1.71,8.55-4.34
			C20.11,16.9,18.36,15.67,16.3,15.67z"/>
		<path class="st0" d="M12.38,0C5.55,0,0,5.55,0,12.38s5.55,12.38,12.38,12.38s12.38-5.55,12.38-12.38S19.2,0,12.38,0z M12.06,4.68
			h0.64c2.05,0,3.62,1.81,3.34,3.84l-0.32,2.26c-0.23,1.66-1.66,2.9-3.34,2.9s-3.1-1.24-3.34-2.9L8.72,8.52
			C8.43,6.49,10.01,4.68,12.06,4.68z M12.38,23c-3.51,0-6.61-1.71-8.55-4.34c0.81-1.76,2.57-2.99,4.62-2.99h7.85
			c2.06,0,3.81,1.22,4.62,2.99C18.99,21.29,15.88,23,12.38,23z"/>
	</g>
</g>
<g id="guías">
</g>
</svg>
