<?xml version="1.0" encoding="utf-8"?>
<!-- Generator: Adobe Illustrator 24.0.2, SVG Export Plug-In . SVG Version: 6.00 Build 0)  -->
<svg version="1.1" xmlns="http://www.w3.org/2000/svg" xmlns:xlink="http://www.w3.org/1999/xlink" x="0px" y="0px"
	 viewBox="0 0 29.64 31.64" style="enable-background:new 0 0 29.64 31.64;" xml:space="preserve">
<style type="text/css">
	.st0{fill:#FF7523;}
	.st1{fill:#FFFFFF;}
	.st2{fill:#F4F4F4;}
	.st3{fill:#FFFFFF;stroke:#30CC44;stroke-miterlimit:10;}
	.st4{fill:#30CC44;}
	.st5{fill:#606060;}
	.st6{fill:#0684F2;}
	.st7{fill:#FAFAFA;stroke:#DADADA;stroke-width:0.25;stroke-miterlimit:10;}
	.st8{fill:none;stroke:#4A4A49;stroke-width:0.25;stroke-miterlimit:10;}
	.st9{fill:#E6EEFA;}
	.st10{fill:#FE2725;}
	.st11{fill:#EDEDED;}
	.st12{fill:#00C65A;}
	.st13{fill:#E9E9E6;}
	.st14{opacity:0.75;}
	.st15{fill:#FF8800;}
	.st16{opacity:0.5;fill:none;stroke:#B2B2B2;stroke-miterlimit:10;}
	.st17{fill:none;stroke:#0444BF;stroke-width:0.75;stroke-miterlimit:10;}
	.st18{fill:#F5F9FF;}
	.st19{fill:none;stroke:#B2B2B2;stroke-width:0.25;stroke-miterlimit:10;}
	.st20{fill:none;stroke:#0AAFF1;stroke-miterlimit:10;}
	.st21{fill:#CFFFE6;}
	.st22{fill:none;stroke:#4A4A49;stroke-width:0.5;stroke-miterlimit:10;}
	.st23{fill:#CFFFE6;stroke:#4A4A49;stroke-width:0.5;stroke-linecap:round;stroke-linejoin:round;stroke-miterlimit:10;}
	.st24{fill:#5D5D5D;}
	.st25{fill:none;stroke:#0444BF;stroke-width:0.5;stroke-miterlimit:10;}
	.st26{opacity:0.3;fill:#0684F2;}
	.st27{fill:none;stroke:#0AAFF1;stroke-width:0.75;stroke-miterlimit:10;}
	.st28{fill:none;stroke:#4A4A49;stroke-miterlimit:10;}
	.st29{fill:#C0CFF0;}
	.st30{fill:#D6E8FB;}
	.st31{clip-path:url(#SVGID_9_);}
	.st32{fill:none;stroke:#0684F2;stroke-width:0.5;stroke-linecap:round;stroke-linejoin:round;stroke-miterlimit:10;}
	.st33{fill:none;stroke:#0684F2;stroke-linecap:round;stroke-linejoin:round;stroke-miterlimit:10;}
	.st34{fill:#CFFFE6;stroke:#0684F2;stroke-linecap:round;stroke-linejoin:round;stroke-miterlimit:10;}
	.st35{fill:#E02107;}
	.st36{fill:#FFC715;}
	.st37{fill:#2B9FE0;}
	.st38{fill:#8FC912;}
	.st39{fill:#F2F0E6;}
	.st40{fill:#014B8E;}
	.st41{fill:#F57D31;}
	.st42{fill:#EB001B;}
	.st43{fill:#F79E1B;}
	.st44{fill:#FF5F00;}
	.st45{fill:#306FC5;}
	.st46{fill:#00529E;}
	.st47{fill:#244298;}
	.st48{fill:#FBBA00;}
	.st49{fill:none;stroke:#494949;stroke-width:0.5;stroke-miterlimit:10;}
	.st50{fill:none;stroke:#494949;stroke-width:0.5;stroke-linecap:round;stroke-linejoin:round;stroke-miterlimit:10;}
	.st51{fill:#4A4A49;}
	.st52{clip-path:url(#SVGID_11_);fill:#026847;}
	.st53{clip-path:url(#SVGID_11_);fill:#FFFFFF;}
	.st54{clip-path:url(#SVGID_11_);fill:#E52421;}
	.st55{clip-path:url(#SVGID_13_);fill:#006847;}
	.st56{clip-path:url(#SVGID_13_);fill:#ECE13C;}
	.st57{clip-path:url(#SVGID_13_);fill:#CF2011;}
	.st58{clip-path:url(#SVGID_15_);fill:#F8CD16;}
	.st59{clip-path:url(#SVGID_15_);fill:#00388F;}
	.st60{clip-path:url(#SVGID_15_);fill:#CA1126;}
	.st61{clip-path:url(#SVGID_17_);fill:#E52421;}
	.st62{clip-path:url(#SVGID_17_);fill:#FFFFFF;}
	.st63{fill:#00C356;}
	.st64{fill:#FFA2B0;}
	.st65{fill:none;stroke:#FFFFFF;stroke-linecap:round;stroke-linejoin:round;stroke-miterlimit:10;}
	.st66{fill:#0444BF;}
	.st67{fill:#F2F6FF;}
	.st68{fill:#E7E7E7;}
	.st69{fill:#878787;}
	.st70{fill:#B2B2B2;}
	.st71{fill:#FF4E55;}
	.st72{fill:#FF894B;}
	.st73{fill:#FF7012;}
	.st74{fill:#FFF8F0;}
	.st75{fill:#FFF1E3;}
	.st76{fill:#0669BF;}
	.st77{fill:#F7F4ED;}
	.st78{fill:#F5F1E5;}
	.st79{fill:#F5EEE1;}
	.st80{fill:#F4F4F4;stroke:#4A4A49;stroke-width:0.5;stroke-miterlimit:10;}
	.st81{fill:none;stroke:#FFFFFF;stroke-miterlimit:10;}
	.st82{fill:none;stroke:#B2B2B2;stroke-width:0.5;stroke-miterlimit:10;}
	.st83{opacity:0.5;}
	.st84{fill:none;stroke:#30CC44;stroke-width:3;stroke-miterlimit:10;}
	.st85{opacity:0.5;fill:#005873;}
	.st86{fill:none;stroke:#30CC44;stroke-width:0.75;stroke-miterlimit:10;}
	.st87{fill:none;stroke:#30CC44;stroke-width:2;stroke-linecap:round;stroke-miterlimit:10;}
	.st88{fill:#F4F4F4;stroke:#30CC44;stroke-miterlimit:10;}
	.st89{fill:#30CC44;stroke:#F4F4F4;stroke-miterlimit:10;}
	.st90{fill:none;stroke:#30CC44;stroke-width:2;stroke-miterlimit:10;}
	.st91{fill:none;stroke:#30CC44;stroke-width:2;stroke-linecap:round;stroke-linejoin:round;stroke-miterlimit:10;}
	.st92{fill:none;stroke:#30CC44;stroke-miterlimit:10;}
	.st93{fill:#F1F1EE;}
	.st94{fill:#C1C1BF;}
	.st95{fill:#F0EAE1;}
	.st96{fill:#00AED6;}
	.st97{fill:#E4FF6F;}
	.st98{opacity:0.5;fill:#00AED6;}
	.st99{fill:none;stroke:#00AED6;stroke-width:2.75;stroke-miterlimit:10;}
	.st100{fill:none;stroke:#00AED6;stroke-width:2.75;stroke-linecap:round;stroke-linejoin:round;stroke-miterlimit:10;}
	.st101{opacity:0.5;fill:none;stroke:#00AED6;stroke-width:1.75;stroke-miterlimit:10;}
	.st102{clip-path:url(#SVGID_19_);}
	.st103{fill:#E52421;}
	.st104{fill:#FFC200;}
	.st105{clip-path:url(#SVGID_21_);}
	.st106{fill:#F9DCA4;}
	.st107{fill:#DEC492;}
	.st108{fill:#677079;}
	.st109{fill:#FFE8BE;}
	.st110{fill:#434955;}
	.st111{fill:#1D1D1D;}
	.st112{fill:#FF8610;}
	.st113{fill:#AFCA13;}
	.st114{fill:none;stroke:#FFFFFF;stroke-width:0.5;stroke-miterlimit:10;}
	.st115{clip-path:url(#SVGID_22_);fill:#FFFFFF;}
	.st116{clip-path:url(#SVGID_22_);fill:#E52421;}
	.st117{clip-path:url(#SVGID_22_);fill:#0035A9;}
	.st118{fill:#2EC8FF;}
	.st119{clip-path:url(#SVGID_24_);}
	.st120{fill:#0454CA;}
	.st121{clip-path:url(#SVGID_26_);}
</style>
<g id="base">
	<g>
		<path class="st1" d="M29.24,29.29l-5.71-5.71c0.07-0.09,0.14-0.18,0.21-0.28c0.01-0.01,0.02-0.02,0.03-0.04
			c0.29-0.41,0.55-0.84,0.77-1.29v0l0,0c0.63-1.28,1-2.71,1-4.23c0-2.06-0.66-3.96-1.77-5.52c-0.01-0.01-0.02-0.02-0.03-0.04
			c-0.29-0.4-0.6-0.78-0.95-1.14l0,0l0,0c-1.73-1.76-4.14-2.86-6.8-2.86c-5.27,0-9.55,4.28-9.55,9.55c0,5.27,4.28,9.55,9.55,9.55
			c2.08,0,4-0.67,5.57-1.8l5.74,5.74c0.27,0.27,0.62,0.4,0.97,0.4s0.7-0.13,0.97-0.4C29.78,30.7,29.78,29.83,29.24,29.29z
			 M9.19,17.75c0-3.75,3.05-6.8,6.8-6.8s6.8,3.05,6.8,6.8c0,3.75-3.05,6.8-6.8,6.8S9.19,21.5,9.19,17.75z"/>
		<path class="st1" d="M21.67,28.79H2.88c-0.62,0-1.13-0.5-1.13-1.13V2.88c0-0.62,0.5-1.13,1.13-1.13h14.26
			c0.08,0,0.16,0.03,0.21,0.09l0.27,0.27V5.2c0,0.93,0.75,1.68,1.68,1.68h3.09l0.27,0.27c0.08,0.08,0.13,0.2,0.13,0.32v1.84
			c0.65,0.53,1.24,1.13,1.75,1.79V7.47c0-0.58-0.24-1.15-0.65-1.56L18.58,0.6C18.2,0.22,17.67,0,17.13,0H2.88C1.29,0,0,1.29,0,2.88
			v24.79c0,1.59,1.29,2.88,2.88,2.88h18.79c0.85,0,1.6-0.38,2.13-0.96l-1.25-1.25C22.34,28.6,22.03,28.79,21.67,28.79z"/>
		<path class="st1" d="M20.6,14.77h-8.42v1.22h9.01C21.05,15.55,20.85,15.14,20.6,14.77z"/>
		<path class="st1" d="M21.49,17.75c0-0.1-0.01-0.2-0.02-0.3h-9.29v1.22h9.23C21.46,18.37,21.49,18.06,21.49,17.75z"/>
		<path class="st1" d="M12.18,20.13v1.22h7.96c0.32-0.37,0.59-0.78,0.8-1.22H12.18z"/>
	</g>
</g>
<g id="guías">
</g>
</svg>
