<svg width="22" height="22" viewBox="0 0 22 22" fill="none" xmlns="http://www.w3.org/2000/svg">
<path d="M10.68 0C4.78 0 0 4.78 0 10.68C0 16.58 4.78 21.36 10.68 21.36C16.58 21.36 21.36 16.58 21.36 10.68C21.36 4.78 16.57 0 10.68 0ZM16.43 12.19C16.43 13.59 15.3 14.72 13.9 14.72H7.44C6.04 14.72 4.91 13.59 4.91 12.19V9.18C4.91 7.78 6.04 6.65 7.44 6.65H13.9C15.3 6.65 16.43 7.78 16.43 9.18V12.19Z" fill="black"/>
<path d="M12.51 10.61L9.74 9.09999C9.63 9.03999 9.24 9.11999 9.24 9.24999V12.19C9.24 12.32 9.63 12.4 9.74 12.34L12.64 10.91C12.75 10.84 12.63 10.68 12.51 10.61Z" fill="black"/>
</svg>
