<?xml version="1.0" encoding="utf-8"?>
<!-- Generator: Adobe Illustrator 24.0.2, SVG Export Plug-In . SVG Version: 6.00 Build 0)  -->
<svg version="1.1" id="Capa_1" xmlns="http://www.w3.org/2000/svg" xmlns:xlink="http://www.w3.org/1999/xlink" x="0px" y="0px"
	 viewBox="0 0 21.02 26.35" style="enable-background:new 0 0 21.02 26.35;" xml:space="preserve">
<style type="text/css">
	.st0{fill:#FF7012;}
	.st1{fill:#43BAFF;}
	.st2{fill:#FFFFFF;}
	.st3{fill:none;stroke:#FF7012;stroke-width:0.75;stroke-miterlimit:10;}
	.st4{fill:#4A4A49;}
	.st5{fill:#4A4A49;stroke:#FFFFFF;stroke-linecap:round;stroke-linejoin:round;stroke-miterlimit:10;}
	.st6{fill:none;stroke:#FFFFFF;stroke-linecap:round;stroke-linejoin:round;stroke-miterlimit:10;}
	.st7{fill:none;stroke:#FFFFFF;stroke-linecap:round;stroke-miterlimit:10;}
	.st8{fill:none;stroke:#4A4A49;stroke-linecap:round;stroke-miterlimit:10;}
	.st9{fill:#0684F2;}
	.st10{fill:#FFCB0D;}
	.st11{fill:#00C356;}
	.st12{fill:none;}
	.st13{fill:#FF4E55;}
	.st14{fill:none;stroke:#FF4E55;stroke-width:2.24;stroke-linecap:round;stroke-linejoin:round;stroke-miterlimit:10;}
	.st15{clip-path:url(#SVGID_2_);}
	.st16{fill:#E52421;}
	.st17{fill:#FF8610;}
	.st18{fill:#FFC200;}
	.st19{clip-path:url(#SVGID_4_);}
	.st20{fill:#F9DCA4;}
	.st21{fill:#DEC492;}
	.st22{fill:#677079;}
	.st23{fill:#FFE8BE;}
	.st24{fill:#434955;}
	.st25{fill:#1D1D1D;}
	.st26{fill:none;stroke:#FF7012;stroke-width:0.75;stroke-linecap:round;stroke-linejoin:round;stroke-miterlimit:10;}
	.st27{fill:#FFA2B0;}
	.st28{fill:none;stroke:#FF7012;stroke-miterlimit:10;}
	.st29{fill:#FF894B;}
	.st30{fill:none;stroke:#FF7012;stroke-linecap:round;stroke-linejoin:round;stroke-miterlimit:10;}
	.st31{fill:#0669BF;}
	.st32{fill:#0669BF;stroke:#FFFFFF;stroke-linecap:round;stroke-linejoin:round;stroke-miterlimit:10;}
	.st33{fill:#F4F4F4;}
	.st34{fill:#0444BF;}
	.st35{fill:#F2F6FF;}
	.st36{fill:#E7E7E7;}
	.st37{fill:#878787;}
	.st38{fill:#B2B2B2;}
	.st39{fill:#FFF8F0;}
	.st40{fill:#FFF1E3;}
	.st41{fill:none;stroke:#B2B2B2;stroke-width:0.5;stroke-miterlimit:10;}
	.st42{fill:#DADADA;}
	.st43{fill:none;stroke:#4A4A49;stroke-linecap:round;stroke-linejoin:round;stroke-miterlimit:10;}
	.st44{fill:none;stroke:#4A4A49;stroke-miterlimit:10;}
	.st45{fill:none;stroke:#F4F4F4;stroke-linecap:round;stroke-linejoin:round;stroke-miterlimit:10;}
	.st46{fill:none;stroke:#E7B600;stroke-miterlimit:10;}
	.st47{fill:none;stroke:#0684F2;stroke-miterlimit:10;}
	.st48{fill:#FF7012;stroke:#FFFFFF;stroke-linecap:round;stroke-linejoin:round;stroke-miterlimit:10;}
	.st49{fill:none;stroke:#606060;stroke-miterlimit:10;}
	.st50{fill:none;stroke:#FFFFFF;stroke-width:0.8;stroke-miterlimit:10;}
	.st51{fill:none;stroke:#FFFFFF;stroke-width:2;stroke-miterlimit:10;}
	.st52{fill:#FFFFFF;stroke:#FF7012;stroke-width:2;stroke-linecap:round;stroke-linejoin:round;stroke-miterlimit:10;}
	.st53{fill:none;stroke:#FF7012;stroke-width:2;stroke-linecap:round;stroke-linejoin:round;stroke-miterlimit:10;}
	.st54{fill:none;stroke:#FFFFFF;stroke-miterlimit:10;}
	.st55{fill:none;stroke:#FFFFFF;stroke-width:1.25;stroke-linecap:round;stroke-linejoin:round;stroke-miterlimit:10;}
	.st56{fill:#4A4A49;stroke:#FFFFFF;stroke-miterlimit:10;}
	.st57{fill:#FF7012;stroke:#FFFFFF;stroke-miterlimit:10;}
	.st58{fill:none;stroke:#FF7012;stroke-linecap:round;stroke-miterlimit:10;}
</style>
<g>
	<path class="st0" d="M21.02,4.55c0-0.11-0.05-0.21-0.12-0.27l-4.15-4.15C16.68,0.05,16.58,0,16.47,0c0,0,0,0,0,0s0,0,0,0H2
		C0.9,0,0,0.89,0,2v22.36c0,1.1,0.9,2,2,2h17.03c1.1,0,2-0.9,2-2V4.55C21.02,4.56,21.02,4.56,21.02,4.55
		C21.02,4.55,21.02,4.55,21.02,4.55z M16.85,1.29l2.89,2.89h-2.1c-0.44,0-0.79-0.36-0.79-0.79V1.29z M2,0.75h14.1v2.63
		c0,0.85,0.69,1.54,1.54,1.54h2.63v14.01H0.75V2C0.75,1.31,1.31,0.75,2,0.75z M19.03,25.6H2c-0.69,0-1.25-0.56-1.25-1.25v-4.67
		h19.52v4.67C20.27,25.04,19.71,25.6,19.03,25.6z"/>
	<path class="st0" d="M10.98,13.64c-0.04-0.11-0.11-0.19-0.23-0.19c-0.14,0-0.28-0.01-0.42-0.01c-0.17,0-0.25,0.06-0.3,0.23
		c-0.18,0.54-0.36,1.08-0.53,1.62c-0.15,0.45-0.3,0.91-0.45,1.36c-0.06,0.18,0.01,0.28,0.2,0.28c0.42,0,0.85,0,1.27,0
		c0.42,0,0.85,0,1.27,0c0.18,0,0.25-0.1,0.2-0.27c-0.18-0.54-0.36-1.08-0.54-1.62C11.29,14.57,11.14,14.1,10.98,13.64z M11.01,16.42
		c-0.17,0-0.35,0-0.52,0c-0.17,0-0.33,0-0.5,0c-0.08,0-0.1-0.02-0.08-0.11c0.09-0.35,0.09-0.35,0.44-0.35c0.18,0,0.36,0,0.54,0
		c0.07,0,0.11,0.02,0.13,0.09c0.02,0.08,0.04,0.16,0.07,0.24C11.13,16.38,11.1,16.42,11.01,16.42z"/>
	<path class="st0" d="M8.6,3.64h2.13c0.21,0,0.38-0.17,0.38-0.38s-0.17-0.38-0.38-0.38H8.6c-0.21,0-0.38,0.17-0.38,0.38
		S8.39,3.64,8.6,3.64z"/>
	<path class="st0" d="M10.13,4.56c0,0.21,0.17,0.38,0.38,0.38h1.92c0.21,0,0.38-0.17,0.38-0.38s-0.17-0.38-0.38-0.38h-1.92
		C10.3,4.18,10.13,4.35,10.13,4.56z"/>
	<path class="st0" d="M8.6,6.23h2.13c0.21,0,0.38-0.17,0.38-0.38s-0.17-0.38-0.38-0.38H8.6c-0.21,0-0.38,0.17-0.38,0.38
		S8.39,6.23,8.6,6.23z"/>
	<path class="st0" d="M8.6,8.83h2.13c0.21,0,0.38-0.17,0.38-0.38s-0.17-0.38-0.38-0.38H8.6c-0.21,0-0.38,0.17-0.38,0.38
		S8.39,8.83,8.6,8.83z"/>
	<path class="st0" d="M8.6,11.42h2.13c0.21,0,0.38-0.17,0.38-0.38s-0.17-0.38-0.38-0.38H8.6c-0.21,0-0.38,0.17-0.38,0.38
		S8.39,11.42,8.6,11.42z"/>
	<path class="st0" d="M12.42,9.37H10.3c-0.21,0-0.38,0.17-0.38,0.38s0.17,0.38,0.38,0.38h2.13c0.21,0,0.38-0.17,0.38-0.38
		S12.63,9.37,12.42,9.37z"/>
	<path class="st0" d="M12.42,11.97H10.3c-0.21,0-0.38,0.17-0.38,0.38s0.17,0.38,0.38,0.38h2.13c0.21,0,0.38-0.17,0.38-0.38
		S12.63,11.97,12.42,11.97z"/>
	<path class="st0" d="M12.42,6.78h-1.92c-0.21,0-0.38,0.17-0.38,0.38s0.17,0.38,0.38,0.38h1.92c0.21,0,0.38-0.17,0.38-0.38
		S12.63,6.78,12.42,6.78z"/>
</g>
</svg>
