<?xml version="1.0" encoding="utf-8"?>
<!-- Generator: Adobe Illustrator 24.0.2, SVG Export Plug-In . SVG Version: 6.00 Build 0)  -->
<svg version="1.1" xmlns="http://www.w3.org/2000/svg" xmlns:xlink="http://www.w3.org/1999/xlink" x="0px" y="0px"
	 viewBox="0 0 348.41 356.2" style="enable-background:new 0 0 348.41 356.2;" xml:space="preserve">
<style type="text/css">
	.st0{fill:#FFFFFF;}
	.st1{fill:#C0CFF0;}
	.st2{fill:#FFFFFF;stroke:#C0CFF0;stroke-width:2;stroke-miterlimit:10;}
	.st3{fill:#D6E8FB;stroke:#C0CFF0;stroke-width:2;stroke-miterlimit:10;}
	.st4{fill:#FFFFFF;stroke:#C0CFF0;stroke-linecap:round;stroke-linejoin:round;stroke-miterlimit:10;}
	.st5{clip-path:url(#SVGID_10_);}
	.st6{fill:none;stroke:#C0CFF0;stroke-width:0.75;stroke-miterlimit:10;}
	.st7{fill:#CFFFE6;}
	.st8{fill:none;stroke:#0684F2;stroke-width:0.5;stroke-linecap:round;stroke-linejoin:round;stroke-miterlimit:10;}
	.st9{fill:none;stroke:#0684F2;stroke-linecap:round;stroke-linejoin:round;stroke-miterlimit:10;}
	.st10{fill:#CFFFE6;stroke:#0684F2;stroke-linecap:round;stroke-linejoin:round;stroke-miterlimit:10;}
	.st11{fill:#E02107;}
	.st12{fill:#FFC715;}
	.st13{fill:#2B9FE0;}
	.st14{fill:#8FC912;}
	.st15{fill:#F5F9FF;}
	.st16{fill:#72C9FF;}
	.st17{fill:#0444BF;}
	.st18{fill:#AFCA13;}
	.st19{fill:none;stroke:#DADADA;stroke-width:0.5;stroke-miterlimit:10;}
	.st20{fill:#29ED65;}
	.st21{clip-path:url(#SVGID_12_);}
	.st22{fill:#35180F;}
	.st23{opacity:0.5;}
	.st24{clip-path:url(#SVGID_14_);}
	.st25{fill:#FF828A;}
	.st26{fill:#272A35;}
	.st27{fill:#251D8A;}
	.st28{clip-path:url(#SVGID_16_);}
	.st29{opacity:0.25;clip-path:url(#SVGID_18_);}
	.st30{clip-path:url(#SVGID_20_);fill:#0F1ADE;}
	.st31{clip-path:url(#SVGID_22_);fill:#0F1ADE;}
	.st32{opacity:0.5;clip-path:url(#SVGID_24_);}
	.st33{clip-path:url(#SVGID_26_);fill:#FFFFFF;}
	.st34{clip-path:url(#SVGID_28_);fill:#FFFFFF;}
	.st35{clip-path:url(#SVGID_30_);fill:#FFFFFF;}
	.st36{clip-path:url(#SVGID_32_);fill:#FFFFFF;}
	.st37{clip-path:url(#SVGID_34_);fill:#FFFFFF;}
	.st38{clip-path:url(#SVGID_36_);fill:#FFFFFF;}
	.st39{clip-path:url(#SVGID_38_);fill:#FFFFFF;}
	.st40{clip-path:url(#SVGID_40_);fill:#FFFFFF;}
	.st41{clip-path:url(#SVGID_42_);fill:#FFFFFF;}
	.st42{clip-path:url(#SVGID_44_);fill:#FFFFFF;}
	.st43{clip-path:url(#SVGID_46_);fill:#FFFFFF;}
	.st44{clip-path:url(#SVGID_48_);fill:#FFFFFF;}
	.st45{clip-path:url(#SVGID_50_);fill:#FFFFFF;}
	.st46{clip-path:url(#SVGID_52_);fill:#FFFFFF;}
	.st47{clip-path:url(#SVGID_54_);fill:#FFFFFF;}
	.st48{opacity:0.5;clip-path:url(#SVGID_56_);}
	.st49{clip-path:url(#SVGID_58_);fill:#FFFFFF;}
	.st50{clip-path:url(#SVGID_60_);fill:#FFFFFF;}
	.st51{clip-path:url(#SVGID_62_);fill:#FFFFFF;}
	.st52{clip-path:url(#SVGID_64_);fill:#FFFFFF;}
	.st53{clip-path:url(#SVGID_66_);fill:#FFFFFF;}
	.st54{clip-path:url(#SVGID_68_);fill:#FFFFFF;}
	.st55{clip-path:url(#SVGID_70_);fill:#FFFFFF;}
	.st56{clip-path:url(#SVGID_72_);fill:#FFFFFF;}
	.st57{clip-path:url(#SVGID_74_);fill:#FFFFFF;}
	.st58{clip-path:url(#SVGID_76_);fill:#FFFFFF;}
	.st59{clip-path:url(#SVGID_78_);fill:#FFFFFF;}
	.st60{clip-path:url(#SVGID_80_);fill:#FFFFFF;}
	.st61{clip-path:url(#SVGID_82_);fill:#FFFFFF;}
	.st62{clip-path:url(#SVGID_84_);fill:#FFFFFF;}
	.st63{clip-path:url(#SVGID_86_);fill:#FFFFFF;}
	.st64{clip-path:url(#SVGID_88_);fill:#FFFFFF;}
	.st65{clip-path:url(#SVGID_90_);fill:#FFFFFF;}
	.st66{clip-path:url(#SVGID_92_);}
	.st67{opacity:0.25;clip-path:url(#SVGID_94_);}
	.st68{clip-path:url(#SVGID_96_);fill:#0F1ADE;}
	.st69{clip-path:url(#SVGID_98_);fill:#0F1ADE;}
	.st70{opacity:0.5;clip-path:url(#SVGID_100_);}
	.st71{clip-path:url(#SVGID_102_);fill:#FFFFFF;}
	.st72{clip-path:url(#SVGID_104_);fill:#FFFFFF;}
	.st73{clip-path:url(#SVGID_106_);fill:#FFFFFF;}
	.st74{clip-path:url(#SVGID_108_);fill:#FFFFFF;}
	.st75{clip-path:url(#SVGID_110_);fill:#FFFFFF;}
	.st76{clip-path:url(#SVGID_112_);fill:#FFFFFF;}
	.st77{clip-path:url(#SVGID_114_);fill:#FFFFFF;}
	.st78{clip-path:url(#SVGID_116_);fill:#FFFFFF;}
	.st79{clip-path:url(#SVGID_118_);fill:#FFFFFF;}
	.st80{clip-path:url(#SVGID_120_);fill:#FFFFFF;}
	.st81{clip-path:url(#SVGID_122_);fill:#FFFFFF;}
	.st82{clip-path:url(#SVGID_124_);fill:#FFFFFF;}
	.st83{clip-path:url(#SVGID_126_);fill:#FFFFFF;}
	.st84{clip-path:url(#SVGID_128_);fill:#FFFFFF;}
	.st85{clip-path:url(#SVGID_130_);fill:#FFFFFF;}
	.st86{opacity:0.5;clip-path:url(#SVGID_132_);}
	.st87{clip-path:url(#SVGID_134_);fill:#FFFFFF;}
	.st88{clip-path:url(#SVGID_136_);fill:#FFFFFF;}
	.st89{clip-path:url(#SVGID_138_);fill:#FFFFFF;}
	.st90{clip-path:url(#SVGID_140_);fill:#FFFFFF;}
	.st91{clip-path:url(#SVGID_142_);fill:#FFFFFF;}
	.st92{clip-path:url(#SVGID_144_);fill:#FFFFFF;}
	.st93{clip-path:url(#SVGID_146_);fill:#FFFFFF;}
	.st94{clip-path:url(#SVGID_148_);fill:#FFFFFF;}
	.st95{clip-path:url(#SVGID_150_);fill:#FFFFFF;}
	.st96{clip-path:url(#SVGID_152_);fill:#FFFFFF;}
	.st97{clip-path:url(#SVGID_154_);fill:#FFFFFF;}
	.st98{clip-path:url(#SVGID_156_);fill:#FFFFFF;}
	.st99{clip-path:url(#SVGID_158_);fill:#FFFFFF;}
	.st100{clip-path:url(#SVGID_160_);fill:#FFFFFF;}
	.st101{clip-path:url(#SVGID_162_);fill:#FFFFFF;}
	.st102{clip-path:url(#SVGID_164_);fill:#FFFFFF;}
	.st103{clip-path:url(#SVGID_166_);fill:#FFFFFF;}
	.st104{fill:#F4D8C6;}
	.st105{fill:#004249;}
	.st106{opacity:0.75;}
	.st107{fill-rule:evenodd;clip-rule:evenodd;fill:#FFFFFF;}
	.st108{clip-path:url(#SVGID_168_);fill:#FF304A;}
	.st109{fill:#FBEAE2;}
	.st110{clip-path:url(#SVGID_170_);fill:#20201F;}
	.st111{clip-path:url(#SVGID_170_);}
	.st112{clip-path:url(#SVGID_170_);fill:#FFFFFF;}
	.st113{clip-path:url(#SVGID_172_);fill:#20201F;}
	.st114{clip-path:url(#SVGID_172_);}
	.st115{clip-path:url(#SVGID_172_);fill:#FFFFFF;}
	.st116{fill:#CB6858;}
	.st117{opacity:0.35;}
	.st118{clip-path:url(#SVGID_174_);fill:#FFFFFF;}
	.st119{clip-path:url(#SVGID_176_);fill:#FFFFFF;}
	.st120{fill:#FF383B;}
	.st121{fill:#3C3C3B;}
	.st122{fill:#5431FF;}
	.st123{fill:#F8CEB0;}
	.st124{fill:#1D1D1D;}
	.st125{fill:#EFB659;}
	.st126{fill:#003C54;}
	.st127{fill:#9D9D9C;}
	.st128{fill:#35261B;}
	.st129{fill:#F7CEAF;}
	.st130{fill:#CC6858;}
	.st131{fill:#DF806E;}
	.st132{fill:#004C92;}
	.st133{opacity:0.25;}
	.st134{clip-path:url(#SVGID_178_);fill:#FFFFFF;}
	.st135{clip-path:url(#SVGID_180_);fill:#FFFFFF;}
	.st136{clip-path:url(#SVGID_182_);fill:#FF304A;}
	.st137{clip-path:url(#SVGID_184_);fill:#FFDFBA;}
	.st138{clip-path:url(#SVGID_184_);fill:#0D274D;}
	.st139{clip-path:url(#SVGID_184_);fill:#FFEBD2;}
	.st140{clip-path:url(#SVGID_184_);fill:#42434D;}
	.st141{clip-path:url(#SVGID_184_);fill:#FFD6A6;}
	.st142{clip-path:url(#SVGID_184_);fill:#4D4E59;}
	.st143{clip-path:url(#SVGID_184_);fill:#FFF3E4;}
	.st144{fill:#F4A700;}
	.st145{clip-path:url(#SVGID_186_);fill:#FFDFBA;}
	.st146{clip-path:url(#SVGID_186_);fill:#0D274D;}
	.st147{clip-path:url(#SVGID_186_);fill:#FFEBD2;}
	.st148{clip-path:url(#SVGID_186_);fill:#FFFFFF;}
	.st149{clip-path:url(#SVGID_186_);fill:#FFD6A6;}
	.st150{clip-path:url(#SVGID_186_);fill:#FFF3E4;}
	.st151{clip-path:url(#SVGID_186_);fill:#42434D;}
	.st152{clip-path:url(#SVGID_188_);fill:#58F7FF;}
	.st153{clip-path:url(#SVGID_188_);fill:#27B9E5;}
	.st154{clip-path:url(#SVGID_188_);fill:#FFFFFF;}
	.st155{fill:#0E2DAF;}
	.st156{fill:#380E00;}
	.st157{fill:#5FA8FF;}
	.st158{fill:#00355E;}
	.st159{fill:#F2C8AD;}
	.st160{clip-path:url(#SVGID_190_);}
	.st161{clip-path:url(#SVGID_192_);}
	.st162{clip-path:url(#SVGID_194_);}
	.st163{clip-path:url(#SVGID_196_);}
	.st164{fill:#F8B395;}
	.st165{fill:#191712;}
	.st166{fill:#9B3A31;}
	.st167{fill:#0D101E;}
	.st168{fill:#60362F;}
	.st169{fill:#381F1B;}
	.st170{fill:#0047A8;stroke:#575756;stroke-width:0.25;stroke-miterlimit:10;}
	.st171{clip-path:url(#SVGID_198_);fill:#026847;}
	.st172{clip-path:url(#SVGID_198_);fill:#FFFFFF;}
	.st173{clip-path:url(#SVGID_198_);fill:#E52421;}
	.st174{clip-path:url(#SVGID_200_);fill:#006847;}
	.st175{clip-path:url(#SVGID_200_);fill:#ECE13C;}
	.st176{clip-path:url(#SVGID_200_);fill:#CF2011;}
	.st177{clip-path:url(#SVGID_202_);fill:#FFFFFF;}
	.st178{clip-path:url(#SVGID_202_);fill:#E52421;}
	.st179{clip-path:url(#SVGID_202_);fill:#0035A9;}
	.st180{clip-path:url(#SVGID_204_);fill:#F8CD16;}
	.st181{clip-path:url(#SVGID_204_);fill:#00388F;}
	.st182{clip-path:url(#SVGID_204_);fill:#CA1126;}
	.st183{clip-path:url(#SVGID_206_);fill:#E52421;}
	.st184{clip-path:url(#SVGID_206_);fill:#FFFFFF;}
	.st185{clip-path:url(#SVGID_208_);fill:#E52421;}
	.st186{clip-path:url(#SVGID_208_);fill:#FFFFFF;}
	.st187{clip-path:url(#SVGID_210_);fill:#026847;}
	.st188{clip-path:url(#SVGID_210_);fill:#FFFFFF;}
	.st189{clip-path:url(#SVGID_210_);fill:#E52421;}
	.st190{clip-path:url(#SVGID_212_);fill:#006847;}
	.st191{clip-path:url(#SVGID_212_);fill:#ECE13C;}
	.st192{clip-path:url(#SVGID_212_);fill:#CF2011;}
	.st193{clip-path:url(#SVGID_214_);fill:#FFFFFF;}
	.st194{clip-path:url(#SVGID_214_);fill:#E52421;}
	.st195{clip-path:url(#SVGID_214_);fill:#0035A9;}
	.st196{clip-path:url(#SVGID_216_);fill:#F8CD16;}
	.st197{clip-path:url(#SVGID_216_);fill:#00388F;}
	.st198{clip-path:url(#SVGID_216_);fill:#CA1126;}
	.st199{clip-path:url(#SVGID_218_);fill:#E52421;}
	.st200{clip-path:url(#SVGID_218_);fill:#FFFFFF;}
	.st201{clip-path:url(#SVGID_220_);fill:#E52421;}
	.st202{clip-path:url(#SVGID_220_);fill:#FFFFFF;}
	.st203{fill:#DADADA;}
	.st204{fill:none;}
	.st205{fill:#EE3224;}
	.st206{fill:#1D1D1B;}
	.st207{fill-rule:evenodd;clip-rule:evenodd;}
	.st208{fill:url(#SVGID_221_);}
	.st209{fill:url(#SVGID_222_);}
	.st210{fill:url(#SVGID_223_);}
	.st211{fill:#000100;}
	.st212{fill:#7F7C7A;}
	.st213{fill:#A5A6A4;}
	.st214{fill:#008851;}
	.st215{fill:#F3CB0C;}
	.st216{fill:#008292;}
	.st217{fill-rule:evenodd;clip-rule:evenodd;fill:#00629B;}
	.st218{fill:#FFF8F6;}
	.st219{clip-path:url(#SVGID_225_);}
	.st220{fill:#5C1A00;}
	.st221{fill:#004EA2;}
	.st222{fill:#C7B9AE;}
	.st223{fill:#D0D0D0;}
	.st224{fill:#003D41;}
	.st225{fill:#004446;}
	.st226{fill:#B2B2B2;}
	.st227{clip-path:url(#SVGID_226_);fill:#FFFFFF;}
	.st228{clip-path:url(#SVGID_227_);fill:#FFFFFF;}
	.st229{clip-path:url(#SVGID_229_);}
	.st230{fill:#E96600;}
	.st231{clip-path:url(#SVGID_230_);fill:#FFFFFF;}
	.st232{clip-path:url(#SVGID_231_);fill:#FFFFFF;}
	.st233{fill:#0684F2;}
	.st234{fill:#FF4E38;}
	.st235{fill:#00C65A;}
	.st236{opacity:0.25;fill:#0684F2;}
	.st237{fill:url(#SVGID_232_);}
	.st238{fill:url(#SVGID_233_);}
	.st239{fill:url(#SVGID_234_);}
	.st240{fill:url(#SVGID_235_);}
	.st241{opacity:0.2;enable-background:new    ;}
	.st242{opacity:0.12;enable-background:new    ;}
	.st243{opacity:0.25;fill:#FFFFFF;enable-background:new    ;}
	.st244{fill:#FFFFFF;stroke:#FFFFFF;stroke-width:0.2368;stroke-miterlimit:10;}
	.st245{fill:#292680;}
	.st246{fill:#949598;}
	.st247{fill:#F3B00F;}
	.st248{fill:#F7ECD9;}
	.st249{clip-path:url(#SVGID_237_);}
	.st250{fill:#25557C;}
	.st251{fill:#FFDBB4;}
	.st252{fill:#4C4136;}
	.st253{fill:#FF4F6D;}
	.st254{opacity:0.15;}
	.st255{clip-path:url(#SVGID_239_);}
	.st256{clip-path:url(#SVGID_241_);fill:#4C4136;}
	.st257{fill:#1F4768;}
	.st258{fill:#F4F4F4;}
	.st259{opacity:0.3;fill:#0684F2;}
	.st260{fill:url(#SVGID_242_);}
	.st261{fill:url(#SVGID_243_);}
	.st262{fill:none;stroke:#0684F2;stroke-width:0.75;stroke-miterlimit:10;}
	.st263{fill:none;stroke:#494949;stroke-width:0.5;stroke-miterlimit:10;}
	.st264{fill:none;stroke:#494949;stroke-width:0.5;stroke-linecap:round;stroke-linejoin:round;stroke-miterlimit:10;}
	.st265{clip-path:url(#SVGID_247_);fill:#026847;}
	.st266{clip-path:url(#SVGID_247_);fill:#FFFFFF;}
	.st267{clip-path:url(#SVGID_247_);fill:#E52421;}
	.st268{clip-path:url(#SVGID_249_);fill:#006847;}
	.st269{clip-path:url(#SVGID_249_);fill:#ECE13C;}
	.st270{clip-path:url(#SVGID_249_);fill:#CF2011;}
	.st271{clip-path:url(#SVGID_251_);fill:#F8CD16;}
	.st272{clip-path:url(#SVGID_251_);fill:#00388F;}
	.st273{clip-path:url(#SVGID_251_);fill:#CA1126;}
	.st274{clip-path:url(#SVGID_253_);fill:#E52421;}
	.st275{clip-path:url(#SVGID_253_);fill:#FFFFFF;}
	.st276{fill:#FF7523;}
	.st277{fill:#0454CA;}
	.st278{fill:#FF8800;}
	.st279{clip-path:url(#SVGID_255_);}
	.st280{fill:#E52421;}
	.st281{fill:none;stroke:#A69674;stroke-width:0.75;stroke-miterlimit:10;}
	.st282{clip-path:url(#SVGID_257_);}
	.st283{clip-path:url(#SVGID_259_);fill:#026847;}
	.st284{clip-path:url(#SVGID_259_);fill:#FFFFFF;}
	.st285{clip-path:url(#SVGID_259_);fill:#E52421;}
	.st286{clip-path:url(#SVGID_261_);fill:#006847;}
	.st287{clip-path:url(#SVGID_261_);fill:#ECE13C;}
	.st288{clip-path:url(#SVGID_261_);fill:#CF2011;}
	.st289{clip-path:url(#SVGID_263_);fill:#FFFFFF;}
	.st290{clip-path:url(#SVGID_263_);fill:#E52421;}
	.st291{clip-path:url(#SVGID_263_);fill:#0035A9;}
	.st292{clip-path:url(#SVGID_265_);fill:#F8CD16;}
	.st293{clip-path:url(#SVGID_265_);fill:#00388F;}
	.st294{clip-path:url(#SVGID_265_);fill:#CA1126;}
	.st295{clip-path:url(#SVGID_267_);fill:#E52421;}
	.st296{clip-path:url(#SVGID_267_);fill:#FFFFFF;}
	.st297{clip-path:url(#SVGID_269_);fill:#E52421;}
	.st298{clip-path:url(#SVGID_269_);fill:#FFFFFF;}
	.st299{fill:#0035A9;}
	.st300{fill:#F8CD16;}
	.st301{fill:#00388F;}
	.st302{fill:#CA1126;}
	.st303{fill:#026847;}
	.st304{fill:#ECE13C;}
	.st305{fill:#006847;}
	.st306{fill:#CF2011;}
	.st307{fill:none;stroke:#DADADA;stroke-miterlimit:10;}
	.st308{clip-path:url(#SVGID_271_);}
	.st309{clip-path:url(#SVGID_273_);}
	.st310{clip-path:url(#SVGID_275_);}
	.st311{opacity:0.25;clip-path:url(#SVGID_277_);}
	.st312{clip-path:url(#SVGID_279_);fill:#0F1ADE;}
	.st313{clip-path:url(#SVGID_281_);fill:#0F1ADE;}
	.st314{opacity:0.5;clip-path:url(#SVGID_283_);}
	.st315{clip-path:url(#SVGID_285_);fill:#FFFFFF;}
	.st316{clip-path:url(#SVGID_287_);fill:#FFFFFF;}
	.st317{clip-path:url(#SVGID_289_);fill:#FFFFFF;}
	.st318{clip-path:url(#SVGID_291_);fill:#FFFFFF;}
	.st319{clip-path:url(#SVGID_293_);fill:#FFFFFF;}
	.st320{clip-path:url(#SVGID_295_);fill:#FFFFFF;}
	.st321{clip-path:url(#SVGID_297_);fill:#FFFFFF;}
	.st322{clip-path:url(#SVGID_299_);fill:#FFFFFF;}
	.st323{clip-path:url(#SVGID_301_);fill:#FFFFFF;}
	.st324{clip-path:url(#SVGID_303_);fill:#FFFFFF;}
	.st325{clip-path:url(#SVGID_305_);fill:#FFFFFF;}
	.st326{clip-path:url(#SVGID_307_);fill:#FFFFFF;}
	.st327{clip-path:url(#SVGID_309_);fill:#FFFFFF;}
	.st328{clip-path:url(#SVGID_311_);fill:#FFFFFF;}
	.st329{clip-path:url(#SVGID_313_);fill:#FFFFFF;}
	.st330{opacity:0.5;clip-path:url(#SVGID_315_);}
	.st331{clip-path:url(#SVGID_317_);fill:#FFFFFF;}
	.st332{clip-path:url(#SVGID_319_);fill:#FFFFFF;}
	.st333{clip-path:url(#SVGID_321_);fill:#FFFFFF;}
	.st334{clip-path:url(#SVGID_323_);fill:#FFFFFF;}
	.st335{clip-path:url(#SVGID_325_);fill:#FFFFFF;}
	.st336{clip-path:url(#SVGID_327_);fill:#FFFFFF;}
	.st337{clip-path:url(#SVGID_329_);fill:#FFFFFF;}
	.st338{clip-path:url(#SVGID_331_);fill:#FFFFFF;}
	.st339{clip-path:url(#SVGID_333_);fill:#FFFFFF;}
	.st340{clip-path:url(#SVGID_335_);fill:#FFFFFF;}
	.st341{clip-path:url(#SVGID_337_);fill:#FFFFFF;}
	.st342{clip-path:url(#SVGID_339_);fill:#FFFFFF;}
	.st343{clip-path:url(#SVGID_341_);fill:#FFFFFF;}
	.st344{clip-path:url(#SVGID_343_);fill:#FFFFFF;}
	.st345{clip-path:url(#SVGID_345_);fill:#FFFFFF;}
	.st346{clip-path:url(#SVGID_347_);fill:#FFFFFF;}
	.st347{clip-path:url(#SVGID_349_);fill:#FFFFFF;}
	.st348{clip-path:url(#SVGID_351_);}
	.st349{opacity:0.25;clip-path:url(#SVGID_353_);}
	.st350{clip-path:url(#SVGID_355_);fill:#0F1ADE;}
	.st351{clip-path:url(#SVGID_357_);fill:#0F1ADE;}
	.st352{opacity:0.5;clip-path:url(#SVGID_359_);}
	.st353{clip-path:url(#SVGID_361_);fill:#FFFFFF;}
	.st354{clip-path:url(#SVGID_363_);fill:#FFFFFF;}
	.st355{clip-path:url(#SVGID_365_);fill:#FFFFFF;}
	.st356{clip-path:url(#SVGID_367_);fill:#FFFFFF;}
	.st357{clip-path:url(#SVGID_369_);fill:#FFFFFF;}
	.st358{clip-path:url(#SVGID_371_);fill:#FFFFFF;}
	.st359{clip-path:url(#SVGID_373_);fill:#FFFFFF;}
	.st360{clip-path:url(#SVGID_375_);fill:#FFFFFF;}
	.st361{clip-path:url(#SVGID_377_);fill:#FFFFFF;}
	.st362{clip-path:url(#SVGID_379_);fill:#FFFFFF;}
	.st363{clip-path:url(#SVGID_381_);fill:#FFFFFF;}
	.st364{clip-path:url(#SVGID_383_);fill:#FFFFFF;}
	.st365{clip-path:url(#SVGID_385_);fill:#FFFFFF;}
	.st366{clip-path:url(#SVGID_387_);fill:#FFFFFF;}
	.st367{clip-path:url(#SVGID_389_);fill:#FFFFFF;}
	.st368{opacity:0.5;clip-path:url(#SVGID_391_);}
	.st369{clip-path:url(#SVGID_393_);fill:#FFFFFF;}
	.st370{clip-path:url(#SVGID_395_);fill:#FFFFFF;}
	.st371{clip-path:url(#SVGID_397_);fill:#FFFFFF;}
	.st372{clip-path:url(#SVGID_399_);fill:#FFFFFF;}
	.st373{clip-path:url(#SVGID_401_);fill:#FFFFFF;}
	.st374{clip-path:url(#SVGID_403_);fill:#FFFFFF;}
	.st375{clip-path:url(#SVGID_405_);fill:#FFFFFF;}
	.st376{clip-path:url(#SVGID_407_);fill:#FFFFFF;}
	.st377{clip-path:url(#SVGID_409_);fill:#FFFFFF;}
	.st378{clip-path:url(#SVGID_411_);fill:#FFFFFF;}
	.st379{clip-path:url(#SVGID_413_);fill:#FFFFFF;}
	.st380{clip-path:url(#SVGID_415_);fill:#FFFFFF;}
	.st381{clip-path:url(#SVGID_417_);fill:#FFFFFF;}
	.st382{clip-path:url(#SVGID_419_);fill:#FFFFFF;}
	.st383{clip-path:url(#SVGID_421_);fill:#FFFFFF;}
	.st384{clip-path:url(#SVGID_423_);fill:#FFFFFF;}
	.st385{clip-path:url(#SVGID_425_);fill:#FFFFFF;}
	.st386{clip-path:url(#SVGID_427_);fill:#FF304A;}
	.st387{clip-path:url(#SVGID_429_);fill:#20201F;}
	.st388{clip-path:url(#SVGID_429_);}
	.st389{clip-path:url(#SVGID_429_);fill:#FFFFFF;}
	.st390{clip-path:url(#SVGID_431_);fill:#20201F;}
	.st391{clip-path:url(#SVGID_431_);}
	.st392{clip-path:url(#SVGID_431_);fill:#FFFFFF;}
	.st393{clip-path:url(#SVGID_433_);fill:#FFFFFF;}
	.st394{clip-path:url(#SVGID_435_);fill:#FFFFFF;}
	.st395{clip-path:url(#SVGID_437_);fill:#FFFFFF;}
	.st396{clip-path:url(#SVGID_439_);fill:#FFFFFF;}
	.st397{clip-path:url(#SVGID_441_);fill:#FF304A;}
	.st398{clip-path:url(#SVGID_443_);fill:#FFDFBA;}
	.st399{clip-path:url(#SVGID_443_);fill:#0D274D;}
	.st400{clip-path:url(#SVGID_443_);fill:#FFEBD2;}
	.st401{clip-path:url(#SVGID_443_);fill:#42434D;}
	.st402{clip-path:url(#SVGID_443_);fill:#FFD6A6;}
	.st403{clip-path:url(#SVGID_443_);fill:#4D4E59;}
	.st404{clip-path:url(#SVGID_443_);fill:#FFF3E4;}
	.st405{clip-path:url(#SVGID_445_);fill:#FFDFBA;}
	.st406{clip-path:url(#SVGID_445_);fill:#0D274D;}
	.st407{clip-path:url(#SVGID_445_);fill:#FFEBD2;}
	.st408{clip-path:url(#SVGID_445_);fill:#FFFFFF;}
	.st409{clip-path:url(#SVGID_445_);fill:#FFD6A6;}
	.st410{clip-path:url(#SVGID_445_);fill:#FFF3E4;}
	.st411{clip-path:url(#SVGID_445_);fill:#42434D;}
	.st412{clip-path:url(#SVGID_447_);fill:#58F7FF;}
	.st413{clip-path:url(#SVGID_447_);fill:#27B9E5;}
	.st414{clip-path:url(#SVGID_447_);fill:#FFFFFF;}
	.st415{clip-path:url(#SVGID_449_);}
	.st416{clip-path:url(#SVGID_451_);}
	.st417{clip-path:url(#SVGID_453_);}
	.st418{clip-path:url(#SVGID_455_);}
	.st419{clip-path:url(#SVGID_457_);}
	.st420{clip-path:url(#SVGID_459_);}
	.st421{clip-path:url(#SVGID_461_);}
	.st422{opacity:0.25;clip-path:url(#SVGID_463_);}
	.st423{clip-path:url(#SVGID_465_);fill:#0F1ADE;}
	.st424{clip-path:url(#SVGID_467_);fill:#0F1ADE;}
	.st425{opacity:0.5;clip-path:url(#SVGID_469_);}
	.st426{clip-path:url(#SVGID_471_);fill:#FFFFFF;}
	.st427{clip-path:url(#SVGID_473_);fill:#FFFFFF;}
	.st428{clip-path:url(#SVGID_475_);fill:#FFFFFF;}
	.st429{clip-path:url(#SVGID_477_);fill:#FFFFFF;}
	.st430{clip-path:url(#SVGID_479_);fill:#FFFFFF;}
	.st431{clip-path:url(#SVGID_481_);fill:#FFFFFF;}
	.st432{clip-path:url(#SVGID_483_);fill:#FFFFFF;}
	.st433{clip-path:url(#SVGID_485_);fill:#FFFFFF;}
	.st434{clip-path:url(#SVGID_487_);fill:#FFFFFF;}
	.st435{clip-path:url(#SVGID_489_);fill:#FFFFFF;}
	.st436{clip-path:url(#SVGID_491_);fill:#FFFFFF;}
	.st437{clip-path:url(#SVGID_493_);fill:#FFFFFF;}
	.st438{clip-path:url(#SVGID_495_);fill:#FFFFFF;}
	.st439{clip-path:url(#SVGID_497_);fill:#FFFFFF;}
	.st440{clip-path:url(#SVGID_499_);fill:#FFFFFF;}
	.st441{opacity:0.5;clip-path:url(#SVGID_501_);}
	.st442{clip-path:url(#SVGID_503_);fill:#FFFFFF;}
	.st443{clip-path:url(#SVGID_505_);fill:#FFFFFF;}
	.st444{clip-path:url(#SVGID_507_);fill:#FFFFFF;}
	.st445{clip-path:url(#SVGID_509_);fill:#FFFFFF;}
	.st446{clip-path:url(#SVGID_511_);fill:#FFFFFF;}
	.st447{clip-path:url(#SVGID_513_);fill:#FFFFFF;}
	.st448{clip-path:url(#SVGID_515_);fill:#FFFFFF;}
	.st449{clip-path:url(#SVGID_517_);fill:#FFFFFF;}
	.st450{clip-path:url(#SVGID_519_);fill:#FFFFFF;}
	.st451{clip-path:url(#SVGID_521_);fill:#FFFFFF;}
	.st452{clip-path:url(#SVGID_523_);fill:#FFFFFF;}
	.st453{clip-path:url(#SVGID_525_);fill:#FFFFFF;}
	.st454{clip-path:url(#SVGID_527_);fill:#FFFFFF;}
	.st455{clip-path:url(#SVGID_529_);fill:#FFFFFF;}
	.st456{clip-path:url(#SVGID_531_);fill:#FFFFFF;}
	.st457{clip-path:url(#SVGID_533_);fill:#FFFFFF;}
	.st458{clip-path:url(#SVGID_535_);fill:#FFFFFF;}
	.st459{clip-path:url(#SVGID_537_);}
	.st460{opacity:0.25;clip-path:url(#SVGID_539_);}
	.st461{clip-path:url(#SVGID_541_);fill:#0F1ADE;}
	.st462{clip-path:url(#SVGID_543_);fill:#0F1ADE;}
	.st463{opacity:0.5;clip-path:url(#SVGID_545_);}
	.st464{clip-path:url(#SVGID_547_);fill:#FFFFFF;}
	.st465{clip-path:url(#SVGID_549_);fill:#FFFFFF;}
	.st466{clip-path:url(#SVGID_551_);fill:#FFFFFF;}
	.st467{clip-path:url(#SVGID_553_);fill:#FFFFFF;}
	.st468{clip-path:url(#SVGID_555_);fill:#FFFFFF;}
	.st469{clip-path:url(#SVGID_557_);fill:#FFFFFF;}
	.st470{clip-path:url(#SVGID_559_);fill:#FFFFFF;}
	.st471{clip-path:url(#SVGID_561_);fill:#FFFFFF;}
	.st472{clip-path:url(#SVGID_563_);fill:#FFFFFF;}
	.st473{clip-path:url(#SVGID_565_);fill:#FFFFFF;}
	.st474{clip-path:url(#SVGID_567_);fill:#FFFFFF;}
	.st475{clip-path:url(#SVGID_569_);fill:#FFFFFF;}
	.st476{clip-path:url(#SVGID_571_);fill:#FFFFFF;}
	.st477{clip-path:url(#SVGID_573_);fill:#FFFFFF;}
	.st478{clip-path:url(#SVGID_575_);fill:#FFFFFF;}
	.st479{opacity:0.5;clip-path:url(#SVGID_577_);}
	.st480{clip-path:url(#SVGID_579_);fill:#FFFFFF;}
	.st481{clip-path:url(#SVGID_581_);fill:#FFFFFF;}
	.st482{clip-path:url(#SVGID_583_);fill:#FFFFFF;}
	.st483{clip-path:url(#SVGID_585_);fill:#FFFFFF;}
	.st484{clip-path:url(#SVGID_587_);fill:#FFFFFF;}
	.st485{clip-path:url(#SVGID_589_);fill:#FFFFFF;}
	.st486{clip-path:url(#SVGID_591_);fill:#FFFFFF;}
	.st487{clip-path:url(#SVGID_593_);fill:#FFFFFF;}
	.st488{clip-path:url(#SVGID_595_);fill:#FFFFFF;}
	.st489{clip-path:url(#SVGID_597_);fill:#FFFFFF;}
	.st490{clip-path:url(#SVGID_599_);fill:#FFFFFF;}
	.st491{clip-path:url(#SVGID_601_);fill:#FFFFFF;}
	.st492{clip-path:url(#SVGID_603_);fill:#FFFFFF;}
	.st493{clip-path:url(#SVGID_605_);fill:#FFFFFF;}
	.st494{clip-path:url(#SVGID_607_);fill:#FFFFFF;}
	.st495{clip-path:url(#SVGID_609_);fill:#FFFFFF;}
	.st496{clip-path:url(#SVGID_611_);fill:#FFFFFF;}
	.st497{clip-path:url(#SVGID_613_);fill:#FF304A;}
	.st498{clip-path:url(#SVGID_615_);fill:#20201F;}
	.st499{clip-path:url(#SVGID_615_);}
	.st500{clip-path:url(#SVGID_615_);fill:#FFFFFF;}
	.st501{clip-path:url(#SVGID_617_);fill:#20201F;}
	.st502{clip-path:url(#SVGID_617_);}
	.st503{clip-path:url(#SVGID_617_);fill:#FFFFFF;}
	.st504{clip-path:url(#SVGID_619_);fill:#FFFFFF;}
	.st505{clip-path:url(#SVGID_621_);fill:#FFFFFF;}
	.st506{clip-path:url(#SVGID_623_);fill:#FFFFFF;}
	.st507{clip-path:url(#SVGID_625_);fill:#FFFFFF;}
	.st508{clip-path:url(#SVGID_627_);fill:#FF304A;}
	.st509{clip-path:url(#SVGID_629_);fill:#FFDFBA;}
	.st510{clip-path:url(#SVGID_629_);fill:#0D274D;}
	.st511{clip-path:url(#SVGID_629_);fill:#FFEBD2;}
	.st512{clip-path:url(#SVGID_629_);fill:#42434D;}
	.st513{clip-path:url(#SVGID_629_);fill:#FFD6A6;}
	.st514{clip-path:url(#SVGID_629_);fill:#4D4E59;}
	.st515{clip-path:url(#SVGID_629_);fill:#FFF3E4;}
	.st516{clip-path:url(#SVGID_631_);fill:#FFDFBA;}
	.st517{clip-path:url(#SVGID_631_);fill:#0D274D;}
	.st518{clip-path:url(#SVGID_631_);fill:#FFEBD2;}
	.st519{clip-path:url(#SVGID_631_);fill:#FFFFFF;}
	.st520{clip-path:url(#SVGID_631_);fill:#FFD6A6;}
	.st521{clip-path:url(#SVGID_631_);fill:#FFF3E4;}
	.st522{clip-path:url(#SVGID_631_);fill:#42434D;}
	.st523{clip-path:url(#SVGID_633_);fill:#58F7FF;}
	.st524{clip-path:url(#SVGID_633_);fill:#27B9E5;}
	.st525{clip-path:url(#SVGID_633_);fill:#FFFFFF;}
	.st526{clip-path:url(#SVGID_635_);}
	.st527{clip-path:url(#SVGID_637_);}
	.st528{clip-path:url(#SVGID_639_);}
	.st529{clip-path:url(#SVGID_641_);}
	.st530{fill:url(#SVGID_642_);}
	.st531{fill:url(#SVGID_643_);}
	.st532{fill:url(#SVGID_644_);}
	.st533{clip-path:url(#SVGID_646_);}
	.st534{clip-path:url(#SVGID_647_);fill:#FFFFFF;}
	.st535{clip-path:url(#SVGID_648_);fill:#FFFFFF;}
	.st536{clip-path:url(#SVGID_650_);}
	.st537{clip-path:url(#SVGID_651_);fill:#FFFFFF;}
	.st538{clip-path:url(#SVGID_652_);fill:#FFFFFF;}
	.st539{fill:url(#SVGID_653_);}
	.st540{fill:url(#SVGID_654_);}
	.st541{fill:url(#SVGID_655_);}
	.st542{fill:url(#SVGID_656_);}
	.st543{clip-path:url(#SVGID_658_);}
	.st544{clip-path:url(#SVGID_660_);}
	.st545{clip-path:url(#SVGID_662_);fill:#4C4136;}
	.st546{fill:url(#SVGID_663_);}
	.st547{fill:url(#SVGID_664_);}
	.st548{clip-path:url(#SVGID_668_);fill:#026847;}
	.st549{clip-path:url(#SVGID_668_);fill:#FFFFFF;}
	.st550{clip-path:url(#SVGID_668_);fill:#E52421;}
	.st551{clip-path:url(#SVGID_670_);fill:#006847;}
	.st552{clip-path:url(#SVGID_670_);fill:#ECE13C;}
	.st553{clip-path:url(#SVGID_670_);fill:#CF2011;}
	.st554{clip-path:url(#SVGID_672_);fill:#F8CD16;}
	.st555{clip-path:url(#SVGID_672_);fill:#00388F;}
	.st556{clip-path:url(#SVGID_672_);fill:#CA1126;}
	.st557{clip-path:url(#SVGID_674_);fill:#E52421;}
	.st558{clip-path:url(#SVGID_674_);fill:#FFFFFF;}
	.st559{clip-path:url(#SVGID_676_);}
	.st560{fill:#0AAFF1;}
</style>
<g id="base">
	<g>
		<path class="st11" d="M267.41,72.14l-6-66.21l-16.08,15.18C196.37-7.09,137.88-8.49,81,25.76l26.84,16.82l2.55,30.61
			c0,0,15.72-16.31,53.48-17.6c23.44-1.54,35.81,5,38.14,6.38L189,74.25L267.41,72.14z"/>
		<path class="st12" d="M277.85,273.39l64.76-6.13l-14.85-16.45c27.58-50.05,28.96-109.85-4.55-168l-13.32,27.86l-33.07,2.17
			c0,0,15.96,16.08,17.21,54.68c1.51,23.96-4.89,36.61-6.24,39l-12.01-13.3L277.85,273.39z"/>
		<path class="st13" d="M81,284.06l6,66.21l16.09-15.18c48.96,28.2,107.45,29.6,164.33-4.66l-26.25-14.16l-3.14-33.27
			c0,0-15.72,16.31-53.48,17.6c-23.44,1.54-35.81-5-38.15-6.38l13.01-12.28L81,284.06z"/>
		<path class="st14" d="M70.56,82.81L5.8,88.94l14.85,16.44c-27.58,50.05-28.96,109.85,4.56,168l14.61-28.86l31.79-1.17
			c0,0-15.96-16.08-17.21-54.68c-1.51-23.96,4.89-36.61,6.24-39l12.01,13.3L70.56,82.81z"/>
		<path class="st0" d="M310.73,137.64l4.27-3.89l-0.28-1.17l-4.93,1.16l-0.59-2.48l12.64-2.98l1.11,4.65
			c0.23,0.96,0.25,1.81,0.07,2.57c-0.18,0.75-0.53,1.37-1.03,1.85c-0.51,0.47-1.12,0.8-1.85,0.97c-0.83,0.2-1.64,0.14-2.42-0.18
			c-0.78-0.32-1.41-0.91-1.89-1.79l-4.41,4.17L310.73,137.64z M316.63,132.14l0.49,2.07c0.16,0.67,0.45,1.14,0.86,1.39
			c0.41,0.25,0.91,0.31,1.5,0.17c0.58-0.14,0.99-0.41,1.23-0.81c0.24-0.41,0.28-0.95,0.12-1.62l-0.5-2.07L316.63,132.14z"/>
		<path class="st0" d="M317.57,150.94l-1.17-7.28c-0.72,0.18-1.26,0.52-1.61,1.03c-0.34,0.51-0.46,1.08-0.36,1.73
			c0.15,0.94,0.67,1.53,1.55,1.8l0.44,2.71c-1.02-0.13-1.92-0.55-2.68-1.27c-0.76-0.72-1.24-1.67-1.43-2.85
			c-0.16-0.96-0.08-1.86,0.23-2.69c0.31-0.83,0.83-1.52,1.56-2.07c0.73-0.55,1.61-0.91,2.65-1.08c1.06-0.17,2.01-0.1,2.87,0.19
			c0.87,0.29,1.57,0.78,2.13,1.47c0.54,0.69,0.9,1.52,1.06,2.51c0.15,0.95,0.08,1.83-0.22,2.64c-0.29,0.81-0.79,1.49-1.49,2.03
			c-0.7,0.54-1.54,0.89-2.54,1.04C318.21,150.91,317.87,150.94,317.57,150.94 M318.89,148.13c0.66-0.12,1.15-0.44,1.47-0.95
			c0.32-0.52,0.44-1.11,0.33-1.77c-0.1-0.63-0.37-1.12-0.83-1.48c-0.45-0.36-1.03-0.54-1.73-0.53L318.89,148.13z"/>
		<path class="st0" d="M322,157.11l-0.18-1.76l-8.12,0.83l-0.27-2.57l8.13-0.82l-0.12-1.14l2.13-0.22l0.12,1.14l0.52-0.05
			c1.26-0.13,2.22,0.13,2.88,0.77c0.67,0.64,1.05,1.67,1.17,3.08l-2.18,0.22c-0.06-0.62-0.2-1.04-0.45-1.25
			c-0.25-0.22-0.66-0.3-1.24-0.24l-0.43,0.04l0.18,1.76L322,157.11z"/>
		<polygon class="st0" points="327.89,161.17 314.16,162.06 313.98,159.52 327.73,158.63 		"/>
		<path class="st0" d="M318.85,173.64l-0.12-7.37c-0.74,0.07-1.32,0.33-1.74,0.79c-0.42,0.45-0.62,1.01-0.61,1.67
			c0.01,0.95,0.44,1.61,1.28,2l0.04,2.75c-1-0.28-1.82-0.83-2.47-1.64c-0.65-0.82-0.99-1.83-1.01-3.03
			c-0.01-0.97,0.19-1.85,0.62-2.62c0.43-0.77,1.04-1.38,1.84-1.82c0.8-0.45,1.72-0.67,2.78-0.68c1.07-0.01,2,0.19,2.82,0.6
			c0.82,0.41,1.44,1,1.89,1.76c0.45,0.76,0.68,1.63,0.69,2.63c0.02,0.96-0.18,1.82-0.59,2.59c-0.41,0.76-1,1.36-1.77,1.79
			c-0.77,0.43-1.66,0.65-2.66,0.66C319.48,173.7,319.14,173.68,318.85,173.64 M320.55,171.05c0.67-0.02,1.2-0.26,1.6-0.73
			c0.4-0.46,0.59-1.03,0.58-1.7c-0.01-0.63-0.21-1.16-0.61-1.58c-0.4-0.43-0.94-0.69-1.64-0.77L320.55,171.05z"/>
		<path class="st0" d="M322.31,175.69c0.78,0.46,1.38,1.07,1.78,1.85c0.41,0.77,0.6,1.64,0.56,2.61c-0.05,1.25-0.42,2.27-1.08,3.06
			c-0.68,0.79-1.6,1.3-2.76,1.53l0.11-2.75c0.45-0.13,0.81-0.36,1.08-0.69c0.27-0.34,0.41-0.76,0.44-1.27
			c0.03-0.73-0.22-1.32-0.74-1.77c-0.52-0.45-1.28-0.7-2.27-0.74c-0.98-0.04-1.74,0.13-2.3,0.54c-0.55,0.4-0.85,0.96-0.88,1.69
			c-0.04,1.03,0.4,1.72,1.33,2.08l-0.11,2.75c-1.1-0.33-1.97-0.92-2.59-1.77c-0.62-0.86-0.91-1.9-0.86-3.14
			c0.04-0.97,0.29-1.82,0.76-2.56c0.47-0.73,1.12-1.29,1.93-1.68c0.81-0.39,1.76-0.56,2.82-0.51
			C320.61,174.98,321.53,175.23,322.31,175.69"/>
		<path class="st0" d="M321.5,189.97l-4.95-0.56c-0.35-0.04-0.61,0.01-0.78,0.16c-0.18,0.15-0.28,0.41-0.33,0.8l-0.13,1.18
			l-2.18-0.25l0.18-1.59c0.24-2.14,1.42-3.08,3.54-2.84l4.94,0.56l0.13-1.19l2.13,0.24l-0.13,1.19l2.53,0.29l-0.28,2.55l-2.53-0.29
			l-0.25,2.24l-2.13-0.24L321.5,189.97z"/>
		<path class="st0" d="M322.7,197.04l-10.2-1.55l0.38-2.52l10.19,1.55L322.7,197.04z M324.7,194.94c0.33-0.25,0.72-0.34,1.14-0.27
			c0.43,0.06,0.77,0.27,1.01,0.6c0.24,0.34,0.33,0.73,0.27,1.17c-0.07,0.45-0.27,0.79-0.6,1.04c-0.33,0.25-0.72,0.34-1.14,0.27
			c-0.43-0.06-0.77-0.27-1.01-0.61c-0.24-0.34-0.33-0.73-0.26-1.17C324.17,195.54,324.37,195.2,324.7,194.94"/>
		<path class="st0" d="M319.58,208.01c-0.91,0.56-2.05,0.71-3.41,0.42l-5.92-1.24l0.51-2.5l5.58,1.17c0.8,0.17,1.46,0.1,1.97-0.2
			c0.51-0.3,0.84-0.79,0.98-1.47c0.14-0.69,0.03-1.28-0.31-1.77c-0.35-0.49-0.93-0.82-1.73-0.99l-5.58-1.17l0.51-2.5l10.1,2.11
			l-0.51,2.5l-1.26-0.26c0.37,0.43,0.63,0.92,0.76,1.49c0.15,0.57,0.15,1.17,0.02,1.78C321.06,206.57,320.49,207.44,319.58,208.01"
			/>
		<path class="st0" d="M317.71,217.81c-0.45,0.47-0.95,0.79-1.51,0.97l1.41,0.41l-0.72,2.46l-9.97-2.91
			c-0.92-0.27-1.69-0.69-2.3-1.26c-0.62-0.57-1.03-1.28-1.25-2.13c-0.21-0.85-0.17-1.78,0.12-2.81c0.4-1.37,1.05-2.41,1.96-3.09
			c0.91-0.69,1.95-0.93,3.12-0.71l-0.71,2.43c-0.49,0-0.93,0.17-1.32,0.51c-0.39,0.35-0.68,0.82-0.85,1.43
			c-0.21,0.71-0.16,1.35,0.15,1.92c0.3,0.57,0.9,0.98,1.78,1.24l1.54,0.45c-0.37-0.45-0.64-1-0.78-1.64
			c-0.15-0.64-0.12-1.32,0.08-2.03c0.24-0.81,0.66-1.5,1.29-2.05c0.62-0.55,1.38-0.91,2.28-1.07c0.89-0.16,1.85-0.09,2.86,0.2
			c1,0.29,1.83,0.75,2.49,1.36c0.66,0.62,1.1,1.32,1.33,2.11c0.22,0.79,0.21,1.6-0.02,2.43
			C318.5,216.76,318.16,217.35,317.71,217.81 M314.33,217.85c0.5-0.11,0.93-0.33,1.27-0.65c0.35-0.33,0.59-0.72,0.72-1.17
			c0.13-0.45,0.14-0.91,0.03-1.36c-0.12-0.45-0.36-0.86-0.72-1.22c-0.36-0.37-0.84-0.64-1.44-0.81c-0.59-0.18-1.15-0.21-1.66-0.1
			c-0.52,0.11-0.95,0.32-1.3,0.64c-0.35,0.32-0.59,0.7-0.72,1.15c-0.13,0.45-0.14,0.91-0.02,1.38c0.12,0.46,0.36,0.88,0.73,1.24
			c0.36,0.36,0.85,0.63,1.46,0.81C313.27,217.92,313.83,217.95,314.33,217.85"/>
		<polygon class="st0" points="119.6,32.08 120.57,35.11 124.73,33.78 125.35,35.71 121.18,37.04 122.2,40.25 126.9,38.75 
			127.53,40.72 120.35,43.02 116.48,30.89 123.67,28.6 124.3,30.58 		"/>
		<polygon class="st0" points="135.14,38.79 132.33,36.25 131.25,39.74 128.54,40.41 130.61,34.69 126.1,30.62 128.96,29.92 
			131.74,32.44 132.84,28.97 135.55,28.3 133.46,33.99 137.99,38.09 		"/>
		<path class="st0" d="M141.51,27.54c0.53-0.4,1.17-0.66,1.92-0.79c0.87-0.14,1.69-0.06,2.46,0.24s1.43,0.81,1.97,1.52
			c0.54,0.7,0.89,1.57,1.06,2.58c0.17,1.02,0.11,1.95-0.17,2.8c-0.28,0.85-0.74,1.55-1.37,2.1c-0.63,0.55-1.38,0.89-2.25,1.03
			c-0.75,0.12-1.43,0.08-2.05-0.12c-0.62-0.2-1.14-0.51-1.57-0.9l1.01,6.16l-2.57,0.42l-2.42-14.7l2.57-0.42l0.24,1.44
			C140.58,28.4,140.98,27.94,141.51,27.54 M145.65,30.03c-0.32-0.4-0.71-0.67-1.16-0.83c-0.45-0.16-0.91-0.2-1.39-0.12
			c-0.46,0.08-0.88,0.27-1.25,0.57c-0.37,0.3-0.65,0.69-0.82,1.18c-0.18,0.48-0.22,1.03-0.12,1.62c0.1,0.6,0.31,1.1,0.63,1.5
			c0.32,0.4,0.71,0.69,1.16,0.85c0.45,0.17,0.9,0.21,1.37,0.14c0.48-0.08,0.9-0.27,1.27-0.58c0.37-0.31,0.65-0.7,0.82-1.19
			c0.18-0.48,0.22-1.03,0.12-1.64C146.19,30.93,145.98,30.43,145.65,30.03"/>
		<path class="st0" d="M160.55,30.92l-7.52,0.61c0.12,0.72,0.43,1.27,0.92,1.64c0.49,0.37,1.07,0.54,1.74,0.48
			c0.96-0.08,1.62-0.54,1.96-1.38l2.8-0.23c-0.22,0.99-0.72,1.83-1.52,2.52c-0.79,0.69-1.8,1.09-3.02,1.19
			c-0.99,0.08-1.9-0.06-2.72-0.43c-0.82-0.37-1.48-0.92-1.98-1.68c-0.5-0.75-0.8-1.64-0.88-2.67c-0.09-1.04,0.06-1.97,0.43-2.79
			c0.37-0.82,0.93-1.48,1.67-1.96c0.74-0.49,1.62-0.77,2.64-0.85c0.98-0.08,1.87,0.06,2.67,0.41c0.81,0.35,1.45,0.88,1.94,1.6
			c0.49,0.72,0.77,1.57,0.85,2.55C160.57,30.3,160.58,30.63,160.55,30.92 M157.79,29.43c-0.06-0.65-0.35-1.16-0.85-1.51
			c-0.5-0.35-1.09-0.5-1.77-0.45c-0.64,0.05-1.17,0.29-1.58,0.71c-0.41,0.42-0.63,0.97-0.68,1.65L157.79,29.43z"/>
		<path class="st0" d="M166.47,25.34c0.54-0.31,1.15-0.47,1.84-0.49l0.04,2.68l-0.69,0.01c-0.82,0.01-1.43,0.21-1.84,0.6
			c-0.41,0.38-0.61,1.04-0.59,1.97l0.08,5.02l-2.6,0.04l-0.17-10.09l2.6-0.04l0.03,1.57C165.51,26.08,165.94,25.65,166.47,25.34"/>
		<path class="st0" d="M172.97,25.12l-0.26,10.08l-2.6-0.07l0.26-10.08L172.97,25.12z M170.59,23.43c-0.3-0.29-0.44-0.65-0.43-1.08
			c0.01-0.42,0.18-0.78,0.48-1.05c0.31-0.28,0.7-0.41,1.16-0.4c0.46,0.01,0.84,0.17,1.14,0.46c0.29,0.29,0.44,0.65,0.43,1.08
			c-0.01,0.43-0.18,0.78-0.49,1.05c-0.31,0.28-0.7,0.41-1.15,0.4C171.26,23.87,170.89,23.72,170.59,23.43"/>
		<path class="st0" d="M184.89,31.75l-7.51-0.62c0,0.73,0.22,1.32,0.64,1.77c0.43,0.45,0.97,0.7,1.64,0.76
			c0.97,0.08,1.69-0.27,2.16-1.05l2.8,0.23c-0.37,0.94-1.01,1.69-1.9,2.25c-0.89,0.55-1.95,0.78-3.17,0.68
			c-0.99-0.08-1.86-0.37-2.61-0.86c-0.75-0.49-1.31-1.15-1.69-1.97c-0.37-0.82-0.52-1.75-0.44-2.78c0.09-1.04,0.37-1.94,0.87-2.69
			c0.5-0.75,1.15-1.31,1.97-1.67c0.81-0.36,1.73-0.5,2.74-0.42c0.98,0.08,1.84,0.36,2.58,0.83c0.74,0.47,1.29,1.11,1.65,1.9
			c0.37,0.79,0.51,1.68,0.43,2.66C185.01,31.14,184.96,31.46,184.89,31.75 M182.41,29.83c0.04-0.65-0.16-1.2-0.6-1.63
			c-0.44-0.43-1-0.68-1.68-0.73c-0.64-0.05-1.2,0.09-1.67,0.44c-0.47,0.35-0.78,0.85-0.94,1.52L182.41,29.83z"/>
		<path class="st0" d="M196.37,28.68c0.63,0.87,0.83,1.98,0.61,3.32l-0.96,5.84l-2.57-0.42l0.9-5.5c0.13-0.79,0.03-1.43-0.31-1.92
			c-0.34-0.49-0.85-0.8-1.55-0.91c-0.71-0.12-1.31,0-1.79,0.36c-0.48,0.36-0.78,0.93-0.91,1.72l-0.9,5.5l-2.57-0.43l1.64-9.95
			l2.57,0.42l-0.2,1.24c0.42-0.37,0.91-0.64,1.48-0.8c0.57-0.16,1.18-0.19,1.81-0.08C194.83,27.27,195.75,27.81,196.37,28.68"/>
		<path class="st0" d="M200.05,30.75c0.61-0.66,1.34-1.1,2.19-1.33c0.85-0.23,1.76-0.23,2.72,0.01c1.24,0.31,2.19,0.87,2.85,1.68
			c0.66,0.81,1,1.79,1,2.96l-2.73-0.68c-0.04-0.46-0.2-0.85-0.48-1.18c-0.28-0.33-0.68-0.55-1.18-0.68
			c-0.72-0.18-1.36-0.07-1.91,0.34c-0.55,0.41-0.94,1.08-1.17,2.03c-0.23,0.93-0.2,1.7,0.09,2.32c0.29,0.62,0.8,1.02,1.53,1.19
			c1.02,0.26,1.8-0.03,2.34-0.84l2.73,0.68c-0.54,0.99-1.3,1.7-2.27,2.12c-0.98,0.42-2.07,0.48-3.31,0.18
			c-0.96-0.24-1.76-0.66-2.41-1.26c-0.64-0.6-1.08-1.34-1.31-2.2c-0.23-0.86-0.22-1.8,0.03-2.82
			C199.01,32.24,199.44,31.41,200.05,30.75"/>
		<path class="st0" d="M214.32,32.24l-2.97,9.64l-2.49-0.77l2.97-9.64L214.32,32.24z M212.48,29.97c-0.21-0.36-0.25-0.75-0.12-1.15
			c0.13-0.4,0.38-0.7,0.75-0.88c0.37-0.18,0.78-0.21,1.22-0.07c0.44,0.13,0.76,0.38,0.97,0.75c0.21,0.36,0.25,0.75,0.12,1.15
			c-0.13,0.41-0.37,0.7-0.75,0.88c-0.37,0.18-0.78,0.21-1.22,0.07C213,30.58,212.68,30.33,212.48,29.97"/>
		<path class="st0" d="M224.99,37.1c0.44,0.98,0.43,2.1-0.05,3.37l-2.08,5.54l-2.44-0.92l1.96-5.21c0.28-0.75,0.31-1.4,0.07-1.95
			c-0.23-0.55-0.68-0.95-1.34-1.19c-0.67-0.25-1.28-0.25-1.82,0c-0.54,0.26-0.95,0.76-1.23,1.51l-1.96,5.22l-2.44-0.92l3.54-9.44
			l2.44,0.92l-0.44,1.17c0.48-0.29,1.01-0.45,1.61-0.49c0.59-0.04,1.19,0.05,1.8,0.27C223.75,35.42,224.55,36.12,224.99,37.1"/>
		<path class="st0" d="M234.62,40.64c0.4,0.52,0.65,1.06,0.75,1.64l0.62-1.3l2.37,1.13l-4.36,9.18c-0.4,0.84-0.93,1.51-1.6,2.01
			c-0.66,0.5-1.43,0.78-2.31,0.83c-0.88,0.06-1.81-0.15-2.8-0.62c-1.32-0.63-2.26-1.44-2.82-2.45c-0.56-1-0.65-2.06-0.27-3.15
			l2.33,1.11c-0.07,0.47,0.04,0.93,0.33,1.37c0.29,0.44,0.73,0.8,1.31,1.08c0.68,0.32,1.33,0.39,1.95,0.19
			c0.62-0.2,1.12-0.7,1.5-1.51l0.67-1.41c-0.51,0.28-1.09,0.44-1.76,0.47c-0.67,0.03-1.35-0.11-2.03-0.44
			c-0.79-0.37-1.41-0.91-1.87-1.61c-0.46-0.71-0.71-1.51-0.74-2.4c-0.04-0.9,0.17-1.81,0.61-2.74c0.44-0.92,1.01-1.65,1.73-2.18
			c0.72-0.54,1.48-0.84,2.31-0.92c0.83-0.08,1.64,0.07,2.43,0.45C233.67,39.69,234.22,40.12,234.62,40.64 M234.17,43.93
			c-0.04-0.51-0.19-0.96-0.47-1.35c-0.28-0.39-0.64-0.7-1.08-0.9c-0.44-0.21-0.89-0.29-1.36-0.26c-0.47,0.03-0.91,0.19-1.33,0.49
			c-0.42,0.29-0.76,0.71-1.02,1.26c-0.26,0.55-0.37,1.08-0.34,1.6c0.03,0.52,0.19,0.98,0.46,1.38c0.27,0.4,0.62,0.7,1.04,0.9
			c0.44,0.21,0.9,0.29,1.38,0.26s0.93-0.19,1.35-0.49c0.41-0.29,0.75-0.72,1.02-1.28C234.08,44.97,234.2,44.44,234.17,43.93"/>
		<path class="st0" d="M32.66,196.4l0.45,5.06l2.53,0.64l0.24,2.68l-13.33-3.53l-0.26-2.96l12.53-5.61l0.24,2.7L32.66,196.4z
			 M30.65,197.26l-5.24,2.27l5.56,1.4L30.65,197.26z"/>
		<path class="st0" d="M26.87,191.24c-0.8-0.43-1.43-1.01-1.88-1.77c-0.45-0.75-0.68-1.62-0.69-2.59c-0.01-1.26,0.3-2.29,0.93-3.11
			c0.63-0.82,1.52-1.38,2.67-1.66l0.03,2.76c-0.45,0.15-0.8,0.39-1.04,0.74c-0.25,0.35-0.37,0.78-0.37,1.29
			c0.01,0.73,0.29,1.31,0.82,1.73c0.54,0.43,1.31,0.64,2.3,0.63c0.98,0,1.73-0.22,2.26-0.64c0.54-0.43,0.8-1,0.79-1.74
			c-0.01-1.03-0.49-1.71-1.43-2.02l-0.03-2.76c1.12,0.28,2.01,0.83,2.67,1.65c0.66,0.83,1,1.86,1.01,3.1
			c0.01,0.97-0.2,1.84-0.63,2.6c-0.43,0.75-1.04,1.34-1.84,1.77c-0.79,0.43-1.72,0.64-2.79,0.64
			C28.61,191.88,27.67,191.67,26.87,191.24"/>
		<path class="st0" d="M26.82,177.04l4.97,0.28c0.35,0.02,0.6-0.05,0.76-0.2c0.16-0.15,0.25-0.43,0.27-0.82l0.05-1.18l2.19,0.12
			l-0.08,1.61c-0.1,2.15-1.21,3.17-3.34,3.05l-4.95-0.28l-0.06,1.2l-2.13-0.12l0.06-1.2l-2.54-0.14l0.12-2.57l2.54,0.14l0.1-2.26
			l2.13,0.12L26.82,177.04z"/>
		<path class="st0" d="M23.33,172.2c-0.32,0.27-0.69,0.38-1.12,0.34c-0.43-0.04-0.78-0.22-1.05-0.55c-0.27-0.33-0.38-0.71-0.34-1.16
			c0.04-0.45,0.22-0.81,0.53-1.08c0.32-0.27,0.69-0.38,1.12-0.34c0.43,0.04,0.78,0.22,1.04,0.55c0.27,0.33,0.38,0.71,0.33,1.16
			C23.83,171.57,23.65,171.93,23.33,172.2 M25.19,169.98l10.25,0.98l-0.22,2.54l-10.25-0.98L25.19,169.98z"/>
		<path class="st0" d="M27.62,158.79c0.87-0.62,1.99-0.83,3.36-0.62l5.98,0.9l-0.36,2.53l-5.62-0.85c-0.81-0.12-1.46-0.02-1.95,0.32
			c-0.5,0.33-0.79,0.84-0.89,1.52c-0.1,0.7,0.04,1.28,0.42,1.75c0.38,0.47,0.97,0.77,1.78,0.89l5.63,0.85l-0.36,2.53l-10.18-1.53
			l0.36-2.53l1.27,0.19c-0.39-0.4-0.68-0.89-0.86-1.44c-0.18-0.56-0.22-1.16-0.14-1.78C26.24,160.31,26.76,159.41,27.62,158.79"/>
		<path class="st0" d="M28.87,148.88c0.42-0.49,0.9-0.84,1.44-1.05l-1.43-0.33l0.56-2.51l10.11,2.33c0.93,0.21,1.72,0.59,2.37,1.13
			c0.65,0.54,1.11,1.22,1.38,2.06c0.27,0.83,0.28,1.77,0.05,2.82c-0.31,1.4-0.9,2.47-1.76,3.21c-0.86,0.74-1.88,1.04-3.06,0.89
			l0.54-2.47c0.49-0.02,0.92-0.22,1.29-0.59s0.62-0.86,0.76-1.48c0.16-0.72,0.07-1.36-0.27-1.91c-0.34-0.55-0.96-0.93-1.86-1.14
			l-1.56-0.36c0.4,0.43,0.7,0.96,0.89,1.6c0.19,0.64,0.2,1.32,0.04,2.04c-0.18,0.83-0.57,1.54-1.16,2.13
			c-0.58,0.59-1.32,0.99-2.19,1.2c-0.88,0.22-1.84,0.2-2.86-0.03c-1.01-0.23-1.87-0.64-2.57-1.22c-0.7-0.58-1.18-1.26-1.45-2.03
			c-0.27-0.78-0.32-1.59-0.13-2.43C28.16,149.99,28.45,149.37,28.87,148.88 M32.24,148.65c-0.49,0.14-0.9,0.38-1.23,0.73
			c-0.33,0.35-0.54,0.75-0.64,1.22c-0.1,0.46-0.08,0.92,0.06,1.36c0.14,0.45,0.41,0.84,0.8,1.18c0.39,0.34,0.88,0.59,1.49,0.72
			c0.6,0.14,1.16,0.14,1.67,0c0.51-0.14,0.92-0.38,1.25-0.72c0.33-0.34,0.54-0.74,0.64-1.19c0.1-0.46,0.08-0.92-0.06-1.38
			c-0.15-0.46-0.42-0.86-0.8-1.19c-0.39-0.34-0.89-0.58-1.51-0.72C33.29,148.52,32.73,148.51,32.24,148.65"/>
		<polygon class="st0" points="150.06,317.45 149.64,319.52 146.33,318.87 144.19,329.59 141.7,329.1 143.84,318.38 140.53,317.72 
			140.95,315.65 		"/>
		<path class="st0" d="M158.75,321.67c0.54,0.41,0.94,0.97,1.18,1.67c0.25,0.7,0.31,1.52,0.19,2.44l-0.77,6.02l-2.52-0.31l0.73-5.67
			c0.1-0.81-0.01-1.47-0.35-1.96c-0.34-0.49-0.85-0.77-1.54-0.86c-0.7-0.09-1.27,0.06-1.73,0.45c-0.46,0.39-0.74,0.99-0.84,1.81
			l-0.73,5.67l-2.52-0.31l1.76-13.71l2.52,0.31l-0.61,4.72c0.38-0.4,0.86-0.7,1.43-0.89c0.57-0.19,1.19-0.24,1.85-0.16
			C157.55,321,158.2,321.25,158.75,321.67"/>
		<path class="st0" d="M165.45,321.82l-0.77,10.32l-2.54-0.17l0.77-10.32L165.45,321.82z M163.22,319.99
			c-0.27-0.31-0.39-0.69-0.36-1.12c0.03-0.44,0.21-0.79,0.52-1.06c0.32-0.27,0.7-0.39,1.15-0.36c0.45,0.03,0.81,0.2,1.08,0.51
			c0.27,0.31,0.4,0.69,0.36,1.12c-0.03,0.44-0.21,0.79-0.53,1.06c-0.32,0.27-0.7,0.39-1.15,0.36
			C163.85,320.48,163.49,320.3,163.22,319.99"/>
		<path class="st0" d="M176.26,323.14c0.72,0.79,1.07,1.88,1.04,3.27l-0.13,6.07l-2.54-0.04l0.12-5.71c0.02-0.82-0.17-1.46-0.56-1.9
			c-0.39-0.44-0.93-0.67-1.62-0.68c-0.7-0.01-1.26,0.2-1.67,0.64c-0.42,0.44-0.63,1.07-0.65,1.88l-0.12,5.71l-2.54-0.03l0.22-10.34
			l2.54,0.03l-0.02,1.29c0.35-0.45,0.79-0.79,1.32-1.04c0.53-0.25,1.11-0.37,1.74-0.36C174.58,321.95,175.54,322.35,176.26,323.14"
			/>
		<polygon class="st0" points="186.04,332 182.41,327.82 182.64,332.21 180.1,332.37 179.41,318.58 181.95,318.43 182.34,326.27 
			185.49,321.68 188.79,321.49 184.63,326.93 189.34,331.8 		"/>
		<path class="st0" d="M190.06,319.6c-0.33-0.26-0.51-0.6-0.55-1.04s0.07-0.81,0.34-1.13c0.26-0.33,0.62-0.52,1.07-0.56
			c0.44-0.05,0.83,0.05,1.15,0.31c0.32,0.26,0.51,0.6,0.55,1.04c0.04,0.43-0.07,0.81-0.34,1.13c-0.27,0.33-0.62,0.51-1.07,0.56
			C190.77,319.96,190.39,319.85,190.06,319.6 M192.59,320.99l1.03,10.28l-2.53,0.28l-1.03-10.28L192.59,320.99z"/>
		<path class="st0" d="M203.48,320.33c0.85,0.64,1.38,1.65,1.59,3.02l0.93,5.99l-2.51,0.43l-0.87-5.63
			c-0.13-0.81-0.42-1.4-0.89-1.77c-0.46-0.37-1.04-0.5-1.71-0.38c-0.69,0.12-1.21,0.43-1.54,0.93c-0.33,0.5-0.44,1.16-0.31,1.97
			l0.88,5.63l-2.51,0.43l-1.59-10.2l2.51-0.43l0.2,1.27c0.27-0.5,0.64-0.92,1.12-1.26c0.48-0.34,1.03-0.56,1.65-0.67
			C201.62,319.47,202.63,319.69,203.48,320.33"/>
		<path class="st0" d="M212.38,317.52c0.62,0.15,1.15,0.43,1.58,0.81l-0.34-1.43l2.49-0.63l2.39,10.11
			c0.22,0.93,0.23,1.81,0.04,2.63c-0.19,0.82-0.6,1.54-1.23,2.16c-0.63,0.61-1.46,1.05-2.5,1.31c-1.39,0.35-2.61,0.31-3.65-0.13
			c-1.05-0.44-1.76-1.22-2.15-2.33l2.45-0.62c0.24,0.42,0.6,0.72,1.1,0.88c0.49,0.16,1.05,0.17,1.66,0.01
			c0.72-0.18,1.25-0.55,1.59-1.1c0.34-0.55,0.41-1.28,0.2-2.17l-0.37-1.56c-0.2,0.55-0.55,1.06-1.04,1.51
			c-0.49,0.45-1.09,0.77-1.8,0.96c-0.82,0.21-1.63,0.18-2.42-0.08c-0.79-0.26-1.47-0.74-2.05-1.43c-0.58-0.69-0.99-1.55-1.24-2.58
			c-0.24-1.01-0.25-1.96-0.04-2.85c0.21-0.88,0.6-1.62,1.18-2.22c0.58-0.59,1.28-0.99,2.12-1.21
			C211.08,317.38,211.76,317.36,212.38,317.52 M214.08,320.43c-0.34-0.38-0.74-0.64-1.19-0.77c-0.46-0.13-0.91-0.14-1.37-0.02
			c-0.46,0.12-0.86,0.34-1.19,0.66c-0.34,0.33-0.57,0.74-0.71,1.25c-0.14,0.5-0.13,1.06,0.01,1.66c0.14,0.6,0.39,1.1,0.74,1.49
			c0.35,0.39,0.74,0.66,1.2,0.8c0.45,0.14,0.9,0.15,1.35,0.04c0.46-0.12,0.86-0.35,1.21-0.68c0.34-0.34,0.58-0.75,0.71-1.25
			c0.13-0.5,0.12-1.06-0.02-1.68C214.66,321.3,214.42,320.81,214.08,320.43"/>
		<polygon class="st12" points="124.46,170.44 107.84,170.44 107.84,140.92 124.46,140.92 124.46,146.05 113.96,146.05 
			113.96,152.53 123.73,152.53 123.73,157.66 113.96,157.66 113.96,165.27 124.46,165.27 		"/>
		<polygon class="st12" points="132.35,158.91 125.24,147.87 132.07,147.87 136.36,155.05 140.68,147.87 147.51,147.87 
			140.33,158.91 147.85,170.44 141,170.44 136.36,162.71 131.7,170.44 124.87,170.44 		"/>
		<polygon class="st13" points="160.64,170.44 154.51,170.44 154.51,146.13 146.67,146.13 146.67,140.92 168.48,140.92 
			168.48,146.13 160.64,146.13 		"/>
		<path class="st13" d="M180.25,170.84c-3.55,0-6.33-1-8.33-3.01c-2-2.01-3-4.84-3-8.52c0-3.78,0.92-6.71,2.78-8.77
			c1.85-2.07,4.41-3.1,7.67-3.1c3.12,0,5.55,0.91,7.29,2.73c1.74,1.82,2.61,4.33,2.61,7.53v2.99h-14.24
			c0.07,1.75,0.57,3.12,1.52,4.1c0.95,0.98,2.28,1.47,3.99,1.47c1.33,0,2.59-0.14,3.77-0.42c1.18-0.28,2.42-0.73,3.71-1.35v4.76
			c-1.06,0.54-2.18,0.94-3.38,1.2C183.44,170.71,181.98,170.84,180.25,170.84 M179.4,151.82c-1.28,0-2.28,0.41-3,1.24
			c-0.72,0.83-1.14,2-1.25,3.52h8.45c-0.03-1.52-0.41-2.69-1.16-3.52C181.69,152.24,180.68,151.82,179.4,151.82"/>
		<path class="st13" d="M200.94,170.84c-6.87,0-10.31-3.86-10.31-11.57c0-3.84,0.93-6.77,2.8-8.79c1.87-2.03,4.55-3.04,8.04-3.04
			c2.56,0,4.84,0.51,6.87,1.53l-1.78,4.76c-0.95-0.39-1.83-0.71-2.64-0.96c-0.81-0.25-1.63-0.37-2.45-0.37
			c-3.13,0-4.7,2.27-4.7,6.82c0,4.41,1.57,6.62,4.7,6.62c1.16,0,2.23-0.16,3.22-0.47c0.99-0.32,1.97-0.81,2.96-1.48v5.27
			c-0.98,0.63-1.96,1.07-2.95,1.31C203.71,170.72,202.45,170.84,200.94,170.84"/>
		<path class="st13" d="M230.96,170.44h-6.02v-13.18c0-3.26-1.18-4.89-3.56-4.89c-1.68,0-2.9,0.59-3.65,1.76
			c-0.75,1.17-1.13,3.07-1.13,5.69v10.62h-6.02v-31.41h6.02v6.4c0,0.5-0.05,1.67-0.14,3.51l-0.14,1.81h0.32
			c1.34-2.21,3.48-3.31,6.4-3.31c2.6,0,4.56,0.72,5.91,2.14c1.34,1.43,2.01,3.47,2.01,6.14V170.44z"/>
		<polygon class="st11" points="93.81,211.27 93.81,181.75 99.93,181.75 99.93,206.1 111.64,206.1 111.64,211.27 		"/>
		<path class="st11" d="M123.99,211.67c-3.55,0-6.33-1-8.33-3.01c-2-2.01-3-4.84-3-8.52c0-3.78,0.92-6.71,2.78-8.77
			c1.85-2.07,4.41-3.1,7.67-3.1c3.12,0,5.55,0.91,7.29,2.73c1.74,1.82,2.61,4.33,2.61,7.53v2.99h-14.24
			c0.07,1.75,0.57,3.12,1.52,4.1c0.95,0.98,2.28,1.47,3.99,1.47c1.33,0,2.59-0.14,3.77-0.42c1.18-0.28,2.42-0.73,3.71-1.35v4.76
			c-1.06,0.54-2.18,0.94-3.38,1.2C127.17,211.54,125.71,211.67,123.99,211.67 M123.14,192.66c-1.28,0-2.28,0.41-3,1.24
			c-0.72,0.83-1.14,2-1.25,3.52h8.45c-0.03-1.52-0.41-2.69-1.16-3.52C125.43,193.07,124.42,192.66,123.14,192.66"/>
		<path class="st11" d="M149.73,211.27l-1.16-3.07h-0.16c-1.01,1.31-2.06,2.21-3.13,2.71c-1.07,0.51-2.47,0.76-4.19,0.76
			c-2.12,0-3.79-0.62-5.01-1.86c-1.22-1.24-1.83-3-1.83-5.29c0-2.4,0.82-4.16,2.46-5.3c1.64-1.14,4.11-1.77,7.42-1.89l3.83-0.12
			v-0.99c0-2.29-1.15-3.43-3.44-3.43c-1.76,0-3.84,0.55-6.22,1.64l-1.99-4.16c2.54-1.36,5.36-2.04,8.45-2.04
			c2.96,0,5.23,0.66,6.81,1.98c1.58,1.32,2.37,3.32,2.37,6.02v15.04H149.73z M147.95,200.81l-2.33,0.08
			c-1.75,0.06-3.05,0.38-3.91,0.97c-0.86,0.59-1.29,1.49-1.29,2.7c0,1.74,0.98,2.6,2.92,2.6c1.4,0,2.51-0.41,3.35-1.23
			c0.84-0.82,1.26-1.91,1.26-3.27V200.81z"/>
		<path class="st11" d="M170.27,188.27c0.82,0,1.49,0.06,2.04,0.18l-0.46,5.77c-0.49-0.13-1.08-0.2-1.78-0.2
			c-1.92,0-3.42,0.51-4.49,1.51c-1.07,1.01-1.61,2.42-1.61,4.24v11.49h-6.02V188.7h4.56l0.89,3.79h0.3
			c0.68-1.26,1.61-2.28,2.78-3.06C167.64,188.66,168.91,188.27,170.27,188.27"/>
		<path class="st11" d="M194.51,211.27h-6.02v-13.18c0-1.63-0.28-2.85-0.85-3.67c-0.57-0.81-1.47-1.22-2.71-1.22
			c-1.68,0-2.9,0.58-3.65,1.73c-0.75,1.15-1.13,3.06-1.13,5.73v10.62h-6.02V188.7h4.6l0.81,2.88h0.34c0.67-1.09,1.6-1.91,2.78-2.47
			c1.18-0.56,2.52-0.84,4.02-0.84c2.57,0,4.52,0.71,5.85,2.13c1.33,1.42,1.99,3.47,1.99,6.15V211.27z"/>
		<path class="st11" d="M198.27,182.86c0-2.01,1.09-3.01,3.28-3.01c2.19,0,3.28,1,3.28,3.01c0,0.96-0.27,1.7-0.82,2.23
			c-0.54,0.53-1.36,0.8-2.46,0.8C199.36,185.89,198.27,184.88,198.27,182.86 M204.55,211.27h-6.02V188.7h6.02V211.27z"/>
		<path class="st11" d="M229.06,211.27h-6.02v-13.18c0-1.63-0.28-2.85-0.85-3.67c-0.57-0.81-1.47-1.22-2.71-1.22
			c-1.68,0-2.9,0.58-3.65,1.73c-0.75,1.15-1.13,3.06-1.13,5.73v10.62h-6.02V188.7h4.6l0.81,2.88h0.34c0.67-1.09,1.6-1.91,2.78-2.47
			c1.18-0.56,2.52-0.84,4.02-0.84c2.57,0,4.52,0.71,5.85,2.13c1.33,1.42,1.99,3.47,1.99,6.15V211.27z"/>
		<path class="st11" d="M252.3,188.7v3.13l-3.45,0.91c0.63,1.01,0.95,2.14,0.95,3.39c0,2.42-0.83,4.31-2.48,5.66
			c-1.65,1.35-3.95,2.03-6.88,2.03l-1.09-0.06l-0.89-0.1c-0.62,0.49-0.93,1.02-0.93,1.61c0,0.89,1.11,1.33,3.32,1.33h3.75
			c2.42,0,4.27,0.53,5.54,1.6c1.27,1.07,1.91,2.63,1.91,4.68c0,2.64-1.08,4.68-3.23,6.14c-2.15,1.45-5.24,2.18-9.27,2.18
			c-3.08,0-5.43-0.55-7.06-1.65c-1.63-1.1-2.44-2.63-2.44-4.61c0-1.36,0.41-2.5,1.25-3.41c0.83-0.91,2.05-1.57,3.65-1.96
			c-0.62-0.27-1.16-0.71-1.62-1.32c-0.46-0.61-0.69-1.26-0.69-1.95c0-0.86,0.24-1.58,0.73-2.15c0.49-0.57,1.19-1.13,2.11-1.69
			c-1.16-0.51-2.08-1.33-2.76-2.46c-0.68-1.13-1.02-2.46-1.02-4c0-2.46,0.78-4.37,2.35-5.72c1.56-1.34,3.8-2.02,6.71-2.02
			c0.62,0,1.35,0.06,2.2,0.17c0.85,0.11,1.39,0.2,1.63,0.25H252.3z M235.26,214.46c0,0.85,0.4,1.51,1.19,2
			c0.8,0.48,1.91,0.73,3.35,0.73c2.16,0,3.85-0.3,5.08-0.91c1.22-0.61,1.84-1.43,1.84-2.49c0-0.84-0.36-1.43-1.09-1.75
			c-0.72-0.32-1.84-0.49-3.36-0.49h-3.12c-1.11,0-2.03,0.27-2.77,0.8C235.63,212.88,235.26,213.58,235.26,214.46 M237.45,196.09
			c0,1.23,0.27,2.19,0.82,2.91c0.55,0.71,1.38,1.07,2.5,1.07c1.13,0,1.96-0.36,2.49-1.07c0.53-0.71,0.79-1.68,0.79-2.91
			c0-2.72-1.09-4.08-3.28-4.08C238.55,192.01,237.45,193.37,237.45,196.09"/>
		<path class="st14" d="M242.55,154.26c-5.37,0-9.74-4.37-9.74-9.74c0-5.37,4.37-9.74,9.74-9.74c5.37,0,9.74,4.37,9.74,9.74
			C252.3,149.9,247.93,154.26,242.55,154.26"/>
		<path class="st14" d="M242.55,136.64c-4.35,0-7.89,3.54-7.89,7.89c0,4.35,3.54,7.89,7.89,7.89c4.35,0,7.89-3.54,7.89-7.89
			C250.45,140.17,246.91,136.64,242.55,136.64"/>
		<path class="st0" d="M241.53,145.42v3.41h-1.88v-8.88h2.59c1.21,0,2.1,0.22,2.68,0.66c0.58,0.44,0.86,1.1,0.86,2
			c0,0.52-0.14,0.99-0.43,1.4c-0.29,0.41-0.69,0.73-1.22,0.96c1.33,1.99,2.21,3.28,2.61,3.87h-2.09l-2.12-3.41H241.53z
			 M241.53,143.89h0.61c0.59,0,1.03-0.1,1.32-0.3c0.28-0.2,0.43-0.51,0.43-0.93c0-0.42-0.15-0.72-0.44-0.9
			c-0.29-0.18-0.74-0.27-1.35-0.27h-0.57V143.89z"/>
	</g>
</g>
<g id="guías">
</g>
</svg>
