<?xml version="1.0" encoding="utf-8"?>
<!-- Generator: Adobe Illustrator 24.0.2, SVG Export Plug-In . SVG Version: 6.00 Build 0)  -->
<svg version="1.1" xmlns="http://www.w3.org/2000/svg" xmlns:xlink="http://www.w3.org/1999/xlink" x="0px" y="0px"
	 viewBox="0 0 172.52 73.29" style="enable-background:new 0 0 172.52 73.29;" xml:space="preserve">
<style type="text/css">
	.st0{fill:#0444BF;}
	.st1{fill:#0454CA;}
	.st2{fill:#FF8800;}
	.st3{clip-path:url(#SVGID_2_);}
	.st4{fill:#FFFFFF;}
	.st5{fill:#E52421;}
	.st6{fill:none;stroke:#A69674;stroke-width:0.75;stroke-miterlimit:10;}
	.st7{fill:#CFFFE6;}
	.st8{fill:#82FFBE;}
	.st9{fill:#C3FFE4;}
	.st10{fill:none;stroke:#575756;stroke-width:0.25;stroke-miterlimit:10;}
	.st11{fill:none;stroke:#9D9D9C;stroke-width:0.25;stroke-miterlimit:10;}
	.st12{fill:#AFCA13;}
	.st13{fill:none;stroke:#000000;stroke-width:0.25;stroke-miterlimit:10;}
	.st14{fill:#F4F4F4;}
	.st15{fill:#FF7523;}
	.st16{fill:#00C65A;}
	.st17{fill:#FFFFFF;stroke:#FC910E;stroke-miterlimit:10;}
	.st18{fill:#FFFFFF;stroke:#FC910E;stroke-width:1.5;stroke-miterlimit:10;}
	.st19{fill:#E9E9E6;}
	.st20{opacity:0.75;}
	.st21{opacity:0.5;fill:none;stroke:#B2B2B2;stroke-miterlimit:10;}
	.st22{fill:#F8F4E8;}
	.st23{fill:#FFFFFF;stroke:#000000;stroke-width:0.25;stroke-miterlimit:10;}
	.st24{fill:#F8F8F8;}
	.st25{fill:#575756;}
	.st26{clip-path:url(#SVGID_6_);}
	.st27{fill:none;stroke:#3985FF;stroke-width:0.75;stroke-miterlimit:10;}
	.st28{fill:#0684F2;}
	.st29{fill:#FAFAFA;stroke:#E9E9E6;stroke-width:0.25;stroke-miterlimit:10;}
	.st30{fill:#F4F4F4;stroke:#FF8800;stroke-miterlimit:10;}
	.st31{fill:none;stroke:#FF8800;stroke-miterlimit:10;}
	.st32{fill:#00BE8C;}
	.st33{fill:none;stroke:#FFFFFF;stroke-width:3;stroke-miterlimit:10;}
	.st34{fill:#FF915F;}
	.st35{fill:#0079BF;}
	.st36{fill:#FFCD41;}
	.st37{fill:#F4F4F4;stroke:#FF8800;stroke-width:0.5;stroke-miterlimit:10;}
	.st38{fill:#00202B;}
	.st39{fill:none;stroke:#FFFFFF;stroke-width:6;stroke-miterlimit:10;}
	.st40{fill:none;stroke:#0444BF;stroke-width:0.75;stroke-miterlimit:10;}
	.st41{fill:#FFE90D;}
	.st42{opacity:0.5;fill:#E3ECFF;}
	.st43{fill:#AFFFFD;}
	.st44{fill:#FC910E;}
	.st45{fill:none;stroke:#FFFFFF;stroke-miterlimit:10;}
	.st46{fill:#EDEDED;}
	.st47{fill:#FF8659;}
	.st48{fill:none;stroke:#EDEDED;stroke-miterlimit:10;}
	.st49{fill:#008BE1;}
	.st50{fill:none;stroke:#0684F2;stroke-width:0.5;stroke-linecap:round;stroke-linejoin:round;stroke-miterlimit:10;}
	.st51{fill:none;stroke:#0684F2;stroke-linecap:round;stroke-linejoin:round;stroke-miterlimit:10;}
	.st52{fill:#FFFFFF;stroke:#0684F2;stroke-linecap:round;stroke-linejoin:round;stroke-miterlimit:10;}
	.st53{fill:#FFFFFF;stroke:#F1C51D;stroke-width:2;stroke-linecap:round;stroke-linejoin:round;stroke-miterlimit:10;}
	.st54{fill:none;stroke:#F1C51D;stroke-width:2;stroke-linecap:round;stroke-linejoin:round;stroke-miterlimit:10;}
	.st55{fill:#FFFCF1;}
	.st56{fill:#DB5B00;}
	.st57{fill:#00AAFF;}
	.st58{fill:#F6BE00;}
	.st59{fill:#F1F2D0;}
	.st60{fill:#F5F9FF;}
	.st61{fill:none;stroke:#4A4A49;stroke-width:0.25;stroke-miterlimit:10;}
	.st62{fill:#0EFF97;}
	.st63{fill:#F8F9FA;}
	.st64{fill:#FFFFFF;stroke:#C6C6C6;stroke-width:0.25;stroke-miterlimit:10;}
	.st65{fill:#FF9922;}
	.st66{fill:none;stroke:#B2B2B2;stroke-width:0.25;stroke-miterlimit:10;}
	.st67{fill:none;stroke:#0AAFF1;stroke-miterlimit:10;}
	.st68{fill:none;stroke:#4A4A49;stroke-width:0.5;stroke-miterlimit:10;}
	.st69{fill:#CFFFE6;stroke:#4A4A49;stroke-width:0.5;stroke-linecap:round;stroke-linejoin:round;stroke-miterlimit:10;}
	.st70{fill:#FFFFFF;stroke:#F2F3F7;stroke-miterlimit:10;}
	.st71{fill:#5D5D5D;}
	.st72{fill:#FFFFFF;stroke:#DADADA;stroke-miterlimit:10;}
	.st73{fill:#F8F9FA;stroke:#B2B2B2;stroke-width:0.25;stroke-miterlimit:10;}
	.st74{fill:none;stroke:#0444BF;stroke-width:0.5;stroke-miterlimit:10;}
	.st75{opacity:0.3;fill:#0684F2;}
	.st76{fill:none;stroke:#0AAFF1;stroke-width:0.75;stroke-miterlimit:10;}
	.st77{fill:#C0CFF0;}
	.st78{fill:#FFFFFF;stroke:#C0CFF0;stroke-width:2;stroke-miterlimit:10;}
	.st79{fill:#D6E8FB;stroke:#C0CFF0;stroke-width:2;stroke-miterlimit:10;}
	.st80{fill:#FFFFFF;stroke:#C0CFF0;stroke-linecap:round;stroke-linejoin:round;stroke-miterlimit:10;}
	.st81{clip-path:url(#SVGID_14_);}
	.st82{fill:none;stroke:#C0CFF0;stroke-width:0.75;stroke-miterlimit:10;}
	.st83{fill:#E02107;}
	.st84{fill:#FFC715;}
	.st85{fill:#2B9FE0;}
	.st86{fill:#8FC912;}
	.st87{fill:#878787;}
	.st88{fill:#CFFFE6;stroke:#0684F2;stroke-linecap:round;stroke-linejoin:round;stroke-miterlimit:10;}
	.st89{fill:none;stroke:#4A4A49;stroke-miterlimit:10;}
	.st90{fill:none;stroke:#C6C6C6;stroke-width:0.25;stroke-miterlimit:10;}
	.st91{fill:#FAFAFA;stroke:#DADADA;stroke-width:0.25;stroke-miterlimit:10;}
	.st92{fill:#FF9708;}
	.st93{fill:#D9FCEE;}
	.st94{fill:#EBF1FF;}
	.st95{fill:#F0F5FF;}
	.st96{fill:#BA5033;}
	.st97{fill:#E6633E;}
	.st98{fill:#0AAFF1;}
	.st99{fill:#014B8E;}
	.st100{fill:#F57D31;}
	.st101{fill:#244298;}
	.st102{fill:#EB001B;}
	.st103{fill:#F79E1B;}
	.st104{fill:#FF5F00;}
	.st105{fill:#306FC5;}
	.st106{fill:#00529E;}
	.st107{fill:#34495E;}
	.st108{fill:#E0811D;}
	.st109{fill:#0F549D;}
	.st110{fill:#B41F36;}
	.st111{fill:#329947;}
	.st112{fill:#009ADE;}
	.st113{fill:#002F87;}
	.st114{fill:#002169;}
	.st115{fill:none;stroke:#494949;stroke-width:0.5;stroke-miterlimit:10;}
	.st116{fill:none;stroke:#494949;stroke-width:0.5;stroke-linecap:round;stroke-linejoin:round;stroke-miterlimit:10;}
	.st117{clip-path:url(#SVGID_16_);fill:#026847;}
	.st118{clip-path:url(#SVGID_16_);fill:#FFFFFF;}
	.st119{clip-path:url(#SVGID_16_);fill:#E52421;}
	.st120{clip-path:url(#SVGID_18_);fill:#006847;}
	.st121{clip-path:url(#SVGID_18_);fill:#ECE13C;}
	.st122{clip-path:url(#SVGID_18_);fill:#CF2011;}
	.st123{clip-path:url(#SVGID_20_);fill:#F8CD16;}
	.st124{clip-path:url(#SVGID_20_);fill:#00388F;}
	.st125{clip-path:url(#SVGID_20_);fill:#CA1126;}
	.st126{clip-path:url(#SVGID_22_);fill:#E52421;}
	.st127{clip-path:url(#SVGID_22_);fill:#FFFFFF;}
	.st128{fill:#FBBA00;}
	.st129{fill:#EDEDEA;}
	.st130{fill:#B5FFD9;}
	.st131{fill:#9CFFCA;}
</style>
<g id="base">
	<g>
		<path d="M142.06,25.9c-5.92,0-10.72,4.8-10.72,10.72c0,5.92,4.8,10.72,10.72,10.72c5.92,0,10.72-4.8,10.72-10.72
			C152.78,30.7,147.98,25.9,142.06,25.9z M139.64,41.3h-2.08v-6.67h2.08V41.3z M138.6,33.71c-0.67,0-1.2-0.54-1.2-1.2
			c0-0.66,0.54-1.2,1.2-1.2c0.66,0,1.2,0.54,1.2,1.2C139.8,33.17,139.26,33.71,138.6,33.71z M147.4,41.3h-2.07v-3.24
			c0-0.77-0.02-1.77-1.08-1.77c-1.08,0-1.24,0.84-1.24,1.71v3.3h-2.07v-6.67h1.99v0.91h0.03c0.28-0.53,0.95-1.08,1.96-1.08
			c2.1,0,2.49,1.38,2.49,3.18V41.3z"/>
		<path d="M114.16,25.9c-5.92,0-10.72,4.8-10.72,10.72s4.8,10.72,10.72,10.72c5.92,0,10.72-4.8,10.72-10.72S120.08,25.9,114.16,25.9
			z M120.13,32.96c0,0.03,0,0.1-0.06,0.19c-0.27,0.37-0.57,0.7-0.93,0.97c-0.05,0.04-0.14,0.08-0.14,0.16c0,1.93-0.49,3.86-1.9,5.26
			c-1.79,1.78-4.48,2.27-6.87,1.61c-0.46-0.13-0.9-0.31-1.33-0.53c-0.14-0.08-0.28-0.16-0.41-0.25c-0.03-0.03-0.06-0.05-0.03-0.07
			c0.03-0.01,0.05-0.02,0.16,0c0.67,0.07,1.36-0.03,1.99-0.25c0.35-0.12,1.09-0.37,1.31-0.69c0.01-0.01,0.01-0.01,0.02-0.02
			c-0.09-0.02-0.17-0.02-0.26-0.04c-0.65-0.19-1.52-0.51-1.92-1.6c-0.03-0.06,0-0.1,0.07-0.08c0.53,0.04,0.73,0.01,0.91-0.03
			c-0.1-0.02-0.21-0.05-0.31-0.09c-0.82-0.31-1.41-1.11-1.52-1.97c-0.01-0.1-0.02-0.18-0.02-0.28c0.01-0.06,0.03-0.08,0.09-0.05
			c0.42,0.22,0.89,0.27,0.93,0.26c-0.1-0.08-0.2-0.17-0.3-0.26c-0.71-0.67-0.98-2.04-0.42-2.89c0.05-0.07,0.08-0.07,0.13,0
			c1.3,1.48,2.89,2.17,4.82,2.45c0.05,0.01,0.06,0,0.05-0.06c-0.05-0.34-0.06-0.67,0.03-1.01c0.08-0.35,0.25-0.68,0.48-0.95
			c0.22-0.27,0.49-0.49,0.8-0.65c0.31-0.16,0.64-0.26,0.99-0.28c0.35-0.02,0.71,0.03,1.04,0.17c0.25,0.1,0.47,0.24,0.68,0.42
			c0.04,0.04,0.08,0.08,0.12,0.13c0.03,0.03,0.06,0.04,0.1,0.03c0.49-0.12,0.96-0.3,1.4-0.54c0.02-0.01,0.04-0.02,0.06-0.01
			c0.02,0.02,0.01,0.04,0,0.06c-0.08,0.26-0.22,0.5-0.39,0.72c-0.11,0.14-0.39,0.48-0.58,0.52c0.4-0.07,0.81-0.17,1.18-0.34
			c0.05-0.02,0.05-0.03,0.05,0C120.13,32.95,120.13,32.95,120.13,32.96z"/>
		<path d="M58.36,25.94c-5.92,0-10.72,4.8-10.72,10.72c0,5.92,4.8,10.72,10.72,10.72c5.92,0,10.72-4.8,10.72-10.72
			C69.09,30.74,64.29,25.94,58.36,25.94z M64.65,39.16c0,2.08-1.69,3.78-3.78,3.78h-5.02c-2.08,0-3.78-1.69-3.78-3.78v-5.02
			c0-2.08,1.69-3.78,3.78-3.78h5.02c2.08,0,3.78,1.69,3.78,3.78V39.16z M60.4,36.65c0,1.09-0.89,1.98-1.98,1.98
			s-1.98-0.89-1.98-1.98c0-1.09,0.89-1.98,1.98-1.98S60.4,35.56,60.4,36.65z M60.87,31.55h-5.02c-1.43,0-2.59,1.16-2.59,2.59v5.02
			c0,1.43,1.16,2.59,2.59,2.59h5.02c1.43,0,2.59-1.16,2.59-2.59v-5.02C63.47,32.71,62.3,31.55,60.87,31.55z M58.41,39.75
			c-1.71,0-3.1-1.39-3.1-3.1c0-1.71,1.39-3.1,3.1-3.1c1.71,0,3.1,1.39,3.1,3.1C61.51,38.36,60.12,39.75,58.41,39.75z M61.69,34.08
			c-0.41,0-0.74-0.33-0.74-0.74c0-0.41,0.33-0.74,0.74-0.74c0.41,0,0.74,0.33,0.74,0.74C62.43,33.75,62.1,34.08,61.69,34.08z"/>
		<path d="M41.19,36.67c0-5.92-4.8-10.72-10.72-10.72s-10.72,4.8-10.72,10.72c0,5.35,3.92,9.79,9.05,10.59v-7.49h-2.72v-3.1h2.72
			V34.3c0-2.69,1.6-4.17,4.05-4.17c1.17,0,2.4,0.21,2.4,0.21v2.64h-1.35c-1.33,0-1.75,0.83-1.75,1.67v2.01h2.97l-0.48,3.1h-2.5v7.49
			C37.27,46.46,41.19,42.02,41.19,36.67z"/>
		<g>
			<g>
				<path d="M86.22,25.94c-5.9,0-10.68,4.78-10.68,10.68c0,5.9,4.78,10.68,10.68,10.68c5.9,0,10.68-4.78,10.68-10.68
					C96.9,30.72,92.11,25.94,86.22,25.94z M91.97,38.13c0,1.4-1.13,2.53-2.53,2.53h-6.46c-1.4,0-2.53-1.13-2.53-2.53v-3.01
					c0-1.4,1.13-2.53,2.53-2.53h6.46c1.4,0,2.53,1.13,2.53,2.53V38.13z"/>
				<path d="M88.05,36.55l-2.77-1.51c-0.11-0.06-0.5,0.02-0.5,0.15v2.94c0,0.13,0.39,0.21,0.5,0.15l2.9-1.43
					C88.29,36.78,88.17,36.62,88.05,36.55z"/>
			</g>
		</g>
	</g>
</g>
<g id="guías">
</g>
</svg>
