<?xml version="1.0" encoding="utf-8"?>
<!-- Generator: Adobe Illustrator 24.0.2, SVG Export Plug-In . SVG Version: 6.00 Build 0)  -->
<svg version="1.1" xmlns="http://www.w3.org/2000/svg" xmlns:xlink="http://www.w3.org/1999/xlink" x="0px" y="0px"
	 viewBox="0 0 81.63 81.63" style="enable-background:new 0 0 81.63 81.63;" xml:space="preserve">
<style type="text/css">
	.st0{fill:#FFFFFF;}
	.st1{fill:#C0CFF0;}
	.st2{fill:#FFFFFF;stroke:#C0CFF0;stroke-width:2;stroke-miterlimit:10;}
	.st3{fill:#D6E8FB;stroke:#C0CFF0;stroke-width:2;stroke-miterlimit:10;}
	.st4{fill:#FFFFFF;stroke:#C0CFF0;stroke-linecap:round;stroke-linejoin:round;stroke-miterlimit:10;}
	.st5{clip-path:url(#SVGID_10_);}
	.st6{fill:none;stroke:#C0CFF0;stroke-width:0.75;stroke-miterlimit:10;}
	.st7{fill:#CFFFE6;}
	.st8{fill:none;stroke:#0684F2;stroke-width:0.5;stroke-linecap:round;stroke-linejoin:round;stroke-miterlimit:10;}
	.st9{fill:none;stroke:#0684F2;stroke-linecap:round;stroke-linejoin:round;stroke-miterlimit:10;}
	.st10{fill:#CFFFE6;stroke:#0684F2;stroke-linecap:round;stroke-linejoin:round;stroke-miterlimit:10;}
	.st11{fill:#E02107;}
	.st12{fill:#FFC715;}
	.st13{fill:#2B9FE0;}
	.st14{fill:#8FC912;}
	.st15{fill:#F5F9FF;}
	.st16{fill:#72C9FF;}
	.st17{fill:#0444BF;}
	.st18{fill:#AFCA13;}
	.st19{fill:none;stroke:#DADADA;stroke-width:0.5;stroke-miterlimit:10;}
	.st20{fill:#29ED65;}
	.st21{clip-path:url(#SVGID_12_);}
	.st22{fill:#35180F;}
	.st23{opacity:0.5;}
	.st24{clip-path:url(#SVGID_14_);}
	.st25{fill:#FF828A;}
	.st26{fill:#272A35;}
	.st27{fill:#251D8A;}
	.st28{clip-path:url(#SVGID_16_);}
	.st29{opacity:0.25;clip-path:url(#SVGID_18_);}
	.st30{clip-path:url(#SVGID_20_);fill:#0F1ADE;}
	.st31{clip-path:url(#SVGID_22_);fill:#0F1ADE;}
	.st32{opacity:0.5;clip-path:url(#SVGID_24_);}
	.st33{clip-path:url(#SVGID_26_);fill:#FFFFFF;}
	.st34{clip-path:url(#SVGID_28_);fill:#FFFFFF;}
	.st35{clip-path:url(#SVGID_30_);fill:#FFFFFF;}
	.st36{clip-path:url(#SVGID_32_);fill:#FFFFFF;}
	.st37{clip-path:url(#SVGID_34_);fill:#FFFFFF;}
	.st38{clip-path:url(#SVGID_36_);fill:#FFFFFF;}
	.st39{clip-path:url(#SVGID_38_);fill:#FFFFFF;}
	.st40{clip-path:url(#SVGID_40_);fill:#FFFFFF;}
	.st41{clip-path:url(#SVGID_42_);fill:#FFFFFF;}
	.st42{clip-path:url(#SVGID_44_);fill:#FFFFFF;}
	.st43{clip-path:url(#SVGID_46_);fill:#FFFFFF;}
	.st44{clip-path:url(#SVGID_48_);fill:#FFFFFF;}
	.st45{clip-path:url(#SVGID_50_);fill:#FFFFFF;}
	.st46{clip-path:url(#SVGID_52_);fill:#FFFFFF;}
	.st47{clip-path:url(#SVGID_54_);fill:#FFFFFF;}
	.st48{opacity:0.5;clip-path:url(#SVGID_56_);}
	.st49{clip-path:url(#SVGID_58_);fill:#FFFFFF;}
	.st50{clip-path:url(#SVGID_60_);fill:#FFFFFF;}
	.st51{clip-path:url(#SVGID_62_);fill:#FFFFFF;}
	.st52{clip-path:url(#SVGID_64_);fill:#FFFFFF;}
	.st53{clip-path:url(#SVGID_66_);fill:#FFFFFF;}
	.st54{clip-path:url(#SVGID_68_);fill:#FFFFFF;}
	.st55{clip-path:url(#SVGID_70_);fill:#FFFFFF;}
	.st56{clip-path:url(#SVGID_72_);fill:#FFFFFF;}
	.st57{clip-path:url(#SVGID_74_);fill:#FFFFFF;}
	.st58{clip-path:url(#SVGID_76_);fill:#FFFFFF;}
	.st59{clip-path:url(#SVGID_78_);fill:#FFFFFF;}
	.st60{clip-path:url(#SVGID_80_);fill:#FFFFFF;}
	.st61{clip-path:url(#SVGID_82_);fill:#FFFFFF;}
	.st62{clip-path:url(#SVGID_84_);fill:#FFFFFF;}
	.st63{clip-path:url(#SVGID_86_);fill:#FFFFFF;}
	.st64{clip-path:url(#SVGID_88_);fill:#FFFFFF;}
	.st65{clip-path:url(#SVGID_90_);fill:#FFFFFF;}
	.st66{clip-path:url(#SVGID_92_);}
	.st67{opacity:0.25;clip-path:url(#SVGID_94_);}
	.st68{clip-path:url(#SVGID_96_);fill:#0F1ADE;}
	.st69{clip-path:url(#SVGID_98_);fill:#0F1ADE;}
	.st70{opacity:0.5;clip-path:url(#SVGID_100_);}
	.st71{clip-path:url(#SVGID_102_);fill:#FFFFFF;}
	.st72{clip-path:url(#SVGID_104_);fill:#FFFFFF;}
	.st73{clip-path:url(#SVGID_106_);fill:#FFFFFF;}
	.st74{clip-path:url(#SVGID_108_);fill:#FFFFFF;}
	.st75{clip-path:url(#SVGID_110_);fill:#FFFFFF;}
	.st76{clip-path:url(#SVGID_112_);fill:#FFFFFF;}
	.st77{clip-path:url(#SVGID_114_);fill:#FFFFFF;}
	.st78{clip-path:url(#SVGID_116_);fill:#FFFFFF;}
	.st79{clip-path:url(#SVGID_118_);fill:#FFFFFF;}
	.st80{clip-path:url(#SVGID_120_);fill:#FFFFFF;}
	.st81{clip-path:url(#SVGID_122_);fill:#FFFFFF;}
	.st82{clip-path:url(#SVGID_124_);fill:#FFFFFF;}
	.st83{clip-path:url(#SVGID_126_);fill:#FFFFFF;}
	.st84{clip-path:url(#SVGID_128_);fill:#FFFFFF;}
	.st85{clip-path:url(#SVGID_130_);fill:#FFFFFF;}
	.st86{opacity:0.5;clip-path:url(#SVGID_132_);}
	.st87{clip-path:url(#SVGID_134_);fill:#FFFFFF;}
	.st88{clip-path:url(#SVGID_136_);fill:#FFFFFF;}
	.st89{clip-path:url(#SVGID_138_);fill:#FFFFFF;}
	.st90{clip-path:url(#SVGID_140_);fill:#FFFFFF;}
	.st91{clip-path:url(#SVGID_142_);fill:#FFFFFF;}
	.st92{clip-path:url(#SVGID_144_);fill:#FFFFFF;}
	.st93{clip-path:url(#SVGID_146_);fill:#FFFFFF;}
	.st94{clip-path:url(#SVGID_148_);fill:#FFFFFF;}
	.st95{clip-path:url(#SVGID_150_);fill:#FFFFFF;}
	.st96{clip-path:url(#SVGID_152_);fill:#FFFFFF;}
	.st97{clip-path:url(#SVGID_154_);fill:#FFFFFF;}
	.st98{clip-path:url(#SVGID_156_);fill:#FFFFFF;}
	.st99{clip-path:url(#SVGID_158_);fill:#FFFFFF;}
	.st100{clip-path:url(#SVGID_160_);fill:#FFFFFF;}
	.st101{clip-path:url(#SVGID_162_);fill:#FFFFFF;}
	.st102{clip-path:url(#SVGID_164_);fill:#FFFFFF;}
	.st103{clip-path:url(#SVGID_166_);fill:#FFFFFF;}
	.st104{fill:#F4D8C6;}
	.st105{fill:#004249;}
	.st106{opacity:0.75;}
	.st107{fill-rule:evenodd;clip-rule:evenodd;fill:#FFFFFF;}
	.st108{clip-path:url(#SVGID_168_);fill:#FF304A;}
	.st109{fill:#FBEAE2;}
	.st110{clip-path:url(#SVGID_170_);fill:#20201F;}
	.st111{clip-path:url(#SVGID_170_);}
	.st112{clip-path:url(#SVGID_170_);fill:#FFFFFF;}
	.st113{clip-path:url(#SVGID_172_);fill:#20201F;}
	.st114{clip-path:url(#SVGID_172_);}
	.st115{clip-path:url(#SVGID_172_);fill:#FFFFFF;}
	.st116{fill:#CB6858;}
	.st117{opacity:0.35;}
	.st118{clip-path:url(#SVGID_174_);fill:#FFFFFF;}
	.st119{clip-path:url(#SVGID_176_);fill:#FFFFFF;}
	.st120{fill:#FF383B;}
	.st121{fill:#3C3C3B;}
	.st122{fill:#5431FF;}
	.st123{fill:#F8CEB0;}
	.st124{fill:#1D1D1D;}
	.st125{fill:#EFB659;}
	.st126{fill:#003C54;}
	.st127{fill:#9D9D9C;}
	.st128{fill:#35261B;}
	.st129{fill:#F7CEAF;}
	.st130{fill:#CC6858;}
	.st131{fill:#DF806E;}
	.st132{fill:#004C92;}
	.st133{opacity:0.25;}
	.st134{clip-path:url(#SVGID_178_);fill:#FFFFFF;}
	.st135{clip-path:url(#SVGID_180_);fill:#FFFFFF;}
	.st136{clip-path:url(#SVGID_182_);fill:#FF304A;}
	.st137{clip-path:url(#SVGID_184_);fill:#FFDFBA;}
	.st138{clip-path:url(#SVGID_184_);fill:#0D274D;}
	.st139{clip-path:url(#SVGID_184_);fill:#FFEBD2;}
	.st140{clip-path:url(#SVGID_184_);fill:#42434D;}
	.st141{clip-path:url(#SVGID_184_);fill:#FFD6A6;}
	.st142{clip-path:url(#SVGID_184_);fill:#4D4E59;}
	.st143{clip-path:url(#SVGID_184_);fill:#FFF3E4;}
	.st144{fill:#F4A700;}
	.st145{clip-path:url(#SVGID_186_);fill:#FFDFBA;}
	.st146{clip-path:url(#SVGID_186_);fill:#0D274D;}
	.st147{clip-path:url(#SVGID_186_);fill:#FFEBD2;}
	.st148{clip-path:url(#SVGID_186_);fill:#FFFFFF;}
	.st149{clip-path:url(#SVGID_186_);fill:#FFD6A6;}
	.st150{clip-path:url(#SVGID_186_);fill:#FFF3E4;}
	.st151{clip-path:url(#SVGID_186_);fill:#42434D;}
	.st152{clip-path:url(#SVGID_188_);fill:#58F7FF;}
	.st153{clip-path:url(#SVGID_188_);fill:#27B9E5;}
	.st154{clip-path:url(#SVGID_188_);fill:#FFFFFF;}
	.st155{fill:#0E2DAF;}
	.st156{fill:#380E00;}
	.st157{fill:#5FA8FF;}
	.st158{fill:#00355E;}
	.st159{fill:#F2C8AD;}
	.st160{clip-path:url(#SVGID_190_);}
	.st161{clip-path:url(#SVGID_192_);}
	.st162{clip-path:url(#SVGID_194_);}
	.st163{clip-path:url(#SVGID_196_);}
	.st164{fill:#F8B395;}
	.st165{fill:#191712;}
	.st166{fill:#9B3A31;}
	.st167{fill:#0D101E;}
	.st168{fill:#60362F;}
	.st169{fill:#381F1B;}
	.st170{fill:#0047A8;stroke:#575756;stroke-width:0.25;stroke-miterlimit:10;}
	.st171{clip-path:url(#SVGID_198_);fill:#026847;}
	.st172{clip-path:url(#SVGID_198_);fill:#FFFFFF;}
	.st173{clip-path:url(#SVGID_198_);fill:#E52421;}
	.st174{clip-path:url(#SVGID_200_);fill:#006847;}
	.st175{clip-path:url(#SVGID_200_);fill:#ECE13C;}
	.st176{clip-path:url(#SVGID_200_);fill:#CF2011;}
	.st177{clip-path:url(#SVGID_202_);fill:#FFFFFF;}
	.st178{clip-path:url(#SVGID_202_);fill:#E52421;}
	.st179{clip-path:url(#SVGID_202_);fill:#0035A9;}
	.st180{clip-path:url(#SVGID_204_);fill:#F8CD16;}
	.st181{clip-path:url(#SVGID_204_);fill:#00388F;}
	.st182{clip-path:url(#SVGID_204_);fill:#CA1126;}
	.st183{clip-path:url(#SVGID_206_);fill:#E52421;}
	.st184{clip-path:url(#SVGID_206_);fill:#FFFFFF;}
	.st185{clip-path:url(#SVGID_208_);fill:#E52421;}
	.st186{clip-path:url(#SVGID_208_);fill:#FFFFFF;}
	.st187{clip-path:url(#SVGID_210_);fill:#026847;}
	.st188{clip-path:url(#SVGID_210_);fill:#FFFFFF;}
	.st189{clip-path:url(#SVGID_210_);fill:#E52421;}
	.st190{clip-path:url(#SVGID_212_);fill:#006847;}
	.st191{clip-path:url(#SVGID_212_);fill:#ECE13C;}
	.st192{clip-path:url(#SVGID_212_);fill:#CF2011;}
	.st193{clip-path:url(#SVGID_214_);fill:#FFFFFF;}
	.st194{clip-path:url(#SVGID_214_);fill:#E52421;}
	.st195{clip-path:url(#SVGID_214_);fill:#0035A9;}
	.st196{clip-path:url(#SVGID_216_);fill:#F8CD16;}
	.st197{clip-path:url(#SVGID_216_);fill:#00388F;}
	.st198{clip-path:url(#SVGID_216_);fill:#CA1126;}
	.st199{clip-path:url(#SVGID_218_);fill:#E52421;}
	.st200{clip-path:url(#SVGID_218_);fill:#FFFFFF;}
	.st201{clip-path:url(#SVGID_220_);fill:#E52421;}
	.st202{clip-path:url(#SVGID_220_);fill:#FFFFFF;}
	.st203{fill:#DADADA;}
	.st204{fill:none;}
	.st205{fill:#EE3224;}
	.st206{fill:#1D1D1B;}
	.st207{fill-rule:evenodd;clip-rule:evenodd;}
	.st208{fill:url(#SVGID_221_);}
	.st209{fill:url(#SVGID_222_);}
	.st210{fill:url(#SVGID_223_);}
	.st211{fill:#000100;}
	.st212{fill:#7F7C7A;}
	.st213{fill:#A5A6A4;}
	.st214{fill:#008851;}
	.st215{fill:#F3CB0C;}
	.st216{fill:#008292;}
	.st217{fill-rule:evenodd;clip-rule:evenodd;fill:#00629B;}
	.st218{fill:#FFF8F6;}
	.st219{clip-path:url(#SVGID_225_);}
	.st220{fill:#5C1A00;}
	.st221{fill:#004EA2;}
	.st222{fill:#C7B9AE;}
	.st223{fill:#D0D0D0;}
	.st224{fill:#003D41;}
	.st225{fill:#004446;}
	.st226{fill:#B2B2B2;}
	.st227{clip-path:url(#SVGID_226_);fill:#FFFFFF;}
	.st228{clip-path:url(#SVGID_227_);fill:#FFFFFF;}
	.st229{clip-path:url(#SVGID_229_);}
	.st230{fill:#E96600;}
	.st231{clip-path:url(#SVGID_230_);fill:#FFFFFF;}
	.st232{clip-path:url(#SVGID_231_);fill:#FFFFFF;}
	.st233{fill:#0684F2;}
	.st234{fill:#FF4E38;}
	.st235{fill:#00C65A;}
	.st236{opacity:0.25;fill:#0684F2;}
	.st237{fill:url(#SVGID_232_);}
	.st238{fill:url(#SVGID_233_);}
	.st239{fill:url(#SVGID_234_);}
	.st240{fill:url(#SVGID_235_);}
	.st241{opacity:0.2;enable-background:new    ;}
	.st242{opacity:0.12;enable-background:new    ;}
	.st243{opacity:0.25;fill:#FFFFFF;enable-background:new    ;}
	.st244{fill:#FFFFFF;stroke:#FFFFFF;stroke-width:0.2368;stroke-miterlimit:10;}
	.st245{fill:#292680;}
	.st246{fill:#949598;}
	.st247{fill:#F3B00F;}
	.st248{fill:#F7ECD9;}
	.st249{clip-path:url(#SVGID_237_);}
	.st250{fill:#25557C;}
	.st251{fill:#FFDBB4;}
	.st252{fill:#4C4136;}
	.st253{fill:#FF4F6D;}
	.st254{opacity:0.15;}
	.st255{clip-path:url(#SVGID_239_);}
	.st256{clip-path:url(#SVGID_241_);fill:#4C4136;}
	.st257{fill:#1F4768;}
	.st258{fill:#F4F4F4;}
	.st259{opacity:0.3;fill:#0684F2;}
	.st260{fill:url(#SVGID_242_);}
	.st261{fill:url(#SVGID_243_);}
	.st262{fill:none;stroke:#0684F2;stroke-width:0.75;stroke-miterlimit:10;}
	.st263{fill:none;stroke:#494949;stroke-width:0.5;stroke-miterlimit:10;}
	.st264{fill:none;stroke:#494949;stroke-width:0.5;stroke-linecap:round;stroke-linejoin:round;stroke-miterlimit:10;}
	.st265{clip-path:url(#SVGID_247_);fill:#026847;}
	.st266{clip-path:url(#SVGID_247_);fill:#FFFFFF;}
	.st267{clip-path:url(#SVGID_247_);fill:#E52421;}
	.st268{clip-path:url(#SVGID_249_);fill:#006847;}
	.st269{clip-path:url(#SVGID_249_);fill:#ECE13C;}
	.st270{clip-path:url(#SVGID_249_);fill:#CF2011;}
	.st271{clip-path:url(#SVGID_251_);fill:#F8CD16;}
	.st272{clip-path:url(#SVGID_251_);fill:#00388F;}
	.st273{clip-path:url(#SVGID_251_);fill:#CA1126;}
	.st274{clip-path:url(#SVGID_253_);fill:#E52421;}
	.st275{clip-path:url(#SVGID_253_);fill:#FFFFFF;}
	.st276{fill:#FF7523;}
	.st277{fill:#0454CA;}
	.st278{fill:#FF8800;}
	.st279{clip-path:url(#SVGID_255_);}
	.st280{fill:#E52421;}
	.st281{fill:none;stroke:#A69674;stroke-width:0.75;stroke-miterlimit:10;}
	.st282{clip-path:url(#SVGID_257_);}
	.st283{clip-path:url(#SVGID_259_);}
	.st284{clip-path:url(#SVGID_261_);fill:#026847;}
	.st285{clip-path:url(#SVGID_261_);fill:#FFFFFF;}
	.st286{clip-path:url(#SVGID_261_);fill:#E52421;}
	.st287{clip-path:url(#SVGID_263_);fill:#006847;}
	.st288{clip-path:url(#SVGID_263_);fill:#ECE13C;}
	.st289{clip-path:url(#SVGID_263_);fill:#CF2011;}
	.st290{clip-path:url(#SVGID_265_);fill:#FFFFFF;}
	.st291{clip-path:url(#SVGID_265_);fill:#E52421;}
	.st292{clip-path:url(#SVGID_265_);fill:#0035A9;}
	.st293{clip-path:url(#SVGID_267_);fill:#F8CD16;}
	.st294{clip-path:url(#SVGID_267_);fill:#00388F;}
	.st295{clip-path:url(#SVGID_267_);fill:#CA1126;}
	.st296{clip-path:url(#SVGID_269_);fill:#E52421;}
	.st297{clip-path:url(#SVGID_269_);fill:#FFFFFF;}
	.st298{clip-path:url(#SVGID_271_);fill:#E52421;}
	.st299{clip-path:url(#SVGID_271_);fill:#FFFFFF;}
	.st300{fill:#0035A9;}
	.st301{fill:#F8CD16;}
	.st302{fill:#00388F;}
	.st303{fill:#CA1126;}
	.st304{fill:#026847;}
	.st305{fill:#ECE13C;}
	.st306{fill:#006847;}
	.st307{fill:#CF2011;}
	.st308{fill:none;stroke:#DADADA;stroke-miterlimit:10;}
	.st309{clip-path:url(#SVGID_273_);}
	.st310{clip-path:url(#SVGID_275_);}
	.st311{clip-path:url(#SVGID_277_);}
	.st312{opacity:0.25;clip-path:url(#SVGID_279_);}
	.st313{clip-path:url(#SVGID_281_);fill:#0F1ADE;}
	.st314{clip-path:url(#SVGID_283_);fill:#0F1ADE;}
	.st315{opacity:0.5;clip-path:url(#SVGID_285_);}
	.st316{clip-path:url(#SVGID_287_);fill:#FFFFFF;}
	.st317{clip-path:url(#SVGID_289_);fill:#FFFFFF;}
	.st318{clip-path:url(#SVGID_291_);fill:#FFFFFF;}
	.st319{clip-path:url(#SVGID_293_);fill:#FFFFFF;}
	.st320{clip-path:url(#SVGID_295_);fill:#FFFFFF;}
	.st321{clip-path:url(#SVGID_297_);fill:#FFFFFF;}
	.st322{clip-path:url(#SVGID_299_);fill:#FFFFFF;}
	.st323{clip-path:url(#SVGID_301_);fill:#FFFFFF;}
	.st324{clip-path:url(#SVGID_303_);fill:#FFFFFF;}
	.st325{clip-path:url(#SVGID_305_);fill:#FFFFFF;}
	.st326{clip-path:url(#SVGID_307_);fill:#FFFFFF;}
	.st327{clip-path:url(#SVGID_309_);fill:#FFFFFF;}
	.st328{clip-path:url(#SVGID_311_);fill:#FFFFFF;}
	.st329{clip-path:url(#SVGID_313_);fill:#FFFFFF;}
	.st330{clip-path:url(#SVGID_315_);fill:#FFFFFF;}
	.st331{opacity:0.5;clip-path:url(#SVGID_317_);}
	.st332{clip-path:url(#SVGID_319_);fill:#FFFFFF;}
	.st333{clip-path:url(#SVGID_321_);fill:#FFFFFF;}
	.st334{clip-path:url(#SVGID_323_);fill:#FFFFFF;}
	.st335{clip-path:url(#SVGID_325_);fill:#FFFFFF;}
	.st336{clip-path:url(#SVGID_327_);fill:#FFFFFF;}
	.st337{clip-path:url(#SVGID_329_);fill:#FFFFFF;}
	.st338{clip-path:url(#SVGID_331_);fill:#FFFFFF;}
	.st339{clip-path:url(#SVGID_333_);fill:#FFFFFF;}
	.st340{clip-path:url(#SVGID_335_);fill:#FFFFFF;}
	.st341{clip-path:url(#SVGID_337_);fill:#FFFFFF;}
	.st342{clip-path:url(#SVGID_339_);fill:#FFFFFF;}
	.st343{clip-path:url(#SVGID_341_);fill:#FFFFFF;}
	.st344{clip-path:url(#SVGID_343_);fill:#FFFFFF;}
	.st345{clip-path:url(#SVGID_345_);fill:#FFFFFF;}
	.st346{clip-path:url(#SVGID_347_);fill:#FFFFFF;}
	.st347{clip-path:url(#SVGID_349_);fill:#FFFFFF;}
	.st348{clip-path:url(#SVGID_351_);fill:#FFFFFF;}
	.st349{clip-path:url(#SVGID_353_);}
	.st350{opacity:0.25;clip-path:url(#SVGID_355_);}
	.st351{clip-path:url(#SVGID_357_);fill:#0F1ADE;}
	.st352{clip-path:url(#SVGID_359_);fill:#0F1ADE;}
	.st353{opacity:0.5;clip-path:url(#SVGID_361_);}
	.st354{clip-path:url(#SVGID_363_);fill:#FFFFFF;}
	.st355{clip-path:url(#SVGID_365_);fill:#FFFFFF;}
	.st356{clip-path:url(#SVGID_367_);fill:#FFFFFF;}
	.st357{clip-path:url(#SVGID_369_);fill:#FFFFFF;}
	.st358{clip-path:url(#SVGID_371_);fill:#FFFFFF;}
	.st359{clip-path:url(#SVGID_373_);fill:#FFFFFF;}
	.st360{clip-path:url(#SVGID_375_);fill:#FFFFFF;}
	.st361{clip-path:url(#SVGID_377_);fill:#FFFFFF;}
	.st362{clip-path:url(#SVGID_379_);fill:#FFFFFF;}
	.st363{clip-path:url(#SVGID_381_);fill:#FFFFFF;}
	.st364{clip-path:url(#SVGID_383_);fill:#FFFFFF;}
	.st365{clip-path:url(#SVGID_385_);fill:#FFFFFF;}
	.st366{clip-path:url(#SVGID_387_);fill:#FFFFFF;}
	.st367{clip-path:url(#SVGID_389_);fill:#FFFFFF;}
	.st368{clip-path:url(#SVGID_391_);fill:#FFFFFF;}
	.st369{opacity:0.5;clip-path:url(#SVGID_393_);}
	.st370{clip-path:url(#SVGID_395_);fill:#FFFFFF;}
	.st371{clip-path:url(#SVGID_397_);fill:#FFFFFF;}
	.st372{clip-path:url(#SVGID_399_);fill:#FFFFFF;}
	.st373{clip-path:url(#SVGID_401_);fill:#FFFFFF;}
	.st374{clip-path:url(#SVGID_403_);fill:#FFFFFF;}
	.st375{clip-path:url(#SVGID_405_);fill:#FFFFFF;}
	.st376{clip-path:url(#SVGID_407_);fill:#FFFFFF;}
	.st377{clip-path:url(#SVGID_409_);fill:#FFFFFF;}
	.st378{clip-path:url(#SVGID_411_);fill:#FFFFFF;}
	.st379{clip-path:url(#SVGID_413_);fill:#FFFFFF;}
	.st380{clip-path:url(#SVGID_415_);fill:#FFFFFF;}
	.st381{clip-path:url(#SVGID_417_);fill:#FFFFFF;}
	.st382{clip-path:url(#SVGID_419_);fill:#FFFFFF;}
	.st383{clip-path:url(#SVGID_421_);fill:#FFFFFF;}
	.st384{clip-path:url(#SVGID_423_);fill:#FFFFFF;}
	.st385{clip-path:url(#SVGID_425_);fill:#FFFFFF;}
	.st386{clip-path:url(#SVGID_427_);fill:#FFFFFF;}
	.st387{clip-path:url(#SVGID_429_);fill:#FF304A;}
	.st388{clip-path:url(#SVGID_431_);fill:#20201F;}
	.st389{clip-path:url(#SVGID_431_);}
	.st390{clip-path:url(#SVGID_431_);fill:#FFFFFF;}
	.st391{clip-path:url(#SVGID_433_);fill:#20201F;}
	.st392{clip-path:url(#SVGID_433_);}
	.st393{clip-path:url(#SVGID_433_);fill:#FFFFFF;}
	.st394{clip-path:url(#SVGID_435_);fill:#FFFFFF;}
	.st395{clip-path:url(#SVGID_437_);fill:#FFFFFF;}
	.st396{clip-path:url(#SVGID_439_);fill:#FFFFFF;}
	.st397{clip-path:url(#SVGID_441_);fill:#FFFFFF;}
	.st398{clip-path:url(#SVGID_443_);fill:#FF304A;}
	.st399{clip-path:url(#SVGID_445_);fill:#FFDFBA;}
	.st400{clip-path:url(#SVGID_445_);fill:#0D274D;}
	.st401{clip-path:url(#SVGID_445_);fill:#FFEBD2;}
	.st402{clip-path:url(#SVGID_445_);fill:#42434D;}
	.st403{clip-path:url(#SVGID_445_);fill:#FFD6A6;}
	.st404{clip-path:url(#SVGID_445_);fill:#4D4E59;}
	.st405{clip-path:url(#SVGID_445_);fill:#FFF3E4;}
	.st406{clip-path:url(#SVGID_447_);fill:#FFDFBA;}
	.st407{clip-path:url(#SVGID_447_);fill:#0D274D;}
	.st408{clip-path:url(#SVGID_447_);fill:#FFEBD2;}
	.st409{clip-path:url(#SVGID_447_);fill:#FFFFFF;}
	.st410{clip-path:url(#SVGID_447_);fill:#FFD6A6;}
	.st411{clip-path:url(#SVGID_447_);fill:#FFF3E4;}
	.st412{clip-path:url(#SVGID_447_);fill:#42434D;}
	.st413{clip-path:url(#SVGID_449_);fill:#58F7FF;}
	.st414{clip-path:url(#SVGID_449_);fill:#27B9E5;}
	.st415{clip-path:url(#SVGID_449_);fill:#FFFFFF;}
	.st416{clip-path:url(#SVGID_451_);}
	.st417{clip-path:url(#SVGID_453_);}
	.st418{clip-path:url(#SVGID_455_);}
	.st419{clip-path:url(#SVGID_457_);}
	.st420{clip-path:url(#SVGID_459_);}
	.st421{clip-path:url(#SVGID_461_);}
	.st422{clip-path:url(#SVGID_463_);}
	.st423{opacity:0.25;clip-path:url(#SVGID_465_);}
	.st424{clip-path:url(#SVGID_467_);fill:#0F1ADE;}
	.st425{clip-path:url(#SVGID_469_);fill:#0F1ADE;}
	.st426{opacity:0.5;clip-path:url(#SVGID_471_);}
	.st427{clip-path:url(#SVGID_473_);fill:#FFFFFF;}
	.st428{clip-path:url(#SVGID_475_);fill:#FFFFFF;}
	.st429{clip-path:url(#SVGID_477_);fill:#FFFFFF;}
	.st430{clip-path:url(#SVGID_479_);fill:#FFFFFF;}
	.st431{clip-path:url(#SVGID_481_);fill:#FFFFFF;}
	.st432{clip-path:url(#SVGID_483_);fill:#FFFFFF;}
	.st433{clip-path:url(#SVGID_485_);fill:#FFFFFF;}
	.st434{clip-path:url(#SVGID_487_);fill:#FFFFFF;}
	.st435{clip-path:url(#SVGID_489_);fill:#FFFFFF;}
	.st436{clip-path:url(#SVGID_491_);fill:#FFFFFF;}
	.st437{clip-path:url(#SVGID_493_);fill:#FFFFFF;}
	.st438{clip-path:url(#SVGID_495_);fill:#FFFFFF;}
	.st439{clip-path:url(#SVGID_497_);fill:#FFFFFF;}
	.st440{clip-path:url(#SVGID_499_);fill:#FFFFFF;}
	.st441{clip-path:url(#SVGID_501_);fill:#FFFFFF;}
	.st442{opacity:0.5;clip-path:url(#SVGID_503_);}
	.st443{clip-path:url(#SVGID_505_);fill:#FFFFFF;}
	.st444{clip-path:url(#SVGID_507_);fill:#FFFFFF;}
	.st445{clip-path:url(#SVGID_509_);fill:#FFFFFF;}
	.st446{clip-path:url(#SVGID_511_);fill:#FFFFFF;}
	.st447{clip-path:url(#SVGID_513_);fill:#FFFFFF;}
	.st448{clip-path:url(#SVGID_515_);fill:#FFFFFF;}
	.st449{clip-path:url(#SVGID_517_);fill:#FFFFFF;}
	.st450{clip-path:url(#SVGID_519_);fill:#FFFFFF;}
	.st451{clip-path:url(#SVGID_521_);fill:#FFFFFF;}
	.st452{clip-path:url(#SVGID_523_);fill:#FFFFFF;}
	.st453{clip-path:url(#SVGID_525_);fill:#FFFFFF;}
	.st454{clip-path:url(#SVGID_527_);fill:#FFFFFF;}
	.st455{clip-path:url(#SVGID_529_);fill:#FFFFFF;}
	.st456{clip-path:url(#SVGID_531_);fill:#FFFFFF;}
	.st457{clip-path:url(#SVGID_533_);fill:#FFFFFF;}
	.st458{clip-path:url(#SVGID_535_);fill:#FFFFFF;}
	.st459{clip-path:url(#SVGID_537_);fill:#FFFFFF;}
	.st460{clip-path:url(#SVGID_539_);}
	.st461{opacity:0.25;clip-path:url(#SVGID_541_);}
	.st462{clip-path:url(#SVGID_543_);fill:#0F1ADE;}
	.st463{clip-path:url(#SVGID_545_);fill:#0F1ADE;}
	.st464{opacity:0.5;clip-path:url(#SVGID_547_);}
	.st465{clip-path:url(#SVGID_549_);fill:#FFFFFF;}
	.st466{clip-path:url(#SVGID_551_);fill:#FFFFFF;}
	.st467{clip-path:url(#SVGID_553_);fill:#FFFFFF;}
	.st468{clip-path:url(#SVGID_555_);fill:#FFFFFF;}
	.st469{clip-path:url(#SVGID_557_);fill:#FFFFFF;}
	.st470{clip-path:url(#SVGID_559_);fill:#FFFFFF;}
	.st471{clip-path:url(#SVGID_561_);fill:#FFFFFF;}
	.st472{clip-path:url(#SVGID_563_);fill:#FFFFFF;}
	.st473{clip-path:url(#SVGID_565_);fill:#FFFFFF;}
	.st474{clip-path:url(#SVGID_567_);fill:#FFFFFF;}
	.st475{clip-path:url(#SVGID_569_);fill:#FFFFFF;}
	.st476{clip-path:url(#SVGID_571_);fill:#FFFFFF;}
	.st477{clip-path:url(#SVGID_573_);fill:#FFFFFF;}
	.st478{clip-path:url(#SVGID_575_);fill:#FFFFFF;}
	.st479{clip-path:url(#SVGID_577_);fill:#FFFFFF;}
	.st480{opacity:0.5;clip-path:url(#SVGID_579_);}
	.st481{clip-path:url(#SVGID_581_);fill:#FFFFFF;}
	.st482{clip-path:url(#SVGID_583_);fill:#FFFFFF;}
	.st483{clip-path:url(#SVGID_585_);fill:#FFFFFF;}
	.st484{clip-path:url(#SVGID_587_);fill:#FFFFFF;}
	.st485{clip-path:url(#SVGID_589_);fill:#FFFFFF;}
	.st486{clip-path:url(#SVGID_591_);fill:#FFFFFF;}
	.st487{clip-path:url(#SVGID_593_);fill:#FFFFFF;}
	.st488{clip-path:url(#SVGID_595_);fill:#FFFFFF;}
	.st489{clip-path:url(#SVGID_597_);fill:#FFFFFF;}
	.st490{clip-path:url(#SVGID_599_);fill:#FFFFFF;}
	.st491{clip-path:url(#SVGID_601_);fill:#FFFFFF;}
	.st492{clip-path:url(#SVGID_603_);fill:#FFFFFF;}
	.st493{clip-path:url(#SVGID_605_);fill:#FFFFFF;}
	.st494{clip-path:url(#SVGID_607_);fill:#FFFFFF;}
	.st495{clip-path:url(#SVGID_609_);fill:#FFFFFF;}
	.st496{clip-path:url(#SVGID_611_);fill:#FFFFFF;}
	.st497{clip-path:url(#SVGID_613_);fill:#FFFFFF;}
	.st498{clip-path:url(#SVGID_615_);fill:#FF304A;}
	.st499{clip-path:url(#SVGID_617_);fill:#20201F;}
	.st500{clip-path:url(#SVGID_617_);}
	.st501{clip-path:url(#SVGID_617_);fill:#FFFFFF;}
	.st502{clip-path:url(#SVGID_619_);fill:#20201F;}
	.st503{clip-path:url(#SVGID_619_);}
	.st504{clip-path:url(#SVGID_619_);fill:#FFFFFF;}
	.st505{clip-path:url(#SVGID_621_);fill:#FFFFFF;}
	.st506{clip-path:url(#SVGID_623_);fill:#FFFFFF;}
	.st507{clip-path:url(#SVGID_625_);fill:#FFFFFF;}
	.st508{clip-path:url(#SVGID_627_);fill:#FFFFFF;}
	.st509{clip-path:url(#SVGID_629_);fill:#FF304A;}
	.st510{clip-path:url(#SVGID_631_);fill:#FFDFBA;}
	.st511{clip-path:url(#SVGID_631_);fill:#0D274D;}
	.st512{clip-path:url(#SVGID_631_);fill:#FFEBD2;}
	.st513{clip-path:url(#SVGID_631_);fill:#42434D;}
	.st514{clip-path:url(#SVGID_631_);fill:#FFD6A6;}
	.st515{clip-path:url(#SVGID_631_);fill:#4D4E59;}
	.st516{clip-path:url(#SVGID_631_);fill:#FFF3E4;}
	.st517{clip-path:url(#SVGID_633_);fill:#FFDFBA;}
	.st518{clip-path:url(#SVGID_633_);fill:#0D274D;}
	.st519{clip-path:url(#SVGID_633_);fill:#FFEBD2;}
	.st520{clip-path:url(#SVGID_633_);fill:#FFFFFF;}
	.st521{clip-path:url(#SVGID_633_);fill:#FFD6A6;}
	.st522{clip-path:url(#SVGID_633_);fill:#FFF3E4;}
	.st523{clip-path:url(#SVGID_633_);fill:#42434D;}
	.st524{clip-path:url(#SVGID_635_);fill:#58F7FF;}
	.st525{clip-path:url(#SVGID_635_);fill:#27B9E5;}
	.st526{clip-path:url(#SVGID_635_);fill:#FFFFFF;}
	.st527{clip-path:url(#SVGID_637_);}
	.st528{clip-path:url(#SVGID_639_);}
	.st529{clip-path:url(#SVGID_641_);}
	.st530{clip-path:url(#SVGID_643_);}
	.st531{fill:url(#SVGID_644_);}
	.st532{fill:url(#SVGID_645_);}
	.st533{fill:url(#SVGID_646_);}
	.st534{clip-path:url(#SVGID_648_);}
	.st535{clip-path:url(#SVGID_649_);fill:#FFFFFF;}
	.st536{clip-path:url(#SVGID_650_);fill:#FFFFFF;}
	.st537{clip-path:url(#SVGID_652_);}
	.st538{clip-path:url(#SVGID_653_);fill:#FFFFFF;}
	.st539{clip-path:url(#SVGID_654_);fill:#FFFFFF;}
	.st540{fill:url(#SVGID_655_);}
	.st541{fill:url(#SVGID_656_);}
	.st542{fill:url(#SVGID_657_);}
	.st543{fill:url(#SVGID_658_);}
	.st544{clip-path:url(#SVGID_660_);}
	.st545{clip-path:url(#SVGID_662_);}
	.st546{clip-path:url(#SVGID_664_);fill:#4C4136;}
	.st547{fill:url(#SVGID_665_);}
	.st548{fill:url(#SVGID_666_);}
	.st549{clip-path:url(#SVGID_670_);fill:#026847;}
	.st550{clip-path:url(#SVGID_670_);fill:#FFFFFF;}
	.st551{clip-path:url(#SVGID_670_);fill:#E52421;}
	.st552{clip-path:url(#SVGID_672_);fill:#006847;}
	.st553{clip-path:url(#SVGID_672_);fill:#ECE13C;}
	.st554{clip-path:url(#SVGID_672_);fill:#CF2011;}
	.st555{clip-path:url(#SVGID_674_);fill:#F8CD16;}
	.st556{clip-path:url(#SVGID_674_);fill:#00388F;}
	.st557{clip-path:url(#SVGID_674_);fill:#CA1126;}
	.st558{clip-path:url(#SVGID_676_);fill:#E52421;}
	.st559{clip-path:url(#SVGID_676_);fill:#FFFFFF;}
	.st560{clip-path:url(#SVGID_678_);}
	.st561{fill:#0AAFF1;}
</style>
<g id="base">
	<g>
		<path class="st233" d="M40.81,81.63C18.31,81.63,0,63.32,0,40.81S18.31,0,40.81,0s40.81,18.31,40.81,40.81
			S63.32,81.63,40.81,81.63z M40.81,0.5C18.58,0.5,0.5,18.58,0.5,40.81s18.08,40.31,40.31,40.31s40.31-18.08,40.31-40.31
			S63.04,0.5,40.81,0.5z"/>
		<path class="st233" d="M60.35,37.65c0.28,0,0.5-0.22,0.5-0.5v-5.41c0-0.28-0.22-0.5-0.5-0.5s-0.5,0.22-0.5,0.5v5.41
			C59.85,37.43,60.08,37.65,60.35,37.65z"/>
		<path class="st233" d="M69.08,47.57c-0.39-2.25-4.04-8.23-4.63-9.19V24.12c0-3.02-2.46-5.48-5.48-5.48h-1.12H23.79h-1.12
			c-3.02,0-5.48,2.46-5.48,5.48v14.26c-0.59,0.96-4.25,6.94-4.63,9.19c-0.43,2.51,3.17,12.35,4.38,15.13
			c0.08,0.19,0.27,0.3,0.46,0.3c0.07,0,0.13-0.01,0.2-0.04c0.19-0.08,0.3-0.27,0.3-0.46c0-0.07-0.01-0.13-0.04-0.2
			c-1.49-3.44-4.66-12.5-4.31-14.56c0.27-1.55,2.39-5.3,3.65-7.42v3.73c0,1.83,0.62,4.1,2.01,5.07c0.79,0.55,1.77,0.64,2.82,0.25
			c1.33-0.5,2.43-1.85,3.49-3.16c1.71-2.12,2.86-3.34,4.29-2.48c0.41,0.24,0.64,0.56,0.72,0.95c0.28,1.48-1.58,3.9-2.69,5.35
			c-0.53,0.69-0.91,1.19-1.06,1.53c-0.3,0.7-0.3,2.19-0.27,4.76c0.02,1.97,0.05,4.21-0.15,6.12c0,0.02,0,0.03,0,0.05
			c0,0.25,0.19,0.47,0.44,0.5c0.29,0.03,0.52-0.17,0.55-0.45c0.2-1.97,0.17-4.24,0.15-6.24c-0.02-1.88-0.04-3.82,0.19-4.36
			c0.1-0.23,0.5-0.76,0.93-1.32c0.09-0.12,0.19-0.25,0.29-0.38h23.81c0.1,0.13,0.2,0.26,0.29,0.38c0.43,0.56,0.83,1.09,0.93,1.32
			c0.23,0.55,0.21,2.49,0.19,4.36c-0.02,2-0.05,4.27,0.15,6.24c0.03,0.27,0.27,0.47,0.55,0.45c0.26-0.03,0.44-0.24,0.44-0.5
			c0-0.02,0.01-0.03,0-0.05c-0.19-1.91-0.17-4.15-0.15-6.12c0.03-2.57,0.03-4.06-0.27-4.76c-0.15-0.35-0.53-0.84-1.06-1.53
			c-1.11-1.45-2.97-3.87-2.69-5.35c0.08-0.4,0.31-0.71,0.72-0.95c1.43-0.86,2.58,0.36,4.29,2.48c1.06,1.31,2.16,2.66,3.49,3.16
			c1.05,0.39,2.02,0.31,2.82-0.25c1.39-0.96,2.01-3.24,2.01-5.07v-3.73c1.26,2.12,3.38,5.87,3.65,7.42
			c0.35,2.05-2.82,11.12-4.31,14.56c-0.03,0.06-0.04,0.13-0.04,0.2c0,0.19,0.11,0.38,0.3,0.46c0.06,0.03,0.13,0.04,0.2,0.04
			c0.19,0,0.38-0.11,0.46-0.3C65.91,59.91,69.51,50.08,69.08,47.57z M63.45,24.12v14.4v5.52c0,0.9-0.18,1.95-0.54,2.82
			c-0.36,0.67-0.86,1.24-1.49,1.65c-0.42,0.14-0.9,0.11-1.45-0.09c-0.56-0.21-1.1-0.64-1.62-1.18V19.63h0.62
			C61.43,19.63,63.45,21.65,63.45,24.12z M18.18,24.12c0-2.47,2.01-4.48,4.48-4.48h0.62v27.61c-0.53,0.54-1.07,0.97-1.62,1.18
			c-0.55,0.2-1.02,0.23-1.45,0.09c-0.63-0.41-1.13-0.99-1.49-1.65c-0.36-0.87-0.54-1.92-0.54-2.82v-5.52V24.12z M29.65,49.25
			c1.08-1.52,2.12-3.31,1.84-4.76c-0.13-0.68-0.53-1.23-1.18-1.62c-2.28-1.37-4.04,0.79-5.58,2.7c-0.15,0.18-0.29,0.36-0.44,0.54
			V19.63h33.06v26.48c-0.15-0.18-0.29-0.36-0.44-0.54c-1.55-1.91-3.3-4.07-5.58-2.7c-0.66,0.39-1.05,0.94-1.18,1.62
			c-0.28,1.45,0.76,3.24,1.84,4.76H29.65z"/>
		<path class="st233" d="M54.85,31.75c0-0.28-0.22-0.5-0.5-0.5h-8.3c-0.28,0-0.5,0.22-0.5,0.5v8.11h-3.21v-3.89
			c0-0.28-0.22-0.5-0.5-0.5h-4.51c-0.28,0-0.5,0.22-0.5,0.5v3.89h-9.55c-0.28,0-0.5,0.22-0.5,0.5s0.22,0.5,0.5,0.5h10.05
			c0.28,0,0.5-0.22,0.5-0.5v-3.89h3.51v3.89c0,0.28,0.22,0.5,0.5,0.5h4.21c0.28,0,0.5-0.22,0.5-0.5v-8.11h7.8
			C54.63,32.25,54.85,32.03,54.85,31.75z"/>
		<path class="st233" d="M29.9,38.54c-0.22,0.16-0.27,0.48-0.11,0.7c0.1,0.13,0.25,0.2,0.4,0.2c0.1,0,0.21-0.03,0.3-0.1l1.67-1.23
			l1.78,1.31c0.09,0.07,0.19,0.1,0.3,0.1c0.15,0,0.3-0.07,0.4-0.2c0.16-0.22,0.12-0.54-0.11-0.7l-1.82-1.34v-1.86
			c1.07-0.23,1.87-1.18,1.87-2.32c0-1.31-1.06-2.37-2.37-2.37s-2.37,1.06-2.37,2.37c0,1.14,0.8,2.09,1.87,2.32v1.78L29.9,38.54z
			 M30.85,33.1c0-0.76,0.62-1.37,1.37-1.37c0.76,0,1.37,0.62,1.37,1.37c0,0.76-0.62,1.37-1.37,1.37
			C31.46,34.48,30.85,33.86,30.85,33.1z"/>
		<path class="st233" d="M39.52,32.55c0.93,0,1.68-0.75,1.68-1.68c0-0.93-0.75-1.68-1.68-1.68s-1.68,0.75-1.68,1.68
			C37.84,31.8,38.59,32.55,39.52,32.55z M39.52,30.2c0.37,0,0.68,0.3,0.68,0.68s-0.3,0.68-0.68,0.68s-0.68-0.3-0.68-0.68
			S39.14,30.2,39.52,30.2z"/>
		<path class="st233" d="M47.05,27.52c0.93,0,1.68-0.75,1.68-1.68s-0.75-1.68-1.68-1.68c-0.92,0-1.68,0.75-1.68,1.68
			S46.12,27.52,47.05,27.52z M47.05,25.16c0.37,0,0.68,0.3,0.68,0.68s-0.3,0.68-0.68,0.68s-0.68-0.3-0.68-0.68
			S46.67,25.16,47.05,25.16z"/>
		<path class="st233" d="M52.16,27.51c0.92,0,1.68-0.75,1.68-1.68c0-0.92-0.75-1.68-1.68-1.68c-0.93,0-1.68,0.75-1.68,1.68
			C50.48,26.76,51.23,27.51,52.16,27.51z M52.16,25.16c0.37,0,0.68,0.3,0.68,0.68s-0.3,0.68-0.68,0.68s-0.68-0.3-0.68-0.68
			S51.78,25.16,52.16,25.16z"/>
	</g>
</g>
<g id="guías">
</g>
</svg>
